M48
; DRILL file {KiCad (5.1.4)-1} date 30.04.2021 21:29:33
; FORMAT={-:-/ absolute / inch / decimal}
; #@! TF.CreationDate,2021-04-30T21:29:33+02:00
; #@! TF.GenerationSoftware,Kicad,Pcbnew,(5.1.4)-1
; #@! TF.FileFunction,Plated,1,2,PTH
FMAT,2
INCH
T1C0.0157
T2C0.0197
T3C0.0315
T4C0.0335
T5C0.0350
T6C0.0394
T7C0.0618
T8C0.0791
T9C0.1260
%
G90
G05
T1
X3.8Y-4.675
X3.9Y-4.675
X4.0Y-4.675
X4.1Y-4.675
X4.2Y-4.675
X4.725Y-3.925
X4.725Y-4.175
X4.725Y-4.475
X4.725Y-4.525
X4.75Y-2.15
X4.75Y-2.35
X4.75Y-3.735
X4.8Y-4.35
X4.84Y-2.795
X4.84Y-2.985
X4.875Y-3.415
X4.875Y-3.47
X4.875Y-3.525
X4.875Y-3.8
X4.95Y-4.35
X4.975Y-2.35
X4.975Y-3.175
X4.975Y-4.5
X5.05Y-2.975
X5.05Y-4.525
X5.075Y-4.475
X5.1Y-4.425
X5.15Y-2.775
X5.15Y-4.15
X5.15Y-4.575
X5.155Y-4.23
X5.175Y-4.275
X5.18Y-3.4
X5.2Y-4.125
X5.27Y-3.71
X5.275Y-2.1
X5.275Y-2.35
X5.275Y-3.05
X5.275Y-3.1
X5.275Y-4.175
X5.29Y-3.75
X5.3Y-3.375
X5.3Y-4.075
X5.315Y-3.455
X5.325Y-4.2
X5.33Y-3.775
X5.35Y-2.8
X5.35Y-3.825
X5.35Y-4.1
X5.375Y-4.225
X5.4Y-3.375
X5.425Y-3.875
X5.43Y-3.72
X5.445Y-3.765
X5.45Y-4.6
X5.465Y-4.275
X5.47Y-3.81
X5.475Y-3.925
X5.495Y-3.86
X5.5Y-2.35
X5.5Y-4.15
X5.525Y-3.905
X5.55Y-4.15
X5.565Y-3.72
X5.575Y-4.275
X5.6Y-4.625
X5.605Y-3.94
X5.62Y-3.38
X5.625Y-2.925
X5.625Y-3.0
X5.65Y-3.825
X5.675Y-2.575
X5.675Y-3.875
X5.675Y-4.07
X5.675Y-4.2
X5.725Y-2.1
X5.725Y-4.0
X5.725Y-4.2
X5.75Y-3.95
X5.755Y-3.8
X5.775Y-3.85
X5.775Y-4.2
X5.785Y-4.28
X5.8Y-3.75
X5.8Y-4.125
X5.825Y-3.8
X5.825Y-4.2
X5.825Y-4.425
X5.835Y-3.535
X5.835Y-4.005
X5.85Y-4.125
X5.865Y-3.735
X5.875Y-2.95
X5.875Y-3.025
X5.875Y-4.425
X5.9Y-3.98
X5.9Y-4.25
X5.925Y-2.35
X5.925Y-2.575
X5.925Y-4.425
X5.95Y-4.325
X5.975Y-4.4
X6.0Y-2.9
X6.025Y-3.7
X6.05Y-4.4
X6.1Y-2.1
X6.1Y-3.975
X6.1Y-4.325
X6.105Y-3.495
X6.125Y-2.9
X6.125Y-4.52
X6.15Y-4.375
X6.175Y-4.025
X6.18Y-3.76
X6.185Y-3.165
X6.275Y-4.1
X6.28Y-3.495
X6.35Y-2.9
X6.35Y-4.525
X6.425Y-2.35
X6.45Y-3.845
X6.45Y-4.6
X6.52Y-4.245
X6.525Y-4.5
X6.56Y-3.675
X6.6Y-3.335
X6.625Y-2.65
X6.625Y-2.8
X6.625Y-4.6
X6.635Y-3.8
X6.65Y-3.675
X6.65Y-3.725
X6.65Y-4.25
X6.715Y-3.085
X6.75Y-2.1
X6.75Y-2.35
X6.775Y-3.885
X6.775Y-4.3
X6.8Y-3.375
X6.8Y-3.425
X6.8Y-3.525
X6.8Y-3.575
X6.8Y-3.675
X6.8Y-3.725
X6.875Y-4.45
X6.9Y-2.95
X6.925Y-4.45
X6.95Y-2.35
X6.965Y-4.16
X7.025Y-3.125
X7.025Y-3.425
X7.025Y-3.525
X7.03Y-3.675
X7.05Y-2.425
X7.075Y-2.475
X7.075Y-4.275
X7.075Y-4.325
X7.085Y-4.515
X7.1Y-3.9
X7.125Y-2.75
X7.125Y-2.95
X7.125Y-4.275
X7.125Y-4.325
X7.215Y-4.16
X7.225Y-4.45
X7.275Y-2.3
X7.325Y-3.725
X7.325Y-4.325
X7.345Y-4.565
X7.35Y-3.605
X7.375Y-2.15
X7.375Y-3.1
X7.375Y-3.175
X7.41Y-2.575
X7.41Y-2.71
X7.475Y-2.3
X7.5Y-2.825
X7.5Y-2.925
X7.525Y-3.35
X7.55Y-2.15
X7.6Y-4.425
X7.625Y-2.3
X7.675Y-2.975
X7.7Y-2.15
X7.775Y-2.3
X7.84Y-4.425
X7.85Y-4.625
X7.9Y-2.15
X7.9Y-2.5
X7.9Y-2.575
X7.9Y-2.65
X8.0Y-2.3
X8.075Y-2.55
X8.075Y-3.4
X8.075Y-4.175
X8.1Y-2.6
X8.125Y-3.525
X8.175Y-2.5
X8.175Y-2.55
X8.225Y-2.525
X8.25Y-4.5
X8.3Y-2.275
X8.325Y-2.05
X8.35Y-4.325
X8.5Y-3.525
X8.525Y-2.575
X8.525Y-3.9
X8.525Y-4.325
X8.55Y-2.05
X8.6Y-3.025
T2
X8.413Y-2.3441
X8.4407Y-2.2773
X8.4407Y-2.4109
X8.5075Y-2.2496
X8.5075Y-2.4386
X8.5743Y-2.2773
X8.5743Y-2.4109
X8.602Y-2.3441
X8.413Y-4.5691
X8.4407Y-4.5023
X8.4407Y-4.6359
X8.5075Y-4.4746
X8.5075Y-4.6636
X8.5743Y-4.5023
X8.5743Y-4.6359
X8.602Y-4.5691
T3
X6.9Y-2.2
X6.9Y-2.5
X7.0Y-2.2
X7.0Y-2.5
X6.225Y-2.2
X6.225Y-2.5
X6.325Y-2.2
X6.325Y-2.5
X6.425Y-2.2
X6.425Y-2.5
X6.525Y-2.2
X6.525Y-2.5
X6.625Y-2.2
X6.625Y-2.5
X4.825Y-2.2
X4.825Y-2.5
X4.925Y-2.2
X4.925Y-2.5
X5.025Y-2.2
X5.025Y-2.5
X5.125Y-2.2
X5.125Y-2.5
X5.4Y-2.2
X5.4Y-2.5
X5.5Y-2.2
X5.5Y-2.5
X5.6Y-2.2
X5.6Y-2.5
X4.825Y-2.675
X4.825Y-3.275
X4.925Y-2.675
X4.925Y-3.275
X5.025Y-2.675
X5.025Y-3.275
X5.125Y-2.675
X5.125Y-3.275
X5.225Y-2.675
X5.225Y-3.275
X5.325Y-2.675
X5.325Y-3.275
X5.425Y-2.675
X5.425Y-3.275
X5.525Y-2.675
X5.525Y-3.275
X5.625Y-2.675
X5.625Y-3.275
X5.725Y-2.675
X5.725Y-3.275
X5.825Y-2.675
X5.825Y-3.275
X5.925Y-2.675
X5.925Y-3.275
X6.025Y-2.675
X6.025Y-3.275
X6.125Y-2.675
X6.125Y-3.275
X6.225Y-2.675
X6.225Y-3.275
X6.325Y-2.675
X6.325Y-3.275
X7.5Y-3.6
X7.5Y-3.7
X7.5Y-3.8
X7.5Y-3.9
X7.5Y-4.0
X7.5Y-4.1
X7.5Y-4.2
X7.5Y-4.3
X7.8Y-3.6
X7.8Y-3.7
X7.8Y-3.8
X7.8Y-3.9
X7.8Y-4.0
X7.8Y-4.1
X7.8Y-4.2
X7.8Y-4.3
X5.875Y-2.2
X5.875Y-2.5
X5.975Y-2.2
X5.975Y-2.5
X6.1829Y-3.475
X6.375Y-3.475
T4
X6.55Y-3.85
X6.55Y-3.95
X6.55Y-4.05
X6.55Y-4.15
T5
X8.1752Y-2.7701
X8.1752Y-2.8602
X8.1752Y-3.2201
X8.1752Y-3.3102
X8.3649Y-2.9402
X8.3649Y-3.0205
X8.3649Y-3.1008
X8.3649Y-3.1811
X8.435Y-2.9
X8.435Y-2.9803
X8.435Y-3.0606
X8.435Y-3.1409
X8.175Y-3.8
X8.175Y-3.9
T6
X4.7Y-2.05
X4.85Y-4.575
X4.9Y-3.075
X7.0Y-4.475
X7.3Y-4.0
X7.4Y-4.175
X7.475Y-4.55
X7.7Y-4.55
T7
X8.4Y-2.7201
X8.4Y-3.3602
T8
X8.375Y-3.7
X8.375Y-4.1
T9
X8.5075Y-2.3441
X8.5075Y-4.5691
T0
M30
