G04 #@! TF.GenerationSoftware,KiCad,Pcbnew,(5.1.4)-1*
G04 #@! TF.CreationDate,2021-04-18T00:02:26+02:00*
G04 #@! TF.ProjectId,NE2000,4e453230-3030-42e6-9b69-6361645f7063,rev?*
G04 #@! TF.SameCoordinates,Original*
G04 #@! TF.FileFunction,Soldermask,Bot*
G04 #@! TF.FilePolarity,Negative*
%FSLAX46Y46*%
G04 Gerber Fmt 4.6, Leading zero omitted, Abs format (unit mm)*
G04 Created by KiCad (PCBNEW (5.1.4)-1) date 2021-04-18 00:02:26*
%MOMM*%
%LPD*%
G04 APERTURE LIST*
%ADD10C,0.100000*%
G04 APERTURE END LIST*
D10*
G36*
X168641000Y-127601000D02*
G01*
X166759000Y-127601000D01*
X166759000Y-119879000D01*
X168641000Y-119879000D01*
X168641000Y-127601000D01*
X168641000Y-127601000D01*
G37*
G36*
X166101000Y-127601000D02*
G01*
X164219000Y-127601000D01*
X164219000Y-119879000D01*
X166101000Y-119879000D01*
X166101000Y-127601000D01*
X166101000Y-127601000D01*
G37*
G36*
X196581000Y-127601000D02*
G01*
X194699000Y-127601000D01*
X194699000Y-119879000D01*
X196581000Y-119879000D01*
X196581000Y-127601000D01*
X196581000Y-127601000D01*
G37*
G36*
X194041000Y-127601000D02*
G01*
X192159000Y-127601000D01*
X192159000Y-119879000D01*
X194041000Y-119879000D01*
X194041000Y-127601000D01*
X194041000Y-127601000D01*
G37*
G36*
X191501000Y-127601000D02*
G01*
X189619000Y-127601000D01*
X189619000Y-119879000D01*
X191501000Y-119879000D01*
X191501000Y-127601000D01*
X191501000Y-127601000D01*
G37*
G36*
X188961000Y-127601000D02*
G01*
X187079000Y-127601000D01*
X187079000Y-119879000D01*
X188961000Y-119879000D01*
X188961000Y-127601000D01*
X188961000Y-127601000D01*
G37*
G36*
X186421000Y-127601000D02*
G01*
X184539000Y-127601000D01*
X184539000Y-119879000D01*
X186421000Y-119879000D01*
X186421000Y-127601000D01*
X186421000Y-127601000D01*
G37*
G36*
X183881000Y-127601000D02*
G01*
X181999000Y-127601000D01*
X181999000Y-119879000D01*
X183881000Y-119879000D01*
X183881000Y-127601000D01*
X183881000Y-127601000D01*
G37*
G36*
X181341000Y-127601000D02*
G01*
X179459000Y-127601000D01*
X179459000Y-119879000D01*
X181341000Y-119879000D01*
X181341000Y-127601000D01*
X181341000Y-127601000D01*
G37*
G36*
X178801000Y-127601000D02*
G01*
X176919000Y-127601000D01*
X176919000Y-119879000D01*
X178801000Y-119879000D01*
X178801000Y-127601000D01*
X178801000Y-127601000D01*
G37*
G36*
X176261000Y-127601000D02*
G01*
X174379000Y-127601000D01*
X174379000Y-119879000D01*
X176261000Y-119879000D01*
X176261000Y-127601000D01*
X176261000Y-127601000D01*
G37*
G36*
X173721000Y-127601000D02*
G01*
X171839000Y-127601000D01*
X171839000Y-119879000D01*
X173721000Y-119879000D01*
X173721000Y-127601000D01*
X173721000Y-127601000D01*
G37*
G36*
X171181000Y-127601000D02*
G01*
X169299000Y-127601000D01*
X169299000Y-119879000D01*
X171181000Y-119879000D01*
X171181000Y-127601000D01*
X171181000Y-127601000D01*
G37*
G36*
X155941000Y-127601000D02*
G01*
X154059000Y-127601000D01*
X154059000Y-119879000D01*
X155941000Y-119879000D01*
X155941000Y-127601000D01*
X155941000Y-127601000D01*
G37*
G36*
X163561000Y-127601000D02*
G01*
X161679000Y-127601000D01*
X161679000Y-119879000D01*
X163561000Y-119879000D01*
X163561000Y-127601000D01*
X163561000Y-127601000D01*
G37*
G36*
X161021000Y-127601000D02*
G01*
X159139000Y-127601000D01*
X159139000Y-119879000D01*
X161021000Y-119879000D01*
X161021000Y-127601000D01*
X161021000Y-127601000D01*
G37*
G36*
X158481000Y-127601000D02*
G01*
X156599000Y-127601000D01*
X156599000Y-119879000D01*
X158481000Y-119879000D01*
X158481000Y-127601000D01*
X158481000Y-127601000D01*
G37*
G36*
X153401000Y-127601000D02*
G01*
X151519000Y-127601000D01*
X151519000Y-119879000D01*
X153401000Y-119879000D01*
X153401000Y-127601000D01*
X153401000Y-127601000D01*
G37*
G36*
X150861000Y-127601000D02*
G01*
X148979000Y-127601000D01*
X148979000Y-119879000D01*
X150861000Y-119879000D01*
X150861000Y-127601000D01*
X150861000Y-127601000D01*
G37*
G36*
X148321000Y-127601000D02*
G01*
X146439000Y-127601000D01*
X146439000Y-119879000D01*
X148321000Y-119879000D01*
X148321000Y-127601000D01*
X148321000Y-127601000D01*
G37*
G36*
X145781000Y-127601000D02*
G01*
X143899000Y-127601000D01*
X143899000Y-119879000D01*
X145781000Y-119879000D01*
X145781000Y-127601000D01*
X145781000Y-127601000D01*
G37*
G36*
X143241000Y-127601000D02*
G01*
X141359000Y-127601000D01*
X141359000Y-119879000D01*
X143241000Y-119879000D01*
X143241000Y-127601000D01*
X143241000Y-127601000D01*
G37*
G36*
X140701000Y-127601000D02*
G01*
X138819000Y-127601000D01*
X138819000Y-119879000D01*
X140701000Y-119879000D01*
X140701000Y-127601000D01*
X140701000Y-127601000D01*
G37*
G36*
X138161000Y-127601000D02*
G01*
X136279000Y-127601000D01*
X136279000Y-119879000D01*
X138161000Y-119879000D01*
X138161000Y-127601000D01*
X138161000Y-127601000D01*
G37*
G36*
X94981000Y-127601000D02*
G01*
X93099000Y-127601000D01*
X93099000Y-119879000D01*
X94981000Y-119879000D01*
X94981000Y-127601000D01*
X94981000Y-127601000D01*
G37*
G36*
X69581000Y-127601000D02*
G01*
X67699000Y-127601000D01*
X67699000Y-119879000D01*
X69581000Y-119879000D01*
X69581000Y-127601000D01*
X69581000Y-127601000D01*
G37*
G36*
X133081000Y-127601000D02*
G01*
X131199000Y-127601000D01*
X131199000Y-119879000D01*
X133081000Y-119879000D01*
X133081000Y-127601000D01*
X133081000Y-127601000D01*
G37*
G36*
X130541000Y-127601000D02*
G01*
X128659000Y-127601000D01*
X128659000Y-119879000D01*
X130541000Y-119879000D01*
X130541000Y-127601000D01*
X130541000Y-127601000D01*
G37*
G36*
X128001000Y-127601000D02*
G01*
X126119000Y-127601000D01*
X126119000Y-119879000D01*
X128001000Y-119879000D01*
X128001000Y-127601000D01*
X128001000Y-127601000D01*
G37*
G36*
X125461000Y-127601000D02*
G01*
X123579000Y-127601000D01*
X123579000Y-119879000D01*
X125461000Y-119879000D01*
X125461000Y-127601000D01*
X125461000Y-127601000D01*
G37*
G36*
X122921000Y-127601000D02*
G01*
X121039000Y-127601000D01*
X121039000Y-119879000D01*
X122921000Y-119879000D01*
X122921000Y-127601000D01*
X122921000Y-127601000D01*
G37*
G36*
X120381000Y-127601000D02*
G01*
X118499000Y-127601000D01*
X118499000Y-119879000D01*
X120381000Y-119879000D01*
X120381000Y-127601000D01*
X120381000Y-127601000D01*
G37*
G36*
X110221000Y-127601000D02*
G01*
X108339000Y-127601000D01*
X108339000Y-119879000D01*
X110221000Y-119879000D01*
X110221000Y-127601000D01*
X110221000Y-127601000D01*
G37*
G36*
X107681000Y-127601000D02*
G01*
X105799000Y-127601000D01*
X105799000Y-119879000D01*
X107681000Y-119879000D01*
X107681000Y-127601000D01*
X107681000Y-127601000D01*
G37*
G36*
X105141000Y-127601000D02*
G01*
X103259000Y-127601000D01*
X103259000Y-119879000D01*
X105141000Y-119879000D01*
X105141000Y-127601000D01*
X105141000Y-127601000D01*
G37*
G36*
X102601000Y-127601000D02*
G01*
X100719000Y-127601000D01*
X100719000Y-119879000D01*
X102601000Y-119879000D01*
X102601000Y-127601000D01*
X102601000Y-127601000D01*
G37*
G36*
X100061000Y-127601000D02*
G01*
X98179000Y-127601000D01*
X98179000Y-119879000D01*
X100061000Y-119879000D01*
X100061000Y-127601000D01*
X100061000Y-127601000D01*
G37*
G36*
X135621000Y-127601000D02*
G01*
X133739000Y-127601000D01*
X133739000Y-119879000D01*
X135621000Y-119879000D01*
X135621000Y-127601000D01*
X135621000Y-127601000D01*
G37*
G36*
X67041000Y-127601000D02*
G01*
X65159000Y-127601000D01*
X65159000Y-119879000D01*
X67041000Y-119879000D01*
X67041000Y-127601000D01*
X67041000Y-127601000D01*
G37*
G36*
X72121000Y-127601000D02*
G01*
X70239000Y-127601000D01*
X70239000Y-119879000D01*
X72121000Y-119879000D01*
X72121000Y-127601000D01*
X72121000Y-127601000D01*
G37*
G36*
X74661000Y-127601000D02*
G01*
X72779000Y-127601000D01*
X72779000Y-119879000D01*
X74661000Y-119879000D01*
X74661000Y-127601000D01*
X74661000Y-127601000D01*
G37*
G36*
X77201000Y-127601000D02*
G01*
X75319000Y-127601000D01*
X75319000Y-119879000D01*
X77201000Y-119879000D01*
X77201000Y-127601000D01*
X77201000Y-127601000D01*
G37*
G36*
X79741000Y-127601000D02*
G01*
X77859000Y-127601000D01*
X77859000Y-119879000D01*
X79741000Y-119879000D01*
X79741000Y-127601000D01*
X79741000Y-127601000D01*
G37*
G36*
X82281000Y-127601000D02*
G01*
X80399000Y-127601000D01*
X80399000Y-119879000D01*
X82281000Y-119879000D01*
X82281000Y-127601000D01*
X82281000Y-127601000D01*
G37*
G36*
X87361000Y-127601000D02*
G01*
X85479000Y-127601000D01*
X85479000Y-119879000D01*
X87361000Y-119879000D01*
X87361000Y-127601000D01*
X87361000Y-127601000D01*
G37*
G36*
X97521000Y-127601000D02*
G01*
X95639000Y-127601000D01*
X95639000Y-119879000D01*
X97521000Y-119879000D01*
X97521000Y-127601000D01*
X97521000Y-127601000D01*
G37*
G36*
X92441000Y-127601000D02*
G01*
X90559000Y-127601000D01*
X90559000Y-119879000D01*
X92441000Y-119879000D01*
X92441000Y-127601000D01*
X92441000Y-127601000D01*
G37*
G36*
X84821000Y-127601000D02*
G01*
X82939000Y-127601000D01*
X82939000Y-119879000D01*
X84821000Y-119879000D01*
X84821000Y-127601000D01*
X84821000Y-127601000D01*
G37*
G36*
X89901000Y-127601000D02*
G01*
X88019000Y-127601000D01*
X88019000Y-119879000D01*
X89901000Y-119879000D01*
X89901000Y-127601000D01*
X89901000Y-127601000D01*
G37*
G36*
X216725239Y-112866467D02*
G01*
X217039282Y-112928934D01*
X217630926Y-113174001D01*
X218163392Y-113529784D01*
X218616216Y-113982608D01*
X218971999Y-114515074D01*
X219217066Y-115106718D01*
X219268042Y-115362990D01*
X219342000Y-115734803D01*
X219342000Y-116375197D01*
X219301460Y-116579004D01*
X219217066Y-117003282D01*
X218971999Y-117594926D01*
X218724265Y-117965685D01*
X218616217Y-118127391D01*
X218163391Y-118580217D01*
X218153910Y-118586552D01*
X217630926Y-118935999D01*
X217039282Y-119181066D01*
X216776734Y-119233290D01*
X216411197Y-119306000D01*
X215770803Y-119306000D01*
X215405266Y-119233290D01*
X215142718Y-119181066D01*
X214551074Y-118935999D01*
X214028090Y-118586552D01*
X214018609Y-118580217D01*
X213565783Y-118127391D01*
X213457735Y-117965685D01*
X213210001Y-117594926D01*
X212964934Y-117003282D01*
X212880540Y-116579004D01*
X212840000Y-116375197D01*
X212840000Y-115734803D01*
X212913958Y-115362990D01*
X212964934Y-115106718D01*
X213210001Y-114515074D01*
X213565784Y-113982608D01*
X214018608Y-113529784D01*
X214551074Y-113174001D01*
X215142718Y-112928934D01*
X215456761Y-112866467D01*
X215770803Y-112804000D01*
X216411197Y-112804000D01*
X216725239Y-112866467D01*
X216725239Y-112866467D01*
G37*
G36*
X116365721Y-118215174D02*
G01*
X116465995Y-118256709D01*
X116465996Y-118256710D01*
X116556242Y-118317010D01*
X116632990Y-118393758D01*
X116632991Y-118393760D01*
X116693291Y-118484005D01*
X116734826Y-118584279D01*
X116756000Y-118690730D01*
X116756000Y-118799270D01*
X116734826Y-118905721D01*
X116693291Y-119005995D01*
X116693290Y-119005996D01*
X116632990Y-119096242D01*
X116556242Y-119172990D01*
X116544155Y-119181066D01*
X116465995Y-119233291D01*
X116365721Y-119274826D01*
X116259270Y-119296000D01*
X116150730Y-119296000D01*
X116044279Y-119274826D01*
X115944005Y-119233291D01*
X115865845Y-119181066D01*
X115853758Y-119172990D01*
X115777010Y-119096242D01*
X115716710Y-119005996D01*
X115716709Y-119005995D01*
X115675174Y-118905721D01*
X115654000Y-118799270D01*
X115654000Y-118690730D01*
X115675174Y-118584279D01*
X115716709Y-118484005D01*
X115777009Y-118393760D01*
X115777010Y-118393758D01*
X115853758Y-118317010D01*
X115944004Y-118256710D01*
X115944005Y-118256709D01*
X116044279Y-118215174D01*
X116150730Y-118194000D01*
X116259270Y-118194000D01*
X116365721Y-118215174D01*
X116365721Y-118215174D01*
G37*
G36*
X116365721Y-116310174D02*
G01*
X116465995Y-116351709D01*
X116465996Y-116351710D01*
X116556242Y-116412010D01*
X116632990Y-116488758D01*
X116663345Y-116534188D01*
X116693291Y-116579005D01*
X116734826Y-116679279D01*
X116756000Y-116785730D01*
X116756000Y-116894270D01*
X116734826Y-117000721D01*
X116693291Y-117100995D01*
X116693290Y-117100996D01*
X116632990Y-117191242D01*
X116556242Y-117267990D01*
X116510812Y-117298345D01*
X116465995Y-117328291D01*
X116365721Y-117369826D01*
X116259270Y-117391000D01*
X116150730Y-117391000D01*
X116044279Y-117369826D01*
X115944005Y-117328291D01*
X115899188Y-117298345D01*
X115853758Y-117267990D01*
X115777010Y-117191242D01*
X115716710Y-117100996D01*
X115716709Y-117100995D01*
X115675174Y-117000721D01*
X115654000Y-116894270D01*
X115654000Y-116785730D01*
X115675174Y-116679279D01*
X115716709Y-116579005D01*
X115746655Y-116534188D01*
X115777010Y-116488758D01*
X115853758Y-116412010D01*
X115944004Y-116351710D01*
X115944005Y-116351709D01*
X116044279Y-116310174D01*
X116150730Y-116289000D01*
X116259270Y-116289000D01*
X116365721Y-116310174D01*
X116365721Y-116310174D01*
G37*
G36*
X116365721Y-114405174D02*
G01*
X116465995Y-114446709D01*
X116465996Y-114446710D01*
X116556242Y-114507010D01*
X116632990Y-114583758D01*
X116632991Y-114583760D01*
X116693291Y-114674005D01*
X116734826Y-114774279D01*
X116756000Y-114880730D01*
X116756000Y-114989270D01*
X116734826Y-115095721D01*
X116693291Y-115195995D01*
X116693290Y-115195996D01*
X116632990Y-115286242D01*
X116556242Y-115362990D01*
X116510812Y-115393345D01*
X116465995Y-115423291D01*
X116365721Y-115464826D01*
X116259270Y-115486000D01*
X116150730Y-115486000D01*
X116044279Y-115464826D01*
X115944005Y-115423291D01*
X115899188Y-115393345D01*
X115853758Y-115362990D01*
X115777010Y-115286242D01*
X115716710Y-115195996D01*
X115716709Y-115195995D01*
X115675174Y-115095721D01*
X115654000Y-114989270D01*
X115654000Y-114880730D01*
X115675174Y-114774279D01*
X115716709Y-114674005D01*
X115777009Y-114583760D01*
X115777010Y-114583758D01*
X115853758Y-114507010D01*
X115944004Y-114446710D01*
X115944005Y-114446709D01*
X116044279Y-114405174D01*
X116150730Y-114384000D01*
X116259270Y-114384000D01*
X116365721Y-114405174D01*
X116365721Y-114405174D01*
G37*
G36*
X116365721Y-112500174D02*
G01*
X116465995Y-112541709D01*
X116465996Y-112541710D01*
X116556242Y-112602010D01*
X116632990Y-112678758D01*
X116632991Y-112678760D01*
X116693291Y-112769005D01*
X116734826Y-112869279D01*
X116756000Y-112975730D01*
X116756000Y-113084270D01*
X116734826Y-113190721D01*
X116693291Y-113290995D01*
X116693290Y-113290996D01*
X116632990Y-113381242D01*
X116556242Y-113457990D01*
X116510812Y-113488345D01*
X116465995Y-113518291D01*
X116365721Y-113559826D01*
X116259270Y-113581000D01*
X116150730Y-113581000D01*
X116044279Y-113559826D01*
X115944005Y-113518291D01*
X115899188Y-113488345D01*
X115853758Y-113457990D01*
X115777010Y-113381242D01*
X115716710Y-113290996D01*
X115716709Y-113290995D01*
X115675174Y-113190721D01*
X115654000Y-113084270D01*
X115654000Y-112975730D01*
X115675174Y-112869279D01*
X115716709Y-112769005D01*
X115777009Y-112678760D01*
X115777010Y-112678758D01*
X115853758Y-112602010D01*
X115944004Y-112541710D01*
X115944005Y-112541709D01*
X116044279Y-112500174D01*
X116150730Y-112479000D01*
X116259270Y-112479000D01*
X116365721Y-112500174D01*
X116365721Y-112500174D01*
G37*
G36*
X116365721Y-110595174D02*
G01*
X116465995Y-110636709D01*
X116465996Y-110636710D01*
X116556242Y-110697010D01*
X116632990Y-110773758D01*
X116632991Y-110773760D01*
X116693291Y-110864005D01*
X116734826Y-110964279D01*
X116756000Y-111070730D01*
X116756000Y-111179270D01*
X116734826Y-111285721D01*
X116693291Y-111385995D01*
X116693290Y-111385996D01*
X116632990Y-111476242D01*
X116556242Y-111552990D01*
X116510812Y-111583345D01*
X116465995Y-111613291D01*
X116365721Y-111654826D01*
X116259270Y-111676000D01*
X116150730Y-111676000D01*
X116044279Y-111654826D01*
X115944005Y-111613291D01*
X115899188Y-111583345D01*
X115853758Y-111552990D01*
X115777010Y-111476242D01*
X115716710Y-111385996D01*
X115716709Y-111385995D01*
X115675174Y-111285721D01*
X115654000Y-111179270D01*
X115654000Y-111070730D01*
X115675174Y-110964279D01*
X115716709Y-110864005D01*
X115777009Y-110773760D01*
X115777010Y-110773758D01*
X115853758Y-110697010D01*
X115944004Y-110636710D01*
X115944005Y-110636709D01*
X116044279Y-110595174D01*
X116150730Y-110574000D01*
X116259270Y-110574000D01*
X116365721Y-110595174D01*
X116365721Y-110595174D01*
G37*
G36*
X190666823Y-108381313D02*
G01*
X190827242Y-108429976D01*
X190959906Y-108500886D01*
X190975078Y-108508996D01*
X191104659Y-108615341D01*
X191211004Y-108744922D01*
X191211005Y-108744924D01*
X191290024Y-108892758D01*
X191338687Y-109053177D01*
X191355117Y-109220000D01*
X191338687Y-109386823D01*
X191290024Y-109547242D01*
X191219114Y-109679906D01*
X191211004Y-109695078D01*
X191104659Y-109824659D01*
X190975078Y-109931004D01*
X190975076Y-109931005D01*
X190827242Y-110010024D01*
X190666823Y-110058687D01*
X190541804Y-110071000D01*
X190458196Y-110071000D01*
X190333177Y-110058687D01*
X190172758Y-110010024D01*
X190024924Y-109931005D01*
X190024922Y-109931004D01*
X189895341Y-109824659D01*
X189788996Y-109695078D01*
X189780886Y-109679906D01*
X189709976Y-109547242D01*
X189661313Y-109386823D01*
X189644883Y-109220000D01*
X189661313Y-109053177D01*
X189709976Y-108892758D01*
X189788995Y-108744924D01*
X189788996Y-108744922D01*
X189895341Y-108615341D01*
X190024922Y-108508996D01*
X190040094Y-108500886D01*
X190172758Y-108429976D01*
X190333177Y-108381313D01*
X190458196Y-108369000D01*
X190541804Y-108369000D01*
X190666823Y-108381313D01*
X190666823Y-108381313D01*
G37*
G36*
X198286823Y-108381313D02*
G01*
X198447242Y-108429976D01*
X198579906Y-108500886D01*
X198595078Y-108508996D01*
X198724659Y-108615341D01*
X198831004Y-108744922D01*
X198831005Y-108744924D01*
X198910024Y-108892758D01*
X198958687Y-109053177D01*
X198975117Y-109220000D01*
X198958687Y-109386823D01*
X198910024Y-109547242D01*
X198839114Y-109679906D01*
X198831004Y-109695078D01*
X198724659Y-109824659D01*
X198595078Y-109931004D01*
X198595076Y-109931005D01*
X198447242Y-110010024D01*
X198286823Y-110058687D01*
X198161804Y-110071000D01*
X198078196Y-110071000D01*
X197953177Y-110058687D01*
X197792758Y-110010024D01*
X197644924Y-109931005D01*
X197644922Y-109931004D01*
X197515341Y-109824659D01*
X197408996Y-109695078D01*
X197400886Y-109679906D01*
X197329976Y-109547242D01*
X197281313Y-109386823D01*
X197264883Y-109220000D01*
X197281313Y-109053177D01*
X197329976Y-108892758D01*
X197408995Y-108744924D01*
X197408996Y-108744922D01*
X197515341Y-108615341D01*
X197644922Y-108508996D01*
X197660094Y-108500886D01*
X197792758Y-108429976D01*
X197953177Y-108381313D01*
X198078196Y-108369000D01*
X198161804Y-108369000D01*
X198286823Y-108381313D01*
X198286823Y-108381313D01*
G37*
G36*
X190666823Y-105841313D02*
G01*
X190827242Y-105889976D01*
X190927578Y-105943607D01*
X190975078Y-105968996D01*
X191104659Y-106075341D01*
X191211004Y-106204922D01*
X191211005Y-106204924D01*
X191290024Y-106352758D01*
X191338687Y-106513177D01*
X191355117Y-106680000D01*
X191338687Y-106846823D01*
X191290024Y-107007242D01*
X191236173Y-107107990D01*
X191211004Y-107155078D01*
X191104659Y-107284659D01*
X190975078Y-107391004D01*
X190975076Y-107391005D01*
X190827242Y-107470024D01*
X190666823Y-107518687D01*
X190541804Y-107531000D01*
X190458196Y-107531000D01*
X190333177Y-107518687D01*
X190172758Y-107470024D01*
X190024924Y-107391005D01*
X190024922Y-107391004D01*
X189895341Y-107284659D01*
X189788996Y-107155078D01*
X189763827Y-107107990D01*
X189709976Y-107007242D01*
X189661313Y-106846823D01*
X189644883Y-106680000D01*
X189661313Y-106513177D01*
X189709976Y-106352758D01*
X189788995Y-106204924D01*
X189788996Y-106204922D01*
X189895341Y-106075341D01*
X190024922Y-105968996D01*
X190072422Y-105943607D01*
X190172758Y-105889976D01*
X190333177Y-105841313D01*
X190458196Y-105829000D01*
X190541804Y-105829000D01*
X190666823Y-105841313D01*
X190666823Y-105841313D01*
G37*
G36*
X198286823Y-105841313D02*
G01*
X198447242Y-105889976D01*
X198547578Y-105943607D01*
X198595078Y-105968996D01*
X198724659Y-106075341D01*
X198831004Y-106204922D01*
X198831005Y-106204924D01*
X198910024Y-106352758D01*
X198958687Y-106513177D01*
X198975117Y-106680000D01*
X198958687Y-106846823D01*
X198910024Y-107007242D01*
X198856173Y-107107990D01*
X198831004Y-107155078D01*
X198724659Y-107284659D01*
X198595078Y-107391004D01*
X198595076Y-107391005D01*
X198447242Y-107470024D01*
X198286823Y-107518687D01*
X198161804Y-107531000D01*
X198078196Y-107531000D01*
X197953177Y-107518687D01*
X197792758Y-107470024D01*
X197644924Y-107391005D01*
X197644922Y-107391004D01*
X197515341Y-107284659D01*
X197408996Y-107155078D01*
X197383827Y-107107990D01*
X197329976Y-107007242D01*
X197281313Y-106846823D01*
X197264883Y-106680000D01*
X197281313Y-106513177D01*
X197329976Y-106352758D01*
X197408995Y-106204924D01*
X197408996Y-106204922D01*
X197515341Y-106075341D01*
X197644922Y-105968996D01*
X197692422Y-105943607D01*
X197792758Y-105889976D01*
X197953177Y-105841313D01*
X198078196Y-105829000D01*
X198161804Y-105829000D01*
X198286823Y-105841313D01*
X198286823Y-105841313D01*
G37*
G36*
X116365721Y-106150174D02*
G01*
X116465995Y-106191709D01*
X116510812Y-106221655D01*
X116556242Y-106252010D01*
X116632990Y-106328758D01*
X116632991Y-106328760D01*
X116693291Y-106419005D01*
X116734826Y-106519279D01*
X116756000Y-106625730D01*
X116756000Y-106734270D01*
X116734826Y-106840721D01*
X116693291Y-106940995D01*
X116693290Y-106940996D01*
X116632990Y-107031242D01*
X116556242Y-107107990D01*
X116510812Y-107138345D01*
X116465995Y-107168291D01*
X116365721Y-107209826D01*
X116259270Y-107231000D01*
X116150730Y-107231000D01*
X116044279Y-107209826D01*
X115944005Y-107168291D01*
X115899188Y-107138345D01*
X115853758Y-107107990D01*
X115777010Y-107031242D01*
X115716710Y-106940996D01*
X115716709Y-106940995D01*
X115675174Y-106840721D01*
X115654000Y-106734270D01*
X115654000Y-106625730D01*
X115675174Y-106519279D01*
X115716709Y-106419005D01*
X115777009Y-106328760D01*
X115777010Y-106328758D01*
X115853758Y-106252010D01*
X115899188Y-106221655D01*
X115944005Y-106191709D01*
X116044279Y-106150174D01*
X116150730Y-106129000D01*
X116259270Y-106129000D01*
X116365721Y-106150174D01*
X116365721Y-106150174D01*
G37*
G36*
X166643665Y-104662622D02*
G01*
X166717222Y-104669867D01*
X166858786Y-104712810D01*
X166989252Y-104782546D01*
X167019040Y-104806992D01*
X167103607Y-104876393D01*
X167173008Y-104960960D01*
X167197454Y-104990748D01*
X167267190Y-105121214D01*
X167310133Y-105262778D01*
X167324633Y-105410000D01*
X167310133Y-105557222D01*
X167267190Y-105698786D01*
X167197454Y-105829252D01*
X167187555Y-105841314D01*
X167103607Y-105943607D01*
X167019040Y-106013008D01*
X166989252Y-106037454D01*
X166858786Y-106107190D01*
X166717222Y-106150133D01*
X166643665Y-106157378D01*
X166606888Y-106161000D01*
X166133112Y-106161000D01*
X166096335Y-106157378D01*
X166022778Y-106150133D01*
X165881214Y-106107190D01*
X165750748Y-106037454D01*
X165720960Y-106013008D01*
X165636393Y-105943607D01*
X165552445Y-105841314D01*
X165542546Y-105829252D01*
X165472810Y-105698786D01*
X165429867Y-105557222D01*
X165415367Y-105410000D01*
X165429867Y-105262778D01*
X165472810Y-105121214D01*
X165542546Y-104990748D01*
X165566992Y-104960960D01*
X165636393Y-104876393D01*
X165720960Y-104806992D01*
X165750748Y-104782546D01*
X165881214Y-104712810D01*
X166022778Y-104669867D01*
X166096335Y-104662622D01*
X166133112Y-104659000D01*
X166606888Y-104659000D01*
X166643665Y-104662622D01*
X166643665Y-104662622D01*
G37*
G36*
X214651669Y-102347686D02*
G01*
X214828058Y-102365059D01*
X215167548Y-102468042D01*
X215167550Y-102468043D01*
X215480422Y-102635277D01*
X215754661Y-102860339D01*
X215979723Y-103134578D01*
X216137093Y-103428996D01*
X216146958Y-103447452D01*
X216249941Y-103786942D01*
X216284714Y-104140000D01*
X216249941Y-104493058D01*
X216146958Y-104832548D01*
X216146957Y-104832550D01*
X215979723Y-105145422D01*
X215754661Y-105419661D01*
X215480422Y-105644723D01*
X215167550Y-105811957D01*
X215167548Y-105811958D01*
X214828058Y-105914941D01*
X214651669Y-105932314D01*
X214563476Y-105941000D01*
X210886524Y-105941000D01*
X210798331Y-105932314D01*
X210621942Y-105914941D01*
X210282452Y-105811958D01*
X210282450Y-105811957D01*
X209969578Y-105644723D01*
X209695339Y-105419661D01*
X209470277Y-105145422D01*
X209303043Y-104832550D01*
X209303042Y-104832548D01*
X209200059Y-104493058D01*
X209165286Y-104140000D01*
X209200059Y-103786942D01*
X209303042Y-103447452D01*
X209312907Y-103428996D01*
X209470277Y-103134578D01*
X209695339Y-102860339D01*
X209969578Y-102635277D01*
X210282450Y-102468043D01*
X210282452Y-102468042D01*
X210621942Y-102365059D01*
X210798331Y-102347686D01*
X210886524Y-102339000D01*
X214563476Y-102339000D01*
X214651669Y-102347686D01*
X214651669Y-102347686D01*
G37*
G36*
X198286823Y-103301313D02*
G01*
X198447242Y-103349976D01*
X198547578Y-103403607D01*
X198595078Y-103428996D01*
X198724659Y-103535341D01*
X198831004Y-103664922D01*
X198831005Y-103664924D01*
X198910024Y-103812758D01*
X198958687Y-103973177D01*
X198975117Y-104140000D01*
X198958687Y-104306823D01*
X198910024Y-104467242D01*
X198896226Y-104493056D01*
X198831004Y-104615078D01*
X198724659Y-104744659D01*
X198595078Y-104851004D01*
X198595076Y-104851005D01*
X198447242Y-104930024D01*
X198286823Y-104978687D01*
X198161804Y-104991000D01*
X198078196Y-104991000D01*
X197953177Y-104978687D01*
X197792758Y-104930024D01*
X197644924Y-104851005D01*
X197644922Y-104851004D01*
X197515341Y-104744659D01*
X197408996Y-104615078D01*
X197343774Y-104493056D01*
X197329976Y-104467242D01*
X197281313Y-104306823D01*
X197264883Y-104140000D01*
X197281313Y-103973177D01*
X197329976Y-103812758D01*
X197408995Y-103664924D01*
X197408996Y-103664922D01*
X197515341Y-103535341D01*
X197644922Y-103428996D01*
X197692422Y-103403607D01*
X197792758Y-103349976D01*
X197953177Y-103301313D01*
X198078196Y-103289000D01*
X198161804Y-103289000D01*
X198286823Y-103301313D01*
X198286823Y-103301313D01*
G37*
G36*
X190666823Y-103301313D02*
G01*
X190827242Y-103349976D01*
X190927578Y-103403607D01*
X190975078Y-103428996D01*
X191104659Y-103535341D01*
X191211004Y-103664922D01*
X191211005Y-103664924D01*
X191290024Y-103812758D01*
X191338687Y-103973177D01*
X191355117Y-104140000D01*
X191338687Y-104306823D01*
X191290024Y-104467242D01*
X191276226Y-104493056D01*
X191211004Y-104615078D01*
X191104659Y-104744659D01*
X190975078Y-104851004D01*
X190975076Y-104851005D01*
X190827242Y-104930024D01*
X190666823Y-104978687D01*
X190541804Y-104991000D01*
X190458196Y-104991000D01*
X190333177Y-104978687D01*
X190172758Y-104930024D01*
X190024924Y-104851005D01*
X190024922Y-104851004D01*
X189895341Y-104744659D01*
X189788996Y-104615078D01*
X189723774Y-104493056D01*
X189709976Y-104467242D01*
X189661313Y-104306823D01*
X189644883Y-104140000D01*
X189661313Y-103973177D01*
X189709976Y-103812758D01*
X189788995Y-103664924D01*
X189788996Y-103664922D01*
X189895341Y-103535341D01*
X190024922Y-103428996D01*
X190072422Y-103403607D01*
X190172758Y-103349976D01*
X190333177Y-103301313D01*
X190458196Y-103289000D01*
X190541804Y-103289000D01*
X190666823Y-103301313D01*
X190666823Y-103301313D01*
G37*
G36*
X166643665Y-102122622D02*
G01*
X166717222Y-102129867D01*
X166858786Y-102172810D01*
X166989252Y-102242546D01*
X167019040Y-102266992D01*
X167103607Y-102336393D01*
X167173008Y-102420960D01*
X167197454Y-102450748D01*
X167267190Y-102581214D01*
X167310133Y-102722778D01*
X167324633Y-102870000D01*
X167310133Y-103017222D01*
X167267190Y-103158786D01*
X167197454Y-103289252D01*
X167187555Y-103301314D01*
X167103607Y-103403607D01*
X167050180Y-103447452D01*
X166989252Y-103497454D01*
X166858786Y-103567190D01*
X166717222Y-103610133D01*
X166643665Y-103617378D01*
X166606888Y-103621000D01*
X166133112Y-103621000D01*
X166096335Y-103617378D01*
X166022778Y-103610133D01*
X165881214Y-103567190D01*
X165750748Y-103497454D01*
X165689820Y-103447452D01*
X165636393Y-103403607D01*
X165552445Y-103301314D01*
X165542546Y-103289252D01*
X165472810Y-103158786D01*
X165429867Y-103017222D01*
X165415367Y-102870000D01*
X165429867Y-102722778D01*
X165472810Y-102581214D01*
X165542546Y-102450748D01*
X165566992Y-102420960D01*
X165636393Y-102336393D01*
X165720960Y-102266992D01*
X165750748Y-102242546D01*
X165881214Y-102172810D01*
X166022778Y-102129867D01*
X166096335Y-102122622D01*
X166133112Y-102119000D01*
X166606888Y-102119000D01*
X166643665Y-102122622D01*
X166643665Y-102122622D01*
G37*
G36*
X116365721Y-102340174D02*
G01*
X116465995Y-102381709D01*
X116510812Y-102411655D01*
X116556242Y-102442010D01*
X116632990Y-102518758D01*
X116632991Y-102518760D01*
X116693291Y-102609005D01*
X116734826Y-102709279D01*
X116756000Y-102815730D01*
X116756000Y-102924270D01*
X116734826Y-103030721D01*
X116693291Y-103130995D01*
X116674720Y-103158788D01*
X116632990Y-103221242D01*
X116556242Y-103297990D01*
X116551267Y-103301314D01*
X116465995Y-103358291D01*
X116365721Y-103399826D01*
X116259270Y-103421000D01*
X116150730Y-103421000D01*
X116044279Y-103399826D01*
X115944005Y-103358291D01*
X115858733Y-103301314D01*
X115853758Y-103297990D01*
X115777010Y-103221242D01*
X115735280Y-103158788D01*
X115716709Y-103130995D01*
X115675174Y-103030721D01*
X115654000Y-102924270D01*
X115654000Y-102815730D01*
X115675174Y-102709279D01*
X115716709Y-102609005D01*
X115777009Y-102518760D01*
X115777010Y-102518758D01*
X115853758Y-102442010D01*
X115899188Y-102411655D01*
X115944005Y-102381709D01*
X116044279Y-102340174D01*
X116150730Y-102319000D01*
X116259270Y-102319000D01*
X116365721Y-102340174D01*
X116365721Y-102340174D01*
G37*
G36*
X190666823Y-100761313D02*
G01*
X190827242Y-100809976D01*
X190927578Y-100863607D01*
X190975078Y-100888996D01*
X191104659Y-100995341D01*
X191211004Y-101124922D01*
X191211005Y-101124924D01*
X191290024Y-101272758D01*
X191338687Y-101433177D01*
X191355117Y-101600000D01*
X191338687Y-101766823D01*
X191290024Y-101927242D01*
X191219114Y-102059906D01*
X191211004Y-102075078D01*
X191104659Y-102204659D01*
X190975078Y-102311004D01*
X190975076Y-102311005D01*
X190827242Y-102390024D01*
X190666823Y-102438687D01*
X190541804Y-102451000D01*
X190458196Y-102451000D01*
X190333177Y-102438687D01*
X190172758Y-102390024D01*
X190024924Y-102311005D01*
X190024922Y-102311004D01*
X189895341Y-102204659D01*
X189788996Y-102075078D01*
X189780886Y-102059906D01*
X189709976Y-101927242D01*
X189661313Y-101766823D01*
X189644883Y-101600000D01*
X189661313Y-101433177D01*
X189709976Y-101272758D01*
X189788995Y-101124924D01*
X189788996Y-101124922D01*
X189895341Y-100995341D01*
X190024922Y-100888996D01*
X190072422Y-100863607D01*
X190172758Y-100809976D01*
X190333177Y-100761313D01*
X190458196Y-100749000D01*
X190541804Y-100749000D01*
X190666823Y-100761313D01*
X190666823Y-100761313D01*
G37*
G36*
X198286823Y-100761313D02*
G01*
X198447242Y-100809976D01*
X198547578Y-100863607D01*
X198595078Y-100888996D01*
X198724659Y-100995341D01*
X198831004Y-101124922D01*
X198831005Y-101124924D01*
X198910024Y-101272758D01*
X198958687Y-101433177D01*
X198975117Y-101600000D01*
X198958687Y-101766823D01*
X198910024Y-101927242D01*
X198839114Y-102059906D01*
X198831004Y-102075078D01*
X198724659Y-102204659D01*
X198595078Y-102311004D01*
X198595076Y-102311005D01*
X198447242Y-102390024D01*
X198286823Y-102438687D01*
X198161804Y-102451000D01*
X198078196Y-102451000D01*
X197953177Y-102438687D01*
X197792758Y-102390024D01*
X197644924Y-102311005D01*
X197644922Y-102311004D01*
X197515341Y-102204659D01*
X197408996Y-102075078D01*
X197400886Y-102059906D01*
X197329976Y-101927242D01*
X197281313Y-101766823D01*
X197264883Y-101600000D01*
X197281313Y-101433177D01*
X197329976Y-101272758D01*
X197408995Y-101124924D01*
X197408996Y-101124922D01*
X197515341Y-100995341D01*
X197644922Y-100888996D01*
X197692422Y-100863607D01*
X197792758Y-100809976D01*
X197953177Y-100761313D01*
X198078196Y-100749000D01*
X198161804Y-100749000D01*
X198286823Y-100761313D01*
X198286823Y-100761313D01*
G37*
G36*
X166643665Y-99582622D02*
G01*
X166717222Y-99589867D01*
X166858786Y-99632810D01*
X166989252Y-99702546D01*
X167019040Y-99726992D01*
X167103607Y-99796393D01*
X167173008Y-99880960D01*
X167197454Y-99910748D01*
X167267190Y-100041214D01*
X167310133Y-100182778D01*
X167324633Y-100330000D01*
X167310133Y-100477222D01*
X167267190Y-100618786D01*
X167197454Y-100749252D01*
X167187555Y-100761314D01*
X167103607Y-100863607D01*
X167019040Y-100933008D01*
X166989252Y-100957454D01*
X166858786Y-101027190D01*
X166717222Y-101070133D01*
X166643665Y-101077378D01*
X166606888Y-101081000D01*
X166133112Y-101081000D01*
X166096335Y-101077378D01*
X166022778Y-101070133D01*
X165881214Y-101027190D01*
X165750748Y-100957454D01*
X165720960Y-100933008D01*
X165636393Y-100863607D01*
X165552445Y-100761314D01*
X165542546Y-100749252D01*
X165472810Y-100618786D01*
X165429867Y-100477222D01*
X165415367Y-100330000D01*
X165429867Y-100182778D01*
X165472810Y-100041214D01*
X165542546Y-99910748D01*
X165566992Y-99880960D01*
X165636393Y-99796393D01*
X165720960Y-99726992D01*
X165750748Y-99702546D01*
X165881214Y-99632810D01*
X166022778Y-99589867D01*
X166096335Y-99582622D01*
X166133112Y-99579000D01*
X166606888Y-99579000D01*
X166643665Y-99582622D01*
X166643665Y-99582622D01*
G37*
G36*
X116365721Y-99165174D02*
G01*
X116465995Y-99206709D01*
X116510812Y-99236655D01*
X116556242Y-99267010D01*
X116632990Y-99343758D01*
X116632991Y-99343760D01*
X116693291Y-99434005D01*
X116734826Y-99534279D01*
X116756000Y-99640730D01*
X116756000Y-99749270D01*
X116734826Y-99855721D01*
X116693291Y-99955995D01*
X116693290Y-99955996D01*
X116632990Y-100046242D01*
X116556242Y-100122990D01*
X116510812Y-100153345D01*
X116465995Y-100183291D01*
X116365721Y-100224826D01*
X116259270Y-100246000D01*
X116150730Y-100246000D01*
X116044279Y-100224826D01*
X115944005Y-100183291D01*
X115899188Y-100153345D01*
X115853758Y-100122990D01*
X115777010Y-100046242D01*
X115716710Y-99955996D01*
X115716709Y-99955995D01*
X115675174Y-99855721D01*
X115654000Y-99749270D01*
X115654000Y-99640730D01*
X115675174Y-99534279D01*
X115716709Y-99434005D01*
X115777009Y-99343760D01*
X115777010Y-99343758D01*
X115853758Y-99267010D01*
X115899188Y-99236655D01*
X115944005Y-99206709D01*
X116044279Y-99165174D01*
X116150730Y-99144000D01*
X116259270Y-99144000D01*
X116365721Y-99165174D01*
X116365721Y-99165174D01*
G37*
G36*
X190666823Y-98221313D02*
G01*
X190827242Y-98269976D01*
X190959906Y-98340886D01*
X190975078Y-98348996D01*
X191104659Y-98455341D01*
X191211004Y-98584922D01*
X191211005Y-98584924D01*
X191290024Y-98732758D01*
X191338687Y-98893177D01*
X191355117Y-99060000D01*
X191338687Y-99226823D01*
X191290024Y-99387242D01*
X191219114Y-99519906D01*
X191211004Y-99535078D01*
X191104659Y-99664659D01*
X190975078Y-99771004D01*
X190975076Y-99771005D01*
X190827242Y-99850024D01*
X190666823Y-99898687D01*
X190541804Y-99911000D01*
X190458196Y-99911000D01*
X190333177Y-99898687D01*
X190172758Y-99850024D01*
X190024924Y-99771005D01*
X190024922Y-99771004D01*
X189895341Y-99664659D01*
X189788996Y-99535078D01*
X189780886Y-99519906D01*
X189709976Y-99387242D01*
X189661313Y-99226823D01*
X189644883Y-99060000D01*
X189661313Y-98893177D01*
X189709976Y-98732758D01*
X189788995Y-98584924D01*
X189788996Y-98584922D01*
X189895341Y-98455341D01*
X190024922Y-98348996D01*
X190040094Y-98340886D01*
X190172758Y-98269976D01*
X190333177Y-98221313D01*
X190458196Y-98209000D01*
X190541804Y-98209000D01*
X190666823Y-98221313D01*
X190666823Y-98221313D01*
G37*
G36*
X208261823Y-98221313D02*
G01*
X208422242Y-98269976D01*
X208554906Y-98340886D01*
X208570078Y-98348996D01*
X208699659Y-98455341D01*
X208806004Y-98584922D01*
X208806005Y-98584924D01*
X208885024Y-98732758D01*
X208933687Y-98893177D01*
X208950117Y-99060000D01*
X208933687Y-99226823D01*
X208885024Y-99387242D01*
X208814114Y-99519906D01*
X208806004Y-99535078D01*
X208699659Y-99664659D01*
X208570078Y-99771004D01*
X208570076Y-99771005D01*
X208422242Y-99850024D01*
X208261823Y-99898687D01*
X208136804Y-99911000D01*
X207153196Y-99911000D01*
X207028177Y-99898687D01*
X206867758Y-99850024D01*
X206719924Y-99771005D01*
X206719922Y-99771004D01*
X206590341Y-99664659D01*
X206483996Y-99535078D01*
X206475886Y-99519906D01*
X206404976Y-99387242D01*
X206356313Y-99226823D01*
X206339883Y-99060000D01*
X206356313Y-98893177D01*
X206404976Y-98732758D01*
X206483995Y-98584924D01*
X206483996Y-98584922D01*
X206590341Y-98455341D01*
X206719922Y-98348996D01*
X206735094Y-98340886D01*
X206867758Y-98269976D01*
X207028177Y-98221313D01*
X207153196Y-98209000D01*
X208136804Y-98209000D01*
X208261823Y-98221313D01*
X208261823Y-98221313D01*
G37*
G36*
X198286823Y-98221313D02*
G01*
X198447242Y-98269976D01*
X198579906Y-98340886D01*
X198595078Y-98348996D01*
X198724659Y-98455341D01*
X198831004Y-98584922D01*
X198831005Y-98584924D01*
X198910024Y-98732758D01*
X198958687Y-98893177D01*
X198975117Y-99060000D01*
X198958687Y-99226823D01*
X198910024Y-99387242D01*
X198839114Y-99519906D01*
X198831004Y-99535078D01*
X198724659Y-99664659D01*
X198595078Y-99771004D01*
X198595076Y-99771005D01*
X198447242Y-99850024D01*
X198286823Y-99898687D01*
X198161804Y-99911000D01*
X198078196Y-99911000D01*
X197953177Y-99898687D01*
X197792758Y-99850024D01*
X197644924Y-99771005D01*
X197644922Y-99771004D01*
X197515341Y-99664659D01*
X197408996Y-99535078D01*
X197400886Y-99519906D01*
X197329976Y-99387242D01*
X197281313Y-99226823D01*
X197264883Y-99060000D01*
X197281313Y-98893177D01*
X197329976Y-98732758D01*
X197408995Y-98584924D01*
X197408996Y-98584922D01*
X197515341Y-98455341D01*
X197644922Y-98348996D01*
X197660094Y-98340886D01*
X197792758Y-98269976D01*
X197953177Y-98221313D01*
X198078196Y-98209000D01*
X198161804Y-98209000D01*
X198286823Y-98221313D01*
X198286823Y-98221313D01*
G37*
G36*
X167321000Y-98541000D02*
G01*
X165419000Y-98541000D01*
X165419000Y-97039000D01*
X167321000Y-97039000D01*
X167321000Y-98541000D01*
X167321000Y-98541000D01*
G37*
G36*
X190666823Y-95681313D02*
G01*
X190827242Y-95729976D01*
X190922701Y-95781000D01*
X190975078Y-95808996D01*
X191104659Y-95915341D01*
X191211004Y-96044922D01*
X191211005Y-96044924D01*
X191290024Y-96192758D01*
X191338687Y-96353177D01*
X191355117Y-96520000D01*
X191338687Y-96686823D01*
X191290024Y-96847242D01*
X191219114Y-96979906D01*
X191211004Y-96995078D01*
X191104659Y-97124659D01*
X190975078Y-97231004D01*
X190975076Y-97231005D01*
X190827242Y-97310024D01*
X190666823Y-97358687D01*
X190541804Y-97371000D01*
X190458196Y-97371000D01*
X190333177Y-97358687D01*
X190172758Y-97310024D01*
X190024924Y-97231005D01*
X190024922Y-97231004D01*
X189895341Y-97124659D01*
X189788996Y-96995078D01*
X189780886Y-96979906D01*
X189709976Y-96847242D01*
X189661313Y-96686823D01*
X189644883Y-96520000D01*
X189661313Y-96353177D01*
X189709976Y-96192758D01*
X189788995Y-96044924D01*
X189788996Y-96044922D01*
X189895341Y-95915341D01*
X190024922Y-95808996D01*
X190077299Y-95781000D01*
X190172758Y-95729976D01*
X190333177Y-95681313D01*
X190458196Y-95669000D01*
X190541804Y-95669000D01*
X190666823Y-95681313D01*
X190666823Y-95681313D01*
G37*
G36*
X208261823Y-95681313D02*
G01*
X208422242Y-95729976D01*
X208517701Y-95781000D01*
X208570078Y-95808996D01*
X208699659Y-95915341D01*
X208806004Y-96044922D01*
X208806005Y-96044924D01*
X208885024Y-96192758D01*
X208933687Y-96353177D01*
X208950117Y-96520000D01*
X208933687Y-96686823D01*
X208885024Y-96847242D01*
X208814114Y-96979906D01*
X208806004Y-96995078D01*
X208699659Y-97124659D01*
X208570078Y-97231004D01*
X208570076Y-97231005D01*
X208422242Y-97310024D01*
X208261823Y-97358687D01*
X208136804Y-97371000D01*
X207153196Y-97371000D01*
X207028177Y-97358687D01*
X206867758Y-97310024D01*
X206719924Y-97231005D01*
X206719922Y-97231004D01*
X206590341Y-97124659D01*
X206483996Y-96995078D01*
X206475886Y-96979906D01*
X206404976Y-96847242D01*
X206356313Y-96686823D01*
X206339883Y-96520000D01*
X206356313Y-96353177D01*
X206404976Y-96192758D01*
X206483995Y-96044924D01*
X206483996Y-96044922D01*
X206590341Y-95915341D01*
X206719922Y-95808996D01*
X206772299Y-95781000D01*
X206867758Y-95729976D01*
X207028177Y-95681313D01*
X207153196Y-95669000D01*
X208136804Y-95669000D01*
X208261823Y-95681313D01*
X208261823Y-95681313D01*
G37*
G36*
X198286823Y-95681313D02*
G01*
X198447242Y-95729976D01*
X198542701Y-95781000D01*
X198595078Y-95808996D01*
X198724659Y-95915341D01*
X198831004Y-96044922D01*
X198831005Y-96044924D01*
X198910024Y-96192758D01*
X198958687Y-96353177D01*
X198975117Y-96520000D01*
X198958687Y-96686823D01*
X198910024Y-96847242D01*
X198839114Y-96979906D01*
X198831004Y-96995078D01*
X198724659Y-97124659D01*
X198595078Y-97231004D01*
X198595076Y-97231005D01*
X198447242Y-97310024D01*
X198286823Y-97358687D01*
X198161804Y-97371000D01*
X198078196Y-97371000D01*
X197953177Y-97358687D01*
X197792758Y-97310024D01*
X197644924Y-97231005D01*
X197644922Y-97231004D01*
X197515341Y-97124659D01*
X197408996Y-96995078D01*
X197400886Y-96979906D01*
X197329976Y-96847242D01*
X197281313Y-96686823D01*
X197264883Y-96520000D01*
X197281313Y-96353177D01*
X197329976Y-96192758D01*
X197408995Y-96044924D01*
X197408996Y-96044922D01*
X197515341Y-95915341D01*
X197644922Y-95808996D01*
X197697299Y-95781000D01*
X197792758Y-95729976D01*
X197953177Y-95681313D01*
X198078196Y-95669000D01*
X198161804Y-95669000D01*
X198286823Y-95681313D01*
X198286823Y-95681313D01*
G37*
G36*
X214651669Y-92187686D02*
G01*
X214828058Y-92205059D01*
X215167548Y-92308042D01*
X215167550Y-92308043D01*
X215480422Y-92475277D01*
X215754661Y-92700339D01*
X215979723Y-92974578D01*
X216137093Y-93268996D01*
X216146958Y-93287452D01*
X216249941Y-93626942D01*
X216284714Y-93980000D01*
X216249941Y-94333058D01*
X216146958Y-94672548D01*
X216146957Y-94672550D01*
X215979723Y-94985422D01*
X215754661Y-95259661D01*
X215480422Y-95484723D01*
X215167550Y-95651957D01*
X215167548Y-95651958D01*
X214828058Y-95754941D01*
X214651669Y-95772314D01*
X214563476Y-95781000D01*
X210886524Y-95781000D01*
X210798331Y-95772314D01*
X210621942Y-95754941D01*
X210282452Y-95651958D01*
X210282450Y-95651957D01*
X209969578Y-95484723D01*
X209695339Y-95259661D01*
X209470277Y-94985422D01*
X209303043Y-94672550D01*
X209303042Y-94672548D01*
X209200059Y-94333058D01*
X209165286Y-93980000D01*
X209200059Y-93626942D01*
X209303042Y-93287452D01*
X209312907Y-93268996D01*
X209470277Y-92974578D01*
X209695339Y-92700339D01*
X209969578Y-92475277D01*
X210282450Y-92308043D01*
X210282452Y-92308042D01*
X210621942Y-92205059D01*
X210798331Y-92187686D01*
X210886524Y-92179000D01*
X214563476Y-92179000D01*
X214651669Y-92187686D01*
X214651669Y-92187686D01*
G37*
G36*
X198286823Y-93141313D02*
G01*
X198447242Y-93189976D01*
X198579906Y-93260886D01*
X198595078Y-93268996D01*
X198724659Y-93375341D01*
X198831004Y-93504922D01*
X198831005Y-93504924D01*
X198910024Y-93652758D01*
X198958687Y-93813177D01*
X198975117Y-93980000D01*
X198958687Y-94146823D01*
X198910024Y-94307242D01*
X198896226Y-94333056D01*
X198831004Y-94455078D01*
X198724659Y-94584659D01*
X198595078Y-94691004D01*
X198595076Y-94691005D01*
X198447242Y-94770024D01*
X198286823Y-94818687D01*
X198161804Y-94831000D01*
X198078196Y-94831000D01*
X197953177Y-94818687D01*
X197792758Y-94770024D01*
X197644924Y-94691005D01*
X197644922Y-94691004D01*
X197515341Y-94584659D01*
X197408996Y-94455078D01*
X197343774Y-94333056D01*
X197329976Y-94307242D01*
X197281313Y-94146823D01*
X197264883Y-93980000D01*
X197281313Y-93813177D01*
X197329976Y-93652758D01*
X197408995Y-93504924D01*
X197408996Y-93504922D01*
X197515341Y-93375341D01*
X197644922Y-93268996D01*
X197660094Y-93260886D01*
X197792758Y-93189976D01*
X197953177Y-93141313D01*
X198078196Y-93129000D01*
X198161804Y-93129000D01*
X198286823Y-93141313D01*
X198286823Y-93141313D01*
G37*
G36*
X190666823Y-93141313D02*
G01*
X190827242Y-93189976D01*
X190959906Y-93260886D01*
X190975078Y-93268996D01*
X191104659Y-93375341D01*
X191211004Y-93504922D01*
X191211005Y-93504924D01*
X191290024Y-93652758D01*
X191338687Y-93813177D01*
X191355117Y-93980000D01*
X191338687Y-94146823D01*
X191290024Y-94307242D01*
X191276226Y-94333056D01*
X191211004Y-94455078D01*
X191104659Y-94584659D01*
X190975078Y-94691004D01*
X190975076Y-94691005D01*
X190827242Y-94770024D01*
X190666823Y-94818687D01*
X190541804Y-94831000D01*
X190458196Y-94831000D01*
X190333177Y-94818687D01*
X190172758Y-94770024D01*
X190024924Y-94691005D01*
X190024922Y-94691004D01*
X189895341Y-94584659D01*
X189788996Y-94455078D01*
X189723774Y-94333056D01*
X189709976Y-94307242D01*
X189661313Y-94146823D01*
X189644883Y-93980000D01*
X189661313Y-93813177D01*
X189709976Y-93652758D01*
X189788995Y-93504924D01*
X189788996Y-93504922D01*
X189895341Y-93375341D01*
X190024922Y-93268996D01*
X190040094Y-93260886D01*
X190172758Y-93189976D01*
X190333177Y-93141313D01*
X190458196Y-93129000D01*
X190541804Y-93129000D01*
X190666823Y-93141313D01*
X190666823Y-93141313D01*
G37*
G36*
X198286823Y-90601313D02*
G01*
X198447242Y-90649976D01*
X198579906Y-90720886D01*
X198595078Y-90728996D01*
X198724659Y-90835341D01*
X198831004Y-90964922D01*
X198831005Y-90964924D01*
X198910024Y-91112758D01*
X198958687Y-91273177D01*
X198975117Y-91440000D01*
X198958687Y-91606823D01*
X198910024Y-91767242D01*
X198839114Y-91899906D01*
X198831004Y-91915078D01*
X198724659Y-92044659D01*
X198595078Y-92151004D01*
X198595076Y-92151005D01*
X198447242Y-92230024D01*
X198286823Y-92278687D01*
X198161804Y-92291000D01*
X198078196Y-92291000D01*
X197953177Y-92278687D01*
X197792758Y-92230024D01*
X197644924Y-92151005D01*
X197644922Y-92151004D01*
X197515341Y-92044659D01*
X197408996Y-91915078D01*
X197400886Y-91899906D01*
X197329976Y-91767242D01*
X197281313Y-91606823D01*
X197264883Y-91440000D01*
X197281313Y-91273177D01*
X197329976Y-91112758D01*
X197408995Y-90964924D01*
X197408996Y-90964922D01*
X197515341Y-90835341D01*
X197644922Y-90728996D01*
X197660094Y-90720886D01*
X197792758Y-90649976D01*
X197953177Y-90601313D01*
X198078196Y-90589000D01*
X198161804Y-90589000D01*
X198286823Y-90601313D01*
X198286823Y-90601313D01*
G37*
G36*
X191351000Y-92291000D02*
G01*
X189649000Y-92291000D01*
X189649000Y-90589000D01*
X191351000Y-90589000D01*
X191351000Y-92291000D01*
X191351000Y-92291000D01*
G37*
G36*
X157278642Y-87494781D02*
G01*
X157424414Y-87555162D01*
X157424416Y-87555163D01*
X157555608Y-87642822D01*
X157667178Y-87754392D01*
X157754837Y-87885584D01*
X157754838Y-87885586D01*
X157815219Y-88031358D01*
X157846000Y-88186107D01*
X157846000Y-88343893D01*
X157815219Y-88498642D01*
X157754838Y-88644414D01*
X157754837Y-88644416D01*
X157667178Y-88775608D01*
X157555608Y-88887178D01*
X157424416Y-88974837D01*
X157424415Y-88974838D01*
X157424414Y-88974838D01*
X157278642Y-89035219D01*
X157123893Y-89066000D01*
X156966107Y-89066000D01*
X156811358Y-89035219D01*
X156665586Y-88974838D01*
X156665585Y-88974838D01*
X156665584Y-88974837D01*
X156534392Y-88887178D01*
X156422822Y-88775608D01*
X156335163Y-88644416D01*
X156335162Y-88644414D01*
X156274781Y-88498642D01*
X156244000Y-88343893D01*
X156244000Y-88186107D01*
X156274781Y-88031358D01*
X156335162Y-87885586D01*
X156335163Y-87885584D01*
X156422822Y-87754392D01*
X156534392Y-87642822D01*
X156665584Y-87555163D01*
X156665586Y-87555162D01*
X156811358Y-87494781D01*
X156966107Y-87464000D01*
X157123893Y-87464000D01*
X157278642Y-87494781D01*
X157278642Y-87494781D01*
G37*
G36*
X162158642Y-87494781D02*
G01*
X162304414Y-87555162D01*
X162304416Y-87555163D01*
X162435608Y-87642822D01*
X162547178Y-87754392D01*
X162634837Y-87885584D01*
X162634838Y-87885586D01*
X162695219Y-88031358D01*
X162726000Y-88186107D01*
X162726000Y-88343893D01*
X162695219Y-88498642D01*
X162634838Y-88644414D01*
X162634837Y-88644416D01*
X162547178Y-88775608D01*
X162435608Y-88887178D01*
X162304416Y-88974837D01*
X162304415Y-88974838D01*
X162304414Y-88974838D01*
X162158642Y-89035219D01*
X162003893Y-89066000D01*
X161846107Y-89066000D01*
X161691358Y-89035219D01*
X161545586Y-88974838D01*
X161545585Y-88974838D01*
X161545584Y-88974837D01*
X161414392Y-88887178D01*
X161302822Y-88775608D01*
X161215163Y-88644416D01*
X161215162Y-88644414D01*
X161154781Y-88498642D01*
X161124000Y-88343893D01*
X161124000Y-88186107D01*
X161154781Y-88031358D01*
X161215162Y-87885586D01*
X161215163Y-87885584D01*
X161302822Y-87754392D01*
X161414392Y-87642822D01*
X161545584Y-87555163D01*
X161545586Y-87555162D01*
X161691358Y-87494781D01*
X161846107Y-87464000D01*
X162003893Y-87464000D01*
X162158642Y-87494781D01*
X162158642Y-87494781D01*
G37*
G36*
X213665564Y-84339389D02*
G01*
X213856833Y-84418615D01*
X213856835Y-84418616D01*
X214028973Y-84533635D01*
X214175365Y-84680027D01*
X214289084Y-84850219D01*
X214290385Y-84852167D01*
X214369611Y-85043436D01*
X214410000Y-85246484D01*
X214410000Y-85453516D01*
X214369611Y-85656564D01*
X214290385Y-85847833D01*
X214290384Y-85847835D01*
X214175365Y-86019973D01*
X214028973Y-86166365D01*
X213856835Y-86281384D01*
X213856834Y-86281385D01*
X213856833Y-86281385D01*
X213665564Y-86360611D01*
X213462516Y-86401000D01*
X213255484Y-86401000D01*
X213052436Y-86360611D01*
X212861167Y-86281385D01*
X212861166Y-86281385D01*
X212861165Y-86281384D01*
X212689027Y-86166365D01*
X212542635Y-86019973D01*
X212427616Y-85847835D01*
X212427615Y-85847833D01*
X212348389Y-85656564D01*
X212308000Y-85453516D01*
X212308000Y-85246484D01*
X212348389Y-85043436D01*
X212427615Y-84852167D01*
X212428917Y-84850219D01*
X212542635Y-84680027D01*
X212689027Y-84533635D01*
X212861165Y-84418616D01*
X212861167Y-84418615D01*
X213052436Y-84339389D01*
X213255484Y-84299000D01*
X213462516Y-84299000D01*
X213665564Y-84339389D01*
X213665564Y-84339389D01*
G37*
G36*
X217277871Y-81958408D02*
G01*
X217582883Y-82084748D01*
X217857387Y-82268166D01*
X218090834Y-82501613D01*
X218274252Y-82776117D01*
X218400592Y-83081129D01*
X218465000Y-83404928D01*
X218465000Y-83735072D01*
X218400592Y-84058871D01*
X218274252Y-84363883D01*
X218090834Y-84638387D01*
X217857387Y-84871834D01*
X217582883Y-85055252D01*
X217277871Y-85181592D01*
X216954073Y-85246000D01*
X216623927Y-85246000D01*
X216300129Y-85181592D01*
X215995117Y-85055252D01*
X215720613Y-84871834D01*
X215487166Y-84638387D01*
X215303748Y-84363883D01*
X215177408Y-84058871D01*
X215113000Y-83735072D01*
X215113000Y-83404928D01*
X215177408Y-83081129D01*
X215303748Y-82776117D01*
X215487166Y-82501613D01*
X215720613Y-82268166D01*
X215995117Y-82084748D01*
X216300129Y-81958408D01*
X216623927Y-81894000D01*
X216954073Y-81894000D01*
X217277871Y-81958408D01*
X217277871Y-81958408D01*
G37*
G36*
X207882642Y-83309781D02*
G01*
X208028414Y-83370162D01*
X208028416Y-83370163D01*
X208159608Y-83457822D01*
X208271178Y-83569392D01*
X208331772Y-83660078D01*
X208358838Y-83700586D01*
X208419219Y-83846358D01*
X208450000Y-84001107D01*
X208450000Y-84158893D01*
X208419219Y-84313642D01*
X208375737Y-84418616D01*
X208358837Y-84459416D01*
X208271178Y-84590608D01*
X208159608Y-84702178D01*
X208028416Y-84789837D01*
X208028415Y-84789838D01*
X208028414Y-84789838D01*
X207882642Y-84850219D01*
X207727893Y-84881000D01*
X207570107Y-84881000D01*
X207415358Y-84850219D01*
X207269586Y-84789838D01*
X207269585Y-84789838D01*
X207269584Y-84789837D01*
X207138392Y-84702178D01*
X207026822Y-84590608D01*
X206939163Y-84459416D01*
X206922263Y-84418616D01*
X206878781Y-84313642D01*
X206848000Y-84158893D01*
X206848000Y-84001107D01*
X206878781Y-83846358D01*
X206939162Y-83700586D01*
X206966228Y-83660078D01*
X207026822Y-83569392D01*
X207138392Y-83457822D01*
X207269584Y-83370163D01*
X207269586Y-83370162D01*
X207415358Y-83309781D01*
X207570107Y-83279000D01*
X207727893Y-83279000D01*
X207882642Y-83309781D01*
X207882642Y-83309781D01*
G37*
G36*
X125261823Y-82346313D02*
G01*
X125422242Y-82394976D01*
X125554906Y-82465886D01*
X125570078Y-82473996D01*
X125699659Y-82580341D01*
X125806004Y-82709922D01*
X125806005Y-82709924D01*
X125885024Y-82857758D01*
X125933687Y-83018177D01*
X125950117Y-83185000D01*
X125933687Y-83351823D01*
X125885024Y-83512242D01*
X125854476Y-83569393D01*
X125806004Y-83660078D01*
X125699659Y-83789659D01*
X125570078Y-83896004D01*
X125570076Y-83896005D01*
X125422242Y-83975024D01*
X125261823Y-84023687D01*
X125136804Y-84036000D01*
X125053196Y-84036000D01*
X124928177Y-84023687D01*
X124767758Y-83975024D01*
X124619924Y-83896005D01*
X124619922Y-83896004D01*
X124490341Y-83789659D01*
X124383996Y-83660078D01*
X124335524Y-83569393D01*
X124304976Y-83512242D01*
X124256313Y-83351823D01*
X124239883Y-83185000D01*
X124256313Y-83018177D01*
X124304976Y-82857758D01*
X124383995Y-82709924D01*
X124383996Y-82709922D01*
X124490341Y-82580341D01*
X124619922Y-82473996D01*
X124635094Y-82465886D01*
X124767758Y-82394976D01*
X124928177Y-82346313D01*
X125053196Y-82334000D01*
X125136804Y-82334000D01*
X125261823Y-82346313D01*
X125261823Y-82346313D01*
G37*
G36*
X148121823Y-82346313D02*
G01*
X148282242Y-82394976D01*
X148414906Y-82465886D01*
X148430078Y-82473996D01*
X148559659Y-82580341D01*
X148666004Y-82709922D01*
X148666005Y-82709924D01*
X148745024Y-82857758D01*
X148793687Y-83018177D01*
X148810117Y-83185000D01*
X148793687Y-83351823D01*
X148745024Y-83512242D01*
X148714476Y-83569393D01*
X148666004Y-83660078D01*
X148559659Y-83789659D01*
X148430078Y-83896004D01*
X148430076Y-83896005D01*
X148282242Y-83975024D01*
X148121823Y-84023687D01*
X147996804Y-84036000D01*
X147913196Y-84036000D01*
X147788177Y-84023687D01*
X147627758Y-83975024D01*
X147479924Y-83896005D01*
X147479922Y-83896004D01*
X147350341Y-83789659D01*
X147243996Y-83660078D01*
X147195524Y-83569393D01*
X147164976Y-83512242D01*
X147116313Y-83351823D01*
X147099883Y-83185000D01*
X147116313Y-83018177D01*
X147164976Y-82857758D01*
X147243995Y-82709924D01*
X147243996Y-82709922D01*
X147350341Y-82580341D01*
X147479922Y-82473996D01*
X147495094Y-82465886D01*
X147627758Y-82394976D01*
X147788177Y-82346313D01*
X147913196Y-82334000D01*
X147996804Y-82334000D01*
X148121823Y-82346313D01*
X148121823Y-82346313D01*
G37*
G36*
X135421823Y-82346313D02*
G01*
X135582242Y-82394976D01*
X135714906Y-82465886D01*
X135730078Y-82473996D01*
X135859659Y-82580341D01*
X135966004Y-82709922D01*
X135966005Y-82709924D01*
X136045024Y-82857758D01*
X136093687Y-83018177D01*
X136110117Y-83185000D01*
X136093687Y-83351823D01*
X136045024Y-83512242D01*
X136014476Y-83569393D01*
X135966004Y-83660078D01*
X135859659Y-83789659D01*
X135730078Y-83896004D01*
X135730076Y-83896005D01*
X135582242Y-83975024D01*
X135421823Y-84023687D01*
X135296804Y-84036000D01*
X135213196Y-84036000D01*
X135088177Y-84023687D01*
X134927758Y-83975024D01*
X134779924Y-83896005D01*
X134779922Y-83896004D01*
X134650341Y-83789659D01*
X134543996Y-83660078D01*
X134495524Y-83569393D01*
X134464976Y-83512242D01*
X134416313Y-83351823D01*
X134399883Y-83185000D01*
X134416313Y-83018177D01*
X134464976Y-82857758D01*
X134543995Y-82709924D01*
X134543996Y-82709922D01*
X134650341Y-82580341D01*
X134779922Y-82473996D01*
X134795094Y-82465886D01*
X134927758Y-82394976D01*
X135088177Y-82346313D01*
X135213196Y-82334000D01*
X135296804Y-82334000D01*
X135421823Y-82346313D01*
X135421823Y-82346313D01*
G37*
G36*
X150661823Y-82346313D02*
G01*
X150822242Y-82394976D01*
X150954906Y-82465886D01*
X150970078Y-82473996D01*
X151099659Y-82580341D01*
X151206004Y-82709922D01*
X151206005Y-82709924D01*
X151285024Y-82857758D01*
X151333687Y-83018177D01*
X151350117Y-83185000D01*
X151333687Y-83351823D01*
X151285024Y-83512242D01*
X151254476Y-83569393D01*
X151206004Y-83660078D01*
X151099659Y-83789659D01*
X150970078Y-83896004D01*
X150970076Y-83896005D01*
X150822242Y-83975024D01*
X150661823Y-84023687D01*
X150536804Y-84036000D01*
X150453196Y-84036000D01*
X150328177Y-84023687D01*
X150167758Y-83975024D01*
X150019924Y-83896005D01*
X150019922Y-83896004D01*
X149890341Y-83789659D01*
X149783996Y-83660078D01*
X149735524Y-83569393D01*
X149704976Y-83512242D01*
X149656313Y-83351823D01*
X149639883Y-83185000D01*
X149656313Y-83018177D01*
X149704976Y-82857758D01*
X149783995Y-82709924D01*
X149783996Y-82709922D01*
X149890341Y-82580341D01*
X150019922Y-82473996D01*
X150035094Y-82465886D01*
X150167758Y-82394976D01*
X150328177Y-82346313D01*
X150453196Y-82334000D01*
X150536804Y-82334000D01*
X150661823Y-82346313D01*
X150661823Y-82346313D01*
G37*
G36*
X153201823Y-82346313D02*
G01*
X153362242Y-82394976D01*
X153494906Y-82465886D01*
X153510078Y-82473996D01*
X153639659Y-82580341D01*
X153746004Y-82709922D01*
X153746005Y-82709924D01*
X153825024Y-82857758D01*
X153873687Y-83018177D01*
X153890117Y-83185000D01*
X153873687Y-83351823D01*
X153825024Y-83512242D01*
X153794476Y-83569393D01*
X153746004Y-83660078D01*
X153639659Y-83789659D01*
X153510078Y-83896004D01*
X153510076Y-83896005D01*
X153362242Y-83975024D01*
X153201823Y-84023687D01*
X153076804Y-84036000D01*
X152993196Y-84036000D01*
X152868177Y-84023687D01*
X152707758Y-83975024D01*
X152559924Y-83896005D01*
X152559922Y-83896004D01*
X152430341Y-83789659D01*
X152323996Y-83660078D01*
X152275524Y-83569393D01*
X152244976Y-83512242D01*
X152196313Y-83351823D01*
X152179883Y-83185000D01*
X152196313Y-83018177D01*
X152244976Y-82857758D01*
X152323995Y-82709924D01*
X152323996Y-82709922D01*
X152430341Y-82580341D01*
X152559922Y-82473996D01*
X152575094Y-82465886D01*
X152707758Y-82394976D01*
X152868177Y-82346313D01*
X152993196Y-82334000D01*
X153076804Y-82334000D01*
X153201823Y-82346313D01*
X153201823Y-82346313D01*
G37*
G36*
X160821823Y-82346313D02*
G01*
X160982242Y-82394976D01*
X161114906Y-82465886D01*
X161130078Y-82473996D01*
X161259659Y-82580341D01*
X161366004Y-82709922D01*
X161366005Y-82709924D01*
X161445024Y-82857758D01*
X161493687Y-83018177D01*
X161510117Y-83185000D01*
X161493687Y-83351823D01*
X161445024Y-83512242D01*
X161414476Y-83569393D01*
X161366004Y-83660078D01*
X161259659Y-83789659D01*
X161130078Y-83896004D01*
X161130076Y-83896005D01*
X160982242Y-83975024D01*
X160821823Y-84023687D01*
X160696804Y-84036000D01*
X160613196Y-84036000D01*
X160488177Y-84023687D01*
X160327758Y-83975024D01*
X160179924Y-83896005D01*
X160179922Y-83896004D01*
X160050341Y-83789659D01*
X159943996Y-83660078D01*
X159895524Y-83569393D01*
X159864976Y-83512242D01*
X159816313Y-83351823D01*
X159799883Y-83185000D01*
X159816313Y-83018177D01*
X159864976Y-82857758D01*
X159943995Y-82709924D01*
X159943996Y-82709922D01*
X160050341Y-82580341D01*
X160179922Y-82473996D01*
X160195094Y-82465886D01*
X160327758Y-82394976D01*
X160488177Y-82346313D01*
X160613196Y-82334000D01*
X160696804Y-82334000D01*
X160821823Y-82346313D01*
X160821823Y-82346313D01*
G37*
G36*
X145581823Y-82346313D02*
G01*
X145742242Y-82394976D01*
X145874906Y-82465886D01*
X145890078Y-82473996D01*
X146019659Y-82580341D01*
X146126004Y-82709922D01*
X146126005Y-82709924D01*
X146205024Y-82857758D01*
X146253687Y-83018177D01*
X146270117Y-83185000D01*
X146253687Y-83351823D01*
X146205024Y-83512242D01*
X146174476Y-83569393D01*
X146126004Y-83660078D01*
X146019659Y-83789659D01*
X145890078Y-83896004D01*
X145890076Y-83896005D01*
X145742242Y-83975024D01*
X145581823Y-84023687D01*
X145456804Y-84036000D01*
X145373196Y-84036000D01*
X145248177Y-84023687D01*
X145087758Y-83975024D01*
X144939924Y-83896005D01*
X144939922Y-83896004D01*
X144810341Y-83789659D01*
X144703996Y-83660078D01*
X144655524Y-83569393D01*
X144624976Y-83512242D01*
X144576313Y-83351823D01*
X144559883Y-83185000D01*
X144576313Y-83018177D01*
X144624976Y-82857758D01*
X144703995Y-82709924D01*
X144703996Y-82709922D01*
X144810341Y-82580341D01*
X144939922Y-82473996D01*
X144955094Y-82465886D01*
X145087758Y-82394976D01*
X145248177Y-82346313D01*
X145373196Y-82334000D01*
X145456804Y-82334000D01*
X145581823Y-82346313D01*
X145581823Y-82346313D01*
G37*
G36*
X130341823Y-82346313D02*
G01*
X130502242Y-82394976D01*
X130634906Y-82465886D01*
X130650078Y-82473996D01*
X130779659Y-82580341D01*
X130886004Y-82709922D01*
X130886005Y-82709924D01*
X130965024Y-82857758D01*
X131013687Y-83018177D01*
X131030117Y-83185000D01*
X131013687Y-83351823D01*
X130965024Y-83512242D01*
X130934476Y-83569393D01*
X130886004Y-83660078D01*
X130779659Y-83789659D01*
X130650078Y-83896004D01*
X130650076Y-83896005D01*
X130502242Y-83975024D01*
X130341823Y-84023687D01*
X130216804Y-84036000D01*
X130133196Y-84036000D01*
X130008177Y-84023687D01*
X129847758Y-83975024D01*
X129699924Y-83896005D01*
X129699922Y-83896004D01*
X129570341Y-83789659D01*
X129463996Y-83660078D01*
X129415524Y-83569393D01*
X129384976Y-83512242D01*
X129336313Y-83351823D01*
X129319883Y-83185000D01*
X129336313Y-83018177D01*
X129384976Y-82857758D01*
X129463995Y-82709924D01*
X129463996Y-82709922D01*
X129570341Y-82580341D01*
X129699922Y-82473996D01*
X129715094Y-82465886D01*
X129847758Y-82394976D01*
X130008177Y-82346313D01*
X130133196Y-82334000D01*
X130216804Y-82334000D01*
X130341823Y-82346313D01*
X130341823Y-82346313D01*
G37*
G36*
X143041823Y-82346313D02*
G01*
X143202242Y-82394976D01*
X143334906Y-82465886D01*
X143350078Y-82473996D01*
X143479659Y-82580341D01*
X143586004Y-82709922D01*
X143586005Y-82709924D01*
X143665024Y-82857758D01*
X143713687Y-83018177D01*
X143730117Y-83185000D01*
X143713687Y-83351823D01*
X143665024Y-83512242D01*
X143634476Y-83569393D01*
X143586004Y-83660078D01*
X143479659Y-83789659D01*
X143350078Y-83896004D01*
X143350076Y-83896005D01*
X143202242Y-83975024D01*
X143041823Y-84023687D01*
X142916804Y-84036000D01*
X142833196Y-84036000D01*
X142708177Y-84023687D01*
X142547758Y-83975024D01*
X142399924Y-83896005D01*
X142399922Y-83896004D01*
X142270341Y-83789659D01*
X142163996Y-83660078D01*
X142115524Y-83569393D01*
X142084976Y-83512242D01*
X142036313Y-83351823D01*
X142019883Y-83185000D01*
X142036313Y-83018177D01*
X142084976Y-82857758D01*
X142163995Y-82709924D01*
X142163996Y-82709922D01*
X142270341Y-82580341D01*
X142399922Y-82473996D01*
X142415094Y-82465886D01*
X142547758Y-82394976D01*
X142708177Y-82346313D01*
X142833196Y-82334000D01*
X142916804Y-82334000D01*
X143041823Y-82346313D01*
X143041823Y-82346313D01*
G37*
G36*
X132881823Y-82346313D02*
G01*
X133042242Y-82394976D01*
X133174906Y-82465886D01*
X133190078Y-82473996D01*
X133319659Y-82580341D01*
X133426004Y-82709922D01*
X133426005Y-82709924D01*
X133505024Y-82857758D01*
X133553687Y-83018177D01*
X133570117Y-83185000D01*
X133553687Y-83351823D01*
X133505024Y-83512242D01*
X133474476Y-83569393D01*
X133426004Y-83660078D01*
X133319659Y-83789659D01*
X133190078Y-83896004D01*
X133190076Y-83896005D01*
X133042242Y-83975024D01*
X132881823Y-84023687D01*
X132756804Y-84036000D01*
X132673196Y-84036000D01*
X132548177Y-84023687D01*
X132387758Y-83975024D01*
X132239924Y-83896005D01*
X132239922Y-83896004D01*
X132110341Y-83789659D01*
X132003996Y-83660078D01*
X131955524Y-83569393D01*
X131924976Y-83512242D01*
X131876313Y-83351823D01*
X131859883Y-83185000D01*
X131876313Y-83018177D01*
X131924976Y-82857758D01*
X132003995Y-82709924D01*
X132003996Y-82709922D01*
X132110341Y-82580341D01*
X132239922Y-82473996D01*
X132255094Y-82465886D01*
X132387758Y-82394976D01*
X132548177Y-82346313D01*
X132673196Y-82334000D01*
X132756804Y-82334000D01*
X132881823Y-82346313D01*
X132881823Y-82346313D01*
G37*
G36*
X140501823Y-82346313D02*
G01*
X140662242Y-82394976D01*
X140794906Y-82465886D01*
X140810078Y-82473996D01*
X140939659Y-82580341D01*
X141046004Y-82709922D01*
X141046005Y-82709924D01*
X141125024Y-82857758D01*
X141173687Y-83018177D01*
X141190117Y-83185000D01*
X141173687Y-83351823D01*
X141125024Y-83512242D01*
X141094476Y-83569393D01*
X141046004Y-83660078D01*
X140939659Y-83789659D01*
X140810078Y-83896004D01*
X140810076Y-83896005D01*
X140662242Y-83975024D01*
X140501823Y-84023687D01*
X140376804Y-84036000D01*
X140293196Y-84036000D01*
X140168177Y-84023687D01*
X140007758Y-83975024D01*
X139859924Y-83896005D01*
X139859922Y-83896004D01*
X139730341Y-83789659D01*
X139623996Y-83660078D01*
X139575524Y-83569393D01*
X139544976Y-83512242D01*
X139496313Y-83351823D01*
X139479883Y-83185000D01*
X139496313Y-83018177D01*
X139544976Y-82857758D01*
X139623995Y-82709924D01*
X139623996Y-82709922D01*
X139730341Y-82580341D01*
X139859922Y-82473996D01*
X139875094Y-82465886D01*
X140007758Y-82394976D01*
X140168177Y-82346313D01*
X140293196Y-82334000D01*
X140376804Y-82334000D01*
X140501823Y-82346313D01*
X140501823Y-82346313D01*
G37*
G36*
X158281823Y-82346313D02*
G01*
X158442242Y-82394976D01*
X158574906Y-82465886D01*
X158590078Y-82473996D01*
X158719659Y-82580341D01*
X158826004Y-82709922D01*
X158826005Y-82709924D01*
X158905024Y-82857758D01*
X158953687Y-83018177D01*
X158970117Y-83185000D01*
X158953687Y-83351823D01*
X158905024Y-83512242D01*
X158874476Y-83569393D01*
X158826004Y-83660078D01*
X158719659Y-83789659D01*
X158590078Y-83896004D01*
X158590076Y-83896005D01*
X158442242Y-83975024D01*
X158281823Y-84023687D01*
X158156804Y-84036000D01*
X158073196Y-84036000D01*
X157948177Y-84023687D01*
X157787758Y-83975024D01*
X157639924Y-83896005D01*
X157639922Y-83896004D01*
X157510341Y-83789659D01*
X157403996Y-83660078D01*
X157355524Y-83569393D01*
X157324976Y-83512242D01*
X157276313Y-83351823D01*
X157259883Y-83185000D01*
X157276313Y-83018177D01*
X157324976Y-82857758D01*
X157403995Y-82709924D01*
X157403996Y-82709922D01*
X157510341Y-82580341D01*
X157639922Y-82473996D01*
X157655094Y-82465886D01*
X157787758Y-82394976D01*
X157948177Y-82346313D01*
X158073196Y-82334000D01*
X158156804Y-82334000D01*
X158281823Y-82346313D01*
X158281823Y-82346313D01*
G37*
G36*
X155741823Y-82346313D02*
G01*
X155902242Y-82394976D01*
X156034906Y-82465886D01*
X156050078Y-82473996D01*
X156179659Y-82580341D01*
X156286004Y-82709922D01*
X156286005Y-82709924D01*
X156365024Y-82857758D01*
X156413687Y-83018177D01*
X156430117Y-83185000D01*
X156413687Y-83351823D01*
X156365024Y-83512242D01*
X156334476Y-83569393D01*
X156286004Y-83660078D01*
X156179659Y-83789659D01*
X156050078Y-83896004D01*
X156050076Y-83896005D01*
X155902242Y-83975024D01*
X155741823Y-84023687D01*
X155616804Y-84036000D01*
X155533196Y-84036000D01*
X155408177Y-84023687D01*
X155247758Y-83975024D01*
X155099924Y-83896005D01*
X155099922Y-83896004D01*
X154970341Y-83789659D01*
X154863996Y-83660078D01*
X154815524Y-83569393D01*
X154784976Y-83512242D01*
X154736313Y-83351823D01*
X154719883Y-83185000D01*
X154736313Y-83018177D01*
X154784976Y-82857758D01*
X154863995Y-82709924D01*
X154863996Y-82709922D01*
X154970341Y-82580341D01*
X155099922Y-82473996D01*
X155115094Y-82465886D01*
X155247758Y-82394976D01*
X155408177Y-82346313D01*
X155533196Y-82334000D01*
X155616804Y-82334000D01*
X155741823Y-82346313D01*
X155741823Y-82346313D01*
G37*
G36*
X127801823Y-82346313D02*
G01*
X127962242Y-82394976D01*
X128094906Y-82465886D01*
X128110078Y-82473996D01*
X128239659Y-82580341D01*
X128346004Y-82709922D01*
X128346005Y-82709924D01*
X128425024Y-82857758D01*
X128473687Y-83018177D01*
X128490117Y-83185000D01*
X128473687Y-83351823D01*
X128425024Y-83512242D01*
X128394476Y-83569393D01*
X128346004Y-83660078D01*
X128239659Y-83789659D01*
X128110078Y-83896004D01*
X128110076Y-83896005D01*
X127962242Y-83975024D01*
X127801823Y-84023687D01*
X127676804Y-84036000D01*
X127593196Y-84036000D01*
X127468177Y-84023687D01*
X127307758Y-83975024D01*
X127159924Y-83896005D01*
X127159922Y-83896004D01*
X127030341Y-83789659D01*
X126923996Y-83660078D01*
X126875524Y-83569393D01*
X126844976Y-83512242D01*
X126796313Y-83351823D01*
X126779883Y-83185000D01*
X126796313Y-83018177D01*
X126844976Y-82857758D01*
X126923995Y-82709924D01*
X126923996Y-82709922D01*
X127030341Y-82580341D01*
X127159922Y-82473996D01*
X127175094Y-82465886D01*
X127307758Y-82394976D01*
X127468177Y-82346313D01*
X127593196Y-82334000D01*
X127676804Y-82334000D01*
X127801823Y-82346313D01*
X127801823Y-82346313D01*
G37*
G36*
X122721823Y-82346313D02*
G01*
X122882242Y-82394976D01*
X123014906Y-82465886D01*
X123030078Y-82473996D01*
X123159659Y-82580341D01*
X123266004Y-82709922D01*
X123266005Y-82709924D01*
X123345024Y-82857758D01*
X123393687Y-83018177D01*
X123410117Y-83185000D01*
X123393687Y-83351823D01*
X123345024Y-83512242D01*
X123314476Y-83569393D01*
X123266004Y-83660078D01*
X123159659Y-83789659D01*
X123030078Y-83896004D01*
X123030076Y-83896005D01*
X122882242Y-83975024D01*
X122721823Y-84023687D01*
X122596804Y-84036000D01*
X122513196Y-84036000D01*
X122388177Y-84023687D01*
X122227758Y-83975024D01*
X122079924Y-83896005D01*
X122079922Y-83896004D01*
X121950341Y-83789659D01*
X121843996Y-83660078D01*
X121795524Y-83569393D01*
X121764976Y-83512242D01*
X121716313Y-83351823D01*
X121699883Y-83185000D01*
X121716313Y-83018177D01*
X121764976Y-82857758D01*
X121843995Y-82709924D01*
X121843996Y-82709922D01*
X121950341Y-82580341D01*
X122079922Y-82473996D01*
X122095094Y-82465886D01*
X122227758Y-82394976D01*
X122388177Y-82346313D01*
X122513196Y-82334000D01*
X122596804Y-82334000D01*
X122721823Y-82346313D01*
X122721823Y-82346313D01*
G37*
G36*
X137961823Y-82346313D02*
G01*
X138122242Y-82394976D01*
X138254906Y-82465886D01*
X138270078Y-82473996D01*
X138399659Y-82580341D01*
X138506004Y-82709922D01*
X138506005Y-82709924D01*
X138585024Y-82857758D01*
X138633687Y-83018177D01*
X138650117Y-83185000D01*
X138633687Y-83351823D01*
X138585024Y-83512242D01*
X138554476Y-83569393D01*
X138506004Y-83660078D01*
X138399659Y-83789659D01*
X138270078Y-83896004D01*
X138270076Y-83896005D01*
X138122242Y-83975024D01*
X137961823Y-84023687D01*
X137836804Y-84036000D01*
X137753196Y-84036000D01*
X137628177Y-84023687D01*
X137467758Y-83975024D01*
X137319924Y-83896005D01*
X137319922Y-83896004D01*
X137190341Y-83789659D01*
X137083996Y-83660078D01*
X137035524Y-83569393D01*
X137004976Y-83512242D01*
X136956313Y-83351823D01*
X136939883Y-83185000D01*
X136956313Y-83018177D01*
X137004976Y-82857758D01*
X137083995Y-82709924D01*
X137083996Y-82709922D01*
X137190341Y-82580341D01*
X137319922Y-82473996D01*
X137335094Y-82465886D01*
X137467758Y-82394976D01*
X137628177Y-82346313D01*
X137753196Y-82334000D01*
X137836804Y-82334000D01*
X137961823Y-82346313D01*
X137961823Y-82346313D01*
G37*
G36*
X207882642Y-81019781D02*
G01*
X208028414Y-81080162D01*
X208028416Y-81080163D01*
X208159608Y-81167822D01*
X208271178Y-81279392D01*
X208358837Y-81410584D01*
X208358838Y-81410586D01*
X208419219Y-81556358D01*
X208450000Y-81711107D01*
X208450000Y-81868893D01*
X208419219Y-82023642D01*
X208393908Y-82084748D01*
X208358837Y-82169416D01*
X208271178Y-82300608D01*
X208159608Y-82412178D01*
X208028416Y-82499837D01*
X208028415Y-82499838D01*
X208028414Y-82499838D01*
X207882642Y-82560219D01*
X207727893Y-82591000D01*
X207570107Y-82591000D01*
X207415358Y-82560219D01*
X207269586Y-82499838D01*
X207269585Y-82499838D01*
X207269584Y-82499837D01*
X207138392Y-82412178D01*
X207026822Y-82300608D01*
X206939163Y-82169416D01*
X206904092Y-82084748D01*
X206878781Y-82023642D01*
X206848000Y-81868893D01*
X206848000Y-81711107D01*
X206878781Y-81556358D01*
X206939162Y-81410586D01*
X206939163Y-81410584D01*
X207026822Y-81279392D01*
X207138392Y-81167822D01*
X207269584Y-81080163D01*
X207269586Y-81080162D01*
X207415358Y-81019781D01*
X207570107Y-80989000D01*
X207727893Y-80989000D01*
X207882642Y-81019781D01*
X207882642Y-81019781D01*
G37*
G36*
X212702642Y-80029781D02*
G01*
X212848414Y-80090162D01*
X212848416Y-80090163D01*
X212979608Y-80177822D01*
X213091178Y-80289392D01*
X213178837Y-80420584D01*
X213178838Y-80420586D01*
X213239219Y-80566358D01*
X213270000Y-80721107D01*
X213270000Y-80878893D01*
X213239219Y-81033642D01*
X213178838Y-81179414D01*
X213178837Y-81179416D01*
X213091178Y-81310608D01*
X212979608Y-81422178D01*
X212848416Y-81509837D01*
X212848415Y-81509838D01*
X212848414Y-81509838D01*
X212702642Y-81570219D01*
X212547893Y-81601000D01*
X212390107Y-81601000D01*
X212235358Y-81570219D01*
X212089586Y-81509838D01*
X212089585Y-81509838D01*
X212089584Y-81509837D01*
X211958392Y-81422178D01*
X211846822Y-81310608D01*
X211759163Y-81179416D01*
X211759162Y-81179414D01*
X211698781Y-81033642D01*
X211668000Y-80878893D01*
X211668000Y-80721107D01*
X211698781Y-80566358D01*
X211759162Y-80420586D01*
X211759163Y-80420584D01*
X211846822Y-80289392D01*
X211958392Y-80177822D01*
X212089584Y-80090163D01*
X212089586Y-80090162D01*
X212235358Y-80029781D01*
X212390107Y-79999000D01*
X212547893Y-79999000D01*
X212702642Y-80029781D01*
X212702642Y-80029781D01*
G37*
G36*
X214482642Y-79009781D02*
G01*
X214628414Y-79070162D01*
X214628416Y-79070163D01*
X214759608Y-79157822D01*
X214871178Y-79269392D01*
X214958837Y-79400584D01*
X214958838Y-79400586D01*
X215019219Y-79546358D01*
X215050000Y-79701107D01*
X215050000Y-79858893D01*
X215019219Y-80013642D01*
X214958838Y-80159414D01*
X214958837Y-80159416D01*
X214871178Y-80290608D01*
X214759608Y-80402178D01*
X214628416Y-80489837D01*
X214628415Y-80489838D01*
X214628414Y-80489838D01*
X214482642Y-80550219D01*
X214327893Y-80581000D01*
X214170107Y-80581000D01*
X214015358Y-80550219D01*
X213869586Y-80489838D01*
X213869585Y-80489838D01*
X213869584Y-80489837D01*
X213738392Y-80402178D01*
X213626822Y-80290608D01*
X213539163Y-80159416D01*
X213539162Y-80159414D01*
X213478781Y-80013642D01*
X213448000Y-79858893D01*
X213448000Y-79701107D01*
X213478781Y-79546358D01*
X213539162Y-79400586D01*
X213539163Y-79400584D01*
X213626822Y-79269392D01*
X213738392Y-79157822D01*
X213869584Y-79070163D01*
X213869586Y-79070162D01*
X214015358Y-79009781D01*
X214170107Y-78979000D01*
X214327893Y-78979000D01*
X214482642Y-79009781D01*
X214482642Y-79009781D01*
G37*
G36*
X212702642Y-77989781D02*
G01*
X212848414Y-78050162D01*
X212848416Y-78050163D01*
X212979608Y-78137822D01*
X213091178Y-78249392D01*
X213178837Y-78380584D01*
X213178838Y-78380586D01*
X213239219Y-78526358D01*
X213270000Y-78681107D01*
X213270000Y-78838893D01*
X213239219Y-78993642D01*
X213178838Y-79139414D01*
X213178837Y-79139416D01*
X213091178Y-79270608D01*
X212979608Y-79382178D01*
X212848416Y-79469837D01*
X212848415Y-79469838D01*
X212848414Y-79469838D01*
X212702642Y-79530219D01*
X212547893Y-79561000D01*
X212390107Y-79561000D01*
X212235358Y-79530219D01*
X212089586Y-79469838D01*
X212089585Y-79469838D01*
X212089584Y-79469837D01*
X211958392Y-79382178D01*
X211846822Y-79270608D01*
X211759163Y-79139416D01*
X211759162Y-79139414D01*
X211698781Y-78993642D01*
X211668000Y-78838893D01*
X211668000Y-78681107D01*
X211698781Y-78526358D01*
X211759162Y-78380586D01*
X211759163Y-78380584D01*
X211846822Y-78249392D01*
X211958392Y-78137822D01*
X212089584Y-78050163D01*
X212089586Y-78050162D01*
X212235358Y-77989781D01*
X212390107Y-77959000D01*
X212547893Y-77959000D01*
X212702642Y-77989781D01*
X212702642Y-77989781D01*
G37*
G36*
X214482642Y-76969781D02*
G01*
X214628414Y-77030162D01*
X214628416Y-77030163D01*
X214759608Y-77117822D01*
X214871178Y-77229392D01*
X214958837Y-77360584D01*
X214958838Y-77360586D01*
X215019219Y-77506358D01*
X215050000Y-77661107D01*
X215050000Y-77818893D01*
X215019219Y-77973642D01*
X214958838Y-78119414D01*
X214958837Y-78119416D01*
X214871178Y-78250608D01*
X214759608Y-78362178D01*
X214628416Y-78449837D01*
X214628415Y-78449838D01*
X214628414Y-78449838D01*
X214482642Y-78510219D01*
X214327893Y-78541000D01*
X214170107Y-78541000D01*
X214015358Y-78510219D01*
X213869586Y-78449838D01*
X213869585Y-78449838D01*
X213869584Y-78449837D01*
X213738392Y-78362178D01*
X213626822Y-78250608D01*
X213539163Y-78119416D01*
X213539162Y-78119414D01*
X213478781Y-77973642D01*
X213448000Y-77818893D01*
X213448000Y-77661107D01*
X213478781Y-77506358D01*
X213539162Y-77360586D01*
X213539163Y-77360584D01*
X213626822Y-77229392D01*
X213738392Y-77117822D01*
X213869584Y-77030163D01*
X213869586Y-77030162D01*
X214015358Y-76969781D01*
X214170107Y-76939000D01*
X214327893Y-76939000D01*
X214482642Y-76969781D01*
X214482642Y-76969781D01*
G37*
G36*
X212702642Y-75949781D02*
G01*
X212848414Y-76010162D01*
X212848416Y-76010163D01*
X212979608Y-76097822D01*
X213091178Y-76209392D01*
X213178837Y-76340584D01*
X213178838Y-76340586D01*
X213239219Y-76486358D01*
X213270000Y-76641107D01*
X213270000Y-76798893D01*
X213239219Y-76953642D01*
X213178838Y-77099414D01*
X213178837Y-77099416D01*
X213091178Y-77230608D01*
X212979608Y-77342178D01*
X212848416Y-77429837D01*
X212848415Y-77429838D01*
X212848414Y-77429838D01*
X212702642Y-77490219D01*
X212547893Y-77521000D01*
X212390107Y-77521000D01*
X212235358Y-77490219D01*
X212089586Y-77429838D01*
X212089585Y-77429838D01*
X212089584Y-77429837D01*
X211958392Y-77342178D01*
X211846822Y-77230608D01*
X211759163Y-77099416D01*
X211759162Y-77099414D01*
X211698781Y-76953642D01*
X211668000Y-76798893D01*
X211668000Y-76641107D01*
X211698781Y-76486358D01*
X211759162Y-76340586D01*
X211759163Y-76340584D01*
X211846822Y-76209392D01*
X211958392Y-76097822D01*
X212089584Y-76010163D01*
X212089586Y-76010162D01*
X212235358Y-75949781D01*
X212390107Y-75919000D01*
X212547893Y-75919000D01*
X212702642Y-75949781D01*
X212702642Y-75949781D01*
G37*
G36*
X214482642Y-74929781D02*
G01*
X214628414Y-74990162D01*
X214628416Y-74990163D01*
X214759608Y-75077822D01*
X214871178Y-75189392D01*
X214958837Y-75320584D01*
X214958838Y-75320586D01*
X215019219Y-75466358D01*
X215050000Y-75621107D01*
X215050000Y-75778893D01*
X215019219Y-75933642D01*
X214958838Y-76079414D01*
X214958837Y-76079416D01*
X214871178Y-76210608D01*
X214759608Y-76322178D01*
X214628416Y-76409837D01*
X214628415Y-76409838D01*
X214628414Y-76409838D01*
X214482642Y-76470219D01*
X214327893Y-76501000D01*
X214170107Y-76501000D01*
X214015358Y-76470219D01*
X213869586Y-76409838D01*
X213869585Y-76409838D01*
X213869584Y-76409837D01*
X213738392Y-76322178D01*
X213626822Y-76210608D01*
X213539163Y-76079416D01*
X213539162Y-76079414D01*
X213478781Y-75933642D01*
X213448000Y-75778893D01*
X213448000Y-75621107D01*
X213478781Y-75466358D01*
X213539162Y-75320586D01*
X213539163Y-75320584D01*
X213626822Y-75189392D01*
X213738392Y-75077822D01*
X213869584Y-74990163D01*
X213869586Y-74990162D01*
X214015358Y-74929781D01*
X214170107Y-74899000D01*
X214327893Y-74899000D01*
X214482642Y-74929781D01*
X214482642Y-74929781D01*
G37*
G36*
X215050000Y-74461000D02*
G01*
X213394442Y-74461000D01*
X213370056Y-74463402D01*
X213346607Y-74470515D01*
X213324996Y-74482066D01*
X213306054Y-74497611D01*
X213290509Y-74516553D01*
X213278958Y-74538164D01*
X213271845Y-74561613D01*
X213269443Y-74585999D01*
X213270000Y-74591649D01*
X213270000Y-74758893D01*
X213239219Y-74913642D01*
X213178838Y-75059414D01*
X213178837Y-75059416D01*
X213091178Y-75190608D01*
X212979608Y-75302178D01*
X212848416Y-75389837D01*
X212848415Y-75389838D01*
X212848414Y-75389838D01*
X212702642Y-75450219D01*
X212547893Y-75481000D01*
X212390107Y-75481000D01*
X212235358Y-75450219D01*
X212089586Y-75389838D01*
X212089585Y-75389838D01*
X212089584Y-75389837D01*
X211958392Y-75302178D01*
X211846822Y-75190608D01*
X211759163Y-75059416D01*
X211759162Y-75059414D01*
X211698781Y-74913642D01*
X211668000Y-74758893D01*
X211668000Y-74601107D01*
X211698781Y-74446358D01*
X211759162Y-74300586D01*
X211759163Y-74300584D01*
X211846822Y-74169392D01*
X211958392Y-74057822D01*
X212089584Y-73970163D01*
X212089586Y-73970162D01*
X212235358Y-73909781D01*
X212390107Y-73879000D01*
X212547893Y-73879000D01*
X212702642Y-73909781D01*
X212848414Y-73970162D01*
X212848416Y-73970163D01*
X212979608Y-74057822D01*
X213091178Y-74169392D01*
X213178837Y-74300584D01*
X213178838Y-74300586D01*
X213207517Y-74369823D01*
X213219068Y-74391434D01*
X213234613Y-74410376D01*
X213253555Y-74425921D01*
X213275166Y-74437472D01*
X213298615Y-74444585D01*
X213323001Y-74446987D01*
X213347387Y-74444585D01*
X213370836Y-74437472D01*
X213392447Y-74425921D01*
X213411389Y-74410376D01*
X213426934Y-74391434D01*
X213438485Y-74369823D01*
X213445598Y-74346374D01*
X213448000Y-74321988D01*
X213448000Y-72859000D01*
X215050000Y-72859000D01*
X215050000Y-74461000D01*
X215050000Y-74461000D01*
G37*
G36*
X207882642Y-71879781D02*
G01*
X208028414Y-71940162D01*
X208028416Y-71940163D01*
X208159608Y-72027822D01*
X208271178Y-72139392D01*
X208358837Y-72270584D01*
X208358838Y-72270586D01*
X208419219Y-72416358D01*
X208450000Y-72571107D01*
X208450000Y-72728893D01*
X208419219Y-72883642D01*
X208358838Y-73029414D01*
X208358837Y-73029416D01*
X208271178Y-73160608D01*
X208159608Y-73272178D01*
X208028416Y-73359837D01*
X208028415Y-73359838D01*
X208028414Y-73359838D01*
X207882642Y-73420219D01*
X207727893Y-73451000D01*
X207570107Y-73451000D01*
X207415358Y-73420219D01*
X207269586Y-73359838D01*
X207269585Y-73359838D01*
X207269584Y-73359837D01*
X207138392Y-73272178D01*
X207026822Y-73160608D01*
X206939163Y-73029416D01*
X206939162Y-73029414D01*
X206878781Y-72883642D01*
X206848000Y-72728893D01*
X206848000Y-72571107D01*
X206878781Y-72416358D01*
X206939162Y-72270586D01*
X206939163Y-72270584D01*
X207026822Y-72139392D01*
X207138392Y-72027822D01*
X207269584Y-71940163D01*
X207269586Y-71940162D01*
X207415358Y-71879781D01*
X207570107Y-71849000D01*
X207727893Y-71849000D01*
X207882642Y-71879781D01*
X207882642Y-71879781D01*
G37*
G36*
X217277871Y-69258408D02*
G01*
X217582883Y-69384748D01*
X217857387Y-69568166D01*
X218090834Y-69801613D01*
X218274252Y-70076117D01*
X218400592Y-70381129D01*
X218465000Y-70704928D01*
X218465000Y-71035072D01*
X218400592Y-71358871D01*
X218274252Y-71663883D01*
X218090834Y-71938387D01*
X217857387Y-72171834D01*
X217582883Y-72355252D01*
X217277871Y-72481592D01*
X217115971Y-72513796D01*
X216954073Y-72546000D01*
X216623927Y-72546000D01*
X216300129Y-72481592D01*
X215995117Y-72355252D01*
X215720613Y-72171834D01*
X215487166Y-71938387D01*
X215303748Y-71663883D01*
X215177408Y-71358871D01*
X215113000Y-71035072D01*
X215113000Y-70704928D01*
X215177408Y-70381129D01*
X215303748Y-70076117D01*
X215487166Y-69801613D01*
X215720613Y-69568166D01*
X215995117Y-69384748D01*
X216300129Y-69258408D01*
X216623927Y-69194000D01*
X216954073Y-69194000D01*
X217277871Y-69258408D01*
X217277871Y-69258408D01*
G37*
G36*
X207882642Y-69589781D02*
G01*
X208028414Y-69650162D01*
X208028416Y-69650163D01*
X208159608Y-69737822D01*
X208271178Y-69849392D01*
X208358837Y-69980584D01*
X208358838Y-69980586D01*
X208419219Y-70126358D01*
X208450000Y-70281107D01*
X208450000Y-70438893D01*
X208419219Y-70593642D01*
X208358838Y-70739414D01*
X208358837Y-70739416D01*
X208271178Y-70870608D01*
X208159608Y-70982178D01*
X208028416Y-71069837D01*
X208028415Y-71069838D01*
X208028414Y-71069838D01*
X207882642Y-71130219D01*
X207727893Y-71161000D01*
X207570107Y-71161000D01*
X207415358Y-71130219D01*
X207269586Y-71069838D01*
X207269585Y-71069838D01*
X207269584Y-71069837D01*
X207138392Y-70982178D01*
X207026822Y-70870608D01*
X206939163Y-70739416D01*
X206939162Y-70739414D01*
X206878781Y-70593642D01*
X206848000Y-70438893D01*
X206848000Y-70281107D01*
X206878781Y-70126358D01*
X206939162Y-69980586D01*
X206939163Y-69980584D01*
X207026822Y-69849392D01*
X207138392Y-69737822D01*
X207269584Y-69650163D01*
X207269586Y-69650162D01*
X207415358Y-69589781D01*
X207570107Y-69559000D01*
X207727893Y-69559000D01*
X207882642Y-69589781D01*
X207882642Y-69589781D01*
G37*
G36*
X213665564Y-68079389D02*
G01*
X213856833Y-68158615D01*
X213856835Y-68158616D01*
X214026884Y-68272239D01*
X214028973Y-68273635D01*
X214175365Y-68420027D01*
X214290385Y-68592167D01*
X214369611Y-68783436D01*
X214410000Y-68986484D01*
X214410000Y-69193516D01*
X214369611Y-69396564D01*
X214302328Y-69559000D01*
X214290384Y-69587835D01*
X214175365Y-69759973D01*
X214028973Y-69906365D01*
X213856835Y-70021384D01*
X213856834Y-70021385D01*
X213856833Y-70021385D01*
X213665564Y-70100611D01*
X213462516Y-70141000D01*
X213255484Y-70141000D01*
X213052436Y-70100611D01*
X212861167Y-70021385D01*
X212861166Y-70021385D01*
X212861165Y-70021384D01*
X212689027Y-69906365D01*
X212542635Y-69759973D01*
X212427616Y-69587835D01*
X212415672Y-69559000D01*
X212348389Y-69396564D01*
X212308000Y-69193516D01*
X212308000Y-68986484D01*
X212348389Y-68783436D01*
X212427615Y-68592167D01*
X212542635Y-68420027D01*
X212689027Y-68273635D01*
X212691116Y-68272239D01*
X212861165Y-68158616D01*
X212861167Y-68158615D01*
X213052436Y-68079389D01*
X213255484Y-68039000D01*
X213462516Y-68039000D01*
X213665564Y-68079389D01*
X213665564Y-68079389D01*
G37*
G36*
X161506000Y-68796000D02*
G01*
X159804000Y-68796000D01*
X159804000Y-67094000D01*
X161506000Y-67094000D01*
X161506000Y-68796000D01*
X161506000Y-68796000D01*
G37*
G36*
X158281823Y-67106313D02*
G01*
X158442242Y-67154976D01*
X158574906Y-67225886D01*
X158590078Y-67233996D01*
X158719659Y-67340341D01*
X158826004Y-67469922D01*
X158826005Y-67469924D01*
X158905024Y-67617758D01*
X158953687Y-67778177D01*
X158970117Y-67945000D01*
X158953687Y-68111823D01*
X158905024Y-68272242D01*
X158904279Y-68273635D01*
X158826004Y-68420078D01*
X158719659Y-68549659D01*
X158590078Y-68656004D01*
X158590076Y-68656005D01*
X158442242Y-68735024D01*
X158281823Y-68783687D01*
X158156804Y-68796000D01*
X158073196Y-68796000D01*
X157948177Y-68783687D01*
X157787758Y-68735024D01*
X157639924Y-68656005D01*
X157639922Y-68656004D01*
X157510341Y-68549659D01*
X157403996Y-68420078D01*
X157325721Y-68273635D01*
X157324976Y-68272242D01*
X157276313Y-68111823D01*
X157259883Y-67945000D01*
X157276313Y-67778177D01*
X157324976Y-67617758D01*
X157403995Y-67469924D01*
X157403996Y-67469922D01*
X157510341Y-67340341D01*
X157639922Y-67233996D01*
X157655094Y-67225886D01*
X157787758Y-67154976D01*
X157948177Y-67106313D01*
X158073196Y-67094000D01*
X158156804Y-67094000D01*
X158281823Y-67106313D01*
X158281823Y-67106313D01*
G37*
G36*
X155741823Y-67106313D02*
G01*
X155902242Y-67154976D01*
X156034906Y-67225886D01*
X156050078Y-67233996D01*
X156179659Y-67340341D01*
X156286004Y-67469922D01*
X156286005Y-67469924D01*
X156365024Y-67617758D01*
X156413687Y-67778177D01*
X156430117Y-67945000D01*
X156413687Y-68111823D01*
X156365024Y-68272242D01*
X156364279Y-68273635D01*
X156286004Y-68420078D01*
X156179659Y-68549659D01*
X156050078Y-68656004D01*
X156050076Y-68656005D01*
X155902242Y-68735024D01*
X155741823Y-68783687D01*
X155616804Y-68796000D01*
X155533196Y-68796000D01*
X155408177Y-68783687D01*
X155247758Y-68735024D01*
X155099924Y-68656005D01*
X155099922Y-68656004D01*
X154970341Y-68549659D01*
X154863996Y-68420078D01*
X154785721Y-68273635D01*
X154784976Y-68272242D01*
X154736313Y-68111823D01*
X154719883Y-67945000D01*
X154736313Y-67778177D01*
X154784976Y-67617758D01*
X154863995Y-67469924D01*
X154863996Y-67469922D01*
X154970341Y-67340341D01*
X155099922Y-67233996D01*
X155115094Y-67225886D01*
X155247758Y-67154976D01*
X155408177Y-67106313D01*
X155533196Y-67094000D01*
X155616804Y-67094000D01*
X155741823Y-67106313D01*
X155741823Y-67106313D01*
G37*
G36*
X153201823Y-67106313D02*
G01*
X153362242Y-67154976D01*
X153494906Y-67225886D01*
X153510078Y-67233996D01*
X153639659Y-67340341D01*
X153746004Y-67469922D01*
X153746005Y-67469924D01*
X153825024Y-67617758D01*
X153873687Y-67778177D01*
X153890117Y-67945000D01*
X153873687Y-68111823D01*
X153825024Y-68272242D01*
X153824279Y-68273635D01*
X153746004Y-68420078D01*
X153639659Y-68549659D01*
X153510078Y-68656004D01*
X153510076Y-68656005D01*
X153362242Y-68735024D01*
X153201823Y-68783687D01*
X153076804Y-68796000D01*
X152993196Y-68796000D01*
X152868177Y-68783687D01*
X152707758Y-68735024D01*
X152559924Y-68656005D01*
X152559922Y-68656004D01*
X152430341Y-68549659D01*
X152323996Y-68420078D01*
X152245721Y-68273635D01*
X152244976Y-68272242D01*
X152196313Y-68111823D01*
X152179883Y-67945000D01*
X152196313Y-67778177D01*
X152244976Y-67617758D01*
X152323995Y-67469924D01*
X152323996Y-67469922D01*
X152430341Y-67340341D01*
X152559922Y-67233996D01*
X152575094Y-67225886D01*
X152707758Y-67154976D01*
X152868177Y-67106313D01*
X152993196Y-67094000D01*
X153076804Y-67094000D01*
X153201823Y-67106313D01*
X153201823Y-67106313D01*
G37*
G36*
X148121823Y-67106313D02*
G01*
X148282242Y-67154976D01*
X148414906Y-67225886D01*
X148430078Y-67233996D01*
X148559659Y-67340341D01*
X148666004Y-67469922D01*
X148666005Y-67469924D01*
X148745024Y-67617758D01*
X148793687Y-67778177D01*
X148810117Y-67945000D01*
X148793687Y-68111823D01*
X148745024Y-68272242D01*
X148744279Y-68273635D01*
X148666004Y-68420078D01*
X148559659Y-68549659D01*
X148430078Y-68656004D01*
X148430076Y-68656005D01*
X148282242Y-68735024D01*
X148121823Y-68783687D01*
X147996804Y-68796000D01*
X147913196Y-68796000D01*
X147788177Y-68783687D01*
X147627758Y-68735024D01*
X147479924Y-68656005D01*
X147479922Y-68656004D01*
X147350341Y-68549659D01*
X147243996Y-68420078D01*
X147165721Y-68273635D01*
X147164976Y-68272242D01*
X147116313Y-68111823D01*
X147099883Y-67945000D01*
X147116313Y-67778177D01*
X147164976Y-67617758D01*
X147243995Y-67469924D01*
X147243996Y-67469922D01*
X147350341Y-67340341D01*
X147479922Y-67233996D01*
X147495094Y-67225886D01*
X147627758Y-67154976D01*
X147788177Y-67106313D01*
X147913196Y-67094000D01*
X147996804Y-67094000D01*
X148121823Y-67106313D01*
X148121823Y-67106313D01*
G37*
G36*
X145581823Y-67106313D02*
G01*
X145742242Y-67154976D01*
X145874906Y-67225886D01*
X145890078Y-67233996D01*
X146019659Y-67340341D01*
X146126004Y-67469922D01*
X146126005Y-67469924D01*
X146205024Y-67617758D01*
X146253687Y-67778177D01*
X146270117Y-67945000D01*
X146253687Y-68111823D01*
X146205024Y-68272242D01*
X146204279Y-68273635D01*
X146126004Y-68420078D01*
X146019659Y-68549659D01*
X145890078Y-68656004D01*
X145890076Y-68656005D01*
X145742242Y-68735024D01*
X145581823Y-68783687D01*
X145456804Y-68796000D01*
X145373196Y-68796000D01*
X145248177Y-68783687D01*
X145087758Y-68735024D01*
X144939924Y-68656005D01*
X144939922Y-68656004D01*
X144810341Y-68549659D01*
X144703996Y-68420078D01*
X144625721Y-68273635D01*
X144624976Y-68272242D01*
X144576313Y-68111823D01*
X144559883Y-67945000D01*
X144576313Y-67778177D01*
X144624976Y-67617758D01*
X144703995Y-67469924D01*
X144703996Y-67469922D01*
X144810341Y-67340341D01*
X144939922Y-67233996D01*
X144955094Y-67225886D01*
X145087758Y-67154976D01*
X145248177Y-67106313D01*
X145373196Y-67094000D01*
X145456804Y-67094000D01*
X145581823Y-67106313D01*
X145581823Y-67106313D01*
G37*
G36*
X143041823Y-67106313D02*
G01*
X143202242Y-67154976D01*
X143334906Y-67225886D01*
X143350078Y-67233996D01*
X143479659Y-67340341D01*
X143586004Y-67469922D01*
X143586005Y-67469924D01*
X143665024Y-67617758D01*
X143713687Y-67778177D01*
X143730117Y-67945000D01*
X143713687Y-68111823D01*
X143665024Y-68272242D01*
X143664279Y-68273635D01*
X143586004Y-68420078D01*
X143479659Y-68549659D01*
X143350078Y-68656004D01*
X143350076Y-68656005D01*
X143202242Y-68735024D01*
X143041823Y-68783687D01*
X142916804Y-68796000D01*
X142833196Y-68796000D01*
X142708177Y-68783687D01*
X142547758Y-68735024D01*
X142399924Y-68656005D01*
X142399922Y-68656004D01*
X142270341Y-68549659D01*
X142163996Y-68420078D01*
X142085721Y-68273635D01*
X142084976Y-68272242D01*
X142036313Y-68111823D01*
X142019883Y-67945000D01*
X142036313Y-67778177D01*
X142084976Y-67617758D01*
X142163995Y-67469924D01*
X142163996Y-67469922D01*
X142270341Y-67340341D01*
X142399922Y-67233996D01*
X142415094Y-67225886D01*
X142547758Y-67154976D01*
X142708177Y-67106313D01*
X142833196Y-67094000D01*
X142916804Y-67094000D01*
X143041823Y-67106313D01*
X143041823Y-67106313D01*
G37*
G36*
X140501823Y-67106313D02*
G01*
X140662242Y-67154976D01*
X140794906Y-67225886D01*
X140810078Y-67233996D01*
X140939659Y-67340341D01*
X141046004Y-67469922D01*
X141046005Y-67469924D01*
X141125024Y-67617758D01*
X141173687Y-67778177D01*
X141190117Y-67945000D01*
X141173687Y-68111823D01*
X141125024Y-68272242D01*
X141124279Y-68273635D01*
X141046004Y-68420078D01*
X140939659Y-68549659D01*
X140810078Y-68656004D01*
X140810076Y-68656005D01*
X140662242Y-68735024D01*
X140501823Y-68783687D01*
X140376804Y-68796000D01*
X140293196Y-68796000D01*
X140168177Y-68783687D01*
X140007758Y-68735024D01*
X139859924Y-68656005D01*
X139859922Y-68656004D01*
X139730341Y-68549659D01*
X139623996Y-68420078D01*
X139545721Y-68273635D01*
X139544976Y-68272242D01*
X139496313Y-68111823D01*
X139479883Y-67945000D01*
X139496313Y-67778177D01*
X139544976Y-67617758D01*
X139623995Y-67469924D01*
X139623996Y-67469922D01*
X139730341Y-67340341D01*
X139859922Y-67233996D01*
X139875094Y-67225886D01*
X140007758Y-67154976D01*
X140168177Y-67106313D01*
X140293196Y-67094000D01*
X140376804Y-67094000D01*
X140501823Y-67106313D01*
X140501823Y-67106313D01*
G37*
G36*
X135421823Y-67106313D02*
G01*
X135582242Y-67154976D01*
X135714906Y-67225886D01*
X135730078Y-67233996D01*
X135859659Y-67340341D01*
X135966004Y-67469922D01*
X135966005Y-67469924D01*
X136045024Y-67617758D01*
X136093687Y-67778177D01*
X136110117Y-67945000D01*
X136093687Y-68111823D01*
X136045024Y-68272242D01*
X136044279Y-68273635D01*
X135966004Y-68420078D01*
X135859659Y-68549659D01*
X135730078Y-68656004D01*
X135730076Y-68656005D01*
X135582242Y-68735024D01*
X135421823Y-68783687D01*
X135296804Y-68796000D01*
X135213196Y-68796000D01*
X135088177Y-68783687D01*
X134927758Y-68735024D01*
X134779924Y-68656005D01*
X134779922Y-68656004D01*
X134650341Y-68549659D01*
X134543996Y-68420078D01*
X134465721Y-68273635D01*
X134464976Y-68272242D01*
X134416313Y-68111823D01*
X134399883Y-67945000D01*
X134416313Y-67778177D01*
X134464976Y-67617758D01*
X134543995Y-67469924D01*
X134543996Y-67469922D01*
X134650341Y-67340341D01*
X134779922Y-67233996D01*
X134795094Y-67225886D01*
X134927758Y-67154976D01*
X135088177Y-67106313D01*
X135213196Y-67094000D01*
X135296804Y-67094000D01*
X135421823Y-67106313D01*
X135421823Y-67106313D01*
G37*
G36*
X132881823Y-67106313D02*
G01*
X133042242Y-67154976D01*
X133174906Y-67225886D01*
X133190078Y-67233996D01*
X133319659Y-67340341D01*
X133426004Y-67469922D01*
X133426005Y-67469924D01*
X133505024Y-67617758D01*
X133553687Y-67778177D01*
X133570117Y-67945000D01*
X133553687Y-68111823D01*
X133505024Y-68272242D01*
X133504279Y-68273635D01*
X133426004Y-68420078D01*
X133319659Y-68549659D01*
X133190078Y-68656004D01*
X133190076Y-68656005D01*
X133042242Y-68735024D01*
X132881823Y-68783687D01*
X132756804Y-68796000D01*
X132673196Y-68796000D01*
X132548177Y-68783687D01*
X132387758Y-68735024D01*
X132239924Y-68656005D01*
X132239922Y-68656004D01*
X132110341Y-68549659D01*
X132003996Y-68420078D01*
X131925721Y-68273635D01*
X131924976Y-68272242D01*
X131876313Y-68111823D01*
X131859883Y-67945000D01*
X131876313Y-67778177D01*
X131924976Y-67617758D01*
X132003995Y-67469924D01*
X132003996Y-67469922D01*
X132110341Y-67340341D01*
X132239922Y-67233996D01*
X132255094Y-67225886D01*
X132387758Y-67154976D01*
X132548177Y-67106313D01*
X132673196Y-67094000D01*
X132756804Y-67094000D01*
X132881823Y-67106313D01*
X132881823Y-67106313D01*
G37*
G36*
X130341823Y-67106313D02*
G01*
X130502242Y-67154976D01*
X130634906Y-67225886D01*
X130650078Y-67233996D01*
X130779659Y-67340341D01*
X130886004Y-67469922D01*
X130886005Y-67469924D01*
X130965024Y-67617758D01*
X131013687Y-67778177D01*
X131030117Y-67945000D01*
X131013687Y-68111823D01*
X130965024Y-68272242D01*
X130964279Y-68273635D01*
X130886004Y-68420078D01*
X130779659Y-68549659D01*
X130650078Y-68656004D01*
X130650076Y-68656005D01*
X130502242Y-68735024D01*
X130341823Y-68783687D01*
X130216804Y-68796000D01*
X130133196Y-68796000D01*
X130008177Y-68783687D01*
X129847758Y-68735024D01*
X129699924Y-68656005D01*
X129699922Y-68656004D01*
X129570341Y-68549659D01*
X129463996Y-68420078D01*
X129385721Y-68273635D01*
X129384976Y-68272242D01*
X129336313Y-68111823D01*
X129319883Y-67945000D01*
X129336313Y-67778177D01*
X129384976Y-67617758D01*
X129463995Y-67469924D01*
X129463996Y-67469922D01*
X129570341Y-67340341D01*
X129699922Y-67233996D01*
X129715094Y-67225886D01*
X129847758Y-67154976D01*
X130008177Y-67106313D01*
X130133196Y-67094000D01*
X130216804Y-67094000D01*
X130341823Y-67106313D01*
X130341823Y-67106313D01*
G37*
G36*
X127801823Y-67106313D02*
G01*
X127962242Y-67154976D01*
X128094906Y-67225886D01*
X128110078Y-67233996D01*
X128239659Y-67340341D01*
X128346004Y-67469922D01*
X128346005Y-67469924D01*
X128425024Y-67617758D01*
X128473687Y-67778177D01*
X128490117Y-67945000D01*
X128473687Y-68111823D01*
X128425024Y-68272242D01*
X128424279Y-68273635D01*
X128346004Y-68420078D01*
X128239659Y-68549659D01*
X128110078Y-68656004D01*
X128110076Y-68656005D01*
X127962242Y-68735024D01*
X127801823Y-68783687D01*
X127676804Y-68796000D01*
X127593196Y-68796000D01*
X127468177Y-68783687D01*
X127307758Y-68735024D01*
X127159924Y-68656005D01*
X127159922Y-68656004D01*
X127030341Y-68549659D01*
X126923996Y-68420078D01*
X126845721Y-68273635D01*
X126844976Y-68272242D01*
X126796313Y-68111823D01*
X126779883Y-67945000D01*
X126796313Y-67778177D01*
X126844976Y-67617758D01*
X126923995Y-67469924D01*
X126923996Y-67469922D01*
X127030341Y-67340341D01*
X127159922Y-67233996D01*
X127175094Y-67225886D01*
X127307758Y-67154976D01*
X127468177Y-67106313D01*
X127593196Y-67094000D01*
X127676804Y-67094000D01*
X127801823Y-67106313D01*
X127801823Y-67106313D01*
G37*
G36*
X125261823Y-67106313D02*
G01*
X125422242Y-67154976D01*
X125554906Y-67225886D01*
X125570078Y-67233996D01*
X125699659Y-67340341D01*
X125806004Y-67469922D01*
X125806005Y-67469924D01*
X125885024Y-67617758D01*
X125933687Y-67778177D01*
X125950117Y-67945000D01*
X125933687Y-68111823D01*
X125885024Y-68272242D01*
X125884279Y-68273635D01*
X125806004Y-68420078D01*
X125699659Y-68549659D01*
X125570078Y-68656004D01*
X125570076Y-68656005D01*
X125422242Y-68735024D01*
X125261823Y-68783687D01*
X125136804Y-68796000D01*
X125053196Y-68796000D01*
X124928177Y-68783687D01*
X124767758Y-68735024D01*
X124619924Y-68656005D01*
X124619922Y-68656004D01*
X124490341Y-68549659D01*
X124383996Y-68420078D01*
X124305721Y-68273635D01*
X124304976Y-68272242D01*
X124256313Y-68111823D01*
X124239883Y-67945000D01*
X124256313Y-67778177D01*
X124304976Y-67617758D01*
X124383995Y-67469924D01*
X124383996Y-67469922D01*
X124490341Y-67340341D01*
X124619922Y-67233996D01*
X124635094Y-67225886D01*
X124767758Y-67154976D01*
X124928177Y-67106313D01*
X125053196Y-67094000D01*
X125136804Y-67094000D01*
X125261823Y-67106313D01*
X125261823Y-67106313D01*
G37*
G36*
X150661823Y-67106313D02*
G01*
X150822242Y-67154976D01*
X150954906Y-67225886D01*
X150970078Y-67233996D01*
X151099659Y-67340341D01*
X151206004Y-67469922D01*
X151206005Y-67469924D01*
X151285024Y-67617758D01*
X151333687Y-67778177D01*
X151350117Y-67945000D01*
X151333687Y-68111823D01*
X151285024Y-68272242D01*
X151284279Y-68273635D01*
X151206004Y-68420078D01*
X151099659Y-68549659D01*
X150970078Y-68656004D01*
X150970076Y-68656005D01*
X150822242Y-68735024D01*
X150661823Y-68783687D01*
X150536804Y-68796000D01*
X150453196Y-68796000D01*
X150328177Y-68783687D01*
X150167758Y-68735024D01*
X150019924Y-68656005D01*
X150019922Y-68656004D01*
X149890341Y-68549659D01*
X149783996Y-68420078D01*
X149705721Y-68273635D01*
X149704976Y-68272242D01*
X149656313Y-68111823D01*
X149639883Y-67945000D01*
X149656313Y-67778177D01*
X149704976Y-67617758D01*
X149783995Y-67469924D01*
X149783996Y-67469922D01*
X149890341Y-67340341D01*
X150019922Y-67233996D01*
X150035094Y-67225886D01*
X150167758Y-67154976D01*
X150328177Y-67106313D01*
X150453196Y-67094000D01*
X150536804Y-67094000D01*
X150661823Y-67106313D01*
X150661823Y-67106313D01*
G37*
G36*
X122721823Y-67106313D02*
G01*
X122882242Y-67154976D01*
X123014906Y-67225886D01*
X123030078Y-67233996D01*
X123159659Y-67340341D01*
X123266004Y-67469922D01*
X123266005Y-67469924D01*
X123345024Y-67617758D01*
X123393687Y-67778177D01*
X123410117Y-67945000D01*
X123393687Y-68111823D01*
X123345024Y-68272242D01*
X123344279Y-68273635D01*
X123266004Y-68420078D01*
X123159659Y-68549659D01*
X123030078Y-68656004D01*
X123030076Y-68656005D01*
X122882242Y-68735024D01*
X122721823Y-68783687D01*
X122596804Y-68796000D01*
X122513196Y-68796000D01*
X122388177Y-68783687D01*
X122227758Y-68735024D01*
X122079924Y-68656005D01*
X122079922Y-68656004D01*
X121950341Y-68549659D01*
X121843996Y-68420078D01*
X121765721Y-68273635D01*
X121764976Y-68272242D01*
X121716313Y-68111823D01*
X121699883Y-67945000D01*
X121716313Y-67778177D01*
X121764976Y-67617758D01*
X121843995Y-67469924D01*
X121843996Y-67469922D01*
X121950341Y-67340341D01*
X122079922Y-67233996D01*
X122095094Y-67225886D01*
X122227758Y-67154976D01*
X122388177Y-67106313D01*
X122513196Y-67094000D01*
X122596804Y-67094000D01*
X122721823Y-67106313D01*
X122721823Y-67106313D01*
G37*
G36*
X137961823Y-67106313D02*
G01*
X138122242Y-67154976D01*
X138254906Y-67225886D01*
X138270078Y-67233996D01*
X138399659Y-67340341D01*
X138506004Y-67469922D01*
X138506005Y-67469924D01*
X138585024Y-67617758D01*
X138633687Y-67778177D01*
X138650117Y-67945000D01*
X138633687Y-68111823D01*
X138585024Y-68272242D01*
X138584279Y-68273635D01*
X138506004Y-68420078D01*
X138399659Y-68549659D01*
X138270078Y-68656004D01*
X138270076Y-68656005D01*
X138122242Y-68735024D01*
X137961823Y-68783687D01*
X137836804Y-68796000D01*
X137753196Y-68796000D01*
X137628177Y-68783687D01*
X137467758Y-68735024D01*
X137319924Y-68656005D01*
X137319922Y-68656004D01*
X137190341Y-68549659D01*
X137083996Y-68420078D01*
X137005721Y-68273635D01*
X137004976Y-68272242D01*
X136956313Y-68111823D01*
X136939883Y-67945000D01*
X136956313Y-67778177D01*
X137004976Y-67617758D01*
X137083995Y-67469924D01*
X137083996Y-67469922D01*
X137190341Y-67340341D01*
X137319922Y-67233996D01*
X137335094Y-67225886D01*
X137467758Y-67154976D01*
X137628177Y-67106313D01*
X137753196Y-67094000D01*
X137836804Y-67094000D01*
X137961823Y-67106313D01*
X137961823Y-67106313D01*
G37*
G36*
X165901823Y-62661313D02*
G01*
X166062242Y-62709976D01*
X166194906Y-62780886D01*
X166210078Y-62788996D01*
X166339659Y-62895341D01*
X166446004Y-63024922D01*
X166446005Y-63024924D01*
X166525024Y-63172758D01*
X166573687Y-63333177D01*
X166590117Y-63500000D01*
X166573687Y-63666823D01*
X166525024Y-63827242D01*
X166454114Y-63959906D01*
X166446004Y-63975078D01*
X166339659Y-64104659D01*
X166210078Y-64211004D01*
X166210076Y-64211005D01*
X166062242Y-64290024D01*
X165901823Y-64338687D01*
X165776804Y-64351000D01*
X165693196Y-64351000D01*
X165568177Y-64338687D01*
X165407758Y-64290024D01*
X165259924Y-64211005D01*
X165259922Y-64211004D01*
X165130341Y-64104659D01*
X165023996Y-63975078D01*
X165015886Y-63959906D01*
X164944976Y-63827242D01*
X164896313Y-63666823D01*
X164879883Y-63500000D01*
X164896313Y-63333177D01*
X164944976Y-63172758D01*
X165023995Y-63024924D01*
X165023996Y-63024922D01*
X165130341Y-62895341D01*
X165259922Y-62788996D01*
X165275094Y-62780886D01*
X165407758Y-62709976D01*
X165568177Y-62661313D01*
X165693196Y-62649000D01*
X165776804Y-62649000D01*
X165901823Y-62661313D01*
X165901823Y-62661313D01*
G37*
G36*
X177966823Y-62661313D02*
G01*
X178127242Y-62709976D01*
X178259906Y-62780886D01*
X178275078Y-62788996D01*
X178404659Y-62895341D01*
X178511004Y-63024922D01*
X178511005Y-63024924D01*
X178590024Y-63172758D01*
X178638687Y-63333177D01*
X178655117Y-63500000D01*
X178638687Y-63666823D01*
X178590024Y-63827242D01*
X178519114Y-63959906D01*
X178511004Y-63975078D01*
X178404659Y-64104659D01*
X178275078Y-64211004D01*
X178275076Y-64211005D01*
X178127242Y-64290024D01*
X177966823Y-64338687D01*
X177841804Y-64351000D01*
X177758196Y-64351000D01*
X177633177Y-64338687D01*
X177472758Y-64290024D01*
X177324924Y-64211005D01*
X177324922Y-64211004D01*
X177195341Y-64104659D01*
X177088996Y-63975078D01*
X177080886Y-63959906D01*
X177009976Y-63827242D01*
X176961313Y-63666823D01*
X176944883Y-63500000D01*
X176961313Y-63333177D01*
X177009976Y-63172758D01*
X177088995Y-63024924D01*
X177088996Y-63024922D01*
X177195341Y-62895341D01*
X177324922Y-62788996D01*
X177340094Y-62780886D01*
X177472758Y-62709976D01*
X177633177Y-62661313D01*
X177758196Y-62649000D01*
X177841804Y-62649000D01*
X177966823Y-62661313D01*
X177966823Y-62661313D01*
G37*
G36*
X176111000Y-64351000D02*
G01*
X174409000Y-64351000D01*
X174409000Y-62649000D01*
X176111000Y-62649000D01*
X176111000Y-64351000D01*
X176111000Y-64351000D01*
G37*
G36*
X168441823Y-62661313D02*
G01*
X168602242Y-62709976D01*
X168734906Y-62780886D01*
X168750078Y-62788996D01*
X168879659Y-62895341D01*
X168986004Y-63024922D01*
X168986005Y-63024924D01*
X169065024Y-63172758D01*
X169113687Y-63333177D01*
X169130117Y-63500000D01*
X169113687Y-63666823D01*
X169065024Y-63827242D01*
X168994114Y-63959906D01*
X168986004Y-63975078D01*
X168879659Y-64104659D01*
X168750078Y-64211004D01*
X168750076Y-64211005D01*
X168602242Y-64290024D01*
X168441823Y-64338687D01*
X168316804Y-64351000D01*
X168233196Y-64351000D01*
X168108177Y-64338687D01*
X167947758Y-64290024D01*
X167799924Y-64211005D01*
X167799922Y-64211004D01*
X167670341Y-64104659D01*
X167563996Y-63975078D01*
X167555886Y-63959906D01*
X167484976Y-63827242D01*
X167436313Y-63666823D01*
X167419883Y-63500000D01*
X167436313Y-63333177D01*
X167484976Y-63172758D01*
X167563995Y-63024924D01*
X167563996Y-63024922D01*
X167670341Y-62895341D01*
X167799922Y-62788996D01*
X167815094Y-62780886D01*
X167947758Y-62709976D01*
X168108177Y-62661313D01*
X168233196Y-62649000D01*
X168316804Y-62649000D01*
X168441823Y-62661313D01*
X168441823Y-62661313D01*
G37*
G36*
X163361823Y-62661313D02*
G01*
X163522242Y-62709976D01*
X163654906Y-62780886D01*
X163670078Y-62788996D01*
X163799659Y-62895341D01*
X163906004Y-63024922D01*
X163906005Y-63024924D01*
X163985024Y-63172758D01*
X164033687Y-63333177D01*
X164050117Y-63500000D01*
X164033687Y-63666823D01*
X163985024Y-63827242D01*
X163914114Y-63959906D01*
X163906004Y-63975078D01*
X163799659Y-64104659D01*
X163670078Y-64211004D01*
X163670076Y-64211005D01*
X163522242Y-64290024D01*
X163361823Y-64338687D01*
X163236804Y-64351000D01*
X163153196Y-64351000D01*
X163028177Y-64338687D01*
X162867758Y-64290024D01*
X162719924Y-64211005D01*
X162719922Y-64211004D01*
X162590341Y-64104659D01*
X162483996Y-63975078D01*
X162475886Y-63959906D01*
X162404976Y-63827242D01*
X162356313Y-63666823D01*
X162339883Y-63500000D01*
X162356313Y-63333177D01*
X162404976Y-63172758D01*
X162483995Y-63024924D01*
X162483996Y-63024922D01*
X162590341Y-62895341D01*
X162719922Y-62788996D01*
X162735094Y-62780886D01*
X162867758Y-62709976D01*
X163028177Y-62661313D01*
X163153196Y-62649000D01*
X163236804Y-62649000D01*
X163361823Y-62661313D01*
X163361823Y-62661313D01*
G37*
G36*
X160821823Y-62661313D02*
G01*
X160982242Y-62709976D01*
X161114906Y-62780886D01*
X161130078Y-62788996D01*
X161259659Y-62895341D01*
X161366004Y-63024922D01*
X161366005Y-63024924D01*
X161445024Y-63172758D01*
X161493687Y-63333177D01*
X161510117Y-63500000D01*
X161493687Y-63666823D01*
X161445024Y-63827242D01*
X161374114Y-63959906D01*
X161366004Y-63975078D01*
X161259659Y-64104659D01*
X161130078Y-64211004D01*
X161130076Y-64211005D01*
X160982242Y-64290024D01*
X160821823Y-64338687D01*
X160696804Y-64351000D01*
X160613196Y-64351000D01*
X160488177Y-64338687D01*
X160327758Y-64290024D01*
X160179924Y-64211005D01*
X160179922Y-64211004D01*
X160050341Y-64104659D01*
X159943996Y-63975078D01*
X159935886Y-63959906D01*
X159864976Y-63827242D01*
X159816313Y-63666823D01*
X159799883Y-63500000D01*
X159816313Y-63333177D01*
X159864976Y-63172758D01*
X159943995Y-63024924D01*
X159943996Y-63024922D01*
X160050341Y-62895341D01*
X160179922Y-62788996D01*
X160195094Y-62780886D01*
X160327758Y-62709976D01*
X160488177Y-62661313D01*
X160613196Y-62649000D01*
X160696804Y-62649000D01*
X160821823Y-62661313D01*
X160821823Y-62661313D01*
G37*
G36*
X158966000Y-64351000D02*
G01*
X157264000Y-64351000D01*
X157264000Y-62649000D01*
X158966000Y-62649000D01*
X158966000Y-64351000D01*
X158966000Y-64351000D01*
G37*
G36*
X151931823Y-62661313D02*
G01*
X152092242Y-62709976D01*
X152224906Y-62780886D01*
X152240078Y-62788996D01*
X152369659Y-62895341D01*
X152476004Y-63024922D01*
X152476005Y-63024924D01*
X152555024Y-63172758D01*
X152603687Y-63333177D01*
X152620117Y-63500000D01*
X152603687Y-63666823D01*
X152555024Y-63827242D01*
X152484114Y-63959906D01*
X152476004Y-63975078D01*
X152369659Y-64104659D01*
X152240078Y-64211004D01*
X152240076Y-64211005D01*
X152092242Y-64290024D01*
X151931823Y-64338687D01*
X151806804Y-64351000D01*
X151723196Y-64351000D01*
X151598177Y-64338687D01*
X151437758Y-64290024D01*
X151289924Y-64211005D01*
X151289922Y-64211004D01*
X151160341Y-64104659D01*
X151053996Y-63975078D01*
X151045886Y-63959906D01*
X150974976Y-63827242D01*
X150926313Y-63666823D01*
X150909883Y-63500000D01*
X150926313Y-63333177D01*
X150974976Y-63172758D01*
X151053995Y-63024924D01*
X151053996Y-63024922D01*
X151160341Y-62895341D01*
X151289922Y-62788996D01*
X151305094Y-62780886D01*
X151437758Y-62709976D01*
X151598177Y-62661313D01*
X151723196Y-62649000D01*
X151806804Y-62649000D01*
X151931823Y-62661313D01*
X151931823Y-62661313D01*
G37*
G36*
X139866823Y-62661313D02*
G01*
X140027242Y-62709976D01*
X140159906Y-62780886D01*
X140175078Y-62788996D01*
X140304659Y-62895341D01*
X140411004Y-63024922D01*
X140411005Y-63024924D01*
X140490024Y-63172758D01*
X140538687Y-63333177D01*
X140555117Y-63500000D01*
X140538687Y-63666823D01*
X140490024Y-63827242D01*
X140419114Y-63959906D01*
X140411004Y-63975078D01*
X140304659Y-64104659D01*
X140175078Y-64211004D01*
X140175076Y-64211005D01*
X140027242Y-64290024D01*
X139866823Y-64338687D01*
X139741804Y-64351000D01*
X139658196Y-64351000D01*
X139533177Y-64338687D01*
X139372758Y-64290024D01*
X139224924Y-64211005D01*
X139224922Y-64211004D01*
X139095341Y-64104659D01*
X138988996Y-63975078D01*
X138980886Y-63959906D01*
X138909976Y-63827242D01*
X138861313Y-63666823D01*
X138844883Y-63500000D01*
X138861313Y-63333177D01*
X138909976Y-63172758D01*
X138988995Y-63024924D01*
X138988996Y-63024922D01*
X139095341Y-62895341D01*
X139224922Y-62788996D01*
X139240094Y-62780886D01*
X139372758Y-62709976D01*
X139533177Y-62661313D01*
X139658196Y-62649000D01*
X139741804Y-62649000D01*
X139866823Y-62661313D01*
X139866823Y-62661313D01*
G37*
G36*
X138011000Y-64351000D02*
G01*
X136309000Y-64351000D01*
X136309000Y-62649000D01*
X138011000Y-62649000D01*
X138011000Y-64351000D01*
X138011000Y-64351000D01*
G37*
G36*
X130341823Y-62661313D02*
G01*
X130502242Y-62709976D01*
X130634906Y-62780886D01*
X130650078Y-62788996D01*
X130779659Y-62895341D01*
X130886004Y-63024922D01*
X130886005Y-63024924D01*
X130965024Y-63172758D01*
X131013687Y-63333177D01*
X131030117Y-63500000D01*
X131013687Y-63666823D01*
X130965024Y-63827242D01*
X130894114Y-63959906D01*
X130886004Y-63975078D01*
X130779659Y-64104659D01*
X130650078Y-64211004D01*
X130650076Y-64211005D01*
X130502242Y-64290024D01*
X130341823Y-64338687D01*
X130216804Y-64351000D01*
X130133196Y-64351000D01*
X130008177Y-64338687D01*
X129847758Y-64290024D01*
X129699924Y-64211005D01*
X129699922Y-64211004D01*
X129570341Y-64104659D01*
X129463996Y-63975078D01*
X129455886Y-63959906D01*
X129384976Y-63827242D01*
X129336313Y-63666823D01*
X129319883Y-63500000D01*
X129336313Y-63333177D01*
X129384976Y-63172758D01*
X129463995Y-63024924D01*
X129463996Y-63024922D01*
X129570341Y-62895341D01*
X129699922Y-62788996D01*
X129715094Y-62780886D01*
X129847758Y-62709976D01*
X130008177Y-62661313D01*
X130133196Y-62649000D01*
X130216804Y-62649000D01*
X130341823Y-62661313D01*
X130341823Y-62661313D01*
G37*
G36*
X127801823Y-62661313D02*
G01*
X127962242Y-62709976D01*
X128094906Y-62780886D01*
X128110078Y-62788996D01*
X128239659Y-62895341D01*
X128346004Y-63024922D01*
X128346005Y-63024924D01*
X128425024Y-63172758D01*
X128473687Y-63333177D01*
X128490117Y-63500000D01*
X128473687Y-63666823D01*
X128425024Y-63827242D01*
X128354114Y-63959906D01*
X128346004Y-63975078D01*
X128239659Y-64104659D01*
X128110078Y-64211004D01*
X128110076Y-64211005D01*
X127962242Y-64290024D01*
X127801823Y-64338687D01*
X127676804Y-64351000D01*
X127593196Y-64351000D01*
X127468177Y-64338687D01*
X127307758Y-64290024D01*
X127159924Y-64211005D01*
X127159922Y-64211004D01*
X127030341Y-64104659D01*
X126923996Y-63975078D01*
X126915886Y-63959906D01*
X126844976Y-63827242D01*
X126796313Y-63666823D01*
X126779883Y-63500000D01*
X126796313Y-63333177D01*
X126844976Y-63172758D01*
X126923995Y-63024924D01*
X126923996Y-63024922D01*
X127030341Y-62895341D01*
X127159922Y-62788996D01*
X127175094Y-62780886D01*
X127307758Y-62709976D01*
X127468177Y-62661313D01*
X127593196Y-62649000D01*
X127676804Y-62649000D01*
X127801823Y-62661313D01*
X127801823Y-62661313D01*
G37*
G36*
X123406000Y-64351000D02*
G01*
X121704000Y-64351000D01*
X121704000Y-62649000D01*
X123406000Y-62649000D01*
X123406000Y-64351000D01*
X123406000Y-64351000D01*
G37*
G36*
X125261823Y-62661313D02*
G01*
X125422242Y-62709976D01*
X125554906Y-62780886D01*
X125570078Y-62788996D01*
X125699659Y-62895341D01*
X125806004Y-63024922D01*
X125806005Y-63024924D01*
X125885024Y-63172758D01*
X125933687Y-63333177D01*
X125950117Y-63500000D01*
X125933687Y-63666823D01*
X125885024Y-63827242D01*
X125814114Y-63959906D01*
X125806004Y-63975078D01*
X125699659Y-64104659D01*
X125570078Y-64211004D01*
X125570076Y-64211005D01*
X125422242Y-64290024D01*
X125261823Y-64338687D01*
X125136804Y-64351000D01*
X125053196Y-64351000D01*
X124928177Y-64338687D01*
X124767758Y-64290024D01*
X124619924Y-64211005D01*
X124619922Y-64211004D01*
X124490341Y-64104659D01*
X124383996Y-63975078D01*
X124375886Y-63959906D01*
X124304976Y-63827242D01*
X124256313Y-63666823D01*
X124239883Y-63500000D01*
X124256313Y-63333177D01*
X124304976Y-63172758D01*
X124383995Y-63024924D01*
X124383996Y-63024922D01*
X124490341Y-62895341D01*
X124619922Y-62788996D01*
X124635094Y-62780886D01*
X124767758Y-62709976D01*
X124928177Y-62661313D01*
X125053196Y-62649000D01*
X125136804Y-62649000D01*
X125261823Y-62661313D01*
X125261823Y-62661313D01*
G37*
G36*
X150076000Y-64351000D02*
G01*
X148374000Y-64351000D01*
X148374000Y-62649000D01*
X150076000Y-62649000D01*
X150076000Y-64351000D01*
X150076000Y-64351000D01*
G37*
G36*
X142406823Y-62661313D02*
G01*
X142567242Y-62709976D01*
X142699906Y-62780886D01*
X142715078Y-62788996D01*
X142844659Y-62895341D01*
X142951004Y-63024922D01*
X142951005Y-63024924D01*
X143030024Y-63172758D01*
X143078687Y-63333177D01*
X143095117Y-63500000D01*
X143078687Y-63666823D01*
X143030024Y-63827242D01*
X142959114Y-63959906D01*
X142951004Y-63975078D01*
X142844659Y-64104659D01*
X142715078Y-64211004D01*
X142715076Y-64211005D01*
X142567242Y-64290024D01*
X142406823Y-64338687D01*
X142281804Y-64351000D01*
X142198196Y-64351000D01*
X142073177Y-64338687D01*
X141912758Y-64290024D01*
X141764924Y-64211005D01*
X141764922Y-64211004D01*
X141635341Y-64104659D01*
X141528996Y-63975078D01*
X141520886Y-63959906D01*
X141449976Y-63827242D01*
X141401313Y-63666823D01*
X141384883Y-63500000D01*
X141401313Y-63333177D01*
X141449976Y-63172758D01*
X141528995Y-63024924D01*
X141528996Y-63024922D01*
X141635341Y-62895341D01*
X141764922Y-62788996D01*
X141780094Y-62780886D01*
X141912758Y-62709976D01*
X142073177Y-62661313D01*
X142198196Y-62649000D01*
X142281804Y-62649000D01*
X142406823Y-62661313D01*
X142406823Y-62661313D01*
G37*
G36*
X216725239Y-56351467D02*
G01*
X217039282Y-56413934D01*
X217630926Y-56659001D01*
X218163392Y-57014784D01*
X218616216Y-57467608D01*
X218971999Y-58000074D01*
X219217066Y-58591718D01*
X219217066Y-58591719D01*
X219342000Y-59219803D01*
X219342000Y-59860197D01*
X219279533Y-60174239D01*
X219217066Y-60488282D01*
X218971999Y-61079926D01*
X218616216Y-61612392D01*
X218163392Y-62065216D01*
X217630926Y-62420999D01*
X217039282Y-62666066D01*
X216818536Y-62709975D01*
X216411197Y-62791000D01*
X215770803Y-62791000D01*
X215363464Y-62709975D01*
X215142718Y-62666066D01*
X214551074Y-62420999D01*
X214018608Y-62065216D01*
X213565784Y-61612392D01*
X213210001Y-61079926D01*
X212964934Y-60488282D01*
X212902467Y-60174239D01*
X212840000Y-59860197D01*
X212840000Y-59219803D01*
X212964934Y-58591719D01*
X212964934Y-58591718D01*
X213210001Y-58000074D01*
X213565784Y-57467608D01*
X214018608Y-57014784D01*
X214551074Y-56659001D01*
X215142718Y-56413934D01*
X215456761Y-56351467D01*
X215770803Y-56289000D01*
X216411197Y-56289000D01*
X216725239Y-56351467D01*
X216725239Y-56351467D01*
G37*
G36*
X163361823Y-55041313D02*
G01*
X163522242Y-55089976D01*
X163654906Y-55160886D01*
X163670078Y-55168996D01*
X163799659Y-55275341D01*
X163906004Y-55404922D01*
X163906005Y-55404924D01*
X163985024Y-55552758D01*
X164033687Y-55713177D01*
X164050117Y-55880000D01*
X164033687Y-56046823D01*
X163985024Y-56207242D01*
X163941323Y-56289000D01*
X163906004Y-56355078D01*
X163799659Y-56484659D01*
X163670078Y-56591004D01*
X163670076Y-56591005D01*
X163522242Y-56670024D01*
X163361823Y-56718687D01*
X163236804Y-56731000D01*
X163153196Y-56731000D01*
X163028177Y-56718687D01*
X162867758Y-56670024D01*
X162719924Y-56591005D01*
X162719922Y-56591004D01*
X162590341Y-56484659D01*
X162483996Y-56355078D01*
X162448677Y-56289000D01*
X162404976Y-56207242D01*
X162356313Y-56046823D01*
X162339883Y-55880000D01*
X162356313Y-55713177D01*
X162404976Y-55552758D01*
X162483995Y-55404924D01*
X162483996Y-55404922D01*
X162590341Y-55275341D01*
X162719922Y-55168996D01*
X162735094Y-55160886D01*
X162867758Y-55089976D01*
X163028177Y-55041313D01*
X163153196Y-55029000D01*
X163236804Y-55029000D01*
X163361823Y-55041313D01*
X163361823Y-55041313D01*
G37*
G36*
X165901823Y-55041313D02*
G01*
X166062242Y-55089976D01*
X166194906Y-55160886D01*
X166210078Y-55168996D01*
X166339659Y-55275341D01*
X166446004Y-55404922D01*
X166446005Y-55404924D01*
X166525024Y-55552758D01*
X166573687Y-55713177D01*
X166590117Y-55880000D01*
X166573687Y-56046823D01*
X166525024Y-56207242D01*
X166481323Y-56289000D01*
X166446004Y-56355078D01*
X166339659Y-56484659D01*
X166210078Y-56591004D01*
X166210076Y-56591005D01*
X166062242Y-56670024D01*
X165901823Y-56718687D01*
X165776804Y-56731000D01*
X165693196Y-56731000D01*
X165568177Y-56718687D01*
X165407758Y-56670024D01*
X165259924Y-56591005D01*
X165259922Y-56591004D01*
X165130341Y-56484659D01*
X165023996Y-56355078D01*
X164988677Y-56289000D01*
X164944976Y-56207242D01*
X164896313Y-56046823D01*
X164879883Y-55880000D01*
X164896313Y-55713177D01*
X164944976Y-55552758D01*
X165023995Y-55404924D01*
X165023996Y-55404922D01*
X165130341Y-55275341D01*
X165259922Y-55168996D01*
X165275094Y-55160886D01*
X165407758Y-55089976D01*
X165568177Y-55041313D01*
X165693196Y-55029000D01*
X165776804Y-55029000D01*
X165901823Y-55041313D01*
X165901823Y-55041313D01*
G37*
G36*
X137326823Y-55041313D02*
G01*
X137487242Y-55089976D01*
X137619906Y-55160886D01*
X137635078Y-55168996D01*
X137764659Y-55275341D01*
X137871004Y-55404922D01*
X137871005Y-55404924D01*
X137950024Y-55552758D01*
X137998687Y-55713177D01*
X138015117Y-55880000D01*
X137998687Y-56046823D01*
X137950024Y-56207242D01*
X137906323Y-56289000D01*
X137871004Y-56355078D01*
X137764659Y-56484659D01*
X137635078Y-56591004D01*
X137635076Y-56591005D01*
X137487242Y-56670024D01*
X137326823Y-56718687D01*
X137201804Y-56731000D01*
X137118196Y-56731000D01*
X136993177Y-56718687D01*
X136832758Y-56670024D01*
X136684924Y-56591005D01*
X136684922Y-56591004D01*
X136555341Y-56484659D01*
X136448996Y-56355078D01*
X136413677Y-56289000D01*
X136369976Y-56207242D01*
X136321313Y-56046823D01*
X136304883Y-55880000D01*
X136321313Y-55713177D01*
X136369976Y-55552758D01*
X136448995Y-55404924D01*
X136448996Y-55404922D01*
X136555341Y-55275341D01*
X136684922Y-55168996D01*
X136700094Y-55160886D01*
X136832758Y-55089976D01*
X136993177Y-55041313D01*
X137118196Y-55029000D01*
X137201804Y-55029000D01*
X137326823Y-55041313D01*
X137326823Y-55041313D01*
G37*
G36*
X139866823Y-55041313D02*
G01*
X140027242Y-55089976D01*
X140159906Y-55160886D01*
X140175078Y-55168996D01*
X140304659Y-55275341D01*
X140411004Y-55404922D01*
X140411005Y-55404924D01*
X140490024Y-55552758D01*
X140538687Y-55713177D01*
X140555117Y-55880000D01*
X140538687Y-56046823D01*
X140490024Y-56207242D01*
X140446323Y-56289000D01*
X140411004Y-56355078D01*
X140304659Y-56484659D01*
X140175078Y-56591004D01*
X140175076Y-56591005D01*
X140027242Y-56670024D01*
X139866823Y-56718687D01*
X139741804Y-56731000D01*
X139658196Y-56731000D01*
X139533177Y-56718687D01*
X139372758Y-56670024D01*
X139224924Y-56591005D01*
X139224922Y-56591004D01*
X139095341Y-56484659D01*
X138988996Y-56355078D01*
X138953677Y-56289000D01*
X138909976Y-56207242D01*
X138861313Y-56046823D01*
X138844883Y-55880000D01*
X138861313Y-55713177D01*
X138909976Y-55552758D01*
X138988995Y-55404924D01*
X138988996Y-55404922D01*
X139095341Y-55275341D01*
X139224922Y-55168996D01*
X139240094Y-55160886D01*
X139372758Y-55089976D01*
X139533177Y-55041313D01*
X139658196Y-55029000D01*
X139741804Y-55029000D01*
X139866823Y-55041313D01*
X139866823Y-55041313D01*
G37*
G36*
X142406823Y-55041313D02*
G01*
X142567242Y-55089976D01*
X142699906Y-55160886D01*
X142715078Y-55168996D01*
X142844659Y-55275341D01*
X142951004Y-55404922D01*
X142951005Y-55404924D01*
X143030024Y-55552758D01*
X143078687Y-55713177D01*
X143095117Y-55880000D01*
X143078687Y-56046823D01*
X143030024Y-56207242D01*
X142986323Y-56289000D01*
X142951004Y-56355078D01*
X142844659Y-56484659D01*
X142715078Y-56591004D01*
X142715076Y-56591005D01*
X142567242Y-56670024D01*
X142406823Y-56718687D01*
X142281804Y-56731000D01*
X142198196Y-56731000D01*
X142073177Y-56718687D01*
X141912758Y-56670024D01*
X141764924Y-56591005D01*
X141764922Y-56591004D01*
X141635341Y-56484659D01*
X141528996Y-56355078D01*
X141493677Y-56289000D01*
X141449976Y-56207242D01*
X141401313Y-56046823D01*
X141384883Y-55880000D01*
X141401313Y-55713177D01*
X141449976Y-55552758D01*
X141528995Y-55404924D01*
X141528996Y-55404922D01*
X141635341Y-55275341D01*
X141764922Y-55168996D01*
X141780094Y-55160886D01*
X141912758Y-55089976D01*
X142073177Y-55041313D01*
X142198196Y-55029000D01*
X142281804Y-55029000D01*
X142406823Y-55041313D01*
X142406823Y-55041313D01*
G37*
G36*
X149391823Y-55041313D02*
G01*
X149552242Y-55089976D01*
X149684906Y-55160886D01*
X149700078Y-55168996D01*
X149829659Y-55275341D01*
X149936004Y-55404922D01*
X149936005Y-55404924D01*
X150015024Y-55552758D01*
X150063687Y-55713177D01*
X150080117Y-55880000D01*
X150063687Y-56046823D01*
X150015024Y-56207242D01*
X149971323Y-56289000D01*
X149936004Y-56355078D01*
X149829659Y-56484659D01*
X149700078Y-56591004D01*
X149700076Y-56591005D01*
X149552242Y-56670024D01*
X149391823Y-56718687D01*
X149266804Y-56731000D01*
X149183196Y-56731000D01*
X149058177Y-56718687D01*
X148897758Y-56670024D01*
X148749924Y-56591005D01*
X148749922Y-56591004D01*
X148620341Y-56484659D01*
X148513996Y-56355078D01*
X148478677Y-56289000D01*
X148434976Y-56207242D01*
X148386313Y-56046823D01*
X148369883Y-55880000D01*
X148386313Y-55713177D01*
X148434976Y-55552758D01*
X148513995Y-55404924D01*
X148513996Y-55404922D01*
X148620341Y-55275341D01*
X148749922Y-55168996D01*
X148765094Y-55160886D01*
X148897758Y-55089976D01*
X149058177Y-55041313D01*
X149183196Y-55029000D01*
X149266804Y-55029000D01*
X149391823Y-55041313D01*
X149391823Y-55041313D01*
G37*
G36*
X168441823Y-55041313D02*
G01*
X168602242Y-55089976D01*
X168734906Y-55160886D01*
X168750078Y-55168996D01*
X168879659Y-55275341D01*
X168986004Y-55404922D01*
X168986005Y-55404924D01*
X169065024Y-55552758D01*
X169113687Y-55713177D01*
X169130117Y-55880000D01*
X169113687Y-56046823D01*
X169065024Y-56207242D01*
X169021323Y-56289000D01*
X168986004Y-56355078D01*
X168879659Y-56484659D01*
X168750078Y-56591004D01*
X168750076Y-56591005D01*
X168602242Y-56670024D01*
X168441823Y-56718687D01*
X168316804Y-56731000D01*
X168233196Y-56731000D01*
X168108177Y-56718687D01*
X167947758Y-56670024D01*
X167799924Y-56591005D01*
X167799922Y-56591004D01*
X167670341Y-56484659D01*
X167563996Y-56355078D01*
X167528677Y-56289000D01*
X167484976Y-56207242D01*
X167436313Y-56046823D01*
X167419883Y-55880000D01*
X167436313Y-55713177D01*
X167484976Y-55552758D01*
X167563995Y-55404924D01*
X167563996Y-55404922D01*
X167670341Y-55275341D01*
X167799922Y-55168996D01*
X167815094Y-55160886D01*
X167947758Y-55089976D01*
X168108177Y-55041313D01*
X168233196Y-55029000D01*
X168316804Y-55029000D01*
X168441823Y-55041313D01*
X168441823Y-55041313D01*
G37*
G36*
X151931823Y-55041313D02*
G01*
X152092242Y-55089976D01*
X152224906Y-55160886D01*
X152240078Y-55168996D01*
X152369659Y-55275341D01*
X152476004Y-55404922D01*
X152476005Y-55404924D01*
X152555024Y-55552758D01*
X152603687Y-55713177D01*
X152620117Y-55880000D01*
X152603687Y-56046823D01*
X152555024Y-56207242D01*
X152511323Y-56289000D01*
X152476004Y-56355078D01*
X152369659Y-56484659D01*
X152240078Y-56591004D01*
X152240076Y-56591005D01*
X152092242Y-56670024D01*
X151931823Y-56718687D01*
X151806804Y-56731000D01*
X151723196Y-56731000D01*
X151598177Y-56718687D01*
X151437758Y-56670024D01*
X151289924Y-56591005D01*
X151289922Y-56591004D01*
X151160341Y-56484659D01*
X151053996Y-56355078D01*
X151018677Y-56289000D01*
X150974976Y-56207242D01*
X150926313Y-56046823D01*
X150909883Y-55880000D01*
X150926313Y-55713177D01*
X150974976Y-55552758D01*
X151053995Y-55404924D01*
X151053996Y-55404922D01*
X151160341Y-55275341D01*
X151289922Y-55168996D01*
X151305094Y-55160886D01*
X151437758Y-55089976D01*
X151598177Y-55041313D01*
X151723196Y-55029000D01*
X151806804Y-55029000D01*
X151931823Y-55041313D01*
X151931823Y-55041313D01*
G37*
G36*
X177966823Y-55041313D02*
G01*
X178127242Y-55089976D01*
X178259906Y-55160886D01*
X178275078Y-55168996D01*
X178404659Y-55275341D01*
X178511004Y-55404922D01*
X178511005Y-55404924D01*
X178590024Y-55552758D01*
X178638687Y-55713177D01*
X178655117Y-55880000D01*
X178638687Y-56046823D01*
X178590024Y-56207242D01*
X178546323Y-56289000D01*
X178511004Y-56355078D01*
X178404659Y-56484659D01*
X178275078Y-56591004D01*
X178275076Y-56591005D01*
X178127242Y-56670024D01*
X177966823Y-56718687D01*
X177841804Y-56731000D01*
X177758196Y-56731000D01*
X177633177Y-56718687D01*
X177472758Y-56670024D01*
X177324924Y-56591005D01*
X177324922Y-56591004D01*
X177195341Y-56484659D01*
X177088996Y-56355078D01*
X177053677Y-56289000D01*
X177009976Y-56207242D01*
X176961313Y-56046823D01*
X176944883Y-55880000D01*
X176961313Y-55713177D01*
X177009976Y-55552758D01*
X177088995Y-55404924D01*
X177088996Y-55404922D01*
X177195341Y-55275341D01*
X177324922Y-55168996D01*
X177340094Y-55160886D01*
X177472758Y-55089976D01*
X177633177Y-55041313D01*
X177758196Y-55029000D01*
X177841804Y-55029000D01*
X177966823Y-55041313D01*
X177966823Y-55041313D01*
G37*
G36*
X122721823Y-55041313D02*
G01*
X122882242Y-55089976D01*
X123014906Y-55160886D01*
X123030078Y-55168996D01*
X123159659Y-55275341D01*
X123266004Y-55404922D01*
X123266005Y-55404924D01*
X123345024Y-55552758D01*
X123393687Y-55713177D01*
X123410117Y-55880000D01*
X123393687Y-56046823D01*
X123345024Y-56207242D01*
X123301323Y-56289000D01*
X123266004Y-56355078D01*
X123159659Y-56484659D01*
X123030078Y-56591004D01*
X123030076Y-56591005D01*
X122882242Y-56670024D01*
X122721823Y-56718687D01*
X122596804Y-56731000D01*
X122513196Y-56731000D01*
X122388177Y-56718687D01*
X122227758Y-56670024D01*
X122079924Y-56591005D01*
X122079922Y-56591004D01*
X121950341Y-56484659D01*
X121843996Y-56355078D01*
X121808677Y-56289000D01*
X121764976Y-56207242D01*
X121716313Y-56046823D01*
X121699883Y-55880000D01*
X121716313Y-55713177D01*
X121764976Y-55552758D01*
X121843995Y-55404924D01*
X121843996Y-55404922D01*
X121950341Y-55275341D01*
X122079922Y-55168996D01*
X122095094Y-55160886D01*
X122227758Y-55089976D01*
X122388177Y-55041313D01*
X122513196Y-55029000D01*
X122596804Y-55029000D01*
X122721823Y-55041313D01*
X122721823Y-55041313D01*
G37*
G36*
X130341823Y-55041313D02*
G01*
X130502242Y-55089976D01*
X130634906Y-55160886D01*
X130650078Y-55168996D01*
X130779659Y-55275341D01*
X130886004Y-55404922D01*
X130886005Y-55404924D01*
X130965024Y-55552758D01*
X131013687Y-55713177D01*
X131030117Y-55880000D01*
X131013687Y-56046823D01*
X130965024Y-56207242D01*
X130921323Y-56289000D01*
X130886004Y-56355078D01*
X130779659Y-56484659D01*
X130650078Y-56591004D01*
X130650076Y-56591005D01*
X130502242Y-56670024D01*
X130341823Y-56718687D01*
X130216804Y-56731000D01*
X130133196Y-56731000D01*
X130008177Y-56718687D01*
X129847758Y-56670024D01*
X129699924Y-56591005D01*
X129699922Y-56591004D01*
X129570341Y-56484659D01*
X129463996Y-56355078D01*
X129428677Y-56289000D01*
X129384976Y-56207242D01*
X129336313Y-56046823D01*
X129319883Y-55880000D01*
X129336313Y-55713177D01*
X129384976Y-55552758D01*
X129463995Y-55404924D01*
X129463996Y-55404922D01*
X129570341Y-55275341D01*
X129699922Y-55168996D01*
X129715094Y-55160886D01*
X129847758Y-55089976D01*
X130008177Y-55041313D01*
X130133196Y-55029000D01*
X130216804Y-55029000D01*
X130341823Y-55041313D01*
X130341823Y-55041313D01*
G37*
G36*
X125261823Y-55041313D02*
G01*
X125422242Y-55089976D01*
X125554906Y-55160886D01*
X125570078Y-55168996D01*
X125699659Y-55275341D01*
X125806004Y-55404922D01*
X125806005Y-55404924D01*
X125885024Y-55552758D01*
X125933687Y-55713177D01*
X125950117Y-55880000D01*
X125933687Y-56046823D01*
X125885024Y-56207242D01*
X125841323Y-56289000D01*
X125806004Y-56355078D01*
X125699659Y-56484659D01*
X125570078Y-56591004D01*
X125570076Y-56591005D01*
X125422242Y-56670024D01*
X125261823Y-56718687D01*
X125136804Y-56731000D01*
X125053196Y-56731000D01*
X124928177Y-56718687D01*
X124767758Y-56670024D01*
X124619924Y-56591005D01*
X124619922Y-56591004D01*
X124490341Y-56484659D01*
X124383996Y-56355078D01*
X124348677Y-56289000D01*
X124304976Y-56207242D01*
X124256313Y-56046823D01*
X124239883Y-55880000D01*
X124256313Y-55713177D01*
X124304976Y-55552758D01*
X124383995Y-55404924D01*
X124383996Y-55404922D01*
X124490341Y-55275341D01*
X124619922Y-55168996D01*
X124635094Y-55160886D01*
X124767758Y-55089976D01*
X124928177Y-55041313D01*
X125053196Y-55029000D01*
X125136804Y-55029000D01*
X125261823Y-55041313D01*
X125261823Y-55041313D01*
G37*
G36*
X158281823Y-55041313D02*
G01*
X158442242Y-55089976D01*
X158574906Y-55160886D01*
X158590078Y-55168996D01*
X158719659Y-55275341D01*
X158826004Y-55404922D01*
X158826005Y-55404924D01*
X158905024Y-55552758D01*
X158953687Y-55713177D01*
X158970117Y-55880000D01*
X158953687Y-56046823D01*
X158905024Y-56207242D01*
X158861323Y-56289000D01*
X158826004Y-56355078D01*
X158719659Y-56484659D01*
X158590078Y-56591004D01*
X158590076Y-56591005D01*
X158442242Y-56670024D01*
X158281823Y-56718687D01*
X158156804Y-56731000D01*
X158073196Y-56731000D01*
X157948177Y-56718687D01*
X157787758Y-56670024D01*
X157639924Y-56591005D01*
X157639922Y-56591004D01*
X157510341Y-56484659D01*
X157403996Y-56355078D01*
X157368677Y-56289000D01*
X157324976Y-56207242D01*
X157276313Y-56046823D01*
X157259883Y-55880000D01*
X157276313Y-55713177D01*
X157324976Y-55552758D01*
X157403995Y-55404924D01*
X157403996Y-55404922D01*
X157510341Y-55275341D01*
X157639922Y-55168996D01*
X157655094Y-55160886D01*
X157787758Y-55089976D01*
X157948177Y-55041313D01*
X158073196Y-55029000D01*
X158156804Y-55029000D01*
X158281823Y-55041313D01*
X158281823Y-55041313D01*
G37*
G36*
X175426823Y-55041313D02*
G01*
X175587242Y-55089976D01*
X175719906Y-55160886D01*
X175735078Y-55168996D01*
X175864659Y-55275341D01*
X175971004Y-55404922D01*
X175971005Y-55404924D01*
X176050024Y-55552758D01*
X176098687Y-55713177D01*
X176115117Y-55880000D01*
X176098687Y-56046823D01*
X176050024Y-56207242D01*
X176006323Y-56289000D01*
X175971004Y-56355078D01*
X175864659Y-56484659D01*
X175735078Y-56591004D01*
X175735076Y-56591005D01*
X175587242Y-56670024D01*
X175426823Y-56718687D01*
X175301804Y-56731000D01*
X175218196Y-56731000D01*
X175093177Y-56718687D01*
X174932758Y-56670024D01*
X174784924Y-56591005D01*
X174784922Y-56591004D01*
X174655341Y-56484659D01*
X174548996Y-56355078D01*
X174513677Y-56289000D01*
X174469976Y-56207242D01*
X174421313Y-56046823D01*
X174404883Y-55880000D01*
X174421313Y-55713177D01*
X174469976Y-55552758D01*
X174548995Y-55404924D01*
X174548996Y-55404922D01*
X174655341Y-55275341D01*
X174784922Y-55168996D01*
X174800094Y-55160886D01*
X174932758Y-55089976D01*
X175093177Y-55041313D01*
X175218196Y-55029000D01*
X175301804Y-55029000D01*
X175426823Y-55041313D01*
X175426823Y-55041313D01*
G37*
G36*
X160821823Y-55041313D02*
G01*
X160982242Y-55089976D01*
X161114906Y-55160886D01*
X161130078Y-55168996D01*
X161259659Y-55275341D01*
X161366004Y-55404922D01*
X161366005Y-55404924D01*
X161445024Y-55552758D01*
X161493687Y-55713177D01*
X161510117Y-55880000D01*
X161493687Y-56046823D01*
X161445024Y-56207242D01*
X161401323Y-56289000D01*
X161366004Y-56355078D01*
X161259659Y-56484659D01*
X161130078Y-56591004D01*
X161130076Y-56591005D01*
X160982242Y-56670024D01*
X160821823Y-56718687D01*
X160696804Y-56731000D01*
X160613196Y-56731000D01*
X160488177Y-56718687D01*
X160327758Y-56670024D01*
X160179924Y-56591005D01*
X160179922Y-56591004D01*
X160050341Y-56484659D01*
X159943996Y-56355078D01*
X159908677Y-56289000D01*
X159864976Y-56207242D01*
X159816313Y-56046823D01*
X159799883Y-55880000D01*
X159816313Y-55713177D01*
X159864976Y-55552758D01*
X159943995Y-55404924D01*
X159943996Y-55404922D01*
X160050341Y-55275341D01*
X160179922Y-55168996D01*
X160195094Y-55160886D01*
X160327758Y-55089976D01*
X160488177Y-55041313D01*
X160613196Y-55029000D01*
X160696804Y-55029000D01*
X160821823Y-55041313D01*
X160821823Y-55041313D01*
G37*
G36*
X127801823Y-55041313D02*
G01*
X127962242Y-55089976D01*
X128094906Y-55160886D01*
X128110078Y-55168996D01*
X128239659Y-55275341D01*
X128346004Y-55404922D01*
X128346005Y-55404924D01*
X128425024Y-55552758D01*
X128473687Y-55713177D01*
X128490117Y-55880000D01*
X128473687Y-56046823D01*
X128425024Y-56207242D01*
X128381323Y-56289000D01*
X128346004Y-56355078D01*
X128239659Y-56484659D01*
X128110078Y-56591004D01*
X128110076Y-56591005D01*
X127962242Y-56670024D01*
X127801823Y-56718687D01*
X127676804Y-56731000D01*
X127593196Y-56731000D01*
X127468177Y-56718687D01*
X127307758Y-56670024D01*
X127159924Y-56591005D01*
X127159922Y-56591004D01*
X127030341Y-56484659D01*
X126923996Y-56355078D01*
X126888677Y-56289000D01*
X126844976Y-56207242D01*
X126796313Y-56046823D01*
X126779883Y-55880000D01*
X126796313Y-55713177D01*
X126844976Y-55552758D01*
X126923995Y-55404924D01*
X126923996Y-55404922D01*
X127030341Y-55275341D01*
X127159922Y-55168996D01*
X127175094Y-55160886D01*
X127307758Y-55089976D01*
X127468177Y-55041313D01*
X127593196Y-55029000D01*
X127676804Y-55029000D01*
X127801823Y-55041313D01*
X127801823Y-55041313D01*
G37*
M02*
