G04 #@! TF.GenerationSoftware,KiCad,Pcbnew,(5.1.4)-1*
G04 #@! TF.CreationDate,2021-04-18T00:02:26+02:00*
G04 #@! TF.ProjectId,NE2000,4e453230-3030-42e6-9b69-6361645f7063,rev?*
G04 #@! TF.SameCoordinates,Original*
G04 #@! TF.FileFunction,Profile,NP*
%FSLAX46Y46*%
G04 Gerber Fmt 4.6, Leading zero omitted, Abs format (unit mm)*
G04 Created by KiCad (PCBNEW (5.1.4)-1) date 2021-04-18 00:02:26*
%MOMM*%
%LPD*%
G04 APERTURE LIST*
%ADD10C,0.050000*%
G04 APERTURE END LIST*
D10*
X116840000Y-98425000D02*
G75*
G02X116205000Y-99060000I-635000J0D01*
G01*
X197231000Y-128016000D02*
X198247000Y-127000000D01*
X63500000Y-127000000D02*
X64516000Y-128016000D01*
X116840000Y-127000000D02*
X117856000Y-128016000D01*
X110871000Y-128016000D02*
X111887000Y-127000000D01*
X220345000Y-119126000D02*
G75*
G02X219075000Y-120396000I-1270000J0D01*
G01*
X219075000Y-49530000D02*
G75*
G02X220345000Y-50800000I0J-1270000D01*
G01*
X116840000Y-50800000D02*
G75*
G02X118110000Y-49530000I1270000J0D01*
G01*
X63500000Y-100330000D02*
G75*
G02X64770000Y-99060000I1270000J0D01*
G01*
X116205000Y-99060000D02*
X64770000Y-99060000D01*
X116840000Y-50800000D02*
X116840000Y-98425000D01*
X116840000Y-120015000D02*
X111887000Y-120015000D01*
X111887000Y-120015000D02*
X111887000Y-127000000D01*
X118110000Y-49530000D02*
X219075000Y-49530000D01*
X110871000Y-128016000D02*
X64516000Y-128016000D01*
X220345000Y-50800000D02*
X220345000Y-119126000D01*
X116840000Y-127000000D02*
X116840000Y-120015000D01*
X63500000Y-127000000D02*
X63500000Y-118618000D01*
X198247000Y-120396000D02*
X198247000Y-127000000D01*
X197231000Y-128016000D02*
X117856000Y-128016000D01*
X219075000Y-120396000D02*
X198247000Y-120396000D01*
X63500000Y-118618000D02*
X63500000Y-100330000D01*
M02*
