G04 #@! TF.GenerationSoftware,KiCad,Pcbnew,(5.1.5)-3*
G04 #@! TF.CreationDate,2021-04-16T15:35:43+02:00*
G04 #@! TF.ProjectId,NE2000,4e453230-3030-42e6-9b69-6361645f7063,rev?*
G04 #@! TF.SameCoordinates,Original*
G04 #@! TF.FileFunction,Soldermask,Bot*
G04 #@! TF.FilePolarity,Negative*
%FSLAX46Y46*%
G04 Gerber Fmt 4.6, Leading zero omitted, Abs format (unit mm)*
G04 Created by KiCad (PCBNEW (5.1.5)-3) date 2021-04-16 15:35:43*
%MOMM*%
%LPD*%
G04 APERTURE LIST*
%ADD10C,0.100000*%
G04 APERTURE END LIST*
D10*
G36*
X168641000Y-127601000D02*
G01*
X166759000Y-127601000D01*
X166759000Y-119879000D01*
X168641000Y-119879000D01*
X168641000Y-127601000D01*
G37*
G36*
X166101000Y-127601000D02*
G01*
X164219000Y-127601000D01*
X164219000Y-119879000D01*
X166101000Y-119879000D01*
X166101000Y-127601000D01*
G37*
G36*
X196581000Y-127601000D02*
G01*
X194699000Y-127601000D01*
X194699000Y-119879000D01*
X196581000Y-119879000D01*
X196581000Y-127601000D01*
G37*
G36*
X194041000Y-127601000D02*
G01*
X192159000Y-127601000D01*
X192159000Y-119879000D01*
X194041000Y-119879000D01*
X194041000Y-127601000D01*
G37*
G36*
X191501000Y-127601000D02*
G01*
X189619000Y-127601000D01*
X189619000Y-119879000D01*
X191501000Y-119879000D01*
X191501000Y-127601000D01*
G37*
G36*
X188961000Y-127601000D02*
G01*
X187079000Y-127601000D01*
X187079000Y-119879000D01*
X188961000Y-119879000D01*
X188961000Y-127601000D01*
G37*
G36*
X186421000Y-127601000D02*
G01*
X184539000Y-127601000D01*
X184539000Y-119879000D01*
X186421000Y-119879000D01*
X186421000Y-127601000D01*
G37*
G36*
X183881000Y-127601000D02*
G01*
X181999000Y-127601000D01*
X181999000Y-119879000D01*
X183881000Y-119879000D01*
X183881000Y-127601000D01*
G37*
G36*
X181341000Y-127601000D02*
G01*
X179459000Y-127601000D01*
X179459000Y-119879000D01*
X181341000Y-119879000D01*
X181341000Y-127601000D01*
G37*
G36*
X178801000Y-127601000D02*
G01*
X176919000Y-127601000D01*
X176919000Y-119879000D01*
X178801000Y-119879000D01*
X178801000Y-127601000D01*
G37*
G36*
X176261000Y-127601000D02*
G01*
X174379000Y-127601000D01*
X174379000Y-119879000D01*
X176261000Y-119879000D01*
X176261000Y-127601000D01*
G37*
G36*
X173721000Y-127601000D02*
G01*
X171839000Y-127601000D01*
X171839000Y-119879000D01*
X173721000Y-119879000D01*
X173721000Y-127601000D01*
G37*
G36*
X171181000Y-127601000D02*
G01*
X169299000Y-127601000D01*
X169299000Y-119879000D01*
X171181000Y-119879000D01*
X171181000Y-127601000D01*
G37*
G36*
X155941000Y-127601000D02*
G01*
X154059000Y-127601000D01*
X154059000Y-119879000D01*
X155941000Y-119879000D01*
X155941000Y-127601000D01*
G37*
G36*
X163561000Y-127601000D02*
G01*
X161679000Y-127601000D01*
X161679000Y-119879000D01*
X163561000Y-119879000D01*
X163561000Y-127601000D01*
G37*
G36*
X161021000Y-127601000D02*
G01*
X159139000Y-127601000D01*
X159139000Y-119879000D01*
X161021000Y-119879000D01*
X161021000Y-127601000D01*
G37*
G36*
X158481000Y-127601000D02*
G01*
X156599000Y-127601000D01*
X156599000Y-119879000D01*
X158481000Y-119879000D01*
X158481000Y-127601000D01*
G37*
G36*
X153401000Y-127601000D02*
G01*
X151519000Y-127601000D01*
X151519000Y-119879000D01*
X153401000Y-119879000D01*
X153401000Y-127601000D01*
G37*
G36*
X150861000Y-127601000D02*
G01*
X148979000Y-127601000D01*
X148979000Y-119879000D01*
X150861000Y-119879000D01*
X150861000Y-127601000D01*
G37*
G36*
X148321000Y-127601000D02*
G01*
X146439000Y-127601000D01*
X146439000Y-119879000D01*
X148321000Y-119879000D01*
X148321000Y-127601000D01*
G37*
G36*
X145781000Y-127601000D02*
G01*
X143899000Y-127601000D01*
X143899000Y-119879000D01*
X145781000Y-119879000D01*
X145781000Y-127601000D01*
G37*
G36*
X143241000Y-127601000D02*
G01*
X141359000Y-127601000D01*
X141359000Y-119879000D01*
X143241000Y-119879000D01*
X143241000Y-127601000D01*
G37*
G36*
X140701000Y-127601000D02*
G01*
X138819000Y-127601000D01*
X138819000Y-119879000D01*
X140701000Y-119879000D01*
X140701000Y-127601000D01*
G37*
G36*
X138161000Y-127601000D02*
G01*
X136279000Y-127601000D01*
X136279000Y-119879000D01*
X138161000Y-119879000D01*
X138161000Y-127601000D01*
G37*
G36*
X94981000Y-127601000D02*
G01*
X93099000Y-127601000D01*
X93099000Y-119879000D01*
X94981000Y-119879000D01*
X94981000Y-127601000D01*
G37*
G36*
X69581000Y-127601000D02*
G01*
X67699000Y-127601000D01*
X67699000Y-119879000D01*
X69581000Y-119879000D01*
X69581000Y-127601000D01*
G37*
G36*
X133081000Y-127601000D02*
G01*
X131199000Y-127601000D01*
X131199000Y-119879000D01*
X133081000Y-119879000D01*
X133081000Y-127601000D01*
G37*
G36*
X130541000Y-127601000D02*
G01*
X128659000Y-127601000D01*
X128659000Y-119879000D01*
X130541000Y-119879000D01*
X130541000Y-127601000D01*
G37*
G36*
X128001000Y-127601000D02*
G01*
X126119000Y-127601000D01*
X126119000Y-119879000D01*
X128001000Y-119879000D01*
X128001000Y-127601000D01*
G37*
G36*
X125461000Y-127601000D02*
G01*
X123579000Y-127601000D01*
X123579000Y-119879000D01*
X125461000Y-119879000D01*
X125461000Y-127601000D01*
G37*
G36*
X122921000Y-127601000D02*
G01*
X121039000Y-127601000D01*
X121039000Y-119879000D01*
X122921000Y-119879000D01*
X122921000Y-127601000D01*
G37*
G36*
X120381000Y-127601000D02*
G01*
X118499000Y-127601000D01*
X118499000Y-119879000D01*
X120381000Y-119879000D01*
X120381000Y-127601000D01*
G37*
G36*
X110221000Y-127601000D02*
G01*
X108339000Y-127601000D01*
X108339000Y-119879000D01*
X110221000Y-119879000D01*
X110221000Y-127601000D01*
G37*
G36*
X107681000Y-127601000D02*
G01*
X105799000Y-127601000D01*
X105799000Y-119879000D01*
X107681000Y-119879000D01*
X107681000Y-127601000D01*
G37*
G36*
X105141000Y-127601000D02*
G01*
X103259000Y-127601000D01*
X103259000Y-119879000D01*
X105141000Y-119879000D01*
X105141000Y-127601000D01*
G37*
G36*
X102601000Y-127601000D02*
G01*
X100719000Y-127601000D01*
X100719000Y-119879000D01*
X102601000Y-119879000D01*
X102601000Y-127601000D01*
G37*
G36*
X100061000Y-127601000D02*
G01*
X98179000Y-127601000D01*
X98179000Y-119879000D01*
X100061000Y-119879000D01*
X100061000Y-127601000D01*
G37*
G36*
X135621000Y-127601000D02*
G01*
X133739000Y-127601000D01*
X133739000Y-119879000D01*
X135621000Y-119879000D01*
X135621000Y-127601000D01*
G37*
G36*
X67041000Y-127601000D02*
G01*
X65159000Y-127601000D01*
X65159000Y-119879000D01*
X67041000Y-119879000D01*
X67041000Y-127601000D01*
G37*
G36*
X72121000Y-127601000D02*
G01*
X70239000Y-127601000D01*
X70239000Y-119879000D01*
X72121000Y-119879000D01*
X72121000Y-127601000D01*
G37*
G36*
X74661000Y-127601000D02*
G01*
X72779000Y-127601000D01*
X72779000Y-119879000D01*
X74661000Y-119879000D01*
X74661000Y-127601000D01*
G37*
G36*
X77201000Y-127601000D02*
G01*
X75319000Y-127601000D01*
X75319000Y-119879000D01*
X77201000Y-119879000D01*
X77201000Y-127601000D01*
G37*
G36*
X79741000Y-127601000D02*
G01*
X77859000Y-127601000D01*
X77859000Y-119879000D01*
X79741000Y-119879000D01*
X79741000Y-127601000D01*
G37*
G36*
X82281000Y-127601000D02*
G01*
X80399000Y-127601000D01*
X80399000Y-119879000D01*
X82281000Y-119879000D01*
X82281000Y-127601000D01*
G37*
G36*
X87361000Y-127601000D02*
G01*
X85479000Y-127601000D01*
X85479000Y-119879000D01*
X87361000Y-119879000D01*
X87361000Y-127601000D01*
G37*
G36*
X97521000Y-127601000D02*
G01*
X95639000Y-127601000D01*
X95639000Y-119879000D01*
X97521000Y-119879000D01*
X97521000Y-127601000D01*
G37*
G36*
X92441000Y-127601000D02*
G01*
X90559000Y-127601000D01*
X90559000Y-119879000D01*
X92441000Y-119879000D01*
X92441000Y-127601000D01*
G37*
G36*
X84821000Y-127601000D02*
G01*
X82939000Y-127601000D01*
X82939000Y-119879000D01*
X84821000Y-119879000D01*
X84821000Y-127601000D01*
G37*
G36*
X89901000Y-127601000D02*
G01*
X88019000Y-127601000D01*
X88019000Y-119879000D01*
X89901000Y-119879000D01*
X89901000Y-127601000D01*
G37*
G36*
X216725239Y-112866467D02*
G01*
X217039282Y-112928934D01*
X217630926Y-113174001D01*
X218163392Y-113529784D01*
X218616216Y-113982608D01*
X218971999Y-114515074D01*
X219217066Y-115106718D01*
X219268042Y-115362990D01*
X219342000Y-115734803D01*
X219342000Y-116375197D01*
X219301460Y-116579004D01*
X219217066Y-117003282D01*
X218971999Y-117594926D01*
X218724265Y-117965685D01*
X218616217Y-118127391D01*
X218163391Y-118580217D01*
X218153910Y-118586552D01*
X217630926Y-118935999D01*
X217039282Y-119181066D01*
X216776734Y-119233290D01*
X216411197Y-119306000D01*
X215770803Y-119306000D01*
X215405266Y-119233290D01*
X215142718Y-119181066D01*
X214551074Y-118935999D01*
X214028090Y-118586552D01*
X214018609Y-118580217D01*
X213565783Y-118127391D01*
X213457735Y-117965685D01*
X213210001Y-117594926D01*
X212964934Y-117003282D01*
X212880540Y-116579004D01*
X212840000Y-116375197D01*
X212840000Y-115734803D01*
X212913958Y-115362990D01*
X212964934Y-115106718D01*
X213210001Y-114515074D01*
X213565784Y-113982608D01*
X214018608Y-113529784D01*
X214551074Y-113174001D01*
X215142718Y-112928934D01*
X215456761Y-112866467D01*
X215770803Y-112804000D01*
X216411197Y-112804000D01*
X216725239Y-112866467D01*
G37*
G36*
X116365721Y-118215174D02*
G01*
X116465995Y-118256709D01*
X116465996Y-118256710D01*
X116556242Y-118317010D01*
X116632990Y-118393758D01*
X116632991Y-118393760D01*
X116693291Y-118484005D01*
X116734826Y-118584279D01*
X116756000Y-118690730D01*
X116756000Y-118799270D01*
X116734826Y-118905721D01*
X116693291Y-119005995D01*
X116693290Y-119005996D01*
X116632990Y-119096242D01*
X116556242Y-119172990D01*
X116544155Y-119181066D01*
X116465995Y-119233291D01*
X116365721Y-119274826D01*
X116259270Y-119296000D01*
X116150730Y-119296000D01*
X116044279Y-119274826D01*
X115944005Y-119233291D01*
X115865845Y-119181066D01*
X115853758Y-119172990D01*
X115777010Y-119096242D01*
X115716710Y-119005996D01*
X115716709Y-119005995D01*
X115675174Y-118905721D01*
X115654000Y-118799270D01*
X115654000Y-118690730D01*
X115675174Y-118584279D01*
X115716709Y-118484005D01*
X115777009Y-118393760D01*
X115777010Y-118393758D01*
X115853758Y-118317010D01*
X115944004Y-118256710D01*
X115944005Y-118256709D01*
X116044279Y-118215174D01*
X116150730Y-118194000D01*
X116259270Y-118194000D01*
X116365721Y-118215174D01*
G37*
G36*
X116365721Y-116310174D02*
G01*
X116465995Y-116351709D01*
X116465996Y-116351710D01*
X116556242Y-116412010D01*
X116632990Y-116488758D01*
X116663345Y-116534188D01*
X116693291Y-116579005D01*
X116734826Y-116679279D01*
X116756000Y-116785730D01*
X116756000Y-116894270D01*
X116734826Y-117000721D01*
X116693291Y-117100995D01*
X116693290Y-117100996D01*
X116632990Y-117191242D01*
X116556242Y-117267990D01*
X116510812Y-117298345D01*
X116465995Y-117328291D01*
X116365721Y-117369826D01*
X116259270Y-117391000D01*
X116150730Y-117391000D01*
X116044279Y-117369826D01*
X115944005Y-117328291D01*
X115899188Y-117298345D01*
X115853758Y-117267990D01*
X115777010Y-117191242D01*
X115716710Y-117100996D01*
X115716709Y-117100995D01*
X115675174Y-117000721D01*
X115654000Y-116894270D01*
X115654000Y-116785730D01*
X115675174Y-116679279D01*
X115716709Y-116579005D01*
X115746655Y-116534188D01*
X115777010Y-116488758D01*
X115853758Y-116412010D01*
X115944004Y-116351710D01*
X115944005Y-116351709D01*
X116044279Y-116310174D01*
X116150730Y-116289000D01*
X116259270Y-116289000D01*
X116365721Y-116310174D01*
G37*
G36*
X116365721Y-114405174D02*
G01*
X116465995Y-114446709D01*
X116465996Y-114446710D01*
X116556242Y-114507010D01*
X116632990Y-114583758D01*
X116632991Y-114583760D01*
X116693291Y-114674005D01*
X116734826Y-114774279D01*
X116756000Y-114880730D01*
X116756000Y-114989270D01*
X116734826Y-115095721D01*
X116693291Y-115195995D01*
X116693290Y-115195996D01*
X116632990Y-115286242D01*
X116556242Y-115362990D01*
X116510812Y-115393345D01*
X116465995Y-115423291D01*
X116365721Y-115464826D01*
X116259270Y-115486000D01*
X116150730Y-115486000D01*
X116044279Y-115464826D01*
X115944005Y-115423291D01*
X115899188Y-115393345D01*
X115853758Y-115362990D01*
X115777010Y-115286242D01*
X115716710Y-115195996D01*
X115716709Y-115195995D01*
X115675174Y-115095721D01*
X115654000Y-114989270D01*
X115654000Y-114880730D01*
X115675174Y-114774279D01*
X115716709Y-114674005D01*
X115777009Y-114583760D01*
X115777010Y-114583758D01*
X115853758Y-114507010D01*
X115944004Y-114446710D01*
X115944005Y-114446709D01*
X116044279Y-114405174D01*
X116150730Y-114384000D01*
X116259270Y-114384000D01*
X116365721Y-114405174D01*
G37*
G36*
X116365721Y-112500174D02*
G01*
X116465995Y-112541709D01*
X116465996Y-112541710D01*
X116556242Y-112602010D01*
X116632990Y-112678758D01*
X116632991Y-112678760D01*
X116693291Y-112769005D01*
X116734826Y-112869279D01*
X116756000Y-112975730D01*
X116756000Y-113084270D01*
X116734826Y-113190721D01*
X116693291Y-113290995D01*
X116693290Y-113290996D01*
X116632990Y-113381242D01*
X116556242Y-113457990D01*
X116510812Y-113488345D01*
X116465995Y-113518291D01*
X116365721Y-113559826D01*
X116259270Y-113581000D01*
X116150730Y-113581000D01*
X116044279Y-113559826D01*
X115944005Y-113518291D01*
X115899188Y-113488345D01*
X115853758Y-113457990D01*
X115777010Y-113381242D01*
X115716710Y-113290996D01*
X115716709Y-113290995D01*
X115675174Y-113190721D01*
X115654000Y-113084270D01*
X115654000Y-112975730D01*
X115675174Y-112869279D01*
X115716709Y-112769005D01*
X115777009Y-112678760D01*
X115777010Y-112678758D01*
X115853758Y-112602010D01*
X115944004Y-112541710D01*
X115944005Y-112541709D01*
X116044279Y-112500174D01*
X116150730Y-112479000D01*
X116259270Y-112479000D01*
X116365721Y-112500174D01*
G37*
G36*
X116365721Y-110595174D02*
G01*
X116465995Y-110636709D01*
X116465996Y-110636710D01*
X116556242Y-110697010D01*
X116632990Y-110773758D01*
X116632991Y-110773760D01*
X116693291Y-110864005D01*
X116734826Y-110964279D01*
X116756000Y-111070730D01*
X116756000Y-111179270D01*
X116734826Y-111285721D01*
X116693291Y-111385995D01*
X116693290Y-111385996D01*
X116632990Y-111476242D01*
X116556242Y-111552990D01*
X116510812Y-111583345D01*
X116465995Y-111613291D01*
X116365721Y-111654826D01*
X116259270Y-111676000D01*
X116150730Y-111676000D01*
X116044279Y-111654826D01*
X115944005Y-111613291D01*
X115899188Y-111583345D01*
X115853758Y-111552990D01*
X115777010Y-111476242D01*
X115716710Y-111385996D01*
X115716709Y-111385995D01*
X115675174Y-111285721D01*
X115654000Y-111179270D01*
X115654000Y-111070730D01*
X115675174Y-110964279D01*
X115716709Y-110864005D01*
X115777009Y-110773760D01*
X115777010Y-110773758D01*
X115853758Y-110697010D01*
X115944004Y-110636710D01*
X115944005Y-110636709D01*
X116044279Y-110595174D01*
X116150730Y-110574000D01*
X116259270Y-110574000D01*
X116365721Y-110595174D01*
G37*
G36*
X190748228Y-108401703D02*
G01*
X190903100Y-108465853D01*
X191042481Y-108558985D01*
X191161015Y-108677519D01*
X191254147Y-108816900D01*
X191318297Y-108971772D01*
X191351000Y-109136184D01*
X191351000Y-109303816D01*
X191318297Y-109468228D01*
X191254147Y-109623100D01*
X191161015Y-109762481D01*
X191042481Y-109881015D01*
X190903100Y-109974147D01*
X190748228Y-110038297D01*
X190583816Y-110071000D01*
X190416184Y-110071000D01*
X190251772Y-110038297D01*
X190096900Y-109974147D01*
X189957519Y-109881015D01*
X189838985Y-109762481D01*
X189745853Y-109623100D01*
X189681703Y-109468228D01*
X189649000Y-109303816D01*
X189649000Y-109136184D01*
X189681703Y-108971772D01*
X189745853Y-108816900D01*
X189838985Y-108677519D01*
X189957519Y-108558985D01*
X190096900Y-108465853D01*
X190251772Y-108401703D01*
X190416184Y-108369000D01*
X190583816Y-108369000D01*
X190748228Y-108401703D01*
G37*
G36*
X198368228Y-108401703D02*
G01*
X198523100Y-108465853D01*
X198662481Y-108558985D01*
X198781015Y-108677519D01*
X198874147Y-108816900D01*
X198938297Y-108971772D01*
X198971000Y-109136184D01*
X198971000Y-109303816D01*
X198938297Y-109468228D01*
X198874147Y-109623100D01*
X198781015Y-109762481D01*
X198662481Y-109881015D01*
X198523100Y-109974147D01*
X198368228Y-110038297D01*
X198203816Y-110071000D01*
X198036184Y-110071000D01*
X197871772Y-110038297D01*
X197716900Y-109974147D01*
X197577519Y-109881015D01*
X197458985Y-109762481D01*
X197365853Y-109623100D01*
X197301703Y-109468228D01*
X197269000Y-109303816D01*
X197269000Y-109136184D01*
X197301703Y-108971772D01*
X197365853Y-108816900D01*
X197458985Y-108677519D01*
X197577519Y-108558985D01*
X197716900Y-108465853D01*
X197871772Y-108401703D01*
X198036184Y-108369000D01*
X198203816Y-108369000D01*
X198368228Y-108401703D01*
G37*
G36*
X190748228Y-105861703D02*
G01*
X190903100Y-105925853D01*
X191042481Y-106018985D01*
X191161015Y-106137519D01*
X191254147Y-106276900D01*
X191318297Y-106431772D01*
X191351000Y-106596184D01*
X191351000Y-106763816D01*
X191318297Y-106928228D01*
X191254147Y-107083100D01*
X191161015Y-107222481D01*
X191042481Y-107341015D01*
X190903100Y-107434147D01*
X190748228Y-107498297D01*
X190583816Y-107531000D01*
X190416184Y-107531000D01*
X190251772Y-107498297D01*
X190096900Y-107434147D01*
X189957519Y-107341015D01*
X189838985Y-107222481D01*
X189745853Y-107083100D01*
X189681703Y-106928228D01*
X189649000Y-106763816D01*
X189649000Y-106596184D01*
X189681703Y-106431772D01*
X189745853Y-106276900D01*
X189838985Y-106137519D01*
X189957519Y-106018985D01*
X190096900Y-105925853D01*
X190251772Y-105861703D01*
X190416184Y-105829000D01*
X190583816Y-105829000D01*
X190748228Y-105861703D01*
G37*
G36*
X198368228Y-105861703D02*
G01*
X198523100Y-105925853D01*
X198662481Y-106018985D01*
X198781015Y-106137519D01*
X198874147Y-106276900D01*
X198938297Y-106431772D01*
X198971000Y-106596184D01*
X198971000Y-106763816D01*
X198938297Y-106928228D01*
X198874147Y-107083100D01*
X198781015Y-107222481D01*
X198662481Y-107341015D01*
X198523100Y-107434147D01*
X198368228Y-107498297D01*
X198203816Y-107531000D01*
X198036184Y-107531000D01*
X197871772Y-107498297D01*
X197716900Y-107434147D01*
X197577519Y-107341015D01*
X197458985Y-107222481D01*
X197365853Y-107083100D01*
X197301703Y-106928228D01*
X197269000Y-106763816D01*
X197269000Y-106596184D01*
X197301703Y-106431772D01*
X197365853Y-106276900D01*
X197458985Y-106137519D01*
X197577519Y-106018985D01*
X197716900Y-105925853D01*
X197871772Y-105861703D01*
X198036184Y-105829000D01*
X198203816Y-105829000D01*
X198368228Y-105861703D01*
G37*
G36*
X116365721Y-106150174D02*
G01*
X116465995Y-106191709D01*
X116465996Y-106191710D01*
X116556242Y-106252010D01*
X116632990Y-106328758D01*
X116632991Y-106328760D01*
X116693291Y-106419005D01*
X116734826Y-106519279D01*
X116756000Y-106625730D01*
X116756000Y-106734270D01*
X116734826Y-106840721D01*
X116693291Y-106940995D01*
X116693290Y-106940996D01*
X116632990Y-107031242D01*
X116556242Y-107107990D01*
X116510812Y-107138345D01*
X116465995Y-107168291D01*
X116365721Y-107209826D01*
X116259270Y-107231000D01*
X116150730Y-107231000D01*
X116044279Y-107209826D01*
X115944005Y-107168291D01*
X115899188Y-107138345D01*
X115853758Y-107107990D01*
X115777010Y-107031242D01*
X115716710Y-106940996D01*
X115716709Y-106940995D01*
X115675174Y-106840721D01*
X115654000Y-106734270D01*
X115654000Y-106625730D01*
X115675174Y-106519279D01*
X115716709Y-106419005D01*
X115777009Y-106328760D01*
X115777010Y-106328758D01*
X115853758Y-106252010D01*
X115944004Y-106191710D01*
X115944005Y-106191709D01*
X116044279Y-106150174D01*
X116150730Y-106129000D01*
X116259270Y-106129000D01*
X116365721Y-106150174D01*
G37*
G36*
X166643665Y-104662622D02*
G01*
X166717222Y-104669867D01*
X166858786Y-104712810D01*
X166989252Y-104782546D01*
X167019040Y-104806992D01*
X167103607Y-104876393D01*
X167170822Y-104958297D01*
X167197454Y-104990748D01*
X167267190Y-105121214D01*
X167310133Y-105262778D01*
X167324633Y-105410000D01*
X167310133Y-105557222D01*
X167267190Y-105698786D01*
X167197454Y-105829252D01*
X167173008Y-105859040D01*
X167103607Y-105943607D01*
X167019040Y-106013008D01*
X166989252Y-106037454D01*
X166858786Y-106107190D01*
X166717222Y-106150133D01*
X166643665Y-106157378D01*
X166606888Y-106161000D01*
X166133112Y-106161000D01*
X166096335Y-106157378D01*
X166022778Y-106150133D01*
X165881214Y-106107190D01*
X165750748Y-106037454D01*
X165720960Y-106013008D01*
X165636393Y-105943607D01*
X165566992Y-105859040D01*
X165542546Y-105829252D01*
X165472810Y-105698786D01*
X165429867Y-105557222D01*
X165415367Y-105410000D01*
X165429867Y-105262778D01*
X165472810Y-105121214D01*
X165542546Y-104990748D01*
X165569178Y-104958297D01*
X165636393Y-104876393D01*
X165720960Y-104806992D01*
X165750748Y-104782546D01*
X165881214Y-104712810D01*
X166022778Y-104669867D01*
X166096335Y-104662622D01*
X166133112Y-104659000D01*
X166606888Y-104659000D01*
X166643665Y-104662622D01*
G37*
G36*
X214651669Y-102347686D02*
G01*
X214828058Y-102365059D01*
X215167548Y-102468042D01*
X215167550Y-102468043D01*
X215480422Y-102635277D01*
X215754661Y-102860339D01*
X215979723Y-103134578D01*
X216121501Y-103399825D01*
X216146958Y-103447452D01*
X216249941Y-103786942D01*
X216284714Y-104140000D01*
X216249941Y-104493058D01*
X216156523Y-104801015D01*
X216146957Y-104832550D01*
X215979723Y-105145422D01*
X215754661Y-105419661D01*
X215480422Y-105644723D01*
X215167550Y-105811957D01*
X215167548Y-105811958D01*
X214828058Y-105914941D01*
X214651669Y-105932314D01*
X214563476Y-105941000D01*
X210886524Y-105941000D01*
X210798331Y-105932314D01*
X210621942Y-105914941D01*
X210282452Y-105811958D01*
X210282450Y-105811957D01*
X209969578Y-105644723D01*
X209695339Y-105419661D01*
X209470277Y-105145422D01*
X209303043Y-104832550D01*
X209293477Y-104801015D01*
X209200059Y-104493058D01*
X209165286Y-104140000D01*
X209200059Y-103786942D01*
X209303042Y-103447452D01*
X209328499Y-103399825D01*
X209470277Y-103134578D01*
X209695339Y-102860339D01*
X209969578Y-102635277D01*
X210282450Y-102468043D01*
X210282452Y-102468042D01*
X210621942Y-102365059D01*
X210798331Y-102347686D01*
X210886524Y-102339000D01*
X214563476Y-102339000D01*
X214651669Y-102347686D01*
G37*
G36*
X198368228Y-103321703D02*
G01*
X198523100Y-103385853D01*
X198662481Y-103478985D01*
X198781015Y-103597519D01*
X198874147Y-103736900D01*
X198938297Y-103891772D01*
X198971000Y-104056184D01*
X198971000Y-104223816D01*
X198938297Y-104388228D01*
X198874147Y-104543100D01*
X198781015Y-104682481D01*
X198662481Y-104801015D01*
X198523100Y-104894147D01*
X198368228Y-104958297D01*
X198203816Y-104991000D01*
X198036184Y-104991000D01*
X197871772Y-104958297D01*
X197716900Y-104894147D01*
X197577519Y-104801015D01*
X197458985Y-104682481D01*
X197365853Y-104543100D01*
X197301703Y-104388228D01*
X197269000Y-104223816D01*
X197269000Y-104056184D01*
X197301703Y-103891772D01*
X197365853Y-103736900D01*
X197458985Y-103597519D01*
X197577519Y-103478985D01*
X197716900Y-103385853D01*
X197871772Y-103321703D01*
X198036184Y-103289000D01*
X198203816Y-103289000D01*
X198368228Y-103321703D01*
G37*
G36*
X190748228Y-103321703D02*
G01*
X190903100Y-103385853D01*
X191042481Y-103478985D01*
X191161015Y-103597519D01*
X191254147Y-103736900D01*
X191318297Y-103891772D01*
X191351000Y-104056184D01*
X191351000Y-104223816D01*
X191318297Y-104388228D01*
X191254147Y-104543100D01*
X191161015Y-104682481D01*
X191042481Y-104801015D01*
X190903100Y-104894147D01*
X190748228Y-104958297D01*
X190583816Y-104991000D01*
X190416184Y-104991000D01*
X190251772Y-104958297D01*
X190096900Y-104894147D01*
X189957519Y-104801015D01*
X189838985Y-104682481D01*
X189745853Y-104543100D01*
X189681703Y-104388228D01*
X189649000Y-104223816D01*
X189649000Y-104056184D01*
X189681703Y-103891772D01*
X189745853Y-103736900D01*
X189838985Y-103597519D01*
X189957519Y-103478985D01*
X190096900Y-103385853D01*
X190251772Y-103321703D01*
X190416184Y-103289000D01*
X190583816Y-103289000D01*
X190748228Y-103321703D01*
G37*
G36*
X166643665Y-102122622D02*
G01*
X166717222Y-102129867D01*
X166858786Y-102172810D01*
X166989252Y-102242546D01*
X167019040Y-102266992D01*
X167103607Y-102336393D01*
X167170822Y-102418297D01*
X167197454Y-102450748D01*
X167267190Y-102581214D01*
X167310133Y-102722778D01*
X167324633Y-102870000D01*
X167310133Y-103017222D01*
X167267190Y-103158786D01*
X167197454Y-103289252D01*
X167190282Y-103297991D01*
X167103607Y-103403607D01*
X167050180Y-103447452D01*
X166989252Y-103497454D01*
X166858786Y-103567190D01*
X166717222Y-103610133D01*
X166643665Y-103617378D01*
X166606888Y-103621000D01*
X166133112Y-103621000D01*
X166096335Y-103617378D01*
X166022778Y-103610133D01*
X165881214Y-103567190D01*
X165750748Y-103497454D01*
X165689820Y-103447452D01*
X165636393Y-103403607D01*
X165549718Y-103297991D01*
X165542546Y-103289252D01*
X165472810Y-103158786D01*
X165429867Y-103017222D01*
X165415367Y-102870000D01*
X165429867Y-102722778D01*
X165472810Y-102581214D01*
X165542546Y-102450748D01*
X165569178Y-102418297D01*
X165636393Y-102336393D01*
X165720960Y-102266992D01*
X165750748Y-102242546D01*
X165881214Y-102172810D01*
X166022778Y-102129867D01*
X166096335Y-102122622D01*
X166133112Y-102119000D01*
X166606888Y-102119000D01*
X166643665Y-102122622D01*
G37*
G36*
X116365721Y-102340174D02*
G01*
X116465995Y-102381709D01*
X116465996Y-102381710D01*
X116556242Y-102442010D01*
X116632990Y-102518758D01*
X116632991Y-102518760D01*
X116693291Y-102609005D01*
X116734826Y-102709279D01*
X116756000Y-102815730D01*
X116756000Y-102924270D01*
X116734826Y-103030721D01*
X116693291Y-103130995D01*
X116674720Y-103158788D01*
X116632990Y-103221242D01*
X116556242Y-103297990D01*
X116520753Y-103321703D01*
X116465995Y-103358291D01*
X116365721Y-103399826D01*
X116259270Y-103421000D01*
X116150730Y-103421000D01*
X116044279Y-103399826D01*
X115944005Y-103358291D01*
X115889247Y-103321703D01*
X115853758Y-103297990D01*
X115777010Y-103221242D01*
X115735280Y-103158788D01*
X115716709Y-103130995D01*
X115675174Y-103030721D01*
X115654000Y-102924270D01*
X115654000Y-102815730D01*
X115675174Y-102709279D01*
X115716709Y-102609005D01*
X115777009Y-102518760D01*
X115777010Y-102518758D01*
X115853758Y-102442010D01*
X115944004Y-102381710D01*
X115944005Y-102381709D01*
X116044279Y-102340174D01*
X116150730Y-102319000D01*
X116259270Y-102319000D01*
X116365721Y-102340174D01*
G37*
G36*
X190748228Y-100781703D02*
G01*
X190903100Y-100845853D01*
X191042481Y-100938985D01*
X191161015Y-101057519D01*
X191254147Y-101196900D01*
X191318297Y-101351772D01*
X191351000Y-101516184D01*
X191351000Y-101683816D01*
X191318297Y-101848228D01*
X191254147Y-102003100D01*
X191161015Y-102142481D01*
X191042481Y-102261015D01*
X190903100Y-102354147D01*
X190748228Y-102418297D01*
X190583816Y-102451000D01*
X190416184Y-102451000D01*
X190251772Y-102418297D01*
X190096900Y-102354147D01*
X189957519Y-102261015D01*
X189838985Y-102142481D01*
X189745853Y-102003100D01*
X189681703Y-101848228D01*
X189649000Y-101683816D01*
X189649000Y-101516184D01*
X189681703Y-101351772D01*
X189745853Y-101196900D01*
X189838985Y-101057519D01*
X189957519Y-100938985D01*
X190096900Y-100845853D01*
X190251772Y-100781703D01*
X190416184Y-100749000D01*
X190583816Y-100749000D01*
X190748228Y-100781703D01*
G37*
G36*
X198368228Y-100781703D02*
G01*
X198523100Y-100845853D01*
X198662481Y-100938985D01*
X198781015Y-101057519D01*
X198874147Y-101196900D01*
X198938297Y-101351772D01*
X198971000Y-101516184D01*
X198971000Y-101683816D01*
X198938297Y-101848228D01*
X198874147Y-102003100D01*
X198781015Y-102142481D01*
X198662481Y-102261015D01*
X198523100Y-102354147D01*
X198368228Y-102418297D01*
X198203816Y-102451000D01*
X198036184Y-102451000D01*
X197871772Y-102418297D01*
X197716900Y-102354147D01*
X197577519Y-102261015D01*
X197458985Y-102142481D01*
X197365853Y-102003100D01*
X197301703Y-101848228D01*
X197269000Y-101683816D01*
X197269000Y-101516184D01*
X197301703Y-101351772D01*
X197365853Y-101196900D01*
X197458985Y-101057519D01*
X197577519Y-100938985D01*
X197716900Y-100845853D01*
X197871772Y-100781703D01*
X198036184Y-100749000D01*
X198203816Y-100749000D01*
X198368228Y-100781703D01*
G37*
G36*
X166643665Y-99582622D02*
G01*
X166717222Y-99589867D01*
X166858786Y-99632810D01*
X166989252Y-99702546D01*
X167019040Y-99726992D01*
X167103607Y-99796393D01*
X167170822Y-99878297D01*
X167197454Y-99910748D01*
X167267190Y-100041214D01*
X167310133Y-100182778D01*
X167324633Y-100330000D01*
X167310133Y-100477222D01*
X167267190Y-100618786D01*
X167197454Y-100749252D01*
X167173008Y-100779040D01*
X167103607Y-100863607D01*
X167019040Y-100933008D01*
X166989252Y-100957454D01*
X166858786Y-101027190D01*
X166717222Y-101070133D01*
X166643665Y-101077378D01*
X166606888Y-101081000D01*
X166133112Y-101081000D01*
X166096335Y-101077378D01*
X166022778Y-101070133D01*
X165881214Y-101027190D01*
X165750748Y-100957454D01*
X165720960Y-100933008D01*
X165636393Y-100863607D01*
X165566992Y-100779040D01*
X165542546Y-100749252D01*
X165472810Y-100618786D01*
X165429867Y-100477222D01*
X165415367Y-100330000D01*
X165429867Y-100182778D01*
X165472810Y-100041214D01*
X165542546Y-99910748D01*
X165569178Y-99878297D01*
X165636393Y-99796393D01*
X165720960Y-99726992D01*
X165750748Y-99702546D01*
X165881214Y-99632810D01*
X166022778Y-99589867D01*
X166096335Y-99582622D01*
X166133112Y-99579000D01*
X166606888Y-99579000D01*
X166643665Y-99582622D01*
G37*
G36*
X116365721Y-99165174D02*
G01*
X116465995Y-99206709D01*
X116510812Y-99236655D01*
X116556242Y-99267010D01*
X116632990Y-99343758D01*
X116632991Y-99343760D01*
X116693291Y-99434005D01*
X116734826Y-99534279D01*
X116756000Y-99640730D01*
X116756000Y-99749270D01*
X116734826Y-99855721D01*
X116693291Y-99955995D01*
X116693290Y-99955996D01*
X116632990Y-100046242D01*
X116556242Y-100122990D01*
X116510812Y-100153345D01*
X116465995Y-100183291D01*
X116365721Y-100224826D01*
X116259270Y-100246000D01*
X116150730Y-100246000D01*
X116044279Y-100224826D01*
X115944005Y-100183291D01*
X115899188Y-100153345D01*
X115853758Y-100122990D01*
X115777010Y-100046242D01*
X115716710Y-99955996D01*
X115716709Y-99955995D01*
X115675174Y-99855721D01*
X115654000Y-99749270D01*
X115654000Y-99640730D01*
X115675174Y-99534279D01*
X115716709Y-99434005D01*
X115777009Y-99343760D01*
X115777010Y-99343758D01*
X115853758Y-99267010D01*
X115899188Y-99236655D01*
X115944005Y-99206709D01*
X116044279Y-99165174D01*
X116150730Y-99144000D01*
X116259270Y-99144000D01*
X116365721Y-99165174D01*
G37*
G36*
X190748228Y-98241703D02*
G01*
X190903100Y-98305853D01*
X191042481Y-98398985D01*
X191161015Y-98517519D01*
X191254147Y-98656900D01*
X191318297Y-98811772D01*
X191351000Y-98976184D01*
X191351000Y-99143816D01*
X191318297Y-99308228D01*
X191254147Y-99463100D01*
X191161015Y-99602481D01*
X191042481Y-99721015D01*
X190903100Y-99814147D01*
X190748228Y-99878297D01*
X190583816Y-99911000D01*
X190416184Y-99911000D01*
X190251772Y-99878297D01*
X190096900Y-99814147D01*
X189957519Y-99721015D01*
X189838985Y-99602481D01*
X189745853Y-99463100D01*
X189681703Y-99308228D01*
X189649000Y-99143816D01*
X189649000Y-98976184D01*
X189681703Y-98811772D01*
X189745853Y-98656900D01*
X189838985Y-98517519D01*
X189957519Y-98398985D01*
X190096900Y-98305853D01*
X190251772Y-98241703D01*
X190416184Y-98209000D01*
X190583816Y-98209000D01*
X190748228Y-98241703D01*
G37*
G36*
X208261823Y-98221313D02*
G01*
X208422242Y-98269976D01*
X208489361Y-98305852D01*
X208570078Y-98348996D01*
X208699659Y-98455341D01*
X208806004Y-98584922D01*
X208806005Y-98584924D01*
X208885024Y-98732758D01*
X208933687Y-98893177D01*
X208950117Y-99060000D01*
X208933687Y-99226823D01*
X208885024Y-99387242D01*
X208844477Y-99463100D01*
X208806004Y-99535078D01*
X208699659Y-99664659D01*
X208570078Y-99771004D01*
X208570076Y-99771005D01*
X208422242Y-99850024D01*
X208261823Y-99898687D01*
X208136804Y-99911000D01*
X207153196Y-99911000D01*
X207028177Y-99898687D01*
X206867758Y-99850024D01*
X206719924Y-99771005D01*
X206719922Y-99771004D01*
X206590341Y-99664659D01*
X206483996Y-99535078D01*
X206445523Y-99463100D01*
X206404976Y-99387242D01*
X206356313Y-99226823D01*
X206339883Y-99060000D01*
X206356313Y-98893177D01*
X206404976Y-98732758D01*
X206483995Y-98584924D01*
X206483996Y-98584922D01*
X206590341Y-98455341D01*
X206719922Y-98348996D01*
X206800639Y-98305852D01*
X206867758Y-98269976D01*
X207028177Y-98221313D01*
X207153196Y-98209000D01*
X208136804Y-98209000D01*
X208261823Y-98221313D01*
G37*
G36*
X198368228Y-98241703D02*
G01*
X198523100Y-98305853D01*
X198662481Y-98398985D01*
X198781015Y-98517519D01*
X198874147Y-98656900D01*
X198938297Y-98811772D01*
X198971000Y-98976184D01*
X198971000Y-99143816D01*
X198938297Y-99308228D01*
X198874147Y-99463100D01*
X198781015Y-99602481D01*
X198662481Y-99721015D01*
X198523100Y-99814147D01*
X198368228Y-99878297D01*
X198203816Y-99911000D01*
X198036184Y-99911000D01*
X197871772Y-99878297D01*
X197716900Y-99814147D01*
X197577519Y-99721015D01*
X197458985Y-99602481D01*
X197365853Y-99463100D01*
X197301703Y-99308228D01*
X197269000Y-99143816D01*
X197269000Y-98976184D01*
X197301703Y-98811772D01*
X197365853Y-98656900D01*
X197458985Y-98517519D01*
X197577519Y-98398985D01*
X197716900Y-98305853D01*
X197871772Y-98241703D01*
X198036184Y-98209000D01*
X198203816Y-98209000D01*
X198368228Y-98241703D01*
G37*
G36*
X167321000Y-98541000D02*
G01*
X165419000Y-98541000D01*
X165419000Y-97039000D01*
X167321000Y-97039000D01*
X167321000Y-98541000D01*
G37*
G36*
X190748228Y-95701703D02*
G01*
X190903100Y-95765853D01*
X191042481Y-95858985D01*
X191161015Y-95977519D01*
X191254147Y-96116900D01*
X191318297Y-96271772D01*
X191351000Y-96436184D01*
X191351000Y-96603816D01*
X191318297Y-96768228D01*
X191254147Y-96923100D01*
X191161015Y-97062481D01*
X191042481Y-97181015D01*
X190903100Y-97274147D01*
X190748228Y-97338297D01*
X190583816Y-97371000D01*
X190416184Y-97371000D01*
X190251772Y-97338297D01*
X190096900Y-97274147D01*
X189957519Y-97181015D01*
X189838985Y-97062481D01*
X189745853Y-96923100D01*
X189681703Y-96768228D01*
X189649000Y-96603816D01*
X189649000Y-96436184D01*
X189681703Y-96271772D01*
X189745853Y-96116900D01*
X189838985Y-95977519D01*
X189957519Y-95858985D01*
X190096900Y-95765853D01*
X190251772Y-95701703D01*
X190416184Y-95669000D01*
X190583816Y-95669000D01*
X190748228Y-95701703D01*
G37*
G36*
X208261823Y-95681313D02*
G01*
X208422242Y-95729976D01*
X208489361Y-95765852D01*
X208570078Y-95808996D01*
X208699659Y-95915341D01*
X208806004Y-96044922D01*
X208806005Y-96044924D01*
X208885024Y-96192758D01*
X208933687Y-96353177D01*
X208950117Y-96520000D01*
X208933687Y-96686823D01*
X208885024Y-96847242D01*
X208844477Y-96923100D01*
X208806004Y-96995078D01*
X208699659Y-97124659D01*
X208570078Y-97231004D01*
X208570076Y-97231005D01*
X208422242Y-97310024D01*
X208261823Y-97358687D01*
X208136804Y-97371000D01*
X207153196Y-97371000D01*
X207028177Y-97358687D01*
X206867758Y-97310024D01*
X206719924Y-97231005D01*
X206719922Y-97231004D01*
X206590341Y-97124659D01*
X206483996Y-96995078D01*
X206445523Y-96923100D01*
X206404976Y-96847242D01*
X206356313Y-96686823D01*
X206339883Y-96520000D01*
X206356313Y-96353177D01*
X206404976Y-96192758D01*
X206483995Y-96044924D01*
X206483996Y-96044922D01*
X206590341Y-95915341D01*
X206719922Y-95808996D01*
X206800639Y-95765852D01*
X206867758Y-95729976D01*
X207028177Y-95681313D01*
X207153196Y-95669000D01*
X208136804Y-95669000D01*
X208261823Y-95681313D01*
G37*
G36*
X198368228Y-95701703D02*
G01*
X198523100Y-95765853D01*
X198662481Y-95858985D01*
X198781015Y-95977519D01*
X198874147Y-96116900D01*
X198938297Y-96271772D01*
X198971000Y-96436184D01*
X198971000Y-96603816D01*
X198938297Y-96768228D01*
X198874147Y-96923100D01*
X198781015Y-97062481D01*
X198662481Y-97181015D01*
X198523100Y-97274147D01*
X198368228Y-97338297D01*
X198203816Y-97371000D01*
X198036184Y-97371000D01*
X197871772Y-97338297D01*
X197716900Y-97274147D01*
X197577519Y-97181015D01*
X197458985Y-97062481D01*
X197365853Y-96923100D01*
X197301703Y-96768228D01*
X197269000Y-96603816D01*
X197269000Y-96436184D01*
X197301703Y-96271772D01*
X197365853Y-96116900D01*
X197458985Y-95977519D01*
X197577519Y-95858985D01*
X197716900Y-95765853D01*
X197871772Y-95701703D01*
X198036184Y-95669000D01*
X198203816Y-95669000D01*
X198368228Y-95701703D01*
G37*
G36*
X214651669Y-92187686D02*
G01*
X214828058Y-92205059D01*
X215167548Y-92308042D01*
X215167550Y-92308043D01*
X215480422Y-92475277D01*
X215754661Y-92700339D01*
X215979723Y-92974578D01*
X216146957Y-93287450D01*
X216146958Y-93287452D01*
X216249941Y-93626942D01*
X216284714Y-93980000D01*
X216249941Y-94333058D01*
X216192480Y-94522481D01*
X216146957Y-94672550D01*
X215979723Y-94985422D01*
X215754661Y-95259661D01*
X215480422Y-95484723D01*
X215167550Y-95651957D01*
X215167548Y-95651958D01*
X214828058Y-95754941D01*
X214651669Y-95772314D01*
X214563476Y-95781000D01*
X210886524Y-95781000D01*
X210798331Y-95772314D01*
X210621942Y-95754941D01*
X210282452Y-95651958D01*
X210282450Y-95651957D01*
X209969578Y-95484723D01*
X209695339Y-95259661D01*
X209470277Y-94985422D01*
X209303043Y-94672550D01*
X209257520Y-94522481D01*
X209200059Y-94333058D01*
X209165286Y-93980000D01*
X209200059Y-93626942D01*
X209303042Y-93287452D01*
X209303043Y-93287450D01*
X209470277Y-92974578D01*
X209695339Y-92700339D01*
X209969578Y-92475277D01*
X210282450Y-92308043D01*
X210282452Y-92308042D01*
X210621942Y-92205059D01*
X210798331Y-92187686D01*
X210886524Y-92179000D01*
X214563476Y-92179000D01*
X214651669Y-92187686D01*
G37*
G36*
X198368228Y-93161703D02*
G01*
X198523100Y-93225853D01*
X198662481Y-93318985D01*
X198781015Y-93437519D01*
X198874147Y-93576900D01*
X198938297Y-93731772D01*
X198971000Y-93896184D01*
X198971000Y-94063816D01*
X198938297Y-94228228D01*
X198874147Y-94383100D01*
X198781015Y-94522481D01*
X198662481Y-94641015D01*
X198523100Y-94734147D01*
X198368228Y-94798297D01*
X198203816Y-94831000D01*
X198036184Y-94831000D01*
X197871772Y-94798297D01*
X197716900Y-94734147D01*
X197577519Y-94641015D01*
X197458985Y-94522481D01*
X197365853Y-94383100D01*
X197301703Y-94228228D01*
X197269000Y-94063816D01*
X197269000Y-93896184D01*
X197301703Y-93731772D01*
X197365853Y-93576900D01*
X197458985Y-93437519D01*
X197577519Y-93318985D01*
X197716900Y-93225853D01*
X197871772Y-93161703D01*
X198036184Y-93129000D01*
X198203816Y-93129000D01*
X198368228Y-93161703D01*
G37*
G36*
X190748228Y-93161703D02*
G01*
X190903100Y-93225853D01*
X191042481Y-93318985D01*
X191161015Y-93437519D01*
X191254147Y-93576900D01*
X191318297Y-93731772D01*
X191351000Y-93896184D01*
X191351000Y-94063816D01*
X191318297Y-94228228D01*
X191254147Y-94383100D01*
X191161015Y-94522481D01*
X191042481Y-94641015D01*
X190903100Y-94734147D01*
X190748228Y-94798297D01*
X190583816Y-94831000D01*
X190416184Y-94831000D01*
X190251772Y-94798297D01*
X190096900Y-94734147D01*
X189957519Y-94641015D01*
X189838985Y-94522481D01*
X189745853Y-94383100D01*
X189681703Y-94228228D01*
X189649000Y-94063816D01*
X189649000Y-93896184D01*
X189681703Y-93731772D01*
X189745853Y-93576900D01*
X189838985Y-93437519D01*
X189957519Y-93318985D01*
X190096900Y-93225853D01*
X190251772Y-93161703D01*
X190416184Y-93129000D01*
X190583816Y-93129000D01*
X190748228Y-93161703D01*
G37*
G36*
X198368228Y-90621703D02*
G01*
X198523100Y-90685853D01*
X198662481Y-90778985D01*
X198781015Y-90897519D01*
X198874147Y-91036900D01*
X198938297Y-91191772D01*
X198971000Y-91356184D01*
X198971000Y-91523816D01*
X198938297Y-91688228D01*
X198874147Y-91843100D01*
X198781015Y-91982481D01*
X198662481Y-92101015D01*
X198523100Y-92194147D01*
X198368228Y-92258297D01*
X198203816Y-92291000D01*
X198036184Y-92291000D01*
X197871772Y-92258297D01*
X197716900Y-92194147D01*
X197577519Y-92101015D01*
X197458985Y-91982481D01*
X197365853Y-91843100D01*
X197301703Y-91688228D01*
X197269000Y-91523816D01*
X197269000Y-91356184D01*
X197301703Y-91191772D01*
X197365853Y-91036900D01*
X197458985Y-90897519D01*
X197577519Y-90778985D01*
X197716900Y-90685853D01*
X197871772Y-90621703D01*
X198036184Y-90589000D01*
X198203816Y-90589000D01*
X198368228Y-90621703D01*
G37*
G36*
X191351000Y-92291000D02*
G01*
X189649000Y-92291000D01*
X189649000Y-90589000D01*
X191351000Y-90589000D01*
X191351000Y-92291000D01*
G37*
G36*
X157278642Y-87494781D02*
G01*
X157424414Y-87555162D01*
X157424416Y-87555163D01*
X157555608Y-87642822D01*
X157667178Y-87754392D01*
X157754837Y-87885584D01*
X157754838Y-87885586D01*
X157815219Y-88031358D01*
X157846000Y-88186107D01*
X157846000Y-88343893D01*
X157815219Y-88498642D01*
X157754838Y-88644414D01*
X157754837Y-88644416D01*
X157667178Y-88775608D01*
X157555608Y-88887178D01*
X157424416Y-88974837D01*
X157424415Y-88974838D01*
X157424414Y-88974838D01*
X157278642Y-89035219D01*
X157123893Y-89066000D01*
X156966107Y-89066000D01*
X156811358Y-89035219D01*
X156665586Y-88974838D01*
X156665585Y-88974838D01*
X156665584Y-88974837D01*
X156534392Y-88887178D01*
X156422822Y-88775608D01*
X156335163Y-88644416D01*
X156335162Y-88644414D01*
X156274781Y-88498642D01*
X156244000Y-88343893D01*
X156244000Y-88186107D01*
X156274781Y-88031358D01*
X156335162Y-87885586D01*
X156335163Y-87885584D01*
X156422822Y-87754392D01*
X156534392Y-87642822D01*
X156665584Y-87555163D01*
X156665586Y-87555162D01*
X156811358Y-87494781D01*
X156966107Y-87464000D01*
X157123893Y-87464000D01*
X157278642Y-87494781D01*
G37*
G36*
X162158642Y-87494781D02*
G01*
X162304414Y-87555162D01*
X162304416Y-87555163D01*
X162435608Y-87642822D01*
X162547178Y-87754392D01*
X162634837Y-87885584D01*
X162634838Y-87885586D01*
X162695219Y-88031358D01*
X162726000Y-88186107D01*
X162726000Y-88343893D01*
X162695219Y-88498642D01*
X162634838Y-88644414D01*
X162634837Y-88644416D01*
X162547178Y-88775608D01*
X162435608Y-88887178D01*
X162304416Y-88974837D01*
X162304415Y-88974838D01*
X162304414Y-88974838D01*
X162158642Y-89035219D01*
X162003893Y-89066000D01*
X161846107Y-89066000D01*
X161691358Y-89035219D01*
X161545586Y-88974838D01*
X161545585Y-88974838D01*
X161545584Y-88974837D01*
X161414392Y-88887178D01*
X161302822Y-88775608D01*
X161215163Y-88644416D01*
X161215162Y-88644414D01*
X161154781Y-88498642D01*
X161124000Y-88343893D01*
X161124000Y-88186107D01*
X161154781Y-88031358D01*
X161215162Y-87885586D01*
X161215163Y-87885584D01*
X161302822Y-87754392D01*
X161414392Y-87642822D01*
X161545584Y-87555163D01*
X161545586Y-87555162D01*
X161691358Y-87494781D01*
X161846107Y-87464000D01*
X162003893Y-87464000D01*
X162158642Y-87494781D01*
G37*
G36*
X213665564Y-84339389D02*
G01*
X213856833Y-84418615D01*
X213856835Y-84418616D01*
X214028973Y-84533635D01*
X214175365Y-84680027D01*
X214289084Y-84850219D01*
X214290385Y-84852167D01*
X214369611Y-85043436D01*
X214410000Y-85246484D01*
X214410000Y-85453516D01*
X214369611Y-85656564D01*
X214290385Y-85847833D01*
X214290384Y-85847835D01*
X214175365Y-86019973D01*
X214028973Y-86166365D01*
X213856835Y-86281384D01*
X213856834Y-86281385D01*
X213856833Y-86281385D01*
X213665564Y-86360611D01*
X213462516Y-86401000D01*
X213255484Y-86401000D01*
X213052436Y-86360611D01*
X212861167Y-86281385D01*
X212861166Y-86281385D01*
X212861165Y-86281384D01*
X212689027Y-86166365D01*
X212542635Y-86019973D01*
X212427616Y-85847835D01*
X212427615Y-85847833D01*
X212348389Y-85656564D01*
X212308000Y-85453516D01*
X212308000Y-85246484D01*
X212348389Y-85043436D01*
X212427615Y-84852167D01*
X212428917Y-84850219D01*
X212542635Y-84680027D01*
X212689027Y-84533635D01*
X212861165Y-84418616D01*
X212861167Y-84418615D01*
X213052436Y-84339389D01*
X213255484Y-84299000D01*
X213462516Y-84299000D01*
X213665564Y-84339389D01*
G37*
G36*
X217277871Y-81958408D02*
G01*
X217582883Y-82084748D01*
X217857387Y-82268166D01*
X218090834Y-82501613D01*
X218274252Y-82776117D01*
X218340797Y-82936771D01*
X218400592Y-83081130D01*
X218437926Y-83268816D01*
X218465000Y-83404928D01*
X218465000Y-83735072D01*
X218400592Y-84058871D01*
X218274252Y-84363883D01*
X218090834Y-84638387D01*
X217857387Y-84871834D01*
X217582883Y-85055252D01*
X217277871Y-85181592D01*
X216954073Y-85246000D01*
X216623927Y-85246000D01*
X216300129Y-85181592D01*
X215995117Y-85055252D01*
X215720613Y-84871834D01*
X215487166Y-84638387D01*
X215303748Y-84363883D01*
X215177408Y-84058871D01*
X215113000Y-83735072D01*
X215113000Y-83404928D01*
X215140075Y-83268816D01*
X215177408Y-83081130D01*
X215237203Y-82936771D01*
X215303748Y-82776117D01*
X215487166Y-82501613D01*
X215720613Y-82268166D01*
X215995117Y-82084748D01*
X216300129Y-81958408D01*
X216623927Y-81894000D01*
X216954073Y-81894000D01*
X217277871Y-81958408D01*
G37*
G36*
X207882642Y-83309781D02*
G01*
X208028414Y-83370162D01*
X208028416Y-83370163D01*
X208159608Y-83457822D01*
X208271178Y-83569392D01*
X208283676Y-83588097D01*
X208358838Y-83700586D01*
X208419219Y-83846358D01*
X208450000Y-84001107D01*
X208450000Y-84158893D01*
X208419219Y-84313642D01*
X208375737Y-84418616D01*
X208358837Y-84459416D01*
X208271178Y-84590608D01*
X208159608Y-84702178D01*
X208028416Y-84789837D01*
X208028415Y-84789838D01*
X208028414Y-84789838D01*
X207882642Y-84850219D01*
X207727893Y-84881000D01*
X207570107Y-84881000D01*
X207415358Y-84850219D01*
X207269586Y-84789838D01*
X207269585Y-84789838D01*
X207269584Y-84789837D01*
X207138392Y-84702178D01*
X207026822Y-84590608D01*
X206939163Y-84459416D01*
X206922263Y-84418616D01*
X206878781Y-84313642D01*
X206848000Y-84158893D01*
X206848000Y-84001107D01*
X206878781Y-83846358D01*
X206939162Y-83700586D01*
X207014324Y-83588097D01*
X207026822Y-83569392D01*
X207138392Y-83457822D01*
X207269584Y-83370163D01*
X207269586Y-83370162D01*
X207415358Y-83309781D01*
X207570107Y-83279000D01*
X207727893Y-83279000D01*
X207882642Y-83309781D01*
G37*
G36*
X125343228Y-82366703D02*
G01*
X125498100Y-82430853D01*
X125637481Y-82523985D01*
X125756015Y-82642519D01*
X125849147Y-82781900D01*
X125913297Y-82936772D01*
X125946000Y-83101184D01*
X125946000Y-83268816D01*
X125913297Y-83433228D01*
X125849147Y-83588100D01*
X125756015Y-83727481D01*
X125637481Y-83846015D01*
X125498100Y-83939147D01*
X125343228Y-84003297D01*
X125178816Y-84036000D01*
X125011184Y-84036000D01*
X124846772Y-84003297D01*
X124691900Y-83939147D01*
X124552519Y-83846015D01*
X124433985Y-83727481D01*
X124340853Y-83588100D01*
X124276703Y-83433228D01*
X124244000Y-83268816D01*
X124244000Y-83101184D01*
X124276703Y-82936772D01*
X124340853Y-82781900D01*
X124433985Y-82642519D01*
X124552519Y-82523985D01*
X124691900Y-82430853D01*
X124846772Y-82366703D01*
X125011184Y-82334000D01*
X125178816Y-82334000D01*
X125343228Y-82366703D01*
G37*
G36*
X148203228Y-82366703D02*
G01*
X148358100Y-82430853D01*
X148497481Y-82523985D01*
X148616015Y-82642519D01*
X148709147Y-82781900D01*
X148773297Y-82936772D01*
X148806000Y-83101184D01*
X148806000Y-83268816D01*
X148773297Y-83433228D01*
X148709147Y-83588100D01*
X148616015Y-83727481D01*
X148497481Y-83846015D01*
X148358100Y-83939147D01*
X148203228Y-84003297D01*
X148038816Y-84036000D01*
X147871184Y-84036000D01*
X147706772Y-84003297D01*
X147551900Y-83939147D01*
X147412519Y-83846015D01*
X147293985Y-83727481D01*
X147200853Y-83588100D01*
X147136703Y-83433228D01*
X147104000Y-83268816D01*
X147104000Y-83101184D01*
X147136703Y-82936772D01*
X147200853Y-82781900D01*
X147293985Y-82642519D01*
X147412519Y-82523985D01*
X147551900Y-82430853D01*
X147706772Y-82366703D01*
X147871184Y-82334000D01*
X148038816Y-82334000D01*
X148203228Y-82366703D01*
G37*
G36*
X135503228Y-82366703D02*
G01*
X135658100Y-82430853D01*
X135797481Y-82523985D01*
X135916015Y-82642519D01*
X136009147Y-82781900D01*
X136073297Y-82936772D01*
X136106000Y-83101184D01*
X136106000Y-83268816D01*
X136073297Y-83433228D01*
X136009147Y-83588100D01*
X135916015Y-83727481D01*
X135797481Y-83846015D01*
X135658100Y-83939147D01*
X135503228Y-84003297D01*
X135338816Y-84036000D01*
X135171184Y-84036000D01*
X135006772Y-84003297D01*
X134851900Y-83939147D01*
X134712519Y-83846015D01*
X134593985Y-83727481D01*
X134500853Y-83588100D01*
X134436703Y-83433228D01*
X134404000Y-83268816D01*
X134404000Y-83101184D01*
X134436703Y-82936772D01*
X134500853Y-82781900D01*
X134593985Y-82642519D01*
X134712519Y-82523985D01*
X134851900Y-82430853D01*
X135006772Y-82366703D01*
X135171184Y-82334000D01*
X135338816Y-82334000D01*
X135503228Y-82366703D01*
G37*
G36*
X150743228Y-82366703D02*
G01*
X150898100Y-82430853D01*
X151037481Y-82523985D01*
X151156015Y-82642519D01*
X151249147Y-82781900D01*
X151313297Y-82936772D01*
X151346000Y-83101184D01*
X151346000Y-83268816D01*
X151313297Y-83433228D01*
X151249147Y-83588100D01*
X151156015Y-83727481D01*
X151037481Y-83846015D01*
X150898100Y-83939147D01*
X150743228Y-84003297D01*
X150578816Y-84036000D01*
X150411184Y-84036000D01*
X150246772Y-84003297D01*
X150091900Y-83939147D01*
X149952519Y-83846015D01*
X149833985Y-83727481D01*
X149740853Y-83588100D01*
X149676703Y-83433228D01*
X149644000Y-83268816D01*
X149644000Y-83101184D01*
X149676703Y-82936772D01*
X149740853Y-82781900D01*
X149833985Y-82642519D01*
X149952519Y-82523985D01*
X150091900Y-82430853D01*
X150246772Y-82366703D01*
X150411184Y-82334000D01*
X150578816Y-82334000D01*
X150743228Y-82366703D01*
G37*
G36*
X153283228Y-82366703D02*
G01*
X153438100Y-82430853D01*
X153577481Y-82523985D01*
X153696015Y-82642519D01*
X153789147Y-82781900D01*
X153853297Y-82936772D01*
X153886000Y-83101184D01*
X153886000Y-83268816D01*
X153853297Y-83433228D01*
X153789147Y-83588100D01*
X153696015Y-83727481D01*
X153577481Y-83846015D01*
X153438100Y-83939147D01*
X153283228Y-84003297D01*
X153118816Y-84036000D01*
X152951184Y-84036000D01*
X152786772Y-84003297D01*
X152631900Y-83939147D01*
X152492519Y-83846015D01*
X152373985Y-83727481D01*
X152280853Y-83588100D01*
X152216703Y-83433228D01*
X152184000Y-83268816D01*
X152184000Y-83101184D01*
X152216703Y-82936772D01*
X152280853Y-82781900D01*
X152373985Y-82642519D01*
X152492519Y-82523985D01*
X152631900Y-82430853D01*
X152786772Y-82366703D01*
X152951184Y-82334000D01*
X153118816Y-82334000D01*
X153283228Y-82366703D01*
G37*
G36*
X160903228Y-82366703D02*
G01*
X161058100Y-82430853D01*
X161197481Y-82523985D01*
X161316015Y-82642519D01*
X161409147Y-82781900D01*
X161473297Y-82936772D01*
X161506000Y-83101184D01*
X161506000Y-83268816D01*
X161473297Y-83433228D01*
X161409147Y-83588100D01*
X161316015Y-83727481D01*
X161197481Y-83846015D01*
X161058100Y-83939147D01*
X160903228Y-84003297D01*
X160738816Y-84036000D01*
X160571184Y-84036000D01*
X160406772Y-84003297D01*
X160251900Y-83939147D01*
X160112519Y-83846015D01*
X159993985Y-83727481D01*
X159900853Y-83588100D01*
X159836703Y-83433228D01*
X159804000Y-83268816D01*
X159804000Y-83101184D01*
X159836703Y-82936772D01*
X159900853Y-82781900D01*
X159993985Y-82642519D01*
X160112519Y-82523985D01*
X160251900Y-82430853D01*
X160406772Y-82366703D01*
X160571184Y-82334000D01*
X160738816Y-82334000D01*
X160903228Y-82366703D01*
G37*
G36*
X145663228Y-82366703D02*
G01*
X145818100Y-82430853D01*
X145957481Y-82523985D01*
X146076015Y-82642519D01*
X146169147Y-82781900D01*
X146233297Y-82936772D01*
X146266000Y-83101184D01*
X146266000Y-83268816D01*
X146233297Y-83433228D01*
X146169147Y-83588100D01*
X146076015Y-83727481D01*
X145957481Y-83846015D01*
X145818100Y-83939147D01*
X145663228Y-84003297D01*
X145498816Y-84036000D01*
X145331184Y-84036000D01*
X145166772Y-84003297D01*
X145011900Y-83939147D01*
X144872519Y-83846015D01*
X144753985Y-83727481D01*
X144660853Y-83588100D01*
X144596703Y-83433228D01*
X144564000Y-83268816D01*
X144564000Y-83101184D01*
X144596703Y-82936772D01*
X144660853Y-82781900D01*
X144753985Y-82642519D01*
X144872519Y-82523985D01*
X145011900Y-82430853D01*
X145166772Y-82366703D01*
X145331184Y-82334000D01*
X145498816Y-82334000D01*
X145663228Y-82366703D01*
G37*
G36*
X130423228Y-82366703D02*
G01*
X130578100Y-82430853D01*
X130717481Y-82523985D01*
X130836015Y-82642519D01*
X130929147Y-82781900D01*
X130993297Y-82936772D01*
X131026000Y-83101184D01*
X131026000Y-83268816D01*
X130993297Y-83433228D01*
X130929147Y-83588100D01*
X130836015Y-83727481D01*
X130717481Y-83846015D01*
X130578100Y-83939147D01*
X130423228Y-84003297D01*
X130258816Y-84036000D01*
X130091184Y-84036000D01*
X129926772Y-84003297D01*
X129771900Y-83939147D01*
X129632519Y-83846015D01*
X129513985Y-83727481D01*
X129420853Y-83588100D01*
X129356703Y-83433228D01*
X129324000Y-83268816D01*
X129324000Y-83101184D01*
X129356703Y-82936772D01*
X129420853Y-82781900D01*
X129513985Y-82642519D01*
X129632519Y-82523985D01*
X129771900Y-82430853D01*
X129926772Y-82366703D01*
X130091184Y-82334000D01*
X130258816Y-82334000D01*
X130423228Y-82366703D01*
G37*
G36*
X143123228Y-82366703D02*
G01*
X143278100Y-82430853D01*
X143417481Y-82523985D01*
X143536015Y-82642519D01*
X143629147Y-82781900D01*
X143693297Y-82936772D01*
X143726000Y-83101184D01*
X143726000Y-83268816D01*
X143693297Y-83433228D01*
X143629147Y-83588100D01*
X143536015Y-83727481D01*
X143417481Y-83846015D01*
X143278100Y-83939147D01*
X143123228Y-84003297D01*
X142958816Y-84036000D01*
X142791184Y-84036000D01*
X142626772Y-84003297D01*
X142471900Y-83939147D01*
X142332519Y-83846015D01*
X142213985Y-83727481D01*
X142120853Y-83588100D01*
X142056703Y-83433228D01*
X142024000Y-83268816D01*
X142024000Y-83101184D01*
X142056703Y-82936772D01*
X142120853Y-82781900D01*
X142213985Y-82642519D01*
X142332519Y-82523985D01*
X142471900Y-82430853D01*
X142626772Y-82366703D01*
X142791184Y-82334000D01*
X142958816Y-82334000D01*
X143123228Y-82366703D01*
G37*
G36*
X132963228Y-82366703D02*
G01*
X133118100Y-82430853D01*
X133257481Y-82523985D01*
X133376015Y-82642519D01*
X133469147Y-82781900D01*
X133533297Y-82936772D01*
X133566000Y-83101184D01*
X133566000Y-83268816D01*
X133533297Y-83433228D01*
X133469147Y-83588100D01*
X133376015Y-83727481D01*
X133257481Y-83846015D01*
X133118100Y-83939147D01*
X132963228Y-84003297D01*
X132798816Y-84036000D01*
X132631184Y-84036000D01*
X132466772Y-84003297D01*
X132311900Y-83939147D01*
X132172519Y-83846015D01*
X132053985Y-83727481D01*
X131960853Y-83588100D01*
X131896703Y-83433228D01*
X131864000Y-83268816D01*
X131864000Y-83101184D01*
X131896703Y-82936772D01*
X131960853Y-82781900D01*
X132053985Y-82642519D01*
X132172519Y-82523985D01*
X132311900Y-82430853D01*
X132466772Y-82366703D01*
X132631184Y-82334000D01*
X132798816Y-82334000D01*
X132963228Y-82366703D01*
G37*
G36*
X140583228Y-82366703D02*
G01*
X140738100Y-82430853D01*
X140877481Y-82523985D01*
X140996015Y-82642519D01*
X141089147Y-82781900D01*
X141153297Y-82936772D01*
X141186000Y-83101184D01*
X141186000Y-83268816D01*
X141153297Y-83433228D01*
X141089147Y-83588100D01*
X140996015Y-83727481D01*
X140877481Y-83846015D01*
X140738100Y-83939147D01*
X140583228Y-84003297D01*
X140418816Y-84036000D01*
X140251184Y-84036000D01*
X140086772Y-84003297D01*
X139931900Y-83939147D01*
X139792519Y-83846015D01*
X139673985Y-83727481D01*
X139580853Y-83588100D01*
X139516703Y-83433228D01*
X139484000Y-83268816D01*
X139484000Y-83101184D01*
X139516703Y-82936772D01*
X139580853Y-82781900D01*
X139673985Y-82642519D01*
X139792519Y-82523985D01*
X139931900Y-82430853D01*
X140086772Y-82366703D01*
X140251184Y-82334000D01*
X140418816Y-82334000D01*
X140583228Y-82366703D01*
G37*
G36*
X158363228Y-82366703D02*
G01*
X158518100Y-82430853D01*
X158657481Y-82523985D01*
X158776015Y-82642519D01*
X158869147Y-82781900D01*
X158933297Y-82936772D01*
X158966000Y-83101184D01*
X158966000Y-83268816D01*
X158933297Y-83433228D01*
X158869147Y-83588100D01*
X158776015Y-83727481D01*
X158657481Y-83846015D01*
X158518100Y-83939147D01*
X158363228Y-84003297D01*
X158198816Y-84036000D01*
X158031184Y-84036000D01*
X157866772Y-84003297D01*
X157711900Y-83939147D01*
X157572519Y-83846015D01*
X157453985Y-83727481D01*
X157360853Y-83588100D01*
X157296703Y-83433228D01*
X157264000Y-83268816D01*
X157264000Y-83101184D01*
X157296703Y-82936772D01*
X157360853Y-82781900D01*
X157453985Y-82642519D01*
X157572519Y-82523985D01*
X157711900Y-82430853D01*
X157866772Y-82366703D01*
X158031184Y-82334000D01*
X158198816Y-82334000D01*
X158363228Y-82366703D01*
G37*
G36*
X155823228Y-82366703D02*
G01*
X155978100Y-82430853D01*
X156117481Y-82523985D01*
X156236015Y-82642519D01*
X156329147Y-82781900D01*
X156393297Y-82936772D01*
X156426000Y-83101184D01*
X156426000Y-83268816D01*
X156393297Y-83433228D01*
X156329147Y-83588100D01*
X156236015Y-83727481D01*
X156117481Y-83846015D01*
X155978100Y-83939147D01*
X155823228Y-84003297D01*
X155658816Y-84036000D01*
X155491184Y-84036000D01*
X155326772Y-84003297D01*
X155171900Y-83939147D01*
X155032519Y-83846015D01*
X154913985Y-83727481D01*
X154820853Y-83588100D01*
X154756703Y-83433228D01*
X154724000Y-83268816D01*
X154724000Y-83101184D01*
X154756703Y-82936772D01*
X154820853Y-82781900D01*
X154913985Y-82642519D01*
X155032519Y-82523985D01*
X155171900Y-82430853D01*
X155326772Y-82366703D01*
X155491184Y-82334000D01*
X155658816Y-82334000D01*
X155823228Y-82366703D01*
G37*
G36*
X127883228Y-82366703D02*
G01*
X128038100Y-82430853D01*
X128177481Y-82523985D01*
X128296015Y-82642519D01*
X128389147Y-82781900D01*
X128453297Y-82936772D01*
X128486000Y-83101184D01*
X128486000Y-83268816D01*
X128453297Y-83433228D01*
X128389147Y-83588100D01*
X128296015Y-83727481D01*
X128177481Y-83846015D01*
X128038100Y-83939147D01*
X127883228Y-84003297D01*
X127718816Y-84036000D01*
X127551184Y-84036000D01*
X127386772Y-84003297D01*
X127231900Y-83939147D01*
X127092519Y-83846015D01*
X126973985Y-83727481D01*
X126880853Y-83588100D01*
X126816703Y-83433228D01*
X126784000Y-83268816D01*
X126784000Y-83101184D01*
X126816703Y-82936772D01*
X126880853Y-82781900D01*
X126973985Y-82642519D01*
X127092519Y-82523985D01*
X127231900Y-82430853D01*
X127386772Y-82366703D01*
X127551184Y-82334000D01*
X127718816Y-82334000D01*
X127883228Y-82366703D01*
G37*
G36*
X122803228Y-82366703D02*
G01*
X122958100Y-82430853D01*
X123097481Y-82523985D01*
X123216015Y-82642519D01*
X123309147Y-82781900D01*
X123373297Y-82936772D01*
X123406000Y-83101184D01*
X123406000Y-83268816D01*
X123373297Y-83433228D01*
X123309147Y-83588100D01*
X123216015Y-83727481D01*
X123097481Y-83846015D01*
X122958100Y-83939147D01*
X122803228Y-84003297D01*
X122638816Y-84036000D01*
X122471184Y-84036000D01*
X122306772Y-84003297D01*
X122151900Y-83939147D01*
X122012519Y-83846015D01*
X121893985Y-83727481D01*
X121800853Y-83588100D01*
X121736703Y-83433228D01*
X121704000Y-83268816D01*
X121704000Y-83101184D01*
X121736703Y-82936772D01*
X121800853Y-82781900D01*
X121893985Y-82642519D01*
X122012519Y-82523985D01*
X122151900Y-82430853D01*
X122306772Y-82366703D01*
X122471184Y-82334000D01*
X122638816Y-82334000D01*
X122803228Y-82366703D01*
G37*
G36*
X138043228Y-82366703D02*
G01*
X138198100Y-82430853D01*
X138337481Y-82523985D01*
X138456015Y-82642519D01*
X138549147Y-82781900D01*
X138613297Y-82936772D01*
X138646000Y-83101184D01*
X138646000Y-83268816D01*
X138613297Y-83433228D01*
X138549147Y-83588100D01*
X138456015Y-83727481D01*
X138337481Y-83846015D01*
X138198100Y-83939147D01*
X138043228Y-84003297D01*
X137878816Y-84036000D01*
X137711184Y-84036000D01*
X137546772Y-84003297D01*
X137391900Y-83939147D01*
X137252519Y-83846015D01*
X137133985Y-83727481D01*
X137040853Y-83588100D01*
X136976703Y-83433228D01*
X136944000Y-83268816D01*
X136944000Y-83101184D01*
X136976703Y-82936772D01*
X137040853Y-82781900D01*
X137133985Y-82642519D01*
X137252519Y-82523985D01*
X137391900Y-82430853D01*
X137546772Y-82366703D01*
X137711184Y-82334000D01*
X137878816Y-82334000D01*
X138043228Y-82366703D01*
G37*
G36*
X207882642Y-81019781D02*
G01*
X208028414Y-81080162D01*
X208028416Y-81080163D01*
X208159608Y-81167822D01*
X208271178Y-81279392D01*
X208358837Y-81410584D01*
X208358838Y-81410586D01*
X208419219Y-81556358D01*
X208450000Y-81711107D01*
X208450000Y-81868893D01*
X208419219Y-82023642D01*
X208393908Y-82084748D01*
X208358837Y-82169416D01*
X208271178Y-82300608D01*
X208159608Y-82412178D01*
X208028416Y-82499837D01*
X208028415Y-82499838D01*
X208028414Y-82499838D01*
X207882642Y-82560219D01*
X207727893Y-82591000D01*
X207570107Y-82591000D01*
X207415358Y-82560219D01*
X207269586Y-82499838D01*
X207269585Y-82499838D01*
X207269584Y-82499837D01*
X207138392Y-82412178D01*
X207026822Y-82300608D01*
X206939163Y-82169416D01*
X206904092Y-82084748D01*
X206878781Y-82023642D01*
X206848000Y-81868893D01*
X206848000Y-81711107D01*
X206878781Y-81556358D01*
X206939162Y-81410586D01*
X206939163Y-81410584D01*
X207026822Y-81279392D01*
X207138392Y-81167822D01*
X207269584Y-81080163D01*
X207269586Y-81080162D01*
X207415358Y-81019781D01*
X207570107Y-80989000D01*
X207727893Y-80989000D01*
X207882642Y-81019781D01*
G37*
G36*
X212702642Y-80029781D02*
G01*
X212848414Y-80090162D01*
X212848416Y-80090163D01*
X212979608Y-80177822D01*
X213091178Y-80289392D01*
X213178837Y-80420584D01*
X213178838Y-80420586D01*
X213239219Y-80566358D01*
X213270000Y-80721107D01*
X213270000Y-80878893D01*
X213239219Y-81033642D01*
X213178838Y-81179414D01*
X213178837Y-81179416D01*
X213091178Y-81310608D01*
X212979608Y-81422178D01*
X212848416Y-81509837D01*
X212848415Y-81509838D01*
X212848414Y-81509838D01*
X212702642Y-81570219D01*
X212547893Y-81601000D01*
X212390107Y-81601000D01*
X212235358Y-81570219D01*
X212089586Y-81509838D01*
X212089585Y-81509838D01*
X212089584Y-81509837D01*
X211958392Y-81422178D01*
X211846822Y-81310608D01*
X211759163Y-81179416D01*
X211759162Y-81179414D01*
X211698781Y-81033642D01*
X211668000Y-80878893D01*
X211668000Y-80721107D01*
X211698781Y-80566358D01*
X211759162Y-80420586D01*
X211759163Y-80420584D01*
X211846822Y-80289392D01*
X211958392Y-80177822D01*
X212089584Y-80090163D01*
X212089586Y-80090162D01*
X212235358Y-80029781D01*
X212390107Y-79999000D01*
X212547893Y-79999000D01*
X212702642Y-80029781D01*
G37*
G36*
X214482642Y-79009781D02*
G01*
X214628414Y-79070162D01*
X214628416Y-79070163D01*
X214759608Y-79157822D01*
X214871178Y-79269392D01*
X214958837Y-79400584D01*
X214958838Y-79400586D01*
X215019219Y-79546358D01*
X215050000Y-79701107D01*
X215050000Y-79858893D01*
X215019219Y-80013642D01*
X214958838Y-80159414D01*
X214958837Y-80159416D01*
X214871178Y-80290608D01*
X214759608Y-80402178D01*
X214628416Y-80489837D01*
X214628415Y-80489838D01*
X214628414Y-80489838D01*
X214482642Y-80550219D01*
X214327893Y-80581000D01*
X214170107Y-80581000D01*
X214015358Y-80550219D01*
X213869586Y-80489838D01*
X213869585Y-80489838D01*
X213869584Y-80489837D01*
X213738392Y-80402178D01*
X213626822Y-80290608D01*
X213539163Y-80159416D01*
X213539162Y-80159414D01*
X213478781Y-80013642D01*
X213448000Y-79858893D01*
X213448000Y-79701107D01*
X213478781Y-79546358D01*
X213539162Y-79400586D01*
X213539163Y-79400584D01*
X213626822Y-79269392D01*
X213738392Y-79157822D01*
X213869584Y-79070163D01*
X213869586Y-79070162D01*
X214015358Y-79009781D01*
X214170107Y-78979000D01*
X214327893Y-78979000D01*
X214482642Y-79009781D01*
G37*
G36*
X212702642Y-77989781D02*
G01*
X212848414Y-78050162D01*
X212848416Y-78050163D01*
X212979608Y-78137822D01*
X213091178Y-78249392D01*
X213178837Y-78380584D01*
X213178838Y-78380586D01*
X213239219Y-78526358D01*
X213270000Y-78681107D01*
X213270000Y-78838893D01*
X213239219Y-78993642D01*
X213178838Y-79139414D01*
X213178837Y-79139416D01*
X213091178Y-79270608D01*
X212979608Y-79382178D01*
X212848416Y-79469837D01*
X212848415Y-79469838D01*
X212848414Y-79469838D01*
X212702642Y-79530219D01*
X212547893Y-79561000D01*
X212390107Y-79561000D01*
X212235358Y-79530219D01*
X212089586Y-79469838D01*
X212089585Y-79469838D01*
X212089584Y-79469837D01*
X211958392Y-79382178D01*
X211846822Y-79270608D01*
X211759163Y-79139416D01*
X211759162Y-79139414D01*
X211698781Y-78993642D01*
X211668000Y-78838893D01*
X211668000Y-78681107D01*
X211698781Y-78526358D01*
X211759162Y-78380586D01*
X211759163Y-78380584D01*
X211846822Y-78249392D01*
X211958392Y-78137822D01*
X212089584Y-78050163D01*
X212089586Y-78050162D01*
X212235358Y-77989781D01*
X212390107Y-77959000D01*
X212547893Y-77959000D01*
X212702642Y-77989781D01*
G37*
G36*
X214482642Y-76969781D02*
G01*
X214628414Y-77030162D01*
X214628416Y-77030163D01*
X214759608Y-77117822D01*
X214871178Y-77229392D01*
X214958837Y-77360584D01*
X214958838Y-77360586D01*
X215019219Y-77506358D01*
X215050000Y-77661107D01*
X215050000Y-77818893D01*
X215019219Y-77973642D01*
X214958838Y-78119414D01*
X214958837Y-78119416D01*
X214871178Y-78250608D01*
X214759608Y-78362178D01*
X214628416Y-78449837D01*
X214628415Y-78449838D01*
X214628414Y-78449838D01*
X214482642Y-78510219D01*
X214327893Y-78541000D01*
X214170107Y-78541000D01*
X214015358Y-78510219D01*
X213869586Y-78449838D01*
X213869585Y-78449838D01*
X213869584Y-78449837D01*
X213738392Y-78362178D01*
X213626822Y-78250608D01*
X213539163Y-78119416D01*
X213539162Y-78119414D01*
X213478781Y-77973642D01*
X213448000Y-77818893D01*
X213448000Y-77661107D01*
X213478781Y-77506358D01*
X213539162Y-77360586D01*
X213539163Y-77360584D01*
X213626822Y-77229392D01*
X213738392Y-77117822D01*
X213869584Y-77030163D01*
X213869586Y-77030162D01*
X214015358Y-76969781D01*
X214170107Y-76939000D01*
X214327893Y-76939000D01*
X214482642Y-76969781D01*
G37*
G36*
X212702642Y-75949781D02*
G01*
X212848414Y-76010162D01*
X212848416Y-76010163D01*
X212979608Y-76097822D01*
X213091178Y-76209392D01*
X213178837Y-76340584D01*
X213178838Y-76340586D01*
X213239219Y-76486358D01*
X213270000Y-76641107D01*
X213270000Y-76798893D01*
X213239219Y-76953642D01*
X213178838Y-77099414D01*
X213178837Y-77099416D01*
X213091178Y-77230608D01*
X212979608Y-77342178D01*
X212848416Y-77429837D01*
X212848415Y-77429838D01*
X212848414Y-77429838D01*
X212702642Y-77490219D01*
X212547893Y-77521000D01*
X212390107Y-77521000D01*
X212235358Y-77490219D01*
X212089586Y-77429838D01*
X212089585Y-77429838D01*
X212089584Y-77429837D01*
X211958392Y-77342178D01*
X211846822Y-77230608D01*
X211759163Y-77099416D01*
X211759162Y-77099414D01*
X211698781Y-76953642D01*
X211668000Y-76798893D01*
X211668000Y-76641107D01*
X211698781Y-76486358D01*
X211759162Y-76340586D01*
X211759163Y-76340584D01*
X211846822Y-76209392D01*
X211958392Y-76097822D01*
X212089584Y-76010163D01*
X212089586Y-76010162D01*
X212235358Y-75949781D01*
X212390107Y-75919000D01*
X212547893Y-75919000D01*
X212702642Y-75949781D01*
G37*
G36*
X214482642Y-74929781D02*
G01*
X214628414Y-74990162D01*
X214628416Y-74990163D01*
X214759608Y-75077822D01*
X214871178Y-75189392D01*
X214958837Y-75320584D01*
X214958838Y-75320586D01*
X215019219Y-75466358D01*
X215050000Y-75621107D01*
X215050000Y-75778893D01*
X215019219Y-75933642D01*
X214958838Y-76079414D01*
X214958837Y-76079416D01*
X214871178Y-76210608D01*
X214759608Y-76322178D01*
X214628416Y-76409837D01*
X214628415Y-76409838D01*
X214628414Y-76409838D01*
X214482642Y-76470219D01*
X214327893Y-76501000D01*
X214170107Y-76501000D01*
X214015358Y-76470219D01*
X213869586Y-76409838D01*
X213869585Y-76409838D01*
X213869584Y-76409837D01*
X213738392Y-76322178D01*
X213626822Y-76210608D01*
X213539163Y-76079416D01*
X213539162Y-76079414D01*
X213478781Y-75933642D01*
X213448000Y-75778893D01*
X213448000Y-75621107D01*
X213478781Y-75466358D01*
X213539162Y-75320586D01*
X213539163Y-75320584D01*
X213626822Y-75189392D01*
X213738392Y-75077822D01*
X213869584Y-74990163D01*
X213869586Y-74990162D01*
X214015358Y-74929781D01*
X214170107Y-74899000D01*
X214327893Y-74899000D01*
X214482642Y-74929781D01*
G37*
G36*
X215050000Y-74461000D02*
G01*
X213394442Y-74461000D01*
X213370056Y-74463402D01*
X213346607Y-74470515D01*
X213324996Y-74482066D01*
X213306054Y-74497611D01*
X213290509Y-74516553D01*
X213278958Y-74538164D01*
X213271845Y-74561613D01*
X213269443Y-74585999D01*
X213270000Y-74591649D01*
X213270000Y-74758893D01*
X213239219Y-74913642D01*
X213178838Y-75059414D01*
X213178837Y-75059416D01*
X213091178Y-75190608D01*
X212979608Y-75302178D01*
X212848416Y-75389837D01*
X212848415Y-75389838D01*
X212848414Y-75389838D01*
X212702642Y-75450219D01*
X212547893Y-75481000D01*
X212390107Y-75481000D01*
X212235358Y-75450219D01*
X212089586Y-75389838D01*
X212089585Y-75389838D01*
X212089584Y-75389837D01*
X211958392Y-75302178D01*
X211846822Y-75190608D01*
X211759163Y-75059416D01*
X211759162Y-75059414D01*
X211698781Y-74913642D01*
X211668000Y-74758893D01*
X211668000Y-74601107D01*
X211698781Y-74446358D01*
X211759162Y-74300586D01*
X211759163Y-74300584D01*
X211846822Y-74169392D01*
X211958392Y-74057822D01*
X212089584Y-73970163D01*
X212089586Y-73970162D01*
X212235358Y-73909781D01*
X212390107Y-73879000D01*
X212547893Y-73879000D01*
X212702642Y-73909781D01*
X212848414Y-73970162D01*
X212848416Y-73970163D01*
X212979608Y-74057822D01*
X213091178Y-74169392D01*
X213178837Y-74300584D01*
X213178838Y-74300586D01*
X213207517Y-74369823D01*
X213219068Y-74391434D01*
X213234613Y-74410376D01*
X213253555Y-74425921D01*
X213275166Y-74437472D01*
X213298615Y-74444585D01*
X213323001Y-74446987D01*
X213347387Y-74444585D01*
X213370836Y-74437472D01*
X213392447Y-74425921D01*
X213411389Y-74410376D01*
X213426934Y-74391434D01*
X213438485Y-74369823D01*
X213445598Y-74346374D01*
X213448000Y-74321988D01*
X213448000Y-72859000D01*
X215050000Y-72859000D01*
X215050000Y-74461000D01*
G37*
G36*
X207882642Y-71879781D02*
G01*
X208028414Y-71940162D01*
X208028416Y-71940163D01*
X208159608Y-72027822D01*
X208271178Y-72139392D01*
X208358837Y-72270584D01*
X208358838Y-72270586D01*
X208419219Y-72416358D01*
X208450000Y-72571107D01*
X208450000Y-72728893D01*
X208419219Y-72883642D01*
X208358838Y-73029414D01*
X208358837Y-73029416D01*
X208271178Y-73160608D01*
X208159608Y-73272178D01*
X208028416Y-73359837D01*
X208028415Y-73359838D01*
X208028414Y-73359838D01*
X207882642Y-73420219D01*
X207727893Y-73451000D01*
X207570107Y-73451000D01*
X207415358Y-73420219D01*
X207269586Y-73359838D01*
X207269585Y-73359838D01*
X207269584Y-73359837D01*
X207138392Y-73272178D01*
X207026822Y-73160608D01*
X206939163Y-73029416D01*
X206939162Y-73029414D01*
X206878781Y-72883642D01*
X206848000Y-72728893D01*
X206848000Y-72571107D01*
X206878781Y-72416358D01*
X206939162Y-72270586D01*
X206939163Y-72270584D01*
X207026822Y-72139392D01*
X207138392Y-72027822D01*
X207269584Y-71940163D01*
X207269586Y-71940162D01*
X207415358Y-71879781D01*
X207570107Y-71849000D01*
X207727893Y-71849000D01*
X207882642Y-71879781D01*
G37*
G36*
X217277871Y-69258408D02*
G01*
X217582883Y-69384748D01*
X217857387Y-69568166D01*
X218090834Y-69801613D01*
X218274252Y-70076117D01*
X218400592Y-70381129D01*
X218465000Y-70704928D01*
X218465000Y-71035072D01*
X218400592Y-71358871D01*
X218274252Y-71663883D01*
X218090834Y-71938387D01*
X217857387Y-72171834D01*
X217582883Y-72355252D01*
X217277871Y-72481592D01*
X217115971Y-72513796D01*
X216954073Y-72546000D01*
X216623927Y-72546000D01*
X216300129Y-72481592D01*
X215995117Y-72355252D01*
X215720613Y-72171834D01*
X215487166Y-71938387D01*
X215303748Y-71663883D01*
X215177408Y-71358871D01*
X215113000Y-71035072D01*
X215113000Y-70704928D01*
X215177408Y-70381129D01*
X215303748Y-70076117D01*
X215487166Y-69801613D01*
X215720613Y-69568166D01*
X215995117Y-69384748D01*
X216300129Y-69258408D01*
X216623927Y-69194000D01*
X216954073Y-69194000D01*
X217277871Y-69258408D01*
G37*
G36*
X207882642Y-69589781D02*
G01*
X208028414Y-69650162D01*
X208028416Y-69650163D01*
X208159608Y-69737822D01*
X208271178Y-69849392D01*
X208358837Y-69980584D01*
X208358838Y-69980586D01*
X208419219Y-70126358D01*
X208450000Y-70281107D01*
X208450000Y-70438893D01*
X208419219Y-70593642D01*
X208358838Y-70739414D01*
X208358837Y-70739416D01*
X208271178Y-70870608D01*
X208159608Y-70982178D01*
X208028416Y-71069837D01*
X208028415Y-71069838D01*
X208028414Y-71069838D01*
X207882642Y-71130219D01*
X207727893Y-71161000D01*
X207570107Y-71161000D01*
X207415358Y-71130219D01*
X207269586Y-71069838D01*
X207269585Y-71069838D01*
X207269584Y-71069837D01*
X207138392Y-70982178D01*
X207026822Y-70870608D01*
X206939163Y-70739416D01*
X206939162Y-70739414D01*
X206878781Y-70593642D01*
X206848000Y-70438893D01*
X206848000Y-70281107D01*
X206878781Y-70126358D01*
X206939162Y-69980586D01*
X206939163Y-69980584D01*
X207026822Y-69849392D01*
X207138392Y-69737822D01*
X207269584Y-69650163D01*
X207269586Y-69650162D01*
X207415358Y-69589781D01*
X207570107Y-69559000D01*
X207727893Y-69559000D01*
X207882642Y-69589781D01*
G37*
G36*
X213665564Y-68079389D02*
G01*
X213856833Y-68158615D01*
X213856835Y-68158616D01*
X213908635Y-68193228D01*
X214028973Y-68273635D01*
X214175365Y-68420027D01*
X214290385Y-68592167D01*
X214369611Y-68783436D01*
X214410000Y-68986484D01*
X214410000Y-69193516D01*
X214369611Y-69396564D01*
X214302328Y-69559000D01*
X214290384Y-69587835D01*
X214175365Y-69759973D01*
X214028973Y-69906365D01*
X213856835Y-70021384D01*
X213856834Y-70021385D01*
X213856833Y-70021385D01*
X213665564Y-70100611D01*
X213462516Y-70141000D01*
X213255484Y-70141000D01*
X213052436Y-70100611D01*
X212861167Y-70021385D01*
X212861166Y-70021385D01*
X212861165Y-70021384D01*
X212689027Y-69906365D01*
X212542635Y-69759973D01*
X212427616Y-69587835D01*
X212415672Y-69559000D01*
X212348389Y-69396564D01*
X212308000Y-69193516D01*
X212308000Y-68986484D01*
X212348389Y-68783436D01*
X212427615Y-68592167D01*
X212542635Y-68420027D01*
X212689027Y-68273635D01*
X212809365Y-68193228D01*
X212861165Y-68158616D01*
X212861167Y-68158615D01*
X213052436Y-68079389D01*
X213255484Y-68039000D01*
X213462516Y-68039000D01*
X213665564Y-68079389D01*
G37*
G36*
X161506000Y-68796000D02*
G01*
X159804000Y-68796000D01*
X159804000Y-67094000D01*
X161506000Y-67094000D01*
X161506000Y-68796000D01*
G37*
G36*
X158363228Y-67126703D02*
G01*
X158518100Y-67190853D01*
X158657481Y-67283985D01*
X158776015Y-67402519D01*
X158869147Y-67541900D01*
X158933297Y-67696772D01*
X158966000Y-67861184D01*
X158966000Y-68028816D01*
X158933297Y-68193228D01*
X158869147Y-68348100D01*
X158776015Y-68487481D01*
X158657481Y-68606015D01*
X158518100Y-68699147D01*
X158363228Y-68763297D01*
X158198816Y-68796000D01*
X158031184Y-68796000D01*
X157866772Y-68763297D01*
X157711900Y-68699147D01*
X157572519Y-68606015D01*
X157453985Y-68487481D01*
X157360853Y-68348100D01*
X157296703Y-68193228D01*
X157264000Y-68028816D01*
X157264000Y-67861184D01*
X157296703Y-67696772D01*
X157360853Y-67541900D01*
X157453985Y-67402519D01*
X157572519Y-67283985D01*
X157711900Y-67190853D01*
X157866772Y-67126703D01*
X158031184Y-67094000D01*
X158198816Y-67094000D01*
X158363228Y-67126703D01*
G37*
G36*
X155823228Y-67126703D02*
G01*
X155978100Y-67190853D01*
X156117481Y-67283985D01*
X156236015Y-67402519D01*
X156329147Y-67541900D01*
X156393297Y-67696772D01*
X156426000Y-67861184D01*
X156426000Y-68028816D01*
X156393297Y-68193228D01*
X156329147Y-68348100D01*
X156236015Y-68487481D01*
X156117481Y-68606015D01*
X155978100Y-68699147D01*
X155823228Y-68763297D01*
X155658816Y-68796000D01*
X155491184Y-68796000D01*
X155326772Y-68763297D01*
X155171900Y-68699147D01*
X155032519Y-68606015D01*
X154913985Y-68487481D01*
X154820853Y-68348100D01*
X154756703Y-68193228D01*
X154724000Y-68028816D01*
X154724000Y-67861184D01*
X154756703Y-67696772D01*
X154820853Y-67541900D01*
X154913985Y-67402519D01*
X155032519Y-67283985D01*
X155171900Y-67190853D01*
X155326772Y-67126703D01*
X155491184Y-67094000D01*
X155658816Y-67094000D01*
X155823228Y-67126703D01*
G37*
G36*
X153283228Y-67126703D02*
G01*
X153438100Y-67190853D01*
X153577481Y-67283985D01*
X153696015Y-67402519D01*
X153789147Y-67541900D01*
X153853297Y-67696772D01*
X153886000Y-67861184D01*
X153886000Y-68028816D01*
X153853297Y-68193228D01*
X153789147Y-68348100D01*
X153696015Y-68487481D01*
X153577481Y-68606015D01*
X153438100Y-68699147D01*
X153283228Y-68763297D01*
X153118816Y-68796000D01*
X152951184Y-68796000D01*
X152786772Y-68763297D01*
X152631900Y-68699147D01*
X152492519Y-68606015D01*
X152373985Y-68487481D01*
X152280853Y-68348100D01*
X152216703Y-68193228D01*
X152184000Y-68028816D01*
X152184000Y-67861184D01*
X152216703Y-67696772D01*
X152280853Y-67541900D01*
X152373985Y-67402519D01*
X152492519Y-67283985D01*
X152631900Y-67190853D01*
X152786772Y-67126703D01*
X152951184Y-67094000D01*
X153118816Y-67094000D01*
X153283228Y-67126703D01*
G37*
G36*
X148203228Y-67126703D02*
G01*
X148358100Y-67190853D01*
X148497481Y-67283985D01*
X148616015Y-67402519D01*
X148709147Y-67541900D01*
X148773297Y-67696772D01*
X148806000Y-67861184D01*
X148806000Y-68028816D01*
X148773297Y-68193228D01*
X148709147Y-68348100D01*
X148616015Y-68487481D01*
X148497481Y-68606015D01*
X148358100Y-68699147D01*
X148203228Y-68763297D01*
X148038816Y-68796000D01*
X147871184Y-68796000D01*
X147706772Y-68763297D01*
X147551900Y-68699147D01*
X147412519Y-68606015D01*
X147293985Y-68487481D01*
X147200853Y-68348100D01*
X147136703Y-68193228D01*
X147104000Y-68028816D01*
X147104000Y-67861184D01*
X147136703Y-67696772D01*
X147200853Y-67541900D01*
X147293985Y-67402519D01*
X147412519Y-67283985D01*
X147551900Y-67190853D01*
X147706772Y-67126703D01*
X147871184Y-67094000D01*
X148038816Y-67094000D01*
X148203228Y-67126703D01*
G37*
G36*
X145663228Y-67126703D02*
G01*
X145818100Y-67190853D01*
X145957481Y-67283985D01*
X146076015Y-67402519D01*
X146169147Y-67541900D01*
X146233297Y-67696772D01*
X146266000Y-67861184D01*
X146266000Y-68028816D01*
X146233297Y-68193228D01*
X146169147Y-68348100D01*
X146076015Y-68487481D01*
X145957481Y-68606015D01*
X145818100Y-68699147D01*
X145663228Y-68763297D01*
X145498816Y-68796000D01*
X145331184Y-68796000D01*
X145166772Y-68763297D01*
X145011900Y-68699147D01*
X144872519Y-68606015D01*
X144753985Y-68487481D01*
X144660853Y-68348100D01*
X144596703Y-68193228D01*
X144564000Y-68028816D01*
X144564000Y-67861184D01*
X144596703Y-67696772D01*
X144660853Y-67541900D01*
X144753985Y-67402519D01*
X144872519Y-67283985D01*
X145011900Y-67190853D01*
X145166772Y-67126703D01*
X145331184Y-67094000D01*
X145498816Y-67094000D01*
X145663228Y-67126703D01*
G37*
G36*
X143123228Y-67126703D02*
G01*
X143278100Y-67190853D01*
X143417481Y-67283985D01*
X143536015Y-67402519D01*
X143629147Y-67541900D01*
X143693297Y-67696772D01*
X143726000Y-67861184D01*
X143726000Y-68028816D01*
X143693297Y-68193228D01*
X143629147Y-68348100D01*
X143536015Y-68487481D01*
X143417481Y-68606015D01*
X143278100Y-68699147D01*
X143123228Y-68763297D01*
X142958816Y-68796000D01*
X142791184Y-68796000D01*
X142626772Y-68763297D01*
X142471900Y-68699147D01*
X142332519Y-68606015D01*
X142213985Y-68487481D01*
X142120853Y-68348100D01*
X142056703Y-68193228D01*
X142024000Y-68028816D01*
X142024000Y-67861184D01*
X142056703Y-67696772D01*
X142120853Y-67541900D01*
X142213985Y-67402519D01*
X142332519Y-67283985D01*
X142471900Y-67190853D01*
X142626772Y-67126703D01*
X142791184Y-67094000D01*
X142958816Y-67094000D01*
X143123228Y-67126703D01*
G37*
G36*
X140583228Y-67126703D02*
G01*
X140738100Y-67190853D01*
X140877481Y-67283985D01*
X140996015Y-67402519D01*
X141089147Y-67541900D01*
X141153297Y-67696772D01*
X141186000Y-67861184D01*
X141186000Y-68028816D01*
X141153297Y-68193228D01*
X141089147Y-68348100D01*
X140996015Y-68487481D01*
X140877481Y-68606015D01*
X140738100Y-68699147D01*
X140583228Y-68763297D01*
X140418816Y-68796000D01*
X140251184Y-68796000D01*
X140086772Y-68763297D01*
X139931900Y-68699147D01*
X139792519Y-68606015D01*
X139673985Y-68487481D01*
X139580853Y-68348100D01*
X139516703Y-68193228D01*
X139484000Y-68028816D01*
X139484000Y-67861184D01*
X139516703Y-67696772D01*
X139580853Y-67541900D01*
X139673985Y-67402519D01*
X139792519Y-67283985D01*
X139931900Y-67190853D01*
X140086772Y-67126703D01*
X140251184Y-67094000D01*
X140418816Y-67094000D01*
X140583228Y-67126703D01*
G37*
G36*
X135503228Y-67126703D02*
G01*
X135658100Y-67190853D01*
X135797481Y-67283985D01*
X135916015Y-67402519D01*
X136009147Y-67541900D01*
X136073297Y-67696772D01*
X136106000Y-67861184D01*
X136106000Y-68028816D01*
X136073297Y-68193228D01*
X136009147Y-68348100D01*
X135916015Y-68487481D01*
X135797481Y-68606015D01*
X135658100Y-68699147D01*
X135503228Y-68763297D01*
X135338816Y-68796000D01*
X135171184Y-68796000D01*
X135006772Y-68763297D01*
X134851900Y-68699147D01*
X134712519Y-68606015D01*
X134593985Y-68487481D01*
X134500853Y-68348100D01*
X134436703Y-68193228D01*
X134404000Y-68028816D01*
X134404000Y-67861184D01*
X134436703Y-67696772D01*
X134500853Y-67541900D01*
X134593985Y-67402519D01*
X134712519Y-67283985D01*
X134851900Y-67190853D01*
X135006772Y-67126703D01*
X135171184Y-67094000D01*
X135338816Y-67094000D01*
X135503228Y-67126703D01*
G37*
G36*
X132963228Y-67126703D02*
G01*
X133118100Y-67190853D01*
X133257481Y-67283985D01*
X133376015Y-67402519D01*
X133469147Y-67541900D01*
X133533297Y-67696772D01*
X133566000Y-67861184D01*
X133566000Y-68028816D01*
X133533297Y-68193228D01*
X133469147Y-68348100D01*
X133376015Y-68487481D01*
X133257481Y-68606015D01*
X133118100Y-68699147D01*
X132963228Y-68763297D01*
X132798816Y-68796000D01*
X132631184Y-68796000D01*
X132466772Y-68763297D01*
X132311900Y-68699147D01*
X132172519Y-68606015D01*
X132053985Y-68487481D01*
X131960853Y-68348100D01*
X131896703Y-68193228D01*
X131864000Y-68028816D01*
X131864000Y-67861184D01*
X131896703Y-67696772D01*
X131960853Y-67541900D01*
X132053985Y-67402519D01*
X132172519Y-67283985D01*
X132311900Y-67190853D01*
X132466772Y-67126703D01*
X132631184Y-67094000D01*
X132798816Y-67094000D01*
X132963228Y-67126703D01*
G37*
G36*
X130423228Y-67126703D02*
G01*
X130578100Y-67190853D01*
X130717481Y-67283985D01*
X130836015Y-67402519D01*
X130929147Y-67541900D01*
X130993297Y-67696772D01*
X131026000Y-67861184D01*
X131026000Y-68028816D01*
X130993297Y-68193228D01*
X130929147Y-68348100D01*
X130836015Y-68487481D01*
X130717481Y-68606015D01*
X130578100Y-68699147D01*
X130423228Y-68763297D01*
X130258816Y-68796000D01*
X130091184Y-68796000D01*
X129926772Y-68763297D01*
X129771900Y-68699147D01*
X129632519Y-68606015D01*
X129513985Y-68487481D01*
X129420853Y-68348100D01*
X129356703Y-68193228D01*
X129324000Y-68028816D01*
X129324000Y-67861184D01*
X129356703Y-67696772D01*
X129420853Y-67541900D01*
X129513985Y-67402519D01*
X129632519Y-67283985D01*
X129771900Y-67190853D01*
X129926772Y-67126703D01*
X130091184Y-67094000D01*
X130258816Y-67094000D01*
X130423228Y-67126703D01*
G37*
G36*
X127883228Y-67126703D02*
G01*
X128038100Y-67190853D01*
X128177481Y-67283985D01*
X128296015Y-67402519D01*
X128389147Y-67541900D01*
X128453297Y-67696772D01*
X128486000Y-67861184D01*
X128486000Y-68028816D01*
X128453297Y-68193228D01*
X128389147Y-68348100D01*
X128296015Y-68487481D01*
X128177481Y-68606015D01*
X128038100Y-68699147D01*
X127883228Y-68763297D01*
X127718816Y-68796000D01*
X127551184Y-68796000D01*
X127386772Y-68763297D01*
X127231900Y-68699147D01*
X127092519Y-68606015D01*
X126973985Y-68487481D01*
X126880853Y-68348100D01*
X126816703Y-68193228D01*
X126784000Y-68028816D01*
X126784000Y-67861184D01*
X126816703Y-67696772D01*
X126880853Y-67541900D01*
X126973985Y-67402519D01*
X127092519Y-67283985D01*
X127231900Y-67190853D01*
X127386772Y-67126703D01*
X127551184Y-67094000D01*
X127718816Y-67094000D01*
X127883228Y-67126703D01*
G37*
G36*
X125343228Y-67126703D02*
G01*
X125498100Y-67190853D01*
X125637481Y-67283985D01*
X125756015Y-67402519D01*
X125849147Y-67541900D01*
X125913297Y-67696772D01*
X125946000Y-67861184D01*
X125946000Y-68028816D01*
X125913297Y-68193228D01*
X125849147Y-68348100D01*
X125756015Y-68487481D01*
X125637481Y-68606015D01*
X125498100Y-68699147D01*
X125343228Y-68763297D01*
X125178816Y-68796000D01*
X125011184Y-68796000D01*
X124846772Y-68763297D01*
X124691900Y-68699147D01*
X124552519Y-68606015D01*
X124433985Y-68487481D01*
X124340853Y-68348100D01*
X124276703Y-68193228D01*
X124244000Y-68028816D01*
X124244000Y-67861184D01*
X124276703Y-67696772D01*
X124340853Y-67541900D01*
X124433985Y-67402519D01*
X124552519Y-67283985D01*
X124691900Y-67190853D01*
X124846772Y-67126703D01*
X125011184Y-67094000D01*
X125178816Y-67094000D01*
X125343228Y-67126703D01*
G37*
G36*
X150743228Y-67126703D02*
G01*
X150898100Y-67190853D01*
X151037481Y-67283985D01*
X151156015Y-67402519D01*
X151249147Y-67541900D01*
X151313297Y-67696772D01*
X151346000Y-67861184D01*
X151346000Y-68028816D01*
X151313297Y-68193228D01*
X151249147Y-68348100D01*
X151156015Y-68487481D01*
X151037481Y-68606015D01*
X150898100Y-68699147D01*
X150743228Y-68763297D01*
X150578816Y-68796000D01*
X150411184Y-68796000D01*
X150246772Y-68763297D01*
X150091900Y-68699147D01*
X149952519Y-68606015D01*
X149833985Y-68487481D01*
X149740853Y-68348100D01*
X149676703Y-68193228D01*
X149644000Y-68028816D01*
X149644000Y-67861184D01*
X149676703Y-67696772D01*
X149740853Y-67541900D01*
X149833985Y-67402519D01*
X149952519Y-67283985D01*
X150091900Y-67190853D01*
X150246772Y-67126703D01*
X150411184Y-67094000D01*
X150578816Y-67094000D01*
X150743228Y-67126703D01*
G37*
G36*
X122803228Y-67126703D02*
G01*
X122958100Y-67190853D01*
X123097481Y-67283985D01*
X123216015Y-67402519D01*
X123309147Y-67541900D01*
X123373297Y-67696772D01*
X123406000Y-67861184D01*
X123406000Y-68028816D01*
X123373297Y-68193228D01*
X123309147Y-68348100D01*
X123216015Y-68487481D01*
X123097481Y-68606015D01*
X122958100Y-68699147D01*
X122803228Y-68763297D01*
X122638816Y-68796000D01*
X122471184Y-68796000D01*
X122306772Y-68763297D01*
X122151900Y-68699147D01*
X122012519Y-68606015D01*
X121893985Y-68487481D01*
X121800853Y-68348100D01*
X121736703Y-68193228D01*
X121704000Y-68028816D01*
X121704000Y-67861184D01*
X121736703Y-67696772D01*
X121800853Y-67541900D01*
X121893985Y-67402519D01*
X122012519Y-67283985D01*
X122151900Y-67190853D01*
X122306772Y-67126703D01*
X122471184Y-67094000D01*
X122638816Y-67094000D01*
X122803228Y-67126703D01*
G37*
G36*
X138043228Y-67126703D02*
G01*
X138198100Y-67190853D01*
X138337481Y-67283985D01*
X138456015Y-67402519D01*
X138549147Y-67541900D01*
X138613297Y-67696772D01*
X138646000Y-67861184D01*
X138646000Y-68028816D01*
X138613297Y-68193228D01*
X138549147Y-68348100D01*
X138456015Y-68487481D01*
X138337481Y-68606015D01*
X138198100Y-68699147D01*
X138043228Y-68763297D01*
X137878816Y-68796000D01*
X137711184Y-68796000D01*
X137546772Y-68763297D01*
X137391900Y-68699147D01*
X137252519Y-68606015D01*
X137133985Y-68487481D01*
X137040853Y-68348100D01*
X136976703Y-68193228D01*
X136944000Y-68028816D01*
X136944000Y-67861184D01*
X136976703Y-67696772D01*
X137040853Y-67541900D01*
X137133985Y-67402519D01*
X137252519Y-67283985D01*
X137391900Y-67190853D01*
X137546772Y-67126703D01*
X137711184Y-67094000D01*
X137878816Y-67094000D01*
X138043228Y-67126703D01*
G37*
G36*
X165983228Y-62681703D02*
G01*
X166138100Y-62745853D01*
X166277481Y-62838985D01*
X166396015Y-62957519D01*
X166489147Y-63096900D01*
X166553297Y-63251772D01*
X166586000Y-63416184D01*
X166586000Y-63583816D01*
X166553297Y-63748228D01*
X166489147Y-63903100D01*
X166396015Y-64042481D01*
X166277481Y-64161015D01*
X166138100Y-64254147D01*
X165983228Y-64318297D01*
X165818816Y-64351000D01*
X165651184Y-64351000D01*
X165486772Y-64318297D01*
X165331900Y-64254147D01*
X165192519Y-64161015D01*
X165073985Y-64042481D01*
X164980853Y-63903100D01*
X164916703Y-63748228D01*
X164884000Y-63583816D01*
X164884000Y-63416184D01*
X164916703Y-63251772D01*
X164980853Y-63096900D01*
X165073985Y-62957519D01*
X165192519Y-62838985D01*
X165331900Y-62745853D01*
X165486772Y-62681703D01*
X165651184Y-62649000D01*
X165818816Y-62649000D01*
X165983228Y-62681703D01*
G37*
G36*
X178048228Y-62681703D02*
G01*
X178203100Y-62745853D01*
X178342481Y-62838985D01*
X178461015Y-62957519D01*
X178554147Y-63096900D01*
X178618297Y-63251772D01*
X178651000Y-63416184D01*
X178651000Y-63583816D01*
X178618297Y-63748228D01*
X178554147Y-63903100D01*
X178461015Y-64042481D01*
X178342481Y-64161015D01*
X178203100Y-64254147D01*
X178048228Y-64318297D01*
X177883816Y-64351000D01*
X177716184Y-64351000D01*
X177551772Y-64318297D01*
X177396900Y-64254147D01*
X177257519Y-64161015D01*
X177138985Y-64042481D01*
X177045853Y-63903100D01*
X176981703Y-63748228D01*
X176949000Y-63583816D01*
X176949000Y-63416184D01*
X176981703Y-63251772D01*
X177045853Y-63096900D01*
X177138985Y-62957519D01*
X177257519Y-62838985D01*
X177396900Y-62745853D01*
X177551772Y-62681703D01*
X177716184Y-62649000D01*
X177883816Y-62649000D01*
X178048228Y-62681703D01*
G37*
G36*
X176111000Y-64351000D02*
G01*
X174409000Y-64351000D01*
X174409000Y-62649000D01*
X176111000Y-62649000D01*
X176111000Y-64351000D01*
G37*
G36*
X168523228Y-62681703D02*
G01*
X168678100Y-62745853D01*
X168817481Y-62838985D01*
X168936015Y-62957519D01*
X169029147Y-63096900D01*
X169093297Y-63251772D01*
X169126000Y-63416184D01*
X169126000Y-63583816D01*
X169093297Y-63748228D01*
X169029147Y-63903100D01*
X168936015Y-64042481D01*
X168817481Y-64161015D01*
X168678100Y-64254147D01*
X168523228Y-64318297D01*
X168358816Y-64351000D01*
X168191184Y-64351000D01*
X168026772Y-64318297D01*
X167871900Y-64254147D01*
X167732519Y-64161015D01*
X167613985Y-64042481D01*
X167520853Y-63903100D01*
X167456703Y-63748228D01*
X167424000Y-63583816D01*
X167424000Y-63416184D01*
X167456703Y-63251772D01*
X167520853Y-63096900D01*
X167613985Y-62957519D01*
X167732519Y-62838985D01*
X167871900Y-62745853D01*
X168026772Y-62681703D01*
X168191184Y-62649000D01*
X168358816Y-62649000D01*
X168523228Y-62681703D01*
G37*
G36*
X163443228Y-62681703D02*
G01*
X163598100Y-62745853D01*
X163737481Y-62838985D01*
X163856015Y-62957519D01*
X163949147Y-63096900D01*
X164013297Y-63251772D01*
X164046000Y-63416184D01*
X164046000Y-63583816D01*
X164013297Y-63748228D01*
X163949147Y-63903100D01*
X163856015Y-64042481D01*
X163737481Y-64161015D01*
X163598100Y-64254147D01*
X163443228Y-64318297D01*
X163278816Y-64351000D01*
X163111184Y-64351000D01*
X162946772Y-64318297D01*
X162791900Y-64254147D01*
X162652519Y-64161015D01*
X162533985Y-64042481D01*
X162440853Y-63903100D01*
X162376703Y-63748228D01*
X162344000Y-63583816D01*
X162344000Y-63416184D01*
X162376703Y-63251772D01*
X162440853Y-63096900D01*
X162533985Y-62957519D01*
X162652519Y-62838985D01*
X162791900Y-62745853D01*
X162946772Y-62681703D01*
X163111184Y-62649000D01*
X163278816Y-62649000D01*
X163443228Y-62681703D01*
G37*
G36*
X160903228Y-62681703D02*
G01*
X161058100Y-62745853D01*
X161197481Y-62838985D01*
X161316015Y-62957519D01*
X161409147Y-63096900D01*
X161473297Y-63251772D01*
X161506000Y-63416184D01*
X161506000Y-63583816D01*
X161473297Y-63748228D01*
X161409147Y-63903100D01*
X161316015Y-64042481D01*
X161197481Y-64161015D01*
X161058100Y-64254147D01*
X160903228Y-64318297D01*
X160738816Y-64351000D01*
X160571184Y-64351000D01*
X160406772Y-64318297D01*
X160251900Y-64254147D01*
X160112519Y-64161015D01*
X159993985Y-64042481D01*
X159900853Y-63903100D01*
X159836703Y-63748228D01*
X159804000Y-63583816D01*
X159804000Y-63416184D01*
X159836703Y-63251772D01*
X159900853Y-63096900D01*
X159993985Y-62957519D01*
X160112519Y-62838985D01*
X160251900Y-62745853D01*
X160406772Y-62681703D01*
X160571184Y-62649000D01*
X160738816Y-62649000D01*
X160903228Y-62681703D01*
G37*
G36*
X158966000Y-64351000D02*
G01*
X157264000Y-64351000D01*
X157264000Y-62649000D01*
X158966000Y-62649000D01*
X158966000Y-64351000D01*
G37*
G36*
X152013228Y-62681703D02*
G01*
X152168100Y-62745853D01*
X152307481Y-62838985D01*
X152426015Y-62957519D01*
X152519147Y-63096900D01*
X152583297Y-63251772D01*
X152616000Y-63416184D01*
X152616000Y-63583816D01*
X152583297Y-63748228D01*
X152519147Y-63903100D01*
X152426015Y-64042481D01*
X152307481Y-64161015D01*
X152168100Y-64254147D01*
X152013228Y-64318297D01*
X151848816Y-64351000D01*
X151681184Y-64351000D01*
X151516772Y-64318297D01*
X151361900Y-64254147D01*
X151222519Y-64161015D01*
X151103985Y-64042481D01*
X151010853Y-63903100D01*
X150946703Y-63748228D01*
X150914000Y-63583816D01*
X150914000Y-63416184D01*
X150946703Y-63251772D01*
X151010853Y-63096900D01*
X151103985Y-62957519D01*
X151222519Y-62838985D01*
X151361900Y-62745853D01*
X151516772Y-62681703D01*
X151681184Y-62649000D01*
X151848816Y-62649000D01*
X152013228Y-62681703D01*
G37*
G36*
X139948228Y-62681703D02*
G01*
X140103100Y-62745853D01*
X140242481Y-62838985D01*
X140361015Y-62957519D01*
X140454147Y-63096900D01*
X140518297Y-63251772D01*
X140551000Y-63416184D01*
X140551000Y-63583816D01*
X140518297Y-63748228D01*
X140454147Y-63903100D01*
X140361015Y-64042481D01*
X140242481Y-64161015D01*
X140103100Y-64254147D01*
X139948228Y-64318297D01*
X139783816Y-64351000D01*
X139616184Y-64351000D01*
X139451772Y-64318297D01*
X139296900Y-64254147D01*
X139157519Y-64161015D01*
X139038985Y-64042481D01*
X138945853Y-63903100D01*
X138881703Y-63748228D01*
X138849000Y-63583816D01*
X138849000Y-63416184D01*
X138881703Y-63251772D01*
X138945853Y-63096900D01*
X139038985Y-62957519D01*
X139157519Y-62838985D01*
X139296900Y-62745853D01*
X139451772Y-62681703D01*
X139616184Y-62649000D01*
X139783816Y-62649000D01*
X139948228Y-62681703D01*
G37*
G36*
X138011000Y-64351000D02*
G01*
X136309000Y-64351000D01*
X136309000Y-62649000D01*
X138011000Y-62649000D01*
X138011000Y-64351000D01*
G37*
G36*
X130423228Y-62681703D02*
G01*
X130578100Y-62745853D01*
X130717481Y-62838985D01*
X130836015Y-62957519D01*
X130929147Y-63096900D01*
X130993297Y-63251772D01*
X131026000Y-63416184D01*
X131026000Y-63583816D01*
X130993297Y-63748228D01*
X130929147Y-63903100D01*
X130836015Y-64042481D01*
X130717481Y-64161015D01*
X130578100Y-64254147D01*
X130423228Y-64318297D01*
X130258816Y-64351000D01*
X130091184Y-64351000D01*
X129926772Y-64318297D01*
X129771900Y-64254147D01*
X129632519Y-64161015D01*
X129513985Y-64042481D01*
X129420853Y-63903100D01*
X129356703Y-63748228D01*
X129324000Y-63583816D01*
X129324000Y-63416184D01*
X129356703Y-63251772D01*
X129420853Y-63096900D01*
X129513985Y-62957519D01*
X129632519Y-62838985D01*
X129771900Y-62745853D01*
X129926772Y-62681703D01*
X130091184Y-62649000D01*
X130258816Y-62649000D01*
X130423228Y-62681703D01*
G37*
G36*
X127883228Y-62681703D02*
G01*
X128038100Y-62745853D01*
X128177481Y-62838985D01*
X128296015Y-62957519D01*
X128389147Y-63096900D01*
X128453297Y-63251772D01*
X128486000Y-63416184D01*
X128486000Y-63583816D01*
X128453297Y-63748228D01*
X128389147Y-63903100D01*
X128296015Y-64042481D01*
X128177481Y-64161015D01*
X128038100Y-64254147D01*
X127883228Y-64318297D01*
X127718816Y-64351000D01*
X127551184Y-64351000D01*
X127386772Y-64318297D01*
X127231900Y-64254147D01*
X127092519Y-64161015D01*
X126973985Y-64042481D01*
X126880853Y-63903100D01*
X126816703Y-63748228D01*
X126784000Y-63583816D01*
X126784000Y-63416184D01*
X126816703Y-63251772D01*
X126880853Y-63096900D01*
X126973985Y-62957519D01*
X127092519Y-62838985D01*
X127231900Y-62745853D01*
X127386772Y-62681703D01*
X127551184Y-62649000D01*
X127718816Y-62649000D01*
X127883228Y-62681703D01*
G37*
G36*
X123406000Y-64351000D02*
G01*
X121704000Y-64351000D01*
X121704000Y-62649000D01*
X123406000Y-62649000D01*
X123406000Y-64351000D01*
G37*
G36*
X125343228Y-62681703D02*
G01*
X125498100Y-62745853D01*
X125637481Y-62838985D01*
X125756015Y-62957519D01*
X125849147Y-63096900D01*
X125913297Y-63251772D01*
X125946000Y-63416184D01*
X125946000Y-63583816D01*
X125913297Y-63748228D01*
X125849147Y-63903100D01*
X125756015Y-64042481D01*
X125637481Y-64161015D01*
X125498100Y-64254147D01*
X125343228Y-64318297D01*
X125178816Y-64351000D01*
X125011184Y-64351000D01*
X124846772Y-64318297D01*
X124691900Y-64254147D01*
X124552519Y-64161015D01*
X124433985Y-64042481D01*
X124340853Y-63903100D01*
X124276703Y-63748228D01*
X124244000Y-63583816D01*
X124244000Y-63416184D01*
X124276703Y-63251772D01*
X124340853Y-63096900D01*
X124433985Y-62957519D01*
X124552519Y-62838985D01*
X124691900Y-62745853D01*
X124846772Y-62681703D01*
X125011184Y-62649000D01*
X125178816Y-62649000D01*
X125343228Y-62681703D01*
G37*
G36*
X150076000Y-64351000D02*
G01*
X148374000Y-64351000D01*
X148374000Y-62649000D01*
X150076000Y-62649000D01*
X150076000Y-64351000D01*
G37*
G36*
X142488228Y-62681703D02*
G01*
X142643100Y-62745853D01*
X142782481Y-62838985D01*
X142901015Y-62957519D01*
X142994147Y-63096900D01*
X143058297Y-63251772D01*
X143091000Y-63416184D01*
X143091000Y-63583816D01*
X143058297Y-63748228D01*
X142994147Y-63903100D01*
X142901015Y-64042481D01*
X142782481Y-64161015D01*
X142643100Y-64254147D01*
X142488228Y-64318297D01*
X142323816Y-64351000D01*
X142156184Y-64351000D01*
X141991772Y-64318297D01*
X141836900Y-64254147D01*
X141697519Y-64161015D01*
X141578985Y-64042481D01*
X141485853Y-63903100D01*
X141421703Y-63748228D01*
X141389000Y-63583816D01*
X141389000Y-63416184D01*
X141421703Y-63251772D01*
X141485853Y-63096900D01*
X141578985Y-62957519D01*
X141697519Y-62838985D01*
X141836900Y-62745853D01*
X141991772Y-62681703D01*
X142156184Y-62649000D01*
X142323816Y-62649000D01*
X142488228Y-62681703D01*
G37*
G36*
X216725239Y-56351467D02*
G01*
X217039282Y-56413934D01*
X217630926Y-56659001D01*
X218163392Y-57014784D01*
X218616216Y-57467608D01*
X218971999Y-58000074D01*
X219217066Y-58591718D01*
X219217066Y-58591719D01*
X219342000Y-59219803D01*
X219342000Y-59860197D01*
X219279533Y-60174239D01*
X219217066Y-60488282D01*
X218971999Y-61079926D01*
X218616216Y-61612392D01*
X218163392Y-62065216D01*
X217630926Y-62420999D01*
X217039282Y-62666066D01*
X216960669Y-62681703D01*
X216411197Y-62791000D01*
X215770803Y-62791000D01*
X215221331Y-62681703D01*
X215142718Y-62666066D01*
X214551074Y-62420999D01*
X214018608Y-62065216D01*
X213565784Y-61612392D01*
X213210001Y-61079926D01*
X212964934Y-60488282D01*
X212902467Y-60174239D01*
X212840000Y-59860197D01*
X212840000Y-59219803D01*
X212964934Y-58591719D01*
X212964934Y-58591718D01*
X213210001Y-58000074D01*
X213565784Y-57467608D01*
X214018608Y-57014784D01*
X214551074Y-56659001D01*
X215142718Y-56413934D01*
X215456761Y-56351467D01*
X215770803Y-56289000D01*
X216411197Y-56289000D01*
X216725239Y-56351467D01*
G37*
G36*
X163443228Y-55061703D02*
G01*
X163598100Y-55125853D01*
X163737481Y-55218985D01*
X163856015Y-55337519D01*
X163949147Y-55476900D01*
X164013297Y-55631772D01*
X164046000Y-55796184D01*
X164046000Y-55963816D01*
X164013297Y-56128228D01*
X163949147Y-56283100D01*
X163856015Y-56422481D01*
X163737481Y-56541015D01*
X163598100Y-56634147D01*
X163443228Y-56698297D01*
X163278816Y-56731000D01*
X163111184Y-56731000D01*
X162946772Y-56698297D01*
X162791900Y-56634147D01*
X162652519Y-56541015D01*
X162533985Y-56422481D01*
X162440853Y-56283100D01*
X162376703Y-56128228D01*
X162344000Y-55963816D01*
X162344000Y-55796184D01*
X162376703Y-55631772D01*
X162440853Y-55476900D01*
X162533985Y-55337519D01*
X162652519Y-55218985D01*
X162791900Y-55125853D01*
X162946772Y-55061703D01*
X163111184Y-55029000D01*
X163278816Y-55029000D01*
X163443228Y-55061703D01*
G37*
G36*
X165983228Y-55061703D02*
G01*
X166138100Y-55125853D01*
X166277481Y-55218985D01*
X166396015Y-55337519D01*
X166489147Y-55476900D01*
X166553297Y-55631772D01*
X166586000Y-55796184D01*
X166586000Y-55963816D01*
X166553297Y-56128228D01*
X166489147Y-56283100D01*
X166396015Y-56422481D01*
X166277481Y-56541015D01*
X166138100Y-56634147D01*
X165983228Y-56698297D01*
X165818816Y-56731000D01*
X165651184Y-56731000D01*
X165486772Y-56698297D01*
X165331900Y-56634147D01*
X165192519Y-56541015D01*
X165073985Y-56422481D01*
X164980853Y-56283100D01*
X164916703Y-56128228D01*
X164884000Y-55963816D01*
X164884000Y-55796184D01*
X164916703Y-55631772D01*
X164980853Y-55476900D01*
X165073985Y-55337519D01*
X165192519Y-55218985D01*
X165331900Y-55125853D01*
X165486772Y-55061703D01*
X165651184Y-55029000D01*
X165818816Y-55029000D01*
X165983228Y-55061703D01*
G37*
G36*
X137408228Y-55061703D02*
G01*
X137563100Y-55125853D01*
X137702481Y-55218985D01*
X137821015Y-55337519D01*
X137914147Y-55476900D01*
X137978297Y-55631772D01*
X138011000Y-55796184D01*
X138011000Y-55963816D01*
X137978297Y-56128228D01*
X137914147Y-56283100D01*
X137821015Y-56422481D01*
X137702481Y-56541015D01*
X137563100Y-56634147D01*
X137408228Y-56698297D01*
X137243816Y-56731000D01*
X137076184Y-56731000D01*
X136911772Y-56698297D01*
X136756900Y-56634147D01*
X136617519Y-56541015D01*
X136498985Y-56422481D01*
X136405853Y-56283100D01*
X136341703Y-56128228D01*
X136309000Y-55963816D01*
X136309000Y-55796184D01*
X136341703Y-55631772D01*
X136405853Y-55476900D01*
X136498985Y-55337519D01*
X136617519Y-55218985D01*
X136756900Y-55125853D01*
X136911772Y-55061703D01*
X137076184Y-55029000D01*
X137243816Y-55029000D01*
X137408228Y-55061703D01*
G37*
G36*
X139948228Y-55061703D02*
G01*
X140103100Y-55125853D01*
X140242481Y-55218985D01*
X140361015Y-55337519D01*
X140454147Y-55476900D01*
X140518297Y-55631772D01*
X140551000Y-55796184D01*
X140551000Y-55963816D01*
X140518297Y-56128228D01*
X140454147Y-56283100D01*
X140361015Y-56422481D01*
X140242481Y-56541015D01*
X140103100Y-56634147D01*
X139948228Y-56698297D01*
X139783816Y-56731000D01*
X139616184Y-56731000D01*
X139451772Y-56698297D01*
X139296900Y-56634147D01*
X139157519Y-56541015D01*
X139038985Y-56422481D01*
X138945853Y-56283100D01*
X138881703Y-56128228D01*
X138849000Y-55963816D01*
X138849000Y-55796184D01*
X138881703Y-55631772D01*
X138945853Y-55476900D01*
X139038985Y-55337519D01*
X139157519Y-55218985D01*
X139296900Y-55125853D01*
X139451772Y-55061703D01*
X139616184Y-55029000D01*
X139783816Y-55029000D01*
X139948228Y-55061703D01*
G37*
G36*
X142488228Y-55061703D02*
G01*
X142643100Y-55125853D01*
X142782481Y-55218985D01*
X142901015Y-55337519D01*
X142994147Y-55476900D01*
X143058297Y-55631772D01*
X143091000Y-55796184D01*
X143091000Y-55963816D01*
X143058297Y-56128228D01*
X142994147Y-56283100D01*
X142901015Y-56422481D01*
X142782481Y-56541015D01*
X142643100Y-56634147D01*
X142488228Y-56698297D01*
X142323816Y-56731000D01*
X142156184Y-56731000D01*
X141991772Y-56698297D01*
X141836900Y-56634147D01*
X141697519Y-56541015D01*
X141578985Y-56422481D01*
X141485853Y-56283100D01*
X141421703Y-56128228D01*
X141389000Y-55963816D01*
X141389000Y-55796184D01*
X141421703Y-55631772D01*
X141485853Y-55476900D01*
X141578985Y-55337519D01*
X141697519Y-55218985D01*
X141836900Y-55125853D01*
X141991772Y-55061703D01*
X142156184Y-55029000D01*
X142323816Y-55029000D01*
X142488228Y-55061703D01*
G37*
G36*
X149473228Y-55061703D02*
G01*
X149628100Y-55125853D01*
X149767481Y-55218985D01*
X149886015Y-55337519D01*
X149979147Y-55476900D01*
X150043297Y-55631772D01*
X150076000Y-55796184D01*
X150076000Y-55963816D01*
X150043297Y-56128228D01*
X149979147Y-56283100D01*
X149886015Y-56422481D01*
X149767481Y-56541015D01*
X149628100Y-56634147D01*
X149473228Y-56698297D01*
X149308816Y-56731000D01*
X149141184Y-56731000D01*
X148976772Y-56698297D01*
X148821900Y-56634147D01*
X148682519Y-56541015D01*
X148563985Y-56422481D01*
X148470853Y-56283100D01*
X148406703Y-56128228D01*
X148374000Y-55963816D01*
X148374000Y-55796184D01*
X148406703Y-55631772D01*
X148470853Y-55476900D01*
X148563985Y-55337519D01*
X148682519Y-55218985D01*
X148821900Y-55125853D01*
X148976772Y-55061703D01*
X149141184Y-55029000D01*
X149308816Y-55029000D01*
X149473228Y-55061703D01*
G37*
G36*
X168523228Y-55061703D02*
G01*
X168678100Y-55125853D01*
X168817481Y-55218985D01*
X168936015Y-55337519D01*
X169029147Y-55476900D01*
X169093297Y-55631772D01*
X169126000Y-55796184D01*
X169126000Y-55963816D01*
X169093297Y-56128228D01*
X169029147Y-56283100D01*
X168936015Y-56422481D01*
X168817481Y-56541015D01*
X168678100Y-56634147D01*
X168523228Y-56698297D01*
X168358816Y-56731000D01*
X168191184Y-56731000D01*
X168026772Y-56698297D01*
X167871900Y-56634147D01*
X167732519Y-56541015D01*
X167613985Y-56422481D01*
X167520853Y-56283100D01*
X167456703Y-56128228D01*
X167424000Y-55963816D01*
X167424000Y-55796184D01*
X167456703Y-55631772D01*
X167520853Y-55476900D01*
X167613985Y-55337519D01*
X167732519Y-55218985D01*
X167871900Y-55125853D01*
X168026772Y-55061703D01*
X168191184Y-55029000D01*
X168358816Y-55029000D01*
X168523228Y-55061703D01*
G37*
G36*
X152013228Y-55061703D02*
G01*
X152168100Y-55125853D01*
X152307481Y-55218985D01*
X152426015Y-55337519D01*
X152519147Y-55476900D01*
X152583297Y-55631772D01*
X152616000Y-55796184D01*
X152616000Y-55963816D01*
X152583297Y-56128228D01*
X152519147Y-56283100D01*
X152426015Y-56422481D01*
X152307481Y-56541015D01*
X152168100Y-56634147D01*
X152013228Y-56698297D01*
X151848816Y-56731000D01*
X151681184Y-56731000D01*
X151516772Y-56698297D01*
X151361900Y-56634147D01*
X151222519Y-56541015D01*
X151103985Y-56422481D01*
X151010853Y-56283100D01*
X150946703Y-56128228D01*
X150914000Y-55963816D01*
X150914000Y-55796184D01*
X150946703Y-55631772D01*
X151010853Y-55476900D01*
X151103985Y-55337519D01*
X151222519Y-55218985D01*
X151361900Y-55125853D01*
X151516772Y-55061703D01*
X151681184Y-55029000D01*
X151848816Y-55029000D01*
X152013228Y-55061703D01*
G37*
G36*
X178048228Y-55061703D02*
G01*
X178203100Y-55125853D01*
X178342481Y-55218985D01*
X178461015Y-55337519D01*
X178554147Y-55476900D01*
X178618297Y-55631772D01*
X178651000Y-55796184D01*
X178651000Y-55963816D01*
X178618297Y-56128228D01*
X178554147Y-56283100D01*
X178461015Y-56422481D01*
X178342481Y-56541015D01*
X178203100Y-56634147D01*
X178048228Y-56698297D01*
X177883816Y-56731000D01*
X177716184Y-56731000D01*
X177551772Y-56698297D01*
X177396900Y-56634147D01*
X177257519Y-56541015D01*
X177138985Y-56422481D01*
X177045853Y-56283100D01*
X176981703Y-56128228D01*
X176949000Y-55963816D01*
X176949000Y-55796184D01*
X176981703Y-55631772D01*
X177045853Y-55476900D01*
X177138985Y-55337519D01*
X177257519Y-55218985D01*
X177396900Y-55125853D01*
X177551772Y-55061703D01*
X177716184Y-55029000D01*
X177883816Y-55029000D01*
X178048228Y-55061703D01*
G37*
G36*
X122803228Y-55061703D02*
G01*
X122958100Y-55125853D01*
X123097481Y-55218985D01*
X123216015Y-55337519D01*
X123309147Y-55476900D01*
X123373297Y-55631772D01*
X123406000Y-55796184D01*
X123406000Y-55963816D01*
X123373297Y-56128228D01*
X123309147Y-56283100D01*
X123216015Y-56422481D01*
X123097481Y-56541015D01*
X122958100Y-56634147D01*
X122803228Y-56698297D01*
X122638816Y-56731000D01*
X122471184Y-56731000D01*
X122306772Y-56698297D01*
X122151900Y-56634147D01*
X122012519Y-56541015D01*
X121893985Y-56422481D01*
X121800853Y-56283100D01*
X121736703Y-56128228D01*
X121704000Y-55963816D01*
X121704000Y-55796184D01*
X121736703Y-55631772D01*
X121800853Y-55476900D01*
X121893985Y-55337519D01*
X122012519Y-55218985D01*
X122151900Y-55125853D01*
X122306772Y-55061703D01*
X122471184Y-55029000D01*
X122638816Y-55029000D01*
X122803228Y-55061703D01*
G37*
G36*
X130423228Y-55061703D02*
G01*
X130578100Y-55125853D01*
X130717481Y-55218985D01*
X130836015Y-55337519D01*
X130929147Y-55476900D01*
X130993297Y-55631772D01*
X131026000Y-55796184D01*
X131026000Y-55963816D01*
X130993297Y-56128228D01*
X130929147Y-56283100D01*
X130836015Y-56422481D01*
X130717481Y-56541015D01*
X130578100Y-56634147D01*
X130423228Y-56698297D01*
X130258816Y-56731000D01*
X130091184Y-56731000D01*
X129926772Y-56698297D01*
X129771900Y-56634147D01*
X129632519Y-56541015D01*
X129513985Y-56422481D01*
X129420853Y-56283100D01*
X129356703Y-56128228D01*
X129324000Y-55963816D01*
X129324000Y-55796184D01*
X129356703Y-55631772D01*
X129420853Y-55476900D01*
X129513985Y-55337519D01*
X129632519Y-55218985D01*
X129771900Y-55125853D01*
X129926772Y-55061703D01*
X130091184Y-55029000D01*
X130258816Y-55029000D01*
X130423228Y-55061703D01*
G37*
G36*
X125343228Y-55061703D02*
G01*
X125498100Y-55125853D01*
X125637481Y-55218985D01*
X125756015Y-55337519D01*
X125849147Y-55476900D01*
X125913297Y-55631772D01*
X125946000Y-55796184D01*
X125946000Y-55963816D01*
X125913297Y-56128228D01*
X125849147Y-56283100D01*
X125756015Y-56422481D01*
X125637481Y-56541015D01*
X125498100Y-56634147D01*
X125343228Y-56698297D01*
X125178816Y-56731000D01*
X125011184Y-56731000D01*
X124846772Y-56698297D01*
X124691900Y-56634147D01*
X124552519Y-56541015D01*
X124433985Y-56422481D01*
X124340853Y-56283100D01*
X124276703Y-56128228D01*
X124244000Y-55963816D01*
X124244000Y-55796184D01*
X124276703Y-55631772D01*
X124340853Y-55476900D01*
X124433985Y-55337519D01*
X124552519Y-55218985D01*
X124691900Y-55125853D01*
X124846772Y-55061703D01*
X125011184Y-55029000D01*
X125178816Y-55029000D01*
X125343228Y-55061703D01*
G37*
G36*
X158363228Y-55061703D02*
G01*
X158518100Y-55125853D01*
X158657481Y-55218985D01*
X158776015Y-55337519D01*
X158869147Y-55476900D01*
X158933297Y-55631772D01*
X158966000Y-55796184D01*
X158966000Y-55963816D01*
X158933297Y-56128228D01*
X158869147Y-56283100D01*
X158776015Y-56422481D01*
X158657481Y-56541015D01*
X158518100Y-56634147D01*
X158363228Y-56698297D01*
X158198816Y-56731000D01*
X158031184Y-56731000D01*
X157866772Y-56698297D01*
X157711900Y-56634147D01*
X157572519Y-56541015D01*
X157453985Y-56422481D01*
X157360853Y-56283100D01*
X157296703Y-56128228D01*
X157264000Y-55963816D01*
X157264000Y-55796184D01*
X157296703Y-55631772D01*
X157360853Y-55476900D01*
X157453985Y-55337519D01*
X157572519Y-55218985D01*
X157711900Y-55125853D01*
X157866772Y-55061703D01*
X158031184Y-55029000D01*
X158198816Y-55029000D01*
X158363228Y-55061703D01*
G37*
G36*
X175508228Y-55061703D02*
G01*
X175663100Y-55125853D01*
X175802481Y-55218985D01*
X175921015Y-55337519D01*
X176014147Y-55476900D01*
X176078297Y-55631772D01*
X176111000Y-55796184D01*
X176111000Y-55963816D01*
X176078297Y-56128228D01*
X176014147Y-56283100D01*
X175921015Y-56422481D01*
X175802481Y-56541015D01*
X175663100Y-56634147D01*
X175508228Y-56698297D01*
X175343816Y-56731000D01*
X175176184Y-56731000D01*
X175011772Y-56698297D01*
X174856900Y-56634147D01*
X174717519Y-56541015D01*
X174598985Y-56422481D01*
X174505853Y-56283100D01*
X174441703Y-56128228D01*
X174409000Y-55963816D01*
X174409000Y-55796184D01*
X174441703Y-55631772D01*
X174505853Y-55476900D01*
X174598985Y-55337519D01*
X174717519Y-55218985D01*
X174856900Y-55125853D01*
X175011772Y-55061703D01*
X175176184Y-55029000D01*
X175343816Y-55029000D01*
X175508228Y-55061703D01*
G37*
G36*
X160903228Y-55061703D02*
G01*
X161058100Y-55125853D01*
X161197481Y-55218985D01*
X161316015Y-55337519D01*
X161409147Y-55476900D01*
X161473297Y-55631772D01*
X161506000Y-55796184D01*
X161506000Y-55963816D01*
X161473297Y-56128228D01*
X161409147Y-56283100D01*
X161316015Y-56422481D01*
X161197481Y-56541015D01*
X161058100Y-56634147D01*
X160903228Y-56698297D01*
X160738816Y-56731000D01*
X160571184Y-56731000D01*
X160406772Y-56698297D01*
X160251900Y-56634147D01*
X160112519Y-56541015D01*
X159993985Y-56422481D01*
X159900853Y-56283100D01*
X159836703Y-56128228D01*
X159804000Y-55963816D01*
X159804000Y-55796184D01*
X159836703Y-55631772D01*
X159900853Y-55476900D01*
X159993985Y-55337519D01*
X160112519Y-55218985D01*
X160251900Y-55125853D01*
X160406772Y-55061703D01*
X160571184Y-55029000D01*
X160738816Y-55029000D01*
X160903228Y-55061703D01*
G37*
G36*
X127883228Y-55061703D02*
G01*
X128038100Y-55125853D01*
X128177481Y-55218985D01*
X128296015Y-55337519D01*
X128389147Y-55476900D01*
X128453297Y-55631772D01*
X128486000Y-55796184D01*
X128486000Y-55963816D01*
X128453297Y-56128228D01*
X128389147Y-56283100D01*
X128296015Y-56422481D01*
X128177481Y-56541015D01*
X128038100Y-56634147D01*
X127883228Y-56698297D01*
X127718816Y-56731000D01*
X127551184Y-56731000D01*
X127386772Y-56698297D01*
X127231900Y-56634147D01*
X127092519Y-56541015D01*
X126973985Y-56422481D01*
X126880853Y-56283100D01*
X126816703Y-56128228D01*
X126784000Y-55963816D01*
X126784000Y-55796184D01*
X126816703Y-55631772D01*
X126880853Y-55476900D01*
X126973985Y-55337519D01*
X127092519Y-55218985D01*
X127231900Y-55125853D01*
X127386772Y-55061703D01*
X127551184Y-55029000D01*
X127718816Y-55029000D01*
X127883228Y-55061703D01*
G37*
M02*
