G04 #@! TF.GenerationSoftware,KiCad,Pcbnew,(5.1.4)-1*
G04 #@! TF.CreationDate,2021-04-18T10:46:48+02:00*
G04 #@! TF.ProjectId,NE2000,4e453230-3030-42e6-9b69-6361645f7063,rev?*
G04 #@! TF.SameCoordinates,Original*
G04 #@! TF.FileFunction,Legend,Top*
G04 #@! TF.FilePolarity,Positive*
%FSLAX46Y46*%
G04 Gerber Fmt 4.6, Leading zero omitted, Abs format (unit mm)*
G04 Created by KiCad (PCBNEW (5.1.4)-1) date 2021-04-18 10:46:48*
%MOMM*%
%LPD*%
G04 APERTURE LIST*
%ADD10C,0.150000*%
%ADD11C,0.120000*%
%ADD12C,0.250000*%
G04 APERTURE END LIST*
D10*
X93735238Y-103227142D02*
X93687619Y-103274761D01*
X93544761Y-103322380D01*
X93449523Y-103322380D01*
X93306666Y-103274761D01*
X93211428Y-103179523D01*
X93163809Y-103084285D01*
X93116190Y-102893809D01*
X93116190Y-102750952D01*
X93163809Y-102560476D01*
X93211428Y-102465238D01*
X93306666Y-102370000D01*
X93449523Y-102322380D01*
X93544761Y-102322380D01*
X93687619Y-102370000D01*
X93735238Y-102417619D01*
X94592380Y-102655714D02*
X94592380Y-103322380D01*
X94163809Y-102655714D02*
X94163809Y-103179523D01*
X94211428Y-103274761D01*
X94306666Y-103322380D01*
X94449523Y-103322380D01*
X94544761Y-103274761D01*
X94592380Y-103227142D01*
X94925714Y-102655714D02*
X95306666Y-102655714D01*
X95068571Y-102322380D02*
X95068571Y-103179523D01*
X95116190Y-103274761D01*
X95211428Y-103322380D01*
X95306666Y-103322380D01*
X96259047Y-102655714D02*
X96640000Y-102655714D01*
X96401904Y-102322380D02*
X96401904Y-103179523D01*
X96449523Y-103274761D01*
X96544761Y-103322380D01*
X96640000Y-103322380D01*
X96973333Y-103322380D02*
X96973333Y-102655714D01*
X96973333Y-102846190D02*
X97020952Y-102750952D01*
X97068571Y-102703333D01*
X97163809Y-102655714D01*
X97259047Y-102655714D01*
X98020952Y-103322380D02*
X98020952Y-102798571D01*
X97973333Y-102703333D01*
X97878095Y-102655714D01*
X97687619Y-102655714D01*
X97592380Y-102703333D01*
X98020952Y-103274761D02*
X97925714Y-103322380D01*
X97687619Y-103322380D01*
X97592380Y-103274761D01*
X97544761Y-103179523D01*
X97544761Y-103084285D01*
X97592380Y-102989047D01*
X97687619Y-102941428D01*
X97925714Y-102941428D01*
X98020952Y-102893809D01*
X98925714Y-103274761D02*
X98830476Y-103322380D01*
X98640000Y-103322380D01*
X98544761Y-103274761D01*
X98497142Y-103227142D01*
X98449523Y-103131904D01*
X98449523Y-102846190D01*
X98497142Y-102750952D01*
X98544761Y-102703333D01*
X98640000Y-102655714D01*
X98830476Y-102655714D01*
X98925714Y-102703333D01*
X99735238Y-103274761D02*
X99640000Y-103322380D01*
X99449523Y-103322380D01*
X99354285Y-103274761D01*
X99306666Y-103179523D01*
X99306666Y-102798571D01*
X99354285Y-102703333D01*
X99449523Y-102655714D01*
X99640000Y-102655714D01*
X99735238Y-102703333D01*
X99782857Y-102798571D01*
X99782857Y-102893809D01*
X99306666Y-102989047D01*
X100163809Y-103274761D02*
X100259047Y-103322380D01*
X100449523Y-103322380D01*
X100544761Y-103274761D01*
X100592380Y-103179523D01*
X100592380Y-103131904D01*
X100544761Y-103036666D01*
X100449523Y-102989047D01*
X100306666Y-102989047D01*
X100211428Y-102941428D01*
X100163809Y-102846190D01*
X100163809Y-102798571D01*
X100211428Y-102703333D01*
X100306666Y-102655714D01*
X100449523Y-102655714D01*
X100544761Y-102703333D01*
X101782857Y-103322380D02*
X101782857Y-102322380D01*
X101782857Y-102703333D02*
X101878095Y-102655714D01*
X102068571Y-102655714D01*
X102163809Y-102703333D01*
X102211428Y-102750952D01*
X102259047Y-102846190D01*
X102259047Y-103131904D01*
X102211428Y-103227142D01*
X102163809Y-103274761D01*
X102068571Y-103322380D01*
X101878095Y-103322380D01*
X101782857Y-103274761D01*
X103068571Y-103274761D02*
X102973333Y-103322380D01*
X102782857Y-103322380D01*
X102687619Y-103274761D01*
X102640000Y-103179523D01*
X102640000Y-102798571D01*
X102687619Y-102703333D01*
X102782857Y-102655714D01*
X102973333Y-102655714D01*
X103068571Y-102703333D01*
X103116190Y-102798571D01*
X103116190Y-102893809D01*
X102640000Y-102989047D01*
X103401904Y-102655714D02*
X103782857Y-102655714D01*
X103544761Y-103322380D02*
X103544761Y-102465238D01*
X103592380Y-102370000D01*
X103687619Y-102322380D01*
X103782857Y-102322380D01*
X104259047Y-103322380D02*
X104163809Y-103274761D01*
X104116190Y-103227142D01*
X104068571Y-103131904D01*
X104068571Y-102846190D01*
X104116190Y-102750952D01*
X104163809Y-102703333D01*
X104259047Y-102655714D01*
X104401904Y-102655714D01*
X104497142Y-102703333D01*
X104544761Y-102750952D01*
X104592380Y-102846190D01*
X104592380Y-103131904D01*
X104544761Y-103227142D01*
X104497142Y-103274761D01*
X104401904Y-103322380D01*
X104259047Y-103322380D01*
X105020952Y-103322380D02*
X105020952Y-102655714D01*
X105020952Y-102846190D02*
X105068571Y-102750952D01*
X105116190Y-102703333D01*
X105211428Y-102655714D01*
X105306666Y-102655714D01*
X106020952Y-103274761D02*
X105925714Y-103322380D01*
X105735238Y-103322380D01*
X105640000Y-103274761D01*
X105592380Y-103179523D01*
X105592380Y-102798571D01*
X105640000Y-102703333D01*
X105735238Y-102655714D01*
X105925714Y-102655714D01*
X106020952Y-102703333D01*
X106068571Y-102798571D01*
X106068571Y-102893809D01*
X105592380Y-102989047D01*
X107259047Y-103322380D02*
X107259047Y-102322380D01*
X107259047Y-102703333D02*
X107354285Y-102655714D01*
X107544761Y-102655714D01*
X107640000Y-102703333D01*
X107687619Y-102750952D01*
X107735238Y-102846190D01*
X107735238Y-103131904D01*
X107687619Y-103227142D01*
X107640000Y-103274761D01*
X107544761Y-103322380D01*
X107354285Y-103322380D01*
X107259047Y-103274761D01*
X108163809Y-103322380D02*
X108163809Y-102655714D01*
X108163809Y-102846190D02*
X108211428Y-102750952D01*
X108259047Y-102703333D01*
X108354285Y-102655714D01*
X108449523Y-102655714D01*
X109211428Y-103322380D02*
X109211428Y-102798571D01*
X109163809Y-102703333D01*
X109068571Y-102655714D01*
X108878095Y-102655714D01*
X108782857Y-102703333D01*
X109211428Y-103274761D02*
X109116190Y-103322380D01*
X108878095Y-103322380D01*
X108782857Y-103274761D01*
X108735238Y-103179523D01*
X108735238Y-103084285D01*
X108782857Y-102989047D01*
X108878095Y-102941428D01*
X109116190Y-102941428D01*
X109211428Y-102893809D01*
X109687619Y-103322380D02*
X109687619Y-102322380D01*
X109782857Y-102941428D02*
X110068571Y-103322380D01*
X110068571Y-102655714D02*
X109687619Y-103036666D01*
X110497142Y-103322380D02*
X110497142Y-102655714D01*
X110497142Y-102322380D02*
X110449523Y-102370000D01*
X110497142Y-102417619D01*
X110544761Y-102370000D01*
X110497142Y-102322380D01*
X110497142Y-102417619D01*
X110973333Y-102655714D02*
X110973333Y-103322380D01*
X110973333Y-102750952D02*
X111020952Y-102703333D01*
X111116190Y-102655714D01*
X111259047Y-102655714D01*
X111354285Y-102703333D01*
X111401904Y-102798571D01*
X111401904Y-103322380D01*
X112306666Y-102655714D02*
X112306666Y-103465238D01*
X112259047Y-103560476D01*
X112211428Y-103608095D01*
X112116190Y-103655714D01*
X111973333Y-103655714D01*
X111878095Y-103608095D01*
X112306666Y-103274761D02*
X112211428Y-103322380D01*
X112020952Y-103322380D01*
X111925714Y-103274761D01*
X111878095Y-103227142D01*
X111830476Y-103131904D01*
X111830476Y-102846190D01*
X111878095Y-102750952D01*
X111925714Y-102703333D01*
X112020952Y-102655714D01*
X112211428Y-102655714D01*
X112306666Y-102703333D01*
X113687619Y-103322380D02*
X113592380Y-103274761D01*
X113544761Y-103227142D01*
X113497142Y-103131904D01*
X113497142Y-102846190D01*
X113544761Y-102750952D01*
X113592380Y-102703333D01*
X113687619Y-102655714D01*
X113830476Y-102655714D01*
X113925714Y-102703333D01*
X113973333Y-102750952D01*
X114020952Y-102846190D01*
X114020952Y-103131904D01*
X113973333Y-103227142D01*
X113925714Y-103274761D01*
X113830476Y-103322380D01*
X113687619Y-103322380D01*
X114306666Y-102655714D02*
X114687619Y-102655714D01*
X114449523Y-103322380D02*
X114449523Y-102465238D01*
X114497142Y-102370000D01*
X114592380Y-102322380D01*
X114687619Y-102322380D01*
X114878095Y-102655714D02*
X115259047Y-102655714D01*
X115020952Y-103322380D02*
X115020952Y-102465238D01*
X115068571Y-102370000D01*
X115163809Y-102322380D01*
X115259047Y-102322380D01*
D11*
X116205000Y-99060000D02*
X116205000Y-120015000D01*
D10*
X64595952Y-99782380D02*
X64595952Y-100496666D01*
X64548333Y-100639523D01*
X64453095Y-100734761D01*
X64310238Y-100782380D01*
X64215000Y-100782380D01*
X65548333Y-100782380D02*
X65072142Y-100782380D01*
X65072142Y-99782380D01*
X66453095Y-100687142D02*
X66405476Y-100734761D01*
X66262619Y-100782380D01*
X66167380Y-100782380D01*
X66024523Y-100734761D01*
X65929285Y-100639523D01*
X65881666Y-100544285D01*
X65834047Y-100353809D01*
X65834047Y-100210952D01*
X65881666Y-100020476D01*
X65929285Y-99925238D01*
X66024523Y-99830000D01*
X66167380Y-99782380D01*
X66262619Y-99782380D01*
X66405476Y-99830000D01*
X66453095Y-99877619D01*
X67167380Y-99782380D02*
X67167380Y-100496666D01*
X67119761Y-100639523D01*
X67024523Y-100734761D01*
X66881666Y-100782380D01*
X66786428Y-100782380D01*
X68119761Y-100782380D02*
X67643571Y-100782380D01*
X67643571Y-99782380D01*
X69024523Y-100687142D02*
X68976904Y-100734761D01*
X68834047Y-100782380D01*
X68738809Y-100782380D01*
X68595952Y-100734761D01*
X68500714Y-100639523D01*
X68453095Y-100544285D01*
X68405476Y-100353809D01*
X68405476Y-100210952D01*
X68453095Y-100020476D01*
X68500714Y-99925238D01*
X68595952Y-99830000D01*
X68738809Y-99782380D01*
X68834047Y-99782380D01*
X68976904Y-99830000D01*
X69024523Y-99877619D01*
X69738809Y-99782380D02*
X69738809Y-100496666D01*
X69691190Y-100639523D01*
X69595952Y-100734761D01*
X69453095Y-100782380D01*
X69357857Y-100782380D01*
X70691190Y-100782380D02*
X70215000Y-100782380D01*
X70215000Y-99782380D01*
X71595952Y-100687142D02*
X71548333Y-100734761D01*
X71405476Y-100782380D01*
X71310238Y-100782380D01*
X71167380Y-100734761D01*
X71072142Y-100639523D01*
X71024523Y-100544285D01*
X70976904Y-100353809D01*
X70976904Y-100210952D01*
X71024523Y-100020476D01*
X71072142Y-99925238D01*
X71167380Y-99830000D01*
X71310238Y-99782380D01*
X71405476Y-99782380D01*
X71548333Y-99830000D01*
X71595952Y-99877619D01*
X72310238Y-99782380D02*
X72310238Y-100496666D01*
X72262619Y-100639523D01*
X72167380Y-100734761D01*
X72024523Y-100782380D01*
X71929285Y-100782380D01*
X73262619Y-100782380D02*
X72786428Y-100782380D01*
X72786428Y-99782380D01*
X74167380Y-100687142D02*
X74119761Y-100734761D01*
X73976904Y-100782380D01*
X73881666Y-100782380D01*
X73738809Y-100734761D01*
X73643571Y-100639523D01*
X73595952Y-100544285D01*
X73548333Y-100353809D01*
X73548333Y-100210952D01*
X73595952Y-100020476D01*
X73643571Y-99925238D01*
X73738809Y-99830000D01*
X73881666Y-99782380D01*
X73976904Y-99782380D01*
X74119761Y-99830000D01*
X74167380Y-99877619D01*
X169832976Y-66016666D02*
X170309166Y-66016666D01*
X169737738Y-66302380D02*
X170071071Y-65302380D01*
X170404404Y-66302380D01*
X170880595Y-66302380D02*
X170785357Y-66254761D01*
X170737738Y-66159523D01*
X170737738Y-65302380D01*
X171404404Y-66302380D02*
X171309166Y-66254761D01*
X171261547Y-66159523D01*
X171261547Y-65302380D01*
X172499642Y-66254761D02*
X172594880Y-66302380D01*
X172785357Y-66302380D01*
X172880595Y-66254761D01*
X172928214Y-66159523D01*
X172928214Y-66111904D01*
X172880595Y-66016666D01*
X172785357Y-65969047D01*
X172642500Y-65969047D01*
X172547261Y-65921428D01*
X172499642Y-65826190D01*
X172499642Y-65778571D01*
X172547261Y-65683333D01*
X172642500Y-65635714D01*
X172785357Y-65635714D01*
X172880595Y-65683333D01*
X173261547Y-65635714D02*
X173452023Y-66302380D01*
X173642500Y-65826190D01*
X173832976Y-66302380D01*
X174023452Y-65635714D01*
X174404404Y-66302380D02*
X174404404Y-65635714D01*
X174404404Y-65302380D02*
X174356785Y-65350000D01*
X174404404Y-65397619D01*
X174452023Y-65350000D01*
X174404404Y-65302380D01*
X174404404Y-65397619D01*
X174737738Y-65635714D02*
X175118690Y-65635714D01*
X174880595Y-65302380D02*
X174880595Y-66159523D01*
X174928214Y-66254761D01*
X175023452Y-66302380D01*
X175118690Y-66302380D01*
X175880595Y-66254761D02*
X175785357Y-66302380D01*
X175594880Y-66302380D01*
X175499642Y-66254761D01*
X175452023Y-66207142D01*
X175404404Y-66111904D01*
X175404404Y-65826190D01*
X175452023Y-65730952D01*
X175499642Y-65683333D01*
X175594880Y-65635714D01*
X175785357Y-65635714D01*
X175880595Y-65683333D01*
X176309166Y-66302380D02*
X176309166Y-65302380D01*
X176737738Y-66302380D02*
X176737738Y-65778571D01*
X176690119Y-65683333D01*
X176594880Y-65635714D01*
X176452023Y-65635714D01*
X176356785Y-65683333D01*
X176309166Y-65730952D01*
X177594880Y-66254761D02*
X177499642Y-66302380D01*
X177309166Y-66302380D01*
X177213928Y-66254761D01*
X177166309Y-66159523D01*
X177166309Y-65778571D01*
X177213928Y-65683333D01*
X177309166Y-65635714D01*
X177499642Y-65635714D01*
X177594880Y-65683333D01*
X177642500Y-65778571D01*
X177642500Y-65873809D01*
X177166309Y-65969047D01*
X178023452Y-66254761D02*
X178118690Y-66302380D01*
X178309166Y-66302380D01*
X178404404Y-66254761D01*
X178452023Y-66159523D01*
X178452023Y-66111904D01*
X178404404Y-66016666D01*
X178309166Y-65969047D01*
X178166309Y-65969047D01*
X178071071Y-65921428D01*
X178023452Y-65826190D01*
X178023452Y-65778571D01*
X178071071Y-65683333D01*
X178166309Y-65635714D01*
X178309166Y-65635714D01*
X178404404Y-65683333D01*
X170023452Y-67952380D02*
X169928214Y-67904761D01*
X169880595Y-67857142D01*
X169832976Y-67761904D01*
X169832976Y-67476190D01*
X169880595Y-67380952D01*
X169928214Y-67333333D01*
X170023452Y-67285714D01*
X170166309Y-67285714D01*
X170261547Y-67333333D01*
X170309166Y-67380952D01*
X170356785Y-67476190D01*
X170356785Y-67761904D01*
X170309166Y-67857142D01*
X170261547Y-67904761D01*
X170166309Y-67952380D01*
X170023452Y-67952380D01*
X170642500Y-67285714D02*
X171023452Y-67285714D01*
X170785357Y-67952380D02*
X170785357Y-67095238D01*
X170832976Y-67000000D01*
X170928214Y-66952380D01*
X171023452Y-66952380D01*
X171213928Y-67285714D02*
X171594880Y-67285714D01*
X171356785Y-67952380D02*
X171356785Y-67095238D01*
X171404404Y-67000000D01*
X171499642Y-66952380D01*
X171594880Y-66952380D01*
X172547261Y-67285714D02*
X172928214Y-67285714D01*
X172690119Y-67952380D02*
X172690119Y-67095238D01*
X172737738Y-67000000D01*
X172832976Y-66952380D01*
X172928214Y-66952380D01*
X173404404Y-67952380D02*
X173309166Y-67904761D01*
X173261547Y-67857142D01*
X173213928Y-67761904D01*
X173213928Y-67476190D01*
X173261547Y-67380952D01*
X173309166Y-67333333D01*
X173404404Y-67285714D01*
X173547261Y-67285714D01*
X173642500Y-67333333D01*
X173690119Y-67380952D01*
X173737738Y-67476190D01*
X173737738Y-67761904D01*
X173690119Y-67857142D01*
X173642500Y-67904761D01*
X173547261Y-67952380D01*
X173404404Y-67952380D01*
X174166309Y-67952380D02*
X174166309Y-67285714D01*
X174166309Y-67476190D02*
X174213928Y-67380952D01*
X174261547Y-67333333D01*
X174356785Y-67285714D01*
X174452023Y-67285714D01*
X175547261Y-67952380D02*
X175547261Y-66952380D01*
X175928214Y-66952380D01*
X176023452Y-67000000D01*
X176071071Y-67047619D01*
X176118690Y-67142857D01*
X176118690Y-67285714D01*
X176071071Y-67380952D01*
X176023452Y-67428571D01*
X175928214Y-67476190D01*
X175547261Y-67476190D01*
X176547261Y-67952380D02*
X176547261Y-66952380D01*
X177118690Y-67952380D01*
X177118690Y-66952380D01*
X177594880Y-67952380D02*
X177594880Y-66952380D01*
X177975833Y-66952380D01*
X178071071Y-67000000D01*
X178118690Y-67047619D01*
X178166309Y-67142857D01*
X178166309Y-67285714D01*
X178118690Y-67380952D01*
X178071071Y-67428571D01*
X177975833Y-67476190D01*
X177594880Y-67476190D01*
X183787023Y-60047142D02*
X183739404Y-60094761D01*
X183596547Y-60142380D01*
X183501309Y-60142380D01*
X183358452Y-60094761D01*
X183263214Y-59999523D01*
X183215595Y-59904285D01*
X183167976Y-59713809D01*
X183167976Y-59570952D01*
X183215595Y-59380476D01*
X183263214Y-59285238D01*
X183358452Y-59190000D01*
X183501309Y-59142380D01*
X183596547Y-59142380D01*
X183739404Y-59190000D01*
X183787023Y-59237619D01*
X184358452Y-60142380D02*
X184263214Y-60094761D01*
X184215595Y-60047142D01*
X184167976Y-59951904D01*
X184167976Y-59666190D01*
X184215595Y-59570952D01*
X184263214Y-59523333D01*
X184358452Y-59475714D01*
X184501309Y-59475714D01*
X184596547Y-59523333D01*
X184644166Y-59570952D01*
X184691785Y-59666190D01*
X184691785Y-59951904D01*
X184644166Y-60047142D01*
X184596547Y-60094761D01*
X184501309Y-60142380D01*
X184358452Y-60142380D01*
X185120357Y-59475714D02*
X185120357Y-60475714D01*
X185120357Y-59523333D02*
X185215595Y-59475714D01*
X185406071Y-59475714D01*
X185501309Y-59523333D01*
X185548928Y-59570952D01*
X185596547Y-59666190D01*
X185596547Y-59951904D01*
X185548928Y-60047142D01*
X185501309Y-60094761D01*
X185406071Y-60142380D01*
X185215595Y-60142380D01*
X185120357Y-60094761D01*
X185929880Y-59475714D02*
X186167976Y-60142380D01*
X186406071Y-59475714D02*
X186167976Y-60142380D01*
X186072738Y-60380476D01*
X186025119Y-60428095D01*
X185929880Y-60475714D01*
X186787023Y-60142380D02*
X186787023Y-59475714D01*
X186787023Y-59666190D02*
X186834642Y-59570952D01*
X186882261Y-59523333D01*
X186977500Y-59475714D01*
X187072738Y-59475714D01*
X187406071Y-60142380D02*
X187406071Y-59475714D01*
X187406071Y-59142380D02*
X187358452Y-59190000D01*
X187406071Y-59237619D01*
X187453690Y-59190000D01*
X187406071Y-59142380D01*
X187406071Y-59237619D01*
X188310833Y-59475714D02*
X188310833Y-60285238D01*
X188263214Y-60380476D01*
X188215595Y-60428095D01*
X188120357Y-60475714D01*
X187977500Y-60475714D01*
X187882261Y-60428095D01*
X188310833Y-60094761D02*
X188215595Y-60142380D01*
X188025119Y-60142380D01*
X187929880Y-60094761D01*
X187882261Y-60047142D01*
X187834642Y-59951904D01*
X187834642Y-59666190D01*
X187882261Y-59570952D01*
X187929880Y-59523333D01*
X188025119Y-59475714D01*
X188215595Y-59475714D01*
X188310833Y-59523333D01*
X188787023Y-60142380D02*
X188787023Y-59142380D01*
X189215595Y-60142380D02*
X189215595Y-59618571D01*
X189167976Y-59523333D01*
X189072738Y-59475714D01*
X188929880Y-59475714D01*
X188834642Y-59523333D01*
X188787023Y-59570952D01*
X189548928Y-59475714D02*
X189929880Y-59475714D01*
X189691785Y-59142380D02*
X189691785Y-59999523D01*
X189739404Y-60094761D01*
X189834642Y-60142380D01*
X189929880Y-60142380D01*
X190977500Y-59237619D02*
X191025119Y-59190000D01*
X191120357Y-59142380D01*
X191358452Y-59142380D01*
X191453690Y-59190000D01*
X191501309Y-59237619D01*
X191548928Y-59332857D01*
X191548928Y-59428095D01*
X191501309Y-59570952D01*
X190929880Y-60142380D01*
X191548928Y-60142380D01*
X192167976Y-59142380D02*
X192263214Y-59142380D01*
X192358452Y-59190000D01*
X192406071Y-59237619D01*
X192453690Y-59332857D01*
X192501309Y-59523333D01*
X192501309Y-59761428D01*
X192453690Y-59951904D01*
X192406071Y-60047142D01*
X192358452Y-60094761D01*
X192263214Y-60142380D01*
X192167976Y-60142380D01*
X192072738Y-60094761D01*
X192025119Y-60047142D01*
X191977500Y-59951904D01*
X191929880Y-59761428D01*
X191929880Y-59523333D01*
X191977500Y-59332857D01*
X192025119Y-59237619D01*
X192072738Y-59190000D01*
X192167976Y-59142380D01*
X192882261Y-59237619D02*
X192929880Y-59190000D01*
X193025119Y-59142380D01*
X193263214Y-59142380D01*
X193358452Y-59190000D01*
X193406071Y-59237619D01*
X193453690Y-59332857D01*
X193453690Y-59428095D01*
X193406071Y-59570952D01*
X192834642Y-60142380D01*
X193453690Y-60142380D01*
X194406071Y-60142380D02*
X193834642Y-60142380D01*
X194120357Y-60142380D02*
X194120357Y-59142380D01*
X194025119Y-59285238D01*
X193929880Y-59380476D01*
X193834642Y-59428095D01*
X196167976Y-60047142D02*
X196120357Y-60094761D01*
X195977500Y-60142380D01*
X195882261Y-60142380D01*
X195739404Y-60094761D01*
X195644166Y-59999523D01*
X195596547Y-59904285D01*
X195548928Y-59713809D01*
X195548928Y-59570952D01*
X195596547Y-59380476D01*
X195644166Y-59285238D01*
X195739404Y-59190000D01*
X195882261Y-59142380D01*
X195977500Y-59142380D01*
X196120357Y-59190000D01*
X196167976Y-59237619D01*
X196596547Y-60142380D02*
X196596547Y-59142380D01*
X197025119Y-60142380D02*
X197025119Y-59618571D01*
X196977500Y-59523333D01*
X196882261Y-59475714D01*
X196739404Y-59475714D01*
X196644166Y-59523333D01*
X196596547Y-59570952D01*
X197501309Y-60047142D02*
X197548928Y-60094761D01*
X197501309Y-60142380D01*
X197453690Y-60094761D01*
X197501309Y-60047142D01*
X197501309Y-60142380D01*
X199215595Y-60142380D02*
X198739404Y-60142380D01*
X198739404Y-59142380D01*
X199929880Y-60094761D02*
X199834642Y-60142380D01*
X199644166Y-60142380D01*
X199548928Y-60094761D01*
X199501309Y-59999523D01*
X199501309Y-59618571D01*
X199548928Y-59523333D01*
X199644166Y-59475714D01*
X199834642Y-59475714D01*
X199929880Y-59523333D01*
X199977500Y-59618571D01*
X199977500Y-59713809D01*
X199501309Y-59809047D01*
X200406071Y-60142380D02*
X200406071Y-59142380D01*
X200834642Y-60142380D02*
X200834642Y-59618571D01*
X200787023Y-59523333D01*
X200691785Y-59475714D01*
X200548928Y-59475714D01*
X200453690Y-59523333D01*
X200406071Y-59570952D01*
X201310833Y-59475714D02*
X201310833Y-60142380D01*
X201310833Y-59570952D02*
X201358452Y-59523333D01*
X201453690Y-59475714D01*
X201596547Y-59475714D01*
X201691785Y-59523333D01*
X201739404Y-59618571D01*
X201739404Y-60142380D01*
X202596547Y-60094761D02*
X202501309Y-60142380D01*
X202310833Y-60142380D01*
X202215595Y-60094761D01*
X202167976Y-59999523D01*
X202167976Y-59618571D01*
X202215595Y-59523333D01*
X202310833Y-59475714D01*
X202501309Y-59475714D01*
X202596547Y-59523333D01*
X202644166Y-59618571D01*
X202644166Y-59713809D01*
X202167976Y-59809047D01*
X203072738Y-60142380D02*
X203072738Y-59475714D01*
X203072738Y-59666190D02*
X203120357Y-59570952D01*
X203167976Y-59523333D01*
X203263214Y-59475714D01*
X203358452Y-59475714D01*
D12*
X183399642Y-57193571D02*
X183399642Y-55693571D01*
X183756785Y-55693571D01*
X183971071Y-55765000D01*
X184113928Y-55907857D01*
X184185357Y-56050714D01*
X184256785Y-56336428D01*
X184256785Y-56550714D01*
X184185357Y-56836428D01*
X184113928Y-56979285D01*
X183971071Y-57122142D01*
X183756785Y-57193571D01*
X183399642Y-57193571D01*
X184899642Y-57193571D02*
X184899642Y-55693571D01*
X185899642Y-56479285D02*
X185899642Y-57193571D01*
X185399642Y-55693571D02*
X185899642Y-56479285D01*
X186399642Y-55693571D01*
X188042500Y-57193571D02*
X188042500Y-55693571D01*
X188685357Y-57122142D02*
X188899642Y-57193571D01*
X189256785Y-57193571D01*
X189399642Y-57122142D01*
X189471071Y-57050714D01*
X189542500Y-56907857D01*
X189542500Y-56765000D01*
X189471071Y-56622142D01*
X189399642Y-56550714D01*
X189256785Y-56479285D01*
X188971071Y-56407857D01*
X188828214Y-56336428D01*
X188756785Y-56265000D01*
X188685357Y-56122142D01*
X188685357Y-55979285D01*
X188756785Y-55836428D01*
X188828214Y-55765000D01*
X188971071Y-55693571D01*
X189328214Y-55693571D01*
X189542500Y-55765000D01*
X190113928Y-56765000D02*
X190828214Y-56765000D01*
X189971071Y-57193571D02*
X190471071Y-55693571D01*
X190971071Y-57193571D01*
X192613928Y-57193571D02*
X192613928Y-55693571D01*
X193471071Y-57193571D01*
X193471071Y-55693571D01*
X194185357Y-56407857D02*
X194685357Y-56407857D01*
X194899642Y-57193571D02*
X194185357Y-57193571D01*
X194185357Y-55693571D01*
X194899642Y-55693571D01*
X195471071Y-55836428D02*
X195542500Y-55765000D01*
X195685357Y-55693571D01*
X196042500Y-55693571D01*
X196185357Y-55765000D01*
X196256785Y-55836428D01*
X196328214Y-55979285D01*
X196328214Y-56122142D01*
X196256785Y-56336428D01*
X195399642Y-57193571D01*
X196328214Y-57193571D01*
X197256785Y-55693571D02*
X197399642Y-55693571D01*
X197542500Y-55765000D01*
X197613928Y-55836428D01*
X197685357Y-55979285D01*
X197756785Y-56265000D01*
X197756785Y-56622142D01*
X197685357Y-56907857D01*
X197613928Y-57050714D01*
X197542500Y-57122142D01*
X197399642Y-57193571D01*
X197256785Y-57193571D01*
X197113928Y-57122142D01*
X197042500Y-57050714D01*
X196971071Y-56907857D01*
X196899642Y-56622142D01*
X196899642Y-56265000D01*
X196971071Y-55979285D01*
X197042500Y-55836428D01*
X197113928Y-55765000D01*
X197256785Y-55693571D01*
X198685357Y-55693571D02*
X198828214Y-55693571D01*
X198971071Y-55765000D01*
X199042500Y-55836428D01*
X199113928Y-55979285D01*
X199185357Y-56265000D01*
X199185357Y-56622142D01*
X199113928Y-56907857D01*
X199042500Y-57050714D01*
X198971071Y-57122142D01*
X198828214Y-57193571D01*
X198685357Y-57193571D01*
X198542500Y-57122142D01*
X198471071Y-57050714D01*
X198399642Y-56907857D01*
X198328214Y-56622142D01*
X198328214Y-56265000D01*
X198399642Y-55979285D01*
X198471071Y-55836428D01*
X198542500Y-55765000D01*
X198685357Y-55693571D01*
X200113928Y-55693571D02*
X200256785Y-55693571D01*
X200399642Y-55765000D01*
X200471071Y-55836428D01*
X200542500Y-55979285D01*
X200613928Y-56265000D01*
X200613928Y-56622142D01*
X200542500Y-56907857D01*
X200471071Y-57050714D01*
X200399642Y-57122142D01*
X200256785Y-57193571D01*
X200113928Y-57193571D01*
X199971071Y-57122142D01*
X199899642Y-57050714D01*
X199828214Y-56907857D01*
X199756785Y-56622142D01*
X199756785Y-56265000D01*
X199828214Y-55979285D01*
X199899642Y-55836428D01*
X199971071Y-55765000D01*
X200113928Y-55693571D01*
D10*
X157345619Y-78255476D02*
X157298000Y-78207857D01*
X157250380Y-78112619D01*
X157250380Y-77874523D01*
X157298000Y-77779285D01*
X157345619Y-77731666D01*
X157440857Y-77684047D01*
X157536095Y-77684047D01*
X157678952Y-77731666D01*
X158250380Y-78303095D01*
X158250380Y-77684047D01*
X157250380Y-77350714D02*
X157250380Y-76684047D01*
X158250380Y-77112619D01*
X158155142Y-75731666D02*
X158202761Y-75779285D01*
X158250380Y-75922142D01*
X158250380Y-76017380D01*
X158202761Y-76160238D01*
X158107523Y-76255476D01*
X158012285Y-76303095D01*
X157821809Y-76350714D01*
X157678952Y-76350714D01*
X157488476Y-76303095D01*
X157393238Y-76255476D01*
X157298000Y-76160238D01*
X157250380Y-76017380D01*
X157250380Y-75922142D01*
X157298000Y-75779285D01*
X157345619Y-75731666D01*
X157345619Y-75350714D02*
X157298000Y-75303095D01*
X157250380Y-75207857D01*
X157250380Y-74969761D01*
X157298000Y-74874523D01*
X157345619Y-74826904D01*
X157440857Y-74779285D01*
X157536095Y-74779285D01*
X157678952Y-74826904D01*
X158250380Y-75398333D01*
X158250380Y-74779285D01*
X157250380Y-73874523D02*
X157250380Y-74350714D01*
X157726571Y-74398333D01*
X157678952Y-74350714D01*
X157631333Y-74255476D01*
X157631333Y-74017380D01*
X157678952Y-73922142D01*
X157726571Y-73874523D01*
X157821809Y-73826904D01*
X158059904Y-73826904D01*
X158155142Y-73874523D01*
X158202761Y-73922142D01*
X158250380Y-74017380D01*
X158250380Y-74255476D01*
X158202761Y-74350714D01*
X158155142Y-74398333D01*
X157250380Y-72969761D02*
X157250380Y-73160238D01*
X157298000Y-73255476D01*
X157345619Y-73303095D01*
X157488476Y-73398333D01*
X157678952Y-73445952D01*
X158059904Y-73445952D01*
X158155142Y-73398333D01*
X158202761Y-73350714D01*
X158250380Y-73255476D01*
X158250380Y-73065000D01*
X158202761Y-72969761D01*
X158155142Y-72922142D01*
X158059904Y-72874523D01*
X157821809Y-72874523D01*
X157726571Y-72922142D01*
X157678952Y-72969761D01*
X157631333Y-73065000D01*
X157631333Y-73255476D01*
X157678952Y-73350714D01*
X157726571Y-73398333D01*
X157821809Y-73445952D01*
X158995619Y-78255476D02*
X158948000Y-78207857D01*
X158900380Y-78112619D01*
X158900380Y-77874523D01*
X158948000Y-77779285D01*
X158995619Y-77731666D01*
X159090857Y-77684047D01*
X159186095Y-77684047D01*
X159328952Y-77731666D01*
X159900380Y-78303095D01*
X159900380Y-77684047D01*
X158900380Y-77350714D02*
X158900380Y-76684047D01*
X159900380Y-77112619D01*
X159805142Y-75731666D02*
X159852761Y-75779285D01*
X159900380Y-75922142D01*
X159900380Y-76017380D01*
X159852761Y-76160238D01*
X159757523Y-76255476D01*
X159662285Y-76303095D01*
X159471809Y-76350714D01*
X159328952Y-76350714D01*
X159138476Y-76303095D01*
X159043238Y-76255476D01*
X158948000Y-76160238D01*
X158900380Y-76017380D01*
X158900380Y-75922142D01*
X158948000Y-75779285D01*
X158995619Y-75731666D01*
X158900380Y-74826904D02*
X158900380Y-75303095D01*
X159376571Y-75350714D01*
X159328952Y-75303095D01*
X159281333Y-75207857D01*
X159281333Y-74969761D01*
X159328952Y-74874523D01*
X159376571Y-74826904D01*
X159471809Y-74779285D01*
X159709904Y-74779285D01*
X159805142Y-74826904D01*
X159852761Y-74874523D01*
X159900380Y-74969761D01*
X159900380Y-75207857D01*
X159852761Y-75303095D01*
X159805142Y-75350714D01*
X159900380Y-73826904D02*
X159900380Y-74398333D01*
X159900380Y-74112619D02*
X158900380Y-74112619D01*
X159043238Y-74207857D01*
X159138476Y-74303095D01*
X159186095Y-74398333D01*
X158995619Y-73445952D02*
X158948000Y-73398333D01*
X158900380Y-73303095D01*
X158900380Y-73065000D01*
X158948000Y-72969761D01*
X158995619Y-72922142D01*
X159090857Y-72874523D01*
X159186095Y-72874523D01*
X159328952Y-72922142D01*
X159900380Y-73493571D01*
X159900380Y-72874523D01*
X180358023Y-52078380D02*
X180024690Y-51602190D01*
X179786595Y-52078380D02*
X179786595Y-51078380D01*
X180167547Y-51078380D01*
X180262785Y-51126000D01*
X180310404Y-51173619D01*
X180358023Y-51268857D01*
X180358023Y-51411714D01*
X180310404Y-51506952D01*
X180262785Y-51554571D01*
X180167547Y-51602190D01*
X179786595Y-51602190D01*
X181262785Y-51078380D02*
X180786595Y-51078380D01*
X180738976Y-51554571D01*
X180786595Y-51506952D01*
X180881833Y-51459333D01*
X181119928Y-51459333D01*
X181215166Y-51506952D01*
X181262785Y-51554571D01*
X181310404Y-51649809D01*
X181310404Y-51887904D01*
X181262785Y-51983142D01*
X181215166Y-52030761D01*
X181119928Y-52078380D01*
X180881833Y-52078380D01*
X180786595Y-52030761D01*
X180738976Y-51983142D01*
X181738976Y-51983142D02*
X181786595Y-52030761D01*
X181738976Y-52078380D01*
X181691357Y-52030761D01*
X181738976Y-51983142D01*
X181738976Y-52078380D01*
X182215166Y-51983142D02*
X182262785Y-52030761D01*
X182215166Y-52078380D01*
X182167547Y-52030761D01*
X182215166Y-51983142D01*
X182215166Y-52078380D01*
X183262785Y-52078380D02*
X182929452Y-51602190D01*
X182691357Y-52078380D02*
X182691357Y-51078380D01*
X183072309Y-51078380D01*
X183167547Y-51126000D01*
X183215166Y-51173619D01*
X183262785Y-51268857D01*
X183262785Y-51411714D01*
X183215166Y-51506952D01*
X183167547Y-51554571D01*
X183072309Y-51602190D01*
X182691357Y-51602190D01*
X184215166Y-52078380D02*
X183643738Y-52078380D01*
X183929452Y-52078380D02*
X183929452Y-51078380D01*
X183834214Y-51221238D01*
X183738976Y-51316476D01*
X183643738Y-51364095D01*
X184691357Y-52078380D02*
X184881833Y-52078380D01*
X184977071Y-52030761D01*
X185024690Y-51983142D01*
X185119928Y-51840285D01*
X185167547Y-51649809D01*
X185167547Y-51268857D01*
X185119928Y-51173619D01*
X185072309Y-51126000D01*
X184977071Y-51078380D01*
X184786595Y-51078380D01*
X184691357Y-51126000D01*
X184643738Y-51173619D01*
X184596119Y-51268857D01*
X184596119Y-51506952D01*
X184643738Y-51602190D01*
X184691357Y-51649809D01*
X184786595Y-51697428D01*
X184977071Y-51697428D01*
X185072309Y-51649809D01*
X185119928Y-51602190D01*
X185167547Y-51506952D01*
X180310404Y-53728380D02*
X179738976Y-53728380D01*
X180024690Y-53728380D02*
X180024690Y-52728380D01*
X179929452Y-52871238D01*
X179834214Y-52966476D01*
X179738976Y-53014095D01*
X180929452Y-52728380D02*
X181024690Y-52728380D01*
X181119928Y-52776000D01*
X181167547Y-52823619D01*
X181215166Y-52918857D01*
X181262785Y-53109333D01*
X181262785Y-53347428D01*
X181215166Y-53537904D01*
X181167547Y-53633142D01*
X181119928Y-53680761D01*
X181024690Y-53728380D01*
X180929452Y-53728380D01*
X180834214Y-53680761D01*
X180786595Y-53633142D01*
X180738976Y-53537904D01*
X180691357Y-53347428D01*
X180691357Y-53109333D01*
X180738976Y-52918857D01*
X180786595Y-52823619D01*
X180834214Y-52776000D01*
X180929452Y-52728380D01*
X181691357Y-53728380D02*
X181691357Y-52728380D01*
X182262785Y-53728380D02*
X181834214Y-53156952D01*
X182262785Y-52728380D02*
X181691357Y-53299809D01*
X182596119Y-53728380D02*
X183119928Y-53061714D01*
X182596119Y-53061714D02*
X183119928Y-53728380D01*
X184024690Y-53728380D02*
X183453261Y-53728380D01*
X183738976Y-53728380D02*
X183738976Y-52728380D01*
X183643738Y-52871238D01*
X183548500Y-52966476D01*
X183453261Y-53014095D01*
X184881833Y-52728380D02*
X184691357Y-52728380D01*
X184596119Y-52776000D01*
X184548500Y-52823619D01*
X184453261Y-52966476D01*
X184405642Y-53156952D01*
X184405642Y-53537904D01*
X184453261Y-53633142D01*
X184500880Y-53680761D01*
X184596119Y-53728380D01*
X184786595Y-53728380D01*
X184881833Y-53680761D01*
X184929452Y-53633142D01*
X184977071Y-53537904D01*
X184977071Y-53299809D01*
X184929452Y-53204571D01*
X184881833Y-53156952D01*
X184786595Y-53109333D01*
X184596119Y-53109333D01*
X184500880Y-53156952D01*
X184453261Y-53204571D01*
X184405642Y-53299809D01*
D11*
X156905000Y-82025000D02*
X156905000Y-76565000D01*
X156905000Y-74565000D02*
X156905000Y-69105000D01*
X156905000Y-76565000D02*
G75*
G02X156905000Y-74565000I0J1000000D01*
G01*
X156965000Y-84515000D02*
X156965000Y-66615000D01*
X121165000Y-66615000D02*
X121165000Y-84515000D01*
X121165000Y-84515000D02*
X162045000Y-84515000D01*
X162045000Y-66615000D02*
X121165000Y-66615000D01*
X161985000Y-69105000D02*
X121225000Y-69105000D01*
X161985000Y-74565000D02*
X161985000Y-69105000D01*
X121225000Y-69105000D02*
X121225000Y-82025000D01*
X121225000Y-82025000D02*
X161985000Y-82025000D01*
X161985000Y-82025000D02*
X161985000Y-76565000D01*
X162045000Y-84515000D02*
X162045000Y-66615000D01*
X161985000Y-76565000D02*
G75*
G02X161985000Y-74565000I0J1000000D01*
G01*
X220345000Y-106560000D02*
X205345000Y-106560000D01*
X220145000Y-99060000D02*
X219145000Y-100060000D01*
X220345000Y-91560000D02*
X220345000Y-106560000D01*
X220145000Y-99060000D02*
X219145000Y-98060000D01*
X205345000Y-106560000D02*
X205345000Y-91560000D01*
X205345000Y-91560000D02*
X220345000Y-91560000D01*
X155845252Y-98477000D02*
X155322748Y-98477000D01*
X155845252Y-99897000D02*
X155322748Y-99897000D01*
X161727000Y-95887000D02*
X161727000Y-97347000D01*
X158567000Y-95887000D02*
X158567000Y-98047000D01*
X158567000Y-95887000D02*
X159497000Y-95887000D01*
X161727000Y-95887000D02*
X160797000Y-95887000D01*
X205126000Y-71758564D02*
X205126000Y-70554436D01*
X203306000Y-71758564D02*
X203306000Y-70554436D01*
X203306000Y-78990436D02*
X203306000Y-80194564D01*
X205126000Y-78990436D02*
X205126000Y-80194564D01*
X195020000Y-85868252D02*
X195020000Y-85345748D01*
X193600000Y-85868252D02*
X193600000Y-85345748D01*
X195020000Y-67054252D02*
X195020000Y-66531748D01*
X193600000Y-67054252D02*
X193600000Y-66531748D01*
X202820748Y-112470000D02*
X203343252Y-112470000D01*
X202820748Y-111050000D02*
X203343252Y-111050000D01*
X203343252Y-116384000D02*
X202820748Y-116384000D01*
X203343252Y-117804000D02*
X202820748Y-117804000D01*
X205230252Y-53900000D02*
X204707748Y-53900000D01*
X205230252Y-55320000D02*
X204707748Y-55320000D01*
X202434436Y-110130000D02*
X203638564Y-110130000D01*
X202434436Y-108310000D02*
X203638564Y-108310000D01*
X173915000Y-99188748D02*
X173915000Y-99711252D01*
X175335000Y-99188748D02*
X175335000Y-99711252D01*
X175820000Y-99188748D02*
X175820000Y-99711252D01*
X177240000Y-99188748D02*
X177240000Y-99711252D01*
X186765000Y-97416252D02*
X186765000Y-96893748D01*
X185345000Y-97416252D02*
X185345000Y-96893748D01*
X188670000Y-97416252D02*
X188670000Y-96893748D01*
X187250000Y-97416252D02*
X187250000Y-96893748D01*
X186765000Y-87368748D02*
X186765000Y-87891252D01*
X185345000Y-87368748D02*
X185345000Y-87891252D01*
X187250000Y-87368748D02*
X187250000Y-87891252D01*
X188670000Y-87368748D02*
X188670000Y-87891252D01*
X163285000Y-104959564D02*
X163285000Y-103755436D01*
X160565000Y-104959564D02*
X160565000Y-103755436D01*
X182105000Y-96630000D02*
X182105000Y-95260000D01*
X174765000Y-96630000D02*
X174765000Y-95250000D01*
X182105000Y-96630000D02*
X174765000Y-96630000D01*
X174765000Y-85080000D02*
X173360000Y-85080000D01*
X174765000Y-83710000D02*
X174765000Y-85080000D01*
X182105000Y-83710000D02*
X174765000Y-83710000D01*
X182105000Y-85080000D02*
X182105000Y-83710000D01*
X124009564Y-111670000D02*
X122805436Y-111670000D01*
X124009564Y-114390000D02*
X122805436Y-114390000D01*
X161728564Y-98716000D02*
X160524436Y-98716000D01*
X161728564Y-101436000D02*
X160524436Y-101436000D01*
X178510000Y-52576252D02*
X178510000Y-52053748D01*
X177090000Y-52576252D02*
X177090000Y-52053748D01*
X175970000Y-52576252D02*
X175970000Y-52053748D01*
X174550000Y-52576252D02*
X174550000Y-52053748D01*
X177165000Y-60293333D02*
X178435000Y-60293333D01*
X178365000Y-61500000D02*
X178365000Y-60293333D01*
X178245000Y-61500000D02*
X178245000Y-60293333D01*
X178125000Y-61500000D02*
X178125000Y-60293333D01*
X178005000Y-61500000D02*
X178005000Y-60293333D01*
X177885000Y-61500000D02*
X177885000Y-60293333D01*
X177765000Y-61500000D02*
X177765000Y-60293333D01*
X177645000Y-61500000D02*
X177645000Y-60293333D01*
X177525000Y-61500000D02*
X177525000Y-60293333D01*
X177405000Y-61500000D02*
X177405000Y-60293333D01*
X177285000Y-61500000D02*
X177285000Y-60293333D01*
X177165000Y-57880000D02*
X177165000Y-61500000D01*
X178435000Y-57880000D02*
X177165000Y-57880000D01*
X178435000Y-61500000D02*
X178435000Y-57880000D01*
X177165000Y-61500000D02*
X178435000Y-61500000D01*
X174625000Y-60293333D02*
X175895000Y-60293333D01*
X175825000Y-61500000D02*
X175825000Y-60293333D01*
X175705000Y-61500000D02*
X175705000Y-60293333D01*
X175585000Y-61500000D02*
X175585000Y-60293333D01*
X175465000Y-61500000D02*
X175465000Y-60293333D01*
X175345000Y-61500000D02*
X175345000Y-60293333D01*
X175225000Y-61500000D02*
X175225000Y-60293333D01*
X175105000Y-61500000D02*
X175105000Y-60293333D01*
X174985000Y-61500000D02*
X174985000Y-60293333D01*
X174865000Y-61500000D02*
X174865000Y-60293333D01*
X174745000Y-61500000D02*
X174745000Y-60293333D01*
X174625000Y-57880000D02*
X174625000Y-61500000D01*
X175895000Y-57880000D02*
X174625000Y-57880000D01*
X175895000Y-61500000D02*
X175895000Y-57880000D01*
X174625000Y-61500000D02*
X175895000Y-61500000D01*
X172910000Y-63340000D02*
X174220000Y-63340000D01*
X172910000Y-63340000D02*
X172910000Y-61957000D01*
X176250000Y-56279000D02*
X176811000Y-56279000D01*
X173150000Y-56279000D02*
X174270000Y-56279000D01*
X178790000Y-56279000D02*
X179910000Y-56279000D01*
X178790000Y-63100000D02*
X179910000Y-63100000D01*
X176300000Y-63100000D02*
X176811000Y-63100000D01*
X173150000Y-63100000D02*
X174220000Y-63100000D01*
X179910000Y-63100000D02*
X179910000Y-56279000D01*
X173150000Y-63100000D02*
X173150000Y-56279000D01*
X149935000Y-52576252D02*
X149935000Y-52053748D01*
X148515000Y-52576252D02*
X148515000Y-52053748D01*
X140410000Y-52576252D02*
X140410000Y-52053748D01*
X138990000Y-52576252D02*
X138990000Y-52053748D01*
X137870000Y-52576252D02*
X137870000Y-52053748D01*
X136450000Y-52576252D02*
X136450000Y-52053748D01*
X168985000Y-52576252D02*
X168985000Y-52053748D01*
X167565000Y-52576252D02*
X167565000Y-52053748D01*
X129540000Y-60293333D02*
X130810000Y-60293333D01*
X130740000Y-61500000D02*
X130740000Y-60293333D01*
X130620000Y-61500000D02*
X130620000Y-60293333D01*
X130500000Y-61500000D02*
X130500000Y-60293333D01*
X130380000Y-61500000D02*
X130380000Y-60293333D01*
X130260000Y-61500000D02*
X130260000Y-60293333D01*
X130140000Y-61500000D02*
X130140000Y-60293333D01*
X130020000Y-61500000D02*
X130020000Y-60293333D01*
X129900000Y-61500000D02*
X129900000Y-60293333D01*
X129780000Y-61500000D02*
X129780000Y-60293333D01*
X129660000Y-61500000D02*
X129660000Y-60293333D01*
X129540000Y-57880000D02*
X129540000Y-61500000D01*
X130810000Y-57880000D02*
X129540000Y-57880000D01*
X130810000Y-61500000D02*
X130810000Y-57880000D01*
X129540000Y-61500000D02*
X130810000Y-61500000D01*
X127000000Y-60293333D02*
X128270000Y-60293333D01*
X128200000Y-61500000D02*
X128200000Y-60293333D01*
X128080000Y-61500000D02*
X128080000Y-60293333D01*
X127960000Y-61500000D02*
X127960000Y-60293333D01*
X127840000Y-61500000D02*
X127840000Y-60293333D01*
X127720000Y-61500000D02*
X127720000Y-60293333D01*
X127600000Y-61500000D02*
X127600000Y-60293333D01*
X127480000Y-61500000D02*
X127480000Y-60293333D01*
X127360000Y-61500000D02*
X127360000Y-60293333D01*
X127240000Y-61500000D02*
X127240000Y-60293333D01*
X127120000Y-61500000D02*
X127120000Y-60293333D01*
X127000000Y-57880000D02*
X127000000Y-61500000D01*
X128270000Y-57880000D02*
X127000000Y-57880000D01*
X128270000Y-61500000D02*
X128270000Y-57880000D01*
X127000000Y-61500000D02*
X128270000Y-61500000D01*
X124460000Y-60293333D02*
X125730000Y-60293333D01*
X125660000Y-61500000D02*
X125660000Y-60293333D01*
X125540000Y-61500000D02*
X125540000Y-60293333D01*
X125420000Y-61500000D02*
X125420000Y-60293333D01*
X125300000Y-61500000D02*
X125300000Y-60293333D01*
X125180000Y-61500000D02*
X125180000Y-60293333D01*
X125060000Y-61500000D02*
X125060000Y-60293333D01*
X124940000Y-61500000D02*
X124940000Y-60293333D01*
X124820000Y-61500000D02*
X124820000Y-60293333D01*
X124700000Y-61500000D02*
X124700000Y-60293333D01*
X124580000Y-61500000D02*
X124580000Y-60293333D01*
X124460000Y-57880000D02*
X124460000Y-61500000D01*
X125730000Y-57880000D02*
X124460000Y-57880000D01*
X125730000Y-61500000D02*
X125730000Y-57880000D01*
X124460000Y-61500000D02*
X125730000Y-61500000D01*
X121920000Y-60293333D02*
X123190000Y-60293333D01*
X123120000Y-61500000D02*
X123120000Y-60293333D01*
X123000000Y-61500000D02*
X123000000Y-60293333D01*
X122880000Y-61500000D02*
X122880000Y-60293333D01*
X122760000Y-61500000D02*
X122760000Y-60293333D01*
X122640000Y-61500000D02*
X122640000Y-60293333D01*
X122520000Y-61500000D02*
X122520000Y-60293333D01*
X122400000Y-61500000D02*
X122400000Y-60293333D01*
X122280000Y-61500000D02*
X122280000Y-60293333D01*
X122160000Y-61500000D02*
X122160000Y-60293333D01*
X122040000Y-61500000D02*
X122040000Y-60293333D01*
X121920000Y-57880000D02*
X121920000Y-61500000D01*
X123190000Y-57880000D02*
X121920000Y-57880000D01*
X123190000Y-61500000D02*
X123190000Y-57880000D01*
X121920000Y-61500000D02*
X123190000Y-61500000D01*
X120205000Y-63340000D02*
X121515000Y-63340000D01*
X120205000Y-63340000D02*
X120205000Y-61957000D01*
X123545000Y-56279000D02*
X124106000Y-56279000D01*
X120445000Y-56279000D02*
X121565000Y-56279000D01*
X126085000Y-56279000D02*
X126646000Y-56279000D01*
X128625000Y-56279000D02*
X129186000Y-56279000D01*
X131165000Y-56279000D02*
X132285000Y-56279000D01*
X131165000Y-63100000D02*
X132285000Y-63100000D01*
X128625000Y-63100000D02*
X129186000Y-63100000D01*
X126085000Y-63100000D02*
X126646000Y-63100000D01*
X123595000Y-63100000D02*
X124106000Y-63100000D01*
X120445000Y-63100000D02*
X121515000Y-63100000D01*
X132285000Y-63100000D02*
X132285000Y-56279000D01*
X120445000Y-63100000D02*
X120445000Y-56279000D01*
X152475000Y-52576252D02*
X152475000Y-52053748D01*
X151055000Y-52576252D02*
X151055000Y-52053748D01*
X142950000Y-52576252D02*
X142950000Y-52053748D01*
X141530000Y-52576252D02*
X141530000Y-52053748D01*
X167640000Y-60293333D02*
X168910000Y-60293333D01*
X168840000Y-61500000D02*
X168840000Y-60293333D01*
X168720000Y-61500000D02*
X168720000Y-60293333D01*
X168600000Y-61500000D02*
X168600000Y-60293333D01*
X168480000Y-61500000D02*
X168480000Y-60293333D01*
X168360000Y-61500000D02*
X168360000Y-60293333D01*
X168240000Y-61500000D02*
X168240000Y-60293333D01*
X168120000Y-61500000D02*
X168120000Y-60293333D01*
X168000000Y-61500000D02*
X168000000Y-60293333D01*
X167880000Y-61500000D02*
X167880000Y-60293333D01*
X167760000Y-61500000D02*
X167760000Y-60293333D01*
X167640000Y-57880000D02*
X167640000Y-61500000D01*
X168910000Y-57880000D02*
X167640000Y-57880000D01*
X168910000Y-61500000D02*
X168910000Y-57880000D01*
X167640000Y-61500000D02*
X168910000Y-61500000D01*
X165100000Y-60293333D02*
X166370000Y-60293333D01*
X166300000Y-61500000D02*
X166300000Y-60293333D01*
X166180000Y-61500000D02*
X166180000Y-60293333D01*
X166060000Y-61500000D02*
X166060000Y-60293333D01*
X165940000Y-61500000D02*
X165940000Y-60293333D01*
X165820000Y-61500000D02*
X165820000Y-60293333D01*
X165700000Y-61500000D02*
X165700000Y-60293333D01*
X165580000Y-61500000D02*
X165580000Y-60293333D01*
X165460000Y-61500000D02*
X165460000Y-60293333D01*
X165340000Y-61500000D02*
X165340000Y-60293333D01*
X165220000Y-61500000D02*
X165220000Y-60293333D01*
X165100000Y-57880000D02*
X165100000Y-61500000D01*
X166370000Y-57880000D02*
X165100000Y-57880000D01*
X166370000Y-61500000D02*
X166370000Y-57880000D01*
X165100000Y-61500000D02*
X166370000Y-61500000D01*
X162560000Y-60293333D02*
X163830000Y-60293333D01*
X163760000Y-61500000D02*
X163760000Y-60293333D01*
X163640000Y-61500000D02*
X163640000Y-60293333D01*
X163520000Y-61500000D02*
X163520000Y-60293333D01*
X163400000Y-61500000D02*
X163400000Y-60293333D01*
X163280000Y-61500000D02*
X163280000Y-60293333D01*
X163160000Y-61500000D02*
X163160000Y-60293333D01*
X163040000Y-61500000D02*
X163040000Y-60293333D01*
X162920000Y-61500000D02*
X162920000Y-60293333D01*
X162800000Y-61500000D02*
X162800000Y-60293333D01*
X162680000Y-61500000D02*
X162680000Y-60293333D01*
X162560000Y-57880000D02*
X162560000Y-61500000D01*
X163830000Y-57880000D02*
X162560000Y-57880000D01*
X163830000Y-61500000D02*
X163830000Y-57880000D01*
X162560000Y-61500000D02*
X163830000Y-61500000D01*
X160020000Y-60293333D02*
X161290000Y-60293333D01*
X161220000Y-61500000D02*
X161220000Y-60293333D01*
X161100000Y-61500000D02*
X161100000Y-60293333D01*
X160980000Y-61500000D02*
X160980000Y-60293333D01*
X160860000Y-61500000D02*
X160860000Y-60293333D01*
X160740000Y-61500000D02*
X160740000Y-60293333D01*
X160620000Y-61500000D02*
X160620000Y-60293333D01*
X160500000Y-61500000D02*
X160500000Y-60293333D01*
X160380000Y-61500000D02*
X160380000Y-60293333D01*
X160260000Y-61500000D02*
X160260000Y-60293333D01*
X160140000Y-61500000D02*
X160140000Y-60293333D01*
X160020000Y-57880000D02*
X160020000Y-61500000D01*
X161290000Y-57880000D02*
X160020000Y-57880000D01*
X161290000Y-61500000D02*
X161290000Y-57880000D01*
X160020000Y-61500000D02*
X161290000Y-61500000D01*
X157480000Y-60293333D02*
X158750000Y-60293333D01*
X158680000Y-61500000D02*
X158680000Y-60293333D01*
X158560000Y-61500000D02*
X158560000Y-60293333D01*
X158440000Y-61500000D02*
X158440000Y-60293333D01*
X158320000Y-61500000D02*
X158320000Y-60293333D01*
X158200000Y-61500000D02*
X158200000Y-60293333D01*
X158080000Y-61500000D02*
X158080000Y-60293333D01*
X157960000Y-61500000D02*
X157960000Y-60293333D01*
X157840000Y-61500000D02*
X157840000Y-60293333D01*
X157720000Y-61500000D02*
X157720000Y-60293333D01*
X157600000Y-61500000D02*
X157600000Y-60293333D01*
X157480000Y-57880000D02*
X157480000Y-61500000D01*
X158750000Y-57880000D02*
X157480000Y-57880000D01*
X158750000Y-61500000D02*
X158750000Y-57880000D01*
X157480000Y-61500000D02*
X158750000Y-61500000D01*
X155765000Y-63340000D02*
X157075000Y-63340000D01*
X155765000Y-63340000D02*
X155765000Y-61957000D01*
X159105000Y-56279000D02*
X159666000Y-56279000D01*
X156005000Y-56279000D02*
X157125000Y-56279000D01*
X161645000Y-56279000D02*
X162206000Y-56279000D01*
X164185000Y-56279000D02*
X164746000Y-56279000D01*
X166725000Y-56279000D02*
X167285000Y-56279000D01*
X169265000Y-56279000D02*
X170386000Y-56279000D01*
X169265000Y-63100000D02*
X170386000Y-63100000D01*
X166725000Y-63100000D02*
X167285000Y-63100000D01*
X164185000Y-63100000D02*
X164746000Y-63100000D01*
X161645000Y-63100000D02*
X162206000Y-63100000D01*
X159155000Y-63100000D02*
X159666000Y-63100000D01*
X156005000Y-63100000D02*
X157075000Y-63100000D01*
X170386000Y-63100000D02*
X170386000Y-56279000D01*
X156005000Y-63100000D02*
X156005000Y-56279000D01*
X141605000Y-60293333D02*
X142875000Y-60293333D01*
X142805000Y-61500000D02*
X142805000Y-60293333D01*
X142685000Y-61500000D02*
X142685000Y-60293333D01*
X142565000Y-61500000D02*
X142565000Y-60293333D01*
X142445000Y-61500000D02*
X142445000Y-60293333D01*
X142325000Y-61500000D02*
X142325000Y-60293333D01*
X142205000Y-61500000D02*
X142205000Y-60293333D01*
X142085000Y-61500000D02*
X142085000Y-60293333D01*
X141965000Y-61500000D02*
X141965000Y-60293333D01*
X141845000Y-61500000D02*
X141845000Y-60293333D01*
X141725000Y-61500000D02*
X141725000Y-60293333D01*
X141605000Y-57880000D02*
X141605000Y-61500000D01*
X142875000Y-57880000D02*
X141605000Y-57880000D01*
X142875000Y-61500000D02*
X142875000Y-57880000D01*
X141605000Y-61500000D02*
X142875000Y-61500000D01*
X139065000Y-60293333D02*
X140335000Y-60293333D01*
X140265000Y-61500000D02*
X140265000Y-60293333D01*
X140145000Y-61500000D02*
X140145000Y-60293333D01*
X140025000Y-61500000D02*
X140025000Y-60293333D01*
X139905000Y-61500000D02*
X139905000Y-60293333D01*
X139785000Y-61500000D02*
X139785000Y-60293333D01*
X139665000Y-61500000D02*
X139665000Y-60293333D01*
X139545000Y-61500000D02*
X139545000Y-60293333D01*
X139425000Y-61500000D02*
X139425000Y-60293333D01*
X139305000Y-61500000D02*
X139305000Y-60293333D01*
X139185000Y-61500000D02*
X139185000Y-60293333D01*
X139065000Y-57880000D02*
X139065000Y-61500000D01*
X140335000Y-57880000D02*
X139065000Y-57880000D01*
X140335000Y-61500000D02*
X140335000Y-57880000D01*
X139065000Y-61500000D02*
X140335000Y-61500000D01*
X136525000Y-60293333D02*
X137795000Y-60293333D01*
X137725000Y-61500000D02*
X137725000Y-60293333D01*
X137605000Y-61500000D02*
X137605000Y-60293333D01*
X137485000Y-61500000D02*
X137485000Y-60293333D01*
X137365000Y-61500000D02*
X137365000Y-60293333D01*
X137245000Y-61500000D02*
X137245000Y-60293333D01*
X137125000Y-61500000D02*
X137125000Y-60293333D01*
X137005000Y-61500000D02*
X137005000Y-60293333D01*
X136885000Y-61500000D02*
X136885000Y-60293333D01*
X136765000Y-61500000D02*
X136765000Y-60293333D01*
X136645000Y-61500000D02*
X136645000Y-60293333D01*
X136525000Y-57880000D02*
X136525000Y-61500000D01*
X137795000Y-57880000D02*
X136525000Y-57880000D01*
X137795000Y-61500000D02*
X137795000Y-57880000D01*
X136525000Y-61500000D02*
X137795000Y-61500000D01*
X134810000Y-63340000D02*
X136120000Y-63340000D01*
X134810000Y-63340000D02*
X134810000Y-61957000D01*
X138150000Y-56279000D02*
X138711000Y-56279000D01*
X135050000Y-56279000D02*
X136170000Y-56279000D01*
X140690000Y-56279000D02*
X141251000Y-56279000D01*
X143230000Y-56279000D02*
X144350000Y-56279000D01*
X143230000Y-63100000D02*
X144350000Y-63100000D01*
X140690000Y-63100000D02*
X141251000Y-63100000D01*
X138200000Y-63100000D02*
X138711000Y-63100000D01*
X135050000Y-63100000D02*
X136120000Y-63100000D01*
X144350000Y-63100000D02*
X144350000Y-56279000D01*
X135050000Y-63100000D02*
X135050000Y-56279000D01*
X151130000Y-60293333D02*
X152400000Y-60293333D01*
X152330000Y-61500000D02*
X152330000Y-60293333D01*
X152210000Y-61500000D02*
X152210000Y-60293333D01*
X152090000Y-61500000D02*
X152090000Y-60293333D01*
X151970000Y-61500000D02*
X151970000Y-60293333D01*
X151850000Y-61500000D02*
X151850000Y-60293333D01*
X151730000Y-61500000D02*
X151730000Y-60293333D01*
X151610000Y-61500000D02*
X151610000Y-60293333D01*
X151490000Y-61500000D02*
X151490000Y-60293333D01*
X151370000Y-61500000D02*
X151370000Y-60293333D01*
X151250000Y-61500000D02*
X151250000Y-60293333D01*
X151130000Y-57880000D02*
X151130000Y-61500000D01*
X152400000Y-57880000D02*
X151130000Y-57880000D01*
X152400000Y-61500000D02*
X152400000Y-57880000D01*
X151130000Y-61500000D02*
X152400000Y-61500000D01*
X148590000Y-60293333D02*
X149860000Y-60293333D01*
X149790000Y-61500000D02*
X149790000Y-60293333D01*
X149670000Y-61500000D02*
X149670000Y-60293333D01*
X149550000Y-61500000D02*
X149550000Y-60293333D01*
X149430000Y-61500000D02*
X149430000Y-60293333D01*
X149310000Y-61500000D02*
X149310000Y-60293333D01*
X149190000Y-61500000D02*
X149190000Y-60293333D01*
X149070000Y-61500000D02*
X149070000Y-60293333D01*
X148950000Y-61500000D02*
X148950000Y-60293333D01*
X148830000Y-61500000D02*
X148830000Y-60293333D01*
X148710000Y-61500000D02*
X148710000Y-60293333D01*
X148590000Y-57880000D02*
X148590000Y-61500000D01*
X149860000Y-57880000D02*
X148590000Y-57880000D01*
X149860000Y-61500000D02*
X149860000Y-57880000D01*
X148590000Y-61500000D02*
X149860000Y-61500000D01*
X146875000Y-63340000D02*
X148185000Y-63340000D01*
X146875000Y-63340000D02*
X146875000Y-61957000D01*
X150215000Y-56279000D02*
X150776000Y-56279000D01*
X147115000Y-56279000D02*
X148235000Y-56279000D01*
X152755000Y-56279000D02*
X153875000Y-56279000D01*
X152755000Y-63100000D02*
X153875000Y-63100000D01*
X150265000Y-63100000D02*
X150776000Y-63100000D01*
X147115000Y-63100000D02*
X148185000Y-63100000D01*
X153875000Y-63100000D02*
X153875000Y-56279000D01*
X147115000Y-63100000D02*
X147115000Y-56279000D01*
X158825000Y-52576252D02*
X158825000Y-52053748D01*
X157405000Y-52576252D02*
X157405000Y-52053748D01*
X128345000Y-52576252D02*
X128345000Y-52053748D01*
X126925000Y-52576252D02*
X126925000Y-52053748D01*
X163905000Y-52576252D02*
X163905000Y-52053748D01*
X162485000Y-52576252D02*
X162485000Y-52053748D01*
X166445000Y-52576252D02*
X166445000Y-52053748D01*
X165025000Y-52576252D02*
X165025000Y-52053748D01*
X161365000Y-52576252D02*
X161365000Y-52053748D01*
X159945000Y-52576252D02*
X159945000Y-52053748D01*
X130885000Y-52576252D02*
X130885000Y-52053748D01*
X129465000Y-52576252D02*
X129465000Y-52053748D01*
X125805000Y-52576252D02*
X125805000Y-52053748D01*
X124385000Y-52576252D02*
X124385000Y-52053748D01*
X123265000Y-52576252D02*
X123265000Y-52053748D01*
X121845000Y-52576252D02*
X121845000Y-52053748D01*
X155322748Y-97865000D02*
X155845252Y-97865000D01*
X155322748Y-96445000D02*
X155845252Y-96445000D01*
X137870000Y-88771252D02*
X137870000Y-88248748D01*
X136450000Y-88771252D02*
X136450000Y-88248748D01*
X140260000Y-114174748D02*
X140260000Y-114697252D01*
X141680000Y-114174748D02*
X141680000Y-114697252D01*
X132005000Y-114165748D02*
X132005000Y-114688252D01*
X133425000Y-114165748D02*
X133425000Y-114688252D01*
X146125000Y-88771252D02*
X146125000Y-88248748D01*
X144705000Y-88771252D02*
X144705000Y-88248748D01*
X123061252Y-98985000D02*
X122538748Y-98985000D01*
X123061252Y-100405000D02*
X122538748Y-100405000D01*
X154820252Y-77649000D02*
X154297748Y-77649000D01*
X154820252Y-79069000D02*
X154297748Y-79069000D01*
X126059000Y-73168252D02*
X126059000Y-72645748D01*
X124639000Y-73168252D02*
X124639000Y-72645748D01*
X187250000Y-102363748D02*
X187250000Y-102886252D01*
X188670000Y-102363748D02*
X188670000Y-102886252D01*
X202930000Y-95160000D02*
X202930000Y-99060000D01*
X200930000Y-95160000D02*
X200930000Y-99060000D01*
X202930000Y-95160000D02*
X200930000Y-95160000D01*
X196960000Y-90110000D02*
X195310000Y-90110000D01*
X196960000Y-110550000D02*
X196960000Y-90110000D01*
X191660000Y-110550000D02*
X196960000Y-110550000D01*
X191660000Y-90110000D02*
X191660000Y-110550000D01*
X193310000Y-90110000D02*
X191660000Y-90110000D01*
X195310000Y-90110000D02*
G75*
G02X193310000Y-90110000I-1000000J0D01*
G01*
X202640000Y-102886252D02*
X202640000Y-102363748D01*
X201220000Y-102886252D02*
X201220000Y-102363748D01*
X164920000Y-95520000D02*
X164920000Y-96720000D01*
X166120000Y-95520000D02*
X164920000Y-95520000D01*
X171460000Y-107490000D02*
X165120000Y-107490000D01*
X165120000Y-95720000D02*
X165120000Y-107490000D01*
X171460000Y-95720000D02*
X165120000Y-95720000D01*
X171460000Y-95720000D02*
X171460000Y-107490000D01*
X189940000Y-79881252D02*
X189940000Y-79358748D01*
X188520000Y-79881252D02*
X188520000Y-79358748D01*
X203910000Y-85106252D02*
X203910000Y-84583748D01*
X202490000Y-85106252D02*
X202490000Y-84583748D01*
X202490000Y-65660748D02*
X202490000Y-66183252D01*
X203910000Y-65660748D02*
X203910000Y-66183252D01*
X123061252Y-105335000D02*
X122538748Y-105335000D01*
X123061252Y-106755000D02*
X122538748Y-106755000D01*
X156360000Y-85740000D02*
G75*
G03X156360000Y-90790000I0J-2525000D01*
G01*
X162610000Y-85740000D02*
G75*
G02X162610000Y-90790000I0J-2525000D01*
G01*
X162610000Y-85740000D02*
X156360000Y-85740000D01*
X162610000Y-90790000D02*
X156360000Y-90790000D01*
X126980000Y-75565000D02*
X126980000Y-79015000D01*
X126980000Y-75565000D02*
X126980000Y-73615000D01*
X132100000Y-75565000D02*
X132100000Y-77515000D01*
X132100000Y-75565000D02*
X132100000Y-73615000D01*
X128690000Y-94065000D02*
X128690000Y-93590000D01*
X128690000Y-109610000D02*
X129815000Y-109610000D01*
X128690000Y-109135000D02*
X128690000Y-109610000D01*
X150710000Y-109135000D02*
X150710000Y-109610000D01*
X150710000Y-109610000D02*
X149900000Y-109610000D01*
X150710000Y-94100000D02*
X150710000Y-93590000D01*
X129815000Y-109610000D02*
X129815000Y-111500000D01*
X150710000Y-93590000D02*
X149900000Y-93590000D01*
X128690000Y-93590000D02*
X128915000Y-93590000D01*
X200450000Y-82750000D02*
X200450000Y-81225000D01*
X193250000Y-82750000D02*
X200450000Y-82750000D01*
X193250000Y-81225000D02*
X193250000Y-82750000D01*
X200450000Y-69650000D02*
X200450000Y-71175000D01*
X193250000Y-69650000D02*
X200450000Y-69650000D01*
X193250000Y-71175000D02*
X193250000Y-69650000D01*
X191650000Y-71175000D02*
X193250000Y-71175000D01*
X215249000Y-68160000D02*
X214749000Y-68660000D01*
X214249000Y-68160000D02*
X215249000Y-68160000D01*
X214749000Y-68660000D02*
X214249000Y-68160000D01*
X206434000Y-85540000D02*
X212109000Y-85540000D01*
X206434000Y-68900000D02*
X212109000Y-68900000D01*
X206434000Y-68900000D02*
X206434000Y-85540000D01*
X222314000Y-85540000D02*
X214609000Y-85540000D01*
X222314000Y-68900000D02*
X214609000Y-68900000D01*
X222314000Y-68900000D02*
X222314000Y-85540000D01*
X152475000Y-90041252D02*
X152475000Y-89518748D01*
X151055000Y-90041252D02*
X151055000Y-89518748D01*
X160783748Y-93420000D02*
X161306252Y-93420000D01*
X160783748Y-92000000D02*
X161306252Y-92000000D01*
D10*
X119594380Y-76453904D02*
X120403904Y-76453904D01*
X120499142Y-76406285D01*
X120546761Y-76358666D01*
X120594380Y-76263428D01*
X120594380Y-76072952D01*
X120546761Y-75977714D01*
X120499142Y-75930095D01*
X120403904Y-75882476D01*
X119594380Y-75882476D01*
X119594380Y-75501523D02*
X119594380Y-74882476D01*
X119975333Y-75215809D01*
X119975333Y-75072952D01*
X120022952Y-74977714D01*
X120070571Y-74930095D01*
X120165809Y-74882476D01*
X120403904Y-74882476D01*
X120499142Y-74930095D01*
X120546761Y-74977714D01*
X120594380Y-75072952D01*
X120594380Y-75358666D01*
X120546761Y-75453904D01*
X120499142Y-75501523D01*
X163472761Y-79873571D02*
X163520380Y-79730714D01*
X163520380Y-79492619D01*
X163472761Y-79397380D01*
X163425142Y-79349761D01*
X163329904Y-79302142D01*
X163234666Y-79302142D01*
X163139428Y-79349761D01*
X163091809Y-79397380D01*
X163044190Y-79492619D01*
X162996571Y-79683095D01*
X162948952Y-79778333D01*
X162901333Y-79825952D01*
X162806095Y-79873571D01*
X162710857Y-79873571D01*
X162615619Y-79825952D01*
X162568000Y-79778333D01*
X162520380Y-79683095D01*
X162520380Y-79445000D01*
X162568000Y-79302142D01*
X163472761Y-78921190D02*
X163520380Y-78778333D01*
X163520380Y-78540238D01*
X163472761Y-78445000D01*
X163425142Y-78397380D01*
X163329904Y-78349761D01*
X163234666Y-78349761D01*
X163139428Y-78397380D01*
X163091809Y-78445000D01*
X163044190Y-78540238D01*
X162996571Y-78730714D01*
X162948952Y-78825952D01*
X162901333Y-78873571D01*
X162806095Y-78921190D01*
X162710857Y-78921190D01*
X162615619Y-78873571D01*
X162568000Y-78825952D01*
X162520380Y-78730714D01*
X162520380Y-78492619D01*
X162568000Y-78349761D01*
X162520380Y-78064047D02*
X162520380Y-77492619D01*
X163520380Y-77778333D02*
X162520380Y-77778333D01*
X162520380Y-77254523D02*
X162520380Y-76635476D01*
X162901333Y-76968809D01*
X162901333Y-76825952D01*
X162948952Y-76730714D01*
X162996571Y-76683095D01*
X163091809Y-76635476D01*
X163329904Y-76635476D01*
X163425142Y-76683095D01*
X163472761Y-76730714D01*
X163520380Y-76825952D01*
X163520380Y-77111666D01*
X163472761Y-77206904D01*
X163425142Y-77254523D01*
X163520380Y-76159285D02*
X163520380Y-75968809D01*
X163472761Y-75873571D01*
X163425142Y-75825952D01*
X163282285Y-75730714D01*
X163091809Y-75683095D01*
X162710857Y-75683095D01*
X162615619Y-75730714D01*
X162568000Y-75778333D01*
X162520380Y-75873571D01*
X162520380Y-76064047D01*
X162568000Y-76159285D01*
X162615619Y-76206904D01*
X162710857Y-76254523D01*
X162948952Y-76254523D01*
X163044190Y-76206904D01*
X163091809Y-76159285D01*
X163139428Y-76064047D01*
X163139428Y-75873571D01*
X163091809Y-75778333D01*
X163044190Y-75730714D01*
X162948952Y-75683095D01*
X163472761Y-75302142D02*
X163520380Y-75159285D01*
X163520380Y-74921190D01*
X163472761Y-74825952D01*
X163425142Y-74778333D01*
X163329904Y-74730714D01*
X163234666Y-74730714D01*
X163139428Y-74778333D01*
X163091809Y-74825952D01*
X163044190Y-74921190D01*
X162996571Y-75111666D01*
X162948952Y-75206904D01*
X162901333Y-75254523D01*
X162806095Y-75302142D01*
X162710857Y-75302142D01*
X162615619Y-75254523D01*
X162568000Y-75206904D01*
X162520380Y-75111666D01*
X162520380Y-74873571D01*
X162568000Y-74730714D01*
X162996571Y-73968809D02*
X162996571Y-74302142D01*
X163520380Y-74302142D02*
X162520380Y-74302142D01*
X162520380Y-73825952D01*
X162520380Y-73254523D02*
X162520380Y-73159285D01*
X162568000Y-73064047D01*
X162615619Y-73016428D01*
X162710857Y-72968809D01*
X162901333Y-72921190D01*
X163139428Y-72921190D01*
X163329904Y-72968809D01*
X163425142Y-73016428D01*
X163472761Y-73064047D01*
X163520380Y-73159285D01*
X163520380Y-73254523D01*
X163472761Y-73349761D01*
X163425142Y-73397380D01*
X163329904Y-73445000D01*
X163139428Y-73492619D01*
X162901333Y-73492619D01*
X162710857Y-73445000D01*
X162615619Y-73397380D01*
X162568000Y-73349761D01*
X162520380Y-73254523D01*
X163520380Y-71968809D02*
X163520380Y-72540238D01*
X163520380Y-72254523D02*
X162520380Y-72254523D01*
X162663238Y-72349761D01*
X162758476Y-72445000D01*
X162806095Y-72540238D01*
X162520380Y-71349761D02*
X162520380Y-71254523D01*
X162568000Y-71159285D01*
X162615619Y-71111666D01*
X162710857Y-71064047D01*
X162901333Y-71016428D01*
X163139428Y-71016428D01*
X163329904Y-71064047D01*
X163425142Y-71111666D01*
X163472761Y-71159285D01*
X163520380Y-71254523D01*
X163520380Y-71349761D01*
X163472761Y-71445000D01*
X163425142Y-71492619D01*
X163329904Y-71540238D01*
X163139428Y-71587857D01*
X162901333Y-71587857D01*
X162710857Y-71540238D01*
X162615619Y-71492619D01*
X162568000Y-71445000D01*
X162520380Y-71349761D01*
X203795380Y-93424333D02*
X204509666Y-93424333D01*
X204652523Y-93471952D01*
X204747761Y-93567190D01*
X204795380Y-93710047D01*
X204795380Y-93805285D01*
X203795380Y-93043380D02*
X203795380Y-92424333D01*
X204176333Y-92757666D01*
X204176333Y-92614809D01*
X204223952Y-92519571D01*
X204271571Y-92471952D01*
X204366809Y-92424333D01*
X204604904Y-92424333D01*
X204700142Y-92471952D01*
X204747761Y-92519571D01*
X204795380Y-92614809D01*
X204795380Y-92900523D01*
X204747761Y-92995761D01*
X204700142Y-93043380D01*
X213034571Y-100012380D02*
X213082190Y-99869523D01*
X213129809Y-99821904D01*
X213225047Y-99774285D01*
X213367904Y-99774285D01*
X213463142Y-99821904D01*
X213510761Y-99869523D01*
X213558380Y-99964761D01*
X213558380Y-100345714D01*
X212558380Y-100345714D01*
X212558380Y-100012380D01*
X212606000Y-99917142D01*
X212653619Y-99869523D01*
X212748857Y-99821904D01*
X212844095Y-99821904D01*
X212939333Y-99869523D01*
X212986952Y-99917142D01*
X213034571Y-100012380D01*
X213034571Y-100345714D01*
X213558380Y-99345714D02*
X212558380Y-99345714D01*
X213558380Y-98774285D01*
X212558380Y-98774285D01*
X213463142Y-97726666D02*
X213510761Y-97774285D01*
X213558380Y-97917142D01*
X213558380Y-98012380D01*
X213510761Y-98155238D01*
X213415523Y-98250476D01*
X213320285Y-98298095D01*
X213129809Y-98345714D01*
X212986952Y-98345714D01*
X212796476Y-98298095D01*
X212701238Y-98250476D01*
X212606000Y-98155238D01*
X212558380Y-98012380D01*
X212558380Y-97917142D01*
X212606000Y-97774285D01*
X212653619Y-97726666D01*
X154941142Y-101289380D02*
X154607809Y-100813190D01*
X154369714Y-101289380D02*
X154369714Y-100289380D01*
X154750666Y-100289380D01*
X154845904Y-100337000D01*
X154893523Y-100384619D01*
X154941142Y-100479857D01*
X154941142Y-100622714D01*
X154893523Y-100717952D01*
X154845904Y-100765571D01*
X154750666Y-100813190D01*
X154369714Y-100813190D01*
X155274476Y-100289380D02*
X155893523Y-100289380D01*
X155560190Y-100670333D01*
X155703047Y-100670333D01*
X155798285Y-100717952D01*
X155845904Y-100765571D01*
X155893523Y-100860809D01*
X155893523Y-101098904D01*
X155845904Y-101194142D01*
X155798285Y-101241761D01*
X155703047Y-101289380D01*
X155417333Y-101289380D01*
X155322095Y-101241761D01*
X155274476Y-101194142D01*
X156845904Y-101289380D02*
X156274476Y-101289380D01*
X156560190Y-101289380D02*
X156560190Y-100289380D01*
X156464952Y-100432238D01*
X156369714Y-100527476D01*
X156274476Y-100575095D01*
X155369714Y-102687380D02*
X154798285Y-102687380D01*
X155084000Y-102687380D02*
X155084000Y-101687380D01*
X154988761Y-101830238D01*
X154893523Y-101925476D01*
X154798285Y-101973095D01*
X155798285Y-102687380D02*
X155798285Y-101687380D01*
X156369714Y-102687380D02*
X155941142Y-102115952D01*
X156369714Y-101687380D02*
X155798285Y-102258809D01*
X163234619Y-96742238D02*
X163187000Y-96837476D01*
X163091761Y-96932714D01*
X162948904Y-97075571D01*
X162901285Y-97170809D01*
X162901285Y-97266047D01*
X163139380Y-97218428D02*
X163091761Y-97313666D01*
X162996523Y-97408904D01*
X162806047Y-97456523D01*
X162472714Y-97456523D01*
X162282238Y-97408904D01*
X162187000Y-97313666D01*
X162139380Y-97218428D01*
X162139380Y-97027952D01*
X162187000Y-96932714D01*
X162282238Y-96837476D01*
X162472714Y-96789857D01*
X162806047Y-96789857D01*
X162996523Y-96837476D01*
X163091761Y-96932714D01*
X163139380Y-97027952D01*
X163139380Y-97218428D01*
X163139380Y-95837476D02*
X163139380Y-96408904D01*
X163139380Y-96123190D02*
X162139380Y-96123190D01*
X162282238Y-96218428D01*
X162377476Y-96313666D01*
X162425095Y-96408904D01*
X157543952Y-95702380D02*
X157543952Y-94702380D01*
X157924904Y-94702380D01*
X158020142Y-94750000D01*
X158067761Y-94797619D01*
X158115380Y-94892857D01*
X158115380Y-95035714D01*
X158067761Y-95130952D01*
X158020142Y-95178571D01*
X157924904Y-95226190D01*
X157543952Y-95226190D01*
X158543952Y-95702380D02*
X158543952Y-94702380D01*
X158877285Y-95416666D01*
X159210619Y-94702380D01*
X159210619Y-95702380D01*
X160020142Y-95178571D02*
X160163000Y-95226190D01*
X160210619Y-95273809D01*
X160258238Y-95369047D01*
X160258238Y-95511904D01*
X160210619Y-95607142D01*
X160163000Y-95654761D01*
X160067761Y-95702380D01*
X159686809Y-95702380D01*
X159686809Y-94702380D01*
X160020142Y-94702380D01*
X160115380Y-94750000D01*
X160163000Y-94797619D01*
X160210619Y-94892857D01*
X160210619Y-94988095D01*
X160163000Y-95083333D01*
X160115380Y-95130952D01*
X160020142Y-95178571D01*
X159686809Y-95178571D01*
X160543952Y-94702380D02*
X161115380Y-94702380D01*
X160829666Y-95702380D02*
X160829666Y-94702380D01*
X161401095Y-94797619D02*
X161448714Y-94750000D01*
X161543952Y-94702380D01*
X161782047Y-94702380D01*
X161877285Y-94750000D01*
X161924904Y-94797619D01*
X161972523Y-94892857D01*
X161972523Y-94988095D01*
X161924904Y-95130952D01*
X161353476Y-95702380D01*
X161972523Y-95702380D01*
X162353476Y-94797619D02*
X162401095Y-94750000D01*
X162496333Y-94702380D01*
X162734428Y-94702380D01*
X162829666Y-94750000D01*
X162877285Y-94797619D01*
X162924904Y-94892857D01*
X162924904Y-94988095D01*
X162877285Y-95130952D01*
X162305857Y-95702380D01*
X162924904Y-95702380D01*
X163305857Y-94797619D02*
X163353476Y-94750000D01*
X163448714Y-94702380D01*
X163686809Y-94702380D01*
X163782047Y-94750000D01*
X163829666Y-94797619D01*
X163877285Y-94892857D01*
X163877285Y-94988095D01*
X163829666Y-95130952D01*
X163258238Y-95702380D01*
X163877285Y-95702380D01*
X164258238Y-94797619D02*
X164305857Y-94750000D01*
X164401095Y-94702380D01*
X164639190Y-94702380D01*
X164734428Y-94750000D01*
X164782047Y-94797619D01*
X164829666Y-94892857D01*
X164829666Y-94988095D01*
X164782047Y-95130952D01*
X164210619Y-95702380D01*
X164829666Y-95702380D01*
X204049333Y-74779142D02*
X204001714Y-74826761D01*
X203858857Y-74874380D01*
X203763619Y-74874380D01*
X203620761Y-74826761D01*
X203525523Y-74731523D01*
X203477904Y-74636285D01*
X203430285Y-74445809D01*
X203430285Y-74302952D01*
X203477904Y-74112476D01*
X203525523Y-74017238D01*
X203620761Y-73922000D01*
X203763619Y-73874380D01*
X203858857Y-73874380D01*
X204001714Y-73922000D01*
X204049333Y-73969619D01*
X204906476Y-73874380D02*
X204716000Y-73874380D01*
X204620761Y-73922000D01*
X204573142Y-73969619D01*
X204477904Y-74112476D01*
X204430285Y-74302952D01*
X204430285Y-74683904D01*
X204477904Y-74779142D01*
X204525523Y-74826761D01*
X204620761Y-74874380D01*
X204811238Y-74874380D01*
X204906476Y-74826761D01*
X204954095Y-74779142D01*
X205001714Y-74683904D01*
X205001714Y-74445809D01*
X204954095Y-74350571D01*
X204906476Y-74302952D01*
X204811238Y-74255333D01*
X204620761Y-74255333D01*
X204525523Y-74302952D01*
X204477904Y-74350571D01*
X204430285Y-74445809D01*
X205319380Y-74072380D02*
X205319380Y-73453333D01*
X205700333Y-73786666D01*
X205700333Y-73643809D01*
X205747952Y-73548571D01*
X205795571Y-73500952D01*
X205890809Y-73453333D01*
X206128904Y-73453333D01*
X206224142Y-73500952D01*
X206271761Y-73548571D01*
X206319380Y-73643809D01*
X206319380Y-73929523D01*
X206271761Y-74024761D01*
X206224142Y-74072380D01*
X206319380Y-72977142D02*
X206319380Y-72786666D01*
X206271761Y-72691428D01*
X206224142Y-72643809D01*
X206081285Y-72548571D01*
X205890809Y-72500952D01*
X205509857Y-72500952D01*
X205414619Y-72548571D01*
X205367000Y-72596190D01*
X205319380Y-72691428D01*
X205319380Y-72881904D01*
X205367000Y-72977142D01*
X205414619Y-73024761D01*
X205509857Y-73072380D01*
X205747952Y-73072380D01*
X205843190Y-73024761D01*
X205890809Y-72977142D01*
X205938428Y-72881904D01*
X205938428Y-72691428D01*
X205890809Y-72596190D01*
X205843190Y-72548571D01*
X205747952Y-72500952D01*
X205652714Y-72072380D02*
X206652714Y-72072380D01*
X205700333Y-72072380D02*
X205652714Y-71977142D01*
X205652714Y-71786666D01*
X205700333Y-71691428D01*
X205747952Y-71643809D01*
X205843190Y-71596190D01*
X206128904Y-71596190D01*
X206224142Y-71643809D01*
X206271761Y-71691428D01*
X206319380Y-71786666D01*
X206319380Y-71977142D01*
X206271761Y-72072380D01*
X205414619Y-70453333D02*
X205367000Y-70405714D01*
X205319380Y-70310476D01*
X205319380Y-70072380D01*
X205367000Y-69977142D01*
X205414619Y-69929523D01*
X205509857Y-69881904D01*
X205605095Y-69881904D01*
X205747952Y-69929523D01*
X206319380Y-70500952D01*
X206319380Y-69881904D01*
X206319380Y-69453333D02*
X205319380Y-69453333D01*
X205938428Y-69358095D02*
X206319380Y-69072380D01*
X205652714Y-69072380D02*
X206033666Y-69453333D01*
X205319380Y-68786666D02*
X206319380Y-68453333D01*
X205319380Y-68120000D01*
X204049333Y-76811142D02*
X204001714Y-76858761D01*
X203858857Y-76906380D01*
X203763619Y-76906380D01*
X203620761Y-76858761D01*
X203525523Y-76763523D01*
X203477904Y-76668285D01*
X203430285Y-76477809D01*
X203430285Y-76334952D01*
X203477904Y-76144476D01*
X203525523Y-76049238D01*
X203620761Y-75954000D01*
X203763619Y-75906380D01*
X203858857Y-75906380D01*
X204001714Y-75954000D01*
X204049333Y-76001619D01*
X204954095Y-75906380D02*
X204477904Y-75906380D01*
X204430285Y-76382571D01*
X204477904Y-76334952D01*
X204573142Y-76287333D01*
X204811238Y-76287333D01*
X204906476Y-76334952D01*
X204954095Y-76382571D01*
X205001714Y-76477809D01*
X205001714Y-76715904D01*
X204954095Y-76811142D01*
X204906476Y-76858761D01*
X204811238Y-76906380D01*
X204573142Y-76906380D01*
X204477904Y-76858761D01*
X204430285Y-76811142D01*
X205319380Y-82454380D02*
X205319380Y-81835333D01*
X205700333Y-82168666D01*
X205700333Y-82025809D01*
X205747952Y-81930571D01*
X205795571Y-81882952D01*
X205890809Y-81835333D01*
X206128904Y-81835333D01*
X206224142Y-81882952D01*
X206271761Y-81930571D01*
X206319380Y-82025809D01*
X206319380Y-82311523D01*
X206271761Y-82406761D01*
X206224142Y-82454380D01*
X206319380Y-81359142D02*
X206319380Y-81168666D01*
X206271761Y-81073428D01*
X206224142Y-81025809D01*
X206081285Y-80930571D01*
X205890809Y-80882952D01*
X205509857Y-80882952D01*
X205414619Y-80930571D01*
X205367000Y-80978190D01*
X205319380Y-81073428D01*
X205319380Y-81263904D01*
X205367000Y-81359142D01*
X205414619Y-81406761D01*
X205509857Y-81454380D01*
X205747952Y-81454380D01*
X205843190Y-81406761D01*
X205890809Y-81359142D01*
X205938428Y-81263904D01*
X205938428Y-81073428D01*
X205890809Y-80978190D01*
X205843190Y-80930571D01*
X205747952Y-80882952D01*
X205652714Y-80454380D02*
X206652714Y-80454380D01*
X205700333Y-80454380D02*
X205652714Y-80359142D01*
X205652714Y-80168666D01*
X205700333Y-80073428D01*
X205747952Y-80025809D01*
X205843190Y-79978190D01*
X206128904Y-79978190D01*
X206224142Y-80025809D01*
X206271761Y-80073428D01*
X206319380Y-80168666D01*
X206319380Y-80359142D01*
X206271761Y-80454380D01*
X205414619Y-78835333D02*
X205367000Y-78787714D01*
X205319380Y-78692476D01*
X205319380Y-78454380D01*
X205367000Y-78359142D01*
X205414619Y-78311523D01*
X205509857Y-78263904D01*
X205605095Y-78263904D01*
X205747952Y-78311523D01*
X206319380Y-78882952D01*
X206319380Y-78263904D01*
X206319380Y-77835333D02*
X205319380Y-77835333D01*
X205938428Y-77740095D02*
X206319380Y-77454380D01*
X205652714Y-77454380D02*
X206033666Y-77835333D01*
X205319380Y-77168666D02*
X206319380Y-76835333D01*
X205319380Y-76502000D01*
X193017142Y-85773666D02*
X193064761Y-85821285D01*
X193112380Y-85964142D01*
X193112380Y-86059380D01*
X193064761Y-86202238D01*
X192969523Y-86297476D01*
X192874285Y-86345095D01*
X192683809Y-86392714D01*
X192540952Y-86392714D01*
X192350476Y-86345095D01*
X192255238Y-86297476D01*
X192160000Y-86202238D01*
X192112380Y-86059380D01*
X192112380Y-85964142D01*
X192160000Y-85821285D01*
X192207619Y-85773666D01*
X192445714Y-84916523D02*
X193112380Y-84916523D01*
X192064761Y-85154619D02*
X192779047Y-85392714D01*
X192779047Y-84773666D01*
X196412380Y-86726047D02*
X196412380Y-87297476D01*
X196412380Y-87011761D02*
X195412380Y-87011761D01*
X195555238Y-87107000D01*
X195650476Y-87202238D01*
X195698095Y-87297476D01*
X195412380Y-86107000D02*
X195412380Y-86011761D01*
X195460000Y-85916523D01*
X195507619Y-85868904D01*
X195602857Y-85821285D01*
X195793333Y-85773666D01*
X196031428Y-85773666D01*
X196221904Y-85821285D01*
X196317142Y-85868904D01*
X196364761Y-85916523D01*
X196412380Y-86011761D01*
X196412380Y-86107000D01*
X196364761Y-86202238D01*
X196317142Y-86249857D01*
X196221904Y-86297476D01*
X196031428Y-86345095D01*
X195793333Y-86345095D01*
X195602857Y-86297476D01*
X195507619Y-86249857D01*
X195460000Y-86202238D01*
X195412380Y-86107000D01*
X195412380Y-85154619D02*
X195412380Y-85059380D01*
X195460000Y-84964142D01*
X195507619Y-84916523D01*
X195602857Y-84868904D01*
X195793333Y-84821285D01*
X196031428Y-84821285D01*
X196221904Y-84868904D01*
X196317142Y-84916523D01*
X196364761Y-84964142D01*
X196412380Y-85059380D01*
X196412380Y-85154619D01*
X196364761Y-85249857D01*
X196317142Y-85297476D01*
X196221904Y-85345095D01*
X196031428Y-85392714D01*
X195793333Y-85392714D01*
X195602857Y-85345095D01*
X195507619Y-85297476D01*
X195460000Y-85249857D01*
X195412380Y-85154619D01*
X195745714Y-84392714D02*
X196412380Y-84392714D01*
X195840952Y-84392714D02*
X195793333Y-84345095D01*
X195745714Y-84249857D01*
X195745714Y-84107000D01*
X195793333Y-84011761D01*
X195888571Y-83964142D01*
X196412380Y-83964142D01*
X193017142Y-66959666D02*
X193064761Y-67007285D01*
X193112380Y-67150142D01*
X193112380Y-67245380D01*
X193064761Y-67388238D01*
X192969523Y-67483476D01*
X192874285Y-67531095D01*
X192683809Y-67578714D01*
X192540952Y-67578714D01*
X192350476Y-67531095D01*
X192255238Y-67483476D01*
X192160000Y-67388238D01*
X192112380Y-67245380D01*
X192112380Y-67150142D01*
X192160000Y-67007285D01*
X192207619Y-66959666D01*
X192112380Y-66626333D02*
X192112380Y-66007285D01*
X192493333Y-66340619D01*
X192493333Y-66197761D01*
X192540952Y-66102523D01*
X192588571Y-66054904D01*
X192683809Y-66007285D01*
X192921904Y-66007285D01*
X193017142Y-66054904D01*
X193064761Y-66102523D01*
X193112380Y-66197761D01*
X193112380Y-66483476D01*
X193064761Y-66578714D01*
X193017142Y-66626333D01*
X196412380Y-67912047D02*
X196412380Y-68483476D01*
X196412380Y-68197761D02*
X195412380Y-68197761D01*
X195555238Y-68293000D01*
X195650476Y-68388238D01*
X195698095Y-68483476D01*
X195412380Y-67293000D02*
X195412380Y-67197761D01*
X195460000Y-67102523D01*
X195507619Y-67054904D01*
X195602857Y-67007285D01*
X195793333Y-66959666D01*
X196031428Y-66959666D01*
X196221904Y-67007285D01*
X196317142Y-67054904D01*
X196364761Y-67102523D01*
X196412380Y-67197761D01*
X196412380Y-67293000D01*
X196364761Y-67388238D01*
X196317142Y-67435857D01*
X196221904Y-67483476D01*
X196031428Y-67531095D01*
X195793333Y-67531095D01*
X195602857Y-67483476D01*
X195507619Y-67435857D01*
X195460000Y-67388238D01*
X195412380Y-67293000D01*
X195412380Y-66340619D02*
X195412380Y-66245380D01*
X195460000Y-66150142D01*
X195507619Y-66102523D01*
X195602857Y-66054904D01*
X195793333Y-66007285D01*
X196031428Y-66007285D01*
X196221904Y-66054904D01*
X196317142Y-66102523D01*
X196364761Y-66150142D01*
X196412380Y-66245380D01*
X196412380Y-66340619D01*
X196364761Y-66435857D01*
X196317142Y-66483476D01*
X196221904Y-66531095D01*
X196031428Y-66578714D01*
X195793333Y-66578714D01*
X195602857Y-66531095D01*
X195507619Y-66483476D01*
X195460000Y-66435857D01*
X195412380Y-66340619D01*
X195745714Y-65578714D02*
X196412380Y-65578714D01*
X195840952Y-65578714D02*
X195793333Y-65531095D01*
X195745714Y-65435857D01*
X195745714Y-65293000D01*
X195793333Y-65197761D01*
X195888571Y-65150142D01*
X196412380Y-65150142D01*
X202439142Y-113990380D02*
X202105809Y-113514190D01*
X201867714Y-113990380D02*
X201867714Y-112990380D01*
X202248666Y-112990380D01*
X202343904Y-113038000D01*
X202391523Y-113085619D01*
X202439142Y-113180857D01*
X202439142Y-113323714D01*
X202391523Y-113418952D01*
X202343904Y-113466571D01*
X202248666Y-113514190D01*
X201867714Y-113514190D01*
X202772476Y-112990380D02*
X203391523Y-112990380D01*
X203058190Y-113371333D01*
X203201047Y-113371333D01*
X203296285Y-113418952D01*
X203343904Y-113466571D01*
X203391523Y-113561809D01*
X203391523Y-113799904D01*
X203343904Y-113895142D01*
X203296285Y-113942761D01*
X203201047Y-113990380D01*
X202915333Y-113990380D01*
X202820095Y-113942761D01*
X202772476Y-113895142D01*
X204010571Y-112990380D02*
X204105809Y-112990380D01*
X204201047Y-113038000D01*
X204248666Y-113085619D01*
X204296285Y-113180857D01*
X204343904Y-113371333D01*
X204343904Y-113609428D01*
X204296285Y-113799904D01*
X204248666Y-113895142D01*
X204201047Y-113942761D01*
X204105809Y-113990380D01*
X204010571Y-113990380D01*
X203915333Y-113942761D01*
X203867714Y-113895142D01*
X203820095Y-113799904D01*
X203772476Y-113609428D01*
X203772476Y-113371333D01*
X203820095Y-113180857D01*
X203867714Y-113085619D01*
X203915333Y-113038000D01*
X204010571Y-112990380D01*
X205962285Y-112212380D02*
X205390857Y-112212380D01*
X205676571Y-112212380D02*
X205676571Y-111212380D01*
X205581333Y-111355238D01*
X205486095Y-111450476D01*
X205390857Y-111498095D01*
X206390857Y-112212380D02*
X206390857Y-111212380D01*
X206724190Y-111926666D01*
X207057523Y-111212380D01*
X207057523Y-112212380D01*
X202439142Y-119196380D02*
X202105809Y-118720190D01*
X201867714Y-119196380D02*
X201867714Y-118196380D01*
X202248666Y-118196380D01*
X202343904Y-118244000D01*
X202391523Y-118291619D01*
X202439142Y-118386857D01*
X202439142Y-118529714D01*
X202391523Y-118624952D01*
X202343904Y-118672571D01*
X202248666Y-118720190D01*
X201867714Y-118720190D01*
X202820095Y-118291619D02*
X202867714Y-118244000D01*
X202962952Y-118196380D01*
X203201047Y-118196380D01*
X203296285Y-118244000D01*
X203343904Y-118291619D01*
X203391523Y-118386857D01*
X203391523Y-118482095D01*
X203343904Y-118624952D01*
X202772476Y-119196380D01*
X203391523Y-119196380D01*
X203867714Y-119196380D02*
X204058190Y-119196380D01*
X204153428Y-119148761D01*
X204201047Y-119101142D01*
X204296285Y-118958285D01*
X204343904Y-118767809D01*
X204343904Y-118386857D01*
X204296285Y-118291619D01*
X204248666Y-118244000D01*
X204153428Y-118196380D01*
X203962952Y-118196380D01*
X203867714Y-118244000D01*
X203820095Y-118291619D01*
X203772476Y-118386857D01*
X203772476Y-118624952D01*
X203820095Y-118720190D01*
X203867714Y-118767809D01*
X203962952Y-118815428D01*
X204153428Y-118815428D01*
X204248666Y-118767809D01*
X204296285Y-118720190D01*
X204343904Y-118624952D01*
X203034380Y-114896380D02*
X203129619Y-114896380D01*
X203224857Y-114944000D01*
X203272476Y-114991619D01*
X203320095Y-115086857D01*
X203367714Y-115277333D01*
X203367714Y-115515428D01*
X203320095Y-115705904D01*
X203272476Y-115801142D01*
X203224857Y-115848761D01*
X203129619Y-115896380D01*
X203034380Y-115896380D01*
X202939142Y-115848761D01*
X202891523Y-115801142D01*
X202843904Y-115705904D01*
X202796285Y-115515428D01*
X202796285Y-115277333D01*
X202843904Y-115086857D01*
X202891523Y-114991619D01*
X202939142Y-114944000D01*
X203034380Y-114896380D01*
X204326142Y-56712380D02*
X203992809Y-56236190D01*
X203754714Y-56712380D02*
X203754714Y-55712380D01*
X204135666Y-55712380D01*
X204230904Y-55760000D01*
X204278523Y-55807619D01*
X204326142Y-55902857D01*
X204326142Y-56045714D01*
X204278523Y-56140952D01*
X204230904Y-56188571D01*
X204135666Y-56236190D01*
X203754714Y-56236190D01*
X204707095Y-55807619D02*
X204754714Y-55760000D01*
X204849952Y-55712380D01*
X205088047Y-55712380D01*
X205183285Y-55760000D01*
X205230904Y-55807619D01*
X205278523Y-55902857D01*
X205278523Y-55998095D01*
X205230904Y-56140952D01*
X204659476Y-56712380D01*
X205278523Y-56712380D01*
X205849952Y-56140952D02*
X205754714Y-56093333D01*
X205707095Y-56045714D01*
X205659476Y-55950476D01*
X205659476Y-55902857D01*
X205707095Y-55807619D01*
X205754714Y-55760000D01*
X205849952Y-55712380D01*
X206040428Y-55712380D01*
X206135666Y-55760000D01*
X206183285Y-55807619D01*
X206230904Y-55902857D01*
X206230904Y-55950476D01*
X206183285Y-56045714D01*
X206135666Y-56093333D01*
X206040428Y-56140952D01*
X205849952Y-56140952D01*
X205754714Y-56188571D01*
X205707095Y-56236190D01*
X205659476Y-56331428D01*
X205659476Y-56521904D01*
X205707095Y-56617142D01*
X205754714Y-56664761D01*
X205849952Y-56712380D01*
X206040428Y-56712380D01*
X206135666Y-56664761D01*
X206183285Y-56617142D01*
X206230904Y-56521904D01*
X206230904Y-56331428D01*
X206183285Y-56236190D01*
X206135666Y-56188571D01*
X206040428Y-56140952D01*
X204921380Y-52412380D02*
X205016619Y-52412380D01*
X205111857Y-52460000D01*
X205159476Y-52507619D01*
X205207095Y-52602857D01*
X205254714Y-52793333D01*
X205254714Y-53031428D01*
X205207095Y-53221904D01*
X205159476Y-53317142D01*
X205111857Y-53364761D01*
X205016619Y-53412380D01*
X204921380Y-53412380D01*
X204826142Y-53364761D01*
X204778523Y-53317142D01*
X204730904Y-53221904D01*
X204683285Y-53031428D01*
X204683285Y-52793333D01*
X204730904Y-52602857D01*
X204778523Y-52507619D01*
X204826142Y-52460000D01*
X204921380Y-52412380D01*
X202393642Y-107757142D02*
X202346023Y-107804761D01*
X202203166Y-107852380D01*
X202107928Y-107852380D01*
X201965071Y-107804761D01*
X201869833Y-107709523D01*
X201822214Y-107614285D01*
X201774595Y-107423809D01*
X201774595Y-107280952D01*
X201822214Y-107090476D01*
X201869833Y-106995238D01*
X201965071Y-106900000D01*
X202107928Y-106852380D01*
X202203166Y-106852380D01*
X202346023Y-106900000D01*
X202393642Y-106947619D01*
X203346023Y-107852380D02*
X202774595Y-107852380D01*
X203060309Y-107852380D02*
X203060309Y-106852380D01*
X202965071Y-106995238D01*
X202869833Y-107090476D01*
X202774595Y-107138095D01*
X203822214Y-107852380D02*
X204012690Y-107852380D01*
X204107928Y-107804761D01*
X204155547Y-107757142D01*
X204250785Y-107614285D01*
X204298404Y-107423809D01*
X204298404Y-107042857D01*
X204250785Y-106947619D01*
X204203166Y-106900000D01*
X204107928Y-106852380D01*
X203917452Y-106852380D01*
X203822214Y-106900000D01*
X203774595Y-106947619D01*
X203726976Y-107042857D01*
X203726976Y-107280952D01*
X203774595Y-107376190D01*
X203822214Y-107423809D01*
X203917452Y-107471428D01*
X204107928Y-107471428D01*
X204203166Y-107423809D01*
X204250785Y-107376190D01*
X204298404Y-107280952D01*
X206200666Y-109672380D02*
X205629238Y-109672380D01*
X205914952Y-109672380D02*
X205914952Y-108672380D01*
X205819714Y-108815238D01*
X205724476Y-108910476D01*
X205629238Y-108958095D01*
X206819714Y-108672380D02*
X206914952Y-108672380D01*
X207010190Y-108720000D01*
X207057809Y-108767619D01*
X207105428Y-108862857D01*
X207153047Y-109053333D01*
X207153047Y-109291428D01*
X207105428Y-109481904D01*
X207057809Y-109577142D01*
X207010190Y-109624761D01*
X206914952Y-109672380D01*
X206819714Y-109672380D01*
X206724476Y-109624761D01*
X206676857Y-109577142D01*
X206629238Y-109481904D01*
X206581619Y-109291428D01*
X206581619Y-109053333D01*
X206629238Y-108862857D01*
X206676857Y-108767619D01*
X206724476Y-108720000D01*
X206819714Y-108672380D01*
X207581619Y-109005714D02*
X207581619Y-109672380D01*
X207581619Y-109100952D02*
X207629238Y-109053333D01*
X207724476Y-109005714D01*
X207867333Y-109005714D01*
X207962571Y-109053333D01*
X208010190Y-109148571D01*
X208010190Y-109672380D01*
X209772095Y-109672380D02*
X209200666Y-109672380D01*
X209486380Y-109672380D02*
X209486380Y-108672380D01*
X209391142Y-108815238D01*
X209295904Y-108910476D01*
X209200666Y-108958095D01*
X210200666Y-109672380D02*
X210200666Y-108672380D01*
X210295904Y-109291428D02*
X210581619Y-109672380D01*
X210581619Y-109005714D02*
X210200666Y-109386666D01*
X210867333Y-108672380D02*
X211200666Y-109672380D01*
X211534000Y-108672380D01*
X175077380Y-103512857D02*
X174601190Y-103846190D01*
X175077380Y-104084285D02*
X174077380Y-104084285D01*
X174077380Y-103703333D01*
X174125000Y-103608095D01*
X174172619Y-103560476D01*
X174267857Y-103512857D01*
X174410714Y-103512857D01*
X174505952Y-103560476D01*
X174553571Y-103608095D01*
X174601190Y-103703333D01*
X174601190Y-104084285D01*
X174172619Y-103131904D02*
X174125000Y-103084285D01*
X174077380Y-102989047D01*
X174077380Y-102750952D01*
X174125000Y-102655714D01*
X174172619Y-102608095D01*
X174267857Y-102560476D01*
X174363095Y-102560476D01*
X174505952Y-102608095D01*
X175077380Y-103179523D01*
X175077380Y-102560476D01*
X174077380Y-102227142D02*
X174077380Y-101560476D01*
X175077380Y-101989047D01*
X172522619Y-100688095D02*
X172475000Y-100640476D01*
X172427380Y-100545238D01*
X172427380Y-100307142D01*
X172475000Y-100211904D01*
X172522619Y-100164285D01*
X172617857Y-100116666D01*
X172713095Y-100116666D01*
X172855952Y-100164285D01*
X173427380Y-100735714D01*
X173427380Y-100116666D01*
X172427380Y-99783333D02*
X172427380Y-99116666D01*
X173427380Y-99545238D01*
X172427380Y-98545238D02*
X172427380Y-98450000D01*
X172475000Y-98354761D01*
X172522619Y-98307142D01*
X172617857Y-98259523D01*
X172808333Y-98211904D01*
X173046428Y-98211904D01*
X173236904Y-98259523D01*
X173332142Y-98307142D01*
X173379761Y-98354761D01*
X173427380Y-98450000D01*
X173427380Y-98545238D01*
X173379761Y-98640476D01*
X173332142Y-98688095D01*
X173236904Y-98735714D01*
X173046428Y-98783333D01*
X172808333Y-98783333D01*
X172617857Y-98735714D01*
X172522619Y-98688095D01*
X172475000Y-98640476D01*
X172427380Y-98545238D01*
X176982380Y-103512857D02*
X176506190Y-103846190D01*
X176982380Y-104084285D02*
X175982380Y-104084285D01*
X175982380Y-103703333D01*
X176030000Y-103608095D01*
X176077619Y-103560476D01*
X176172857Y-103512857D01*
X176315714Y-103512857D01*
X176410952Y-103560476D01*
X176458571Y-103608095D01*
X176506190Y-103703333D01*
X176506190Y-104084285D01*
X176077619Y-103131904D02*
X176030000Y-103084285D01*
X175982380Y-102989047D01*
X175982380Y-102750952D01*
X176030000Y-102655714D01*
X176077619Y-102608095D01*
X176172857Y-102560476D01*
X176268095Y-102560476D01*
X176410952Y-102608095D01*
X176982380Y-103179523D01*
X176982380Y-102560476D01*
X175982380Y-101703333D02*
X175982380Y-101893809D01*
X176030000Y-101989047D01*
X176077619Y-102036666D01*
X176220476Y-102131904D01*
X176410952Y-102179523D01*
X176791904Y-102179523D01*
X176887142Y-102131904D01*
X176934761Y-102084285D01*
X176982380Y-101989047D01*
X176982380Y-101798571D01*
X176934761Y-101703333D01*
X176887142Y-101655714D01*
X176791904Y-101608095D01*
X176553809Y-101608095D01*
X176458571Y-101655714D01*
X176410952Y-101703333D01*
X176363333Y-101798571D01*
X176363333Y-101989047D01*
X176410952Y-102084285D01*
X176458571Y-102131904D01*
X176553809Y-102179523D01*
X177855619Y-100679095D02*
X177808000Y-100631476D01*
X177760380Y-100536238D01*
X177760380Y-100298142D01*
X177808000Y-100202904D01*
X177855619Y-100155285D01*
X177950857Y-100107666D01*
X178046095Y-100107666D01*
X178188952Y-100155285D01*
X178760380Y-100726714D01*
X178760380Y-100107666D01*
X177760380Y-99774333D02*
X177760380Y-99107666D01*
X178760380Y-99536238D01*
X177760380Y-98536238D02*
X177760380Y-98441000D01*
X177808000Y-98345761D01*
X177855619Y-98298142D01*
X177950857Y-98250523D01*
X178141333Y-98202904D01*
X178379428Y-98202904D01*
X178569904Y-98250523D01*
X178665142Y-98298142D01*
X178712761Y-98345761D01*
X178760380Y-98441000D01*
X178760380Y-98536238D01*
X178712761Y-98631476D01*
X178665142Y-98679095D01*
X178569904Y-98726714D01*
X178379428Y-98774333D01*
X178141333Y-98774333D01*
X177950857Y-98726714D01*
X177855619Y-98679095D01*
X177808000Y-98631476D01*
X177760380Y-98536238D01*
X183586380Y-97797857D02*
X183110190Y-98131190D01*
X183586380Y-98369285D02*
X182586380Y-98369285D01*
X182586380Y-97988333D01*
X182634000Y-97893095D01*
X182681619Y-97845476D01*
X182776857Y-97797857D01*
X182919714Y-97797857D01*
X183014952Y-97845476D01*
X183062571Y-97893095D01*
X183110190Y-97988333D01*
X183110190Y-98369285D01*
X182681619Y-97416904D02*
X182634000Y-97369285D01*
X182586380Y-97274047D01*
X182586380Y-97035952D01*
X182634000Y-96940714D01*
X182681619Y-96893095D01*
X182776857Y-96845476D01*
X182872095Y-96845476D01*
X183014952Y-96893095D01*
X183586380Y-97464523D01*
X183586380Y-96845476D01*
X182586380Y-95940714D02*
X182586380Y-96416904D01*
X183062571Y-96464523D01*
X183014952Y-96416904D01*
X182967333Y-96321666D01*
X182967333Y-96083571D01*
X183014952Y-95988333D01*
X183062571Y-95940714D01*
X183157809Y-95893095D01*
X183395904Y-95893095D01*
X183491142Y-95940714D01*
X183538761Y-95988333D01*
X183586380Y-96083571D01*
X183586380Y-96321666D01*
X183538761Y-96416904D01*
X183491142Y-96464523D01*
X185594714Y-99274380D02*
X185118523Y-99274380D01*
X185070904Y-99750571D01*
X185118523Y-99702952D01*
X185213761Y-99655333D01*
X185451857Y-99655333D01*
X185547095Y-99702952D01*
X185594714Y-99750571D01*
X185642333Y-99845809D01*
X185642333Y-100083904D01*
X185594714Y-100179142D01*
X185547095Y-100226761D01*
X185451857Y-100274380D01*
X185213761Y-100274380D01*
X185118523Y-100226761D01*
X185070904Y-100179142D01*
X186594714Y-100274380D02*
X186023285Y-100274380D01*
X186309000Y-100274380D02*
X186309000Y-99274380D01*
X186213761Y-99417238D01*
X186118523Y-99512476D01*
X186023285Y-99560095D01*
X187213761Y-99274380D02*
X187309000Y-99274380D01*
X187404238Y-99322000D01*
X187451857Y-99369619D01*
X187499476Y-99464857D01*
X187547095Y-99655333D01*
X187547095Y-99893428D01*
X187499476Y-100083904D01*
X187451857Y-100179142D01*
X187404238Y-100226761D01*
X187309000Y-100274380D01*
X187213761Y-100274380D01*
X187118523Y-100226761D01*
X187070904Y-100179142D01*
X187023285Y-100083904D01*
X186975666Y-99893428D01*
X186975666Y-99655333D01*
X187023285Y-99464857D01*
X187070904Y-99369619D01*
X187118523Y-99322000D01*
X187213761Y-99274380D01*
X184856380Y-97797857D02*
X184380190Y-98131190D01*
X184856380Y-98369285D02*
X183856380Y-98369285D01*
X183856380Y-97988333D01*
X183904000Y-97893095D01*
X183951619Y-97845476D01*
X184046857Y-97797857D01*
X184189714Y-97797857D01*
X184284952Y-97845476D01*
X184332571Y-97893095D01*
X184380190Y-97988333D01*
X184380190Y-98369285D01*
X183951619Y-97416904D02*
X183904000Y-97369285D01*
X183856380Y-97274047D01*
X183856380Y-97035952D01*
X183904000Y-96940714D01*
X183951619Y-96893095D01*
X184046857Y-96845476D01*
X184142095Y-96845476D01*
X184284952Y-96893095D01*
X184856380Y-97464523D01*
X184856380Y-96845476D01*
X184189714Y-95988333D02*
X184856380Y-95988333D01*
X183808761Y-96226428D02*
X184523047Y-96464523D01*
X184523047Y-95845476D01*
X187118714Y-94067380D02*
X186642523Y-94067380D01*
X186594904Y-94543571D01*
X186642523Y-94495952D01*
X186737761Y-94448333D01*
X186975857Y-94448333D01*
X187071095Y-94495952D01*
X187118714Y-94543571D01*
X187166333Y-94638809D01*
X187166333Y-94876904D01*
X187118714Y-94972142D01*
X187071095Y-95019761D01*
X186975857Y-95067380D01*
X186737761Y-95067380D01*
X186642523Y-95019761D01*
X186594904Y-94972142D01*
X188118714Y-95067380D02*
X187547285Y-95067380D01*
X187833000Y-95067380D02*
X187833000Y-94067380D01*
X187737761Y-94210238D01*
X187642523Y-94305476D01*
X187547285Y-94353095D01*
X188737761Y-94067380D02*
X188833000Y-94067380D01*
X188928238Y-94115000D01*
X188975857Y-94162619D01*
X189023476Y-94257857D01*
X189071095Y-94448333D01*
X189071095Y-94686428D01*
X189023476Y-94876904D01*
X188975857Y-94972142D01*
X188928238Y-95019761D01*
X188833000Y-95067380D01*
X188737761Y-95067380D01*
X188642523Y-95019761D01*
X188594904Y-94972142D01*
X188547285Y-94876904D01*
X188499666Y-94686428D01*
X188499666Y-94448333D01*
X188547285Y-94257857D01*
X188594904Y-94162619D01*
X188642523Y-94115000D01*
X188737761Y-94067380D01*
X186507380Y-85097857D02*
X186031190Y-85431190D01*
X186507380Y-85669285D02*
X185507380Y-85669285D01*
X185507380Y-85288333D01*
X185555000Y-85193095D01*
X185602619Y-85145476D01*
X185697857Y-85097857D01*
X185840714Y-85097857D01*
X185935952Y-85145476D01*
X185983571Y-85193095D01*
X186031190Y-85288333D01*
X186031190Y-85669285D01*
X185602619Y-84716904D02*
X185555000Y-84669285D01*
X185507380Y-84574047D01*
X185507380Y-84335952D01*
X185555000Y-84240714D01*
X185602619Y-84193095D01*
X185697857Y-84145476D01*
X185793095Y-84145476D01*
X185935952Y-84193095D01*
X186507380Y-84764523D01*
X186507380Y-84145476D01*
X185507380Y-83812142D02*
X185507380Y-83193095D01*
X185888333Y-83526428D01*
X185888333Y-83383571D01*
X185935952Y-83288333D01*
X185983571Y-83240714D01*
X186078809Y-83193095D01*
X186316904Y-83193095D01*
X186412142Y-83240714D01*
X186459761Y-83288333D01*
X186507380Y-83383571D01*
X186507380Y-83669285D01*
X186459761Y-83764523D01*
X186412142Y-83812142D01*
X185126380Y-91646285D02*
X185126380Y-92122476D01*
X185602571Y-92170095D01*
X185554952Y-92122476D01*
X185507333Y-92027238D01*
X185507333Y-91789142D01*
X185554952Y-91693904D01*
X185602571Y-91646285D01*
X185697809Y-91598666D01*
X185935904Y-91598666D01*
X186031142Y-91646285D01*
X186078761Y-91693904D01*
X186126380Y-91789142D01*
X186126380Y-92027238D01*
X186078761Y-92122476D01*
X186031142Y-92170095D01*
X186126380Y-90646285D02*
X186126380Y-91217714D01*
X186126380Y-90932000D02*
X185126380Y-90932000D01*
X185269238Y-91027238D01*
X185364476Y-91122476D01*
X185412095Y-91217714D01*
X185126380Y-90027238D02*
X185126380Y-89932000D01*
X185174000Y-89836761D01*
X185221619Y-89789142D01*
X185316857Y-89741523D01*
X185507333Y-89693904D01*
X185745428Y-89693904D01*
X185935904Y-89741523D01*
X186031142Y-89789142D01*
X186078761Y-89836761D01*
X186126380Y-89932000D01*
X186126380Y-90027238D01*
X186078761Y-90122476D01*
X186031142Y-90170095D01*
X185935904Y-90217714D01*
X185745428Y-90265333D01*
X185507333Y-90265333D01*
X185316857Y-90217714D01*
X185221619Y-90170095D01*
X185174000Y-90122476D01*
X185126380Y-90027238D01*
X188412380Y-85097857D02*
X187936190Y-85431190D01*
X188412380Y-85669285D02*
X187412380Y-85669285D01*
X187412380Y-85288333D01*
X187460000Y-85193095D01*
X187507619Y-85145476D01*
X187602857Y-85097857D01*
X187745714Y-85097857D01*
X187840952Y-85145476D01*
X187888571Y-85193095D01*
X187936190Y-85288333D01*
X187936190Y-85669285D01*
X187507619Y-84716904D02*
X187460000Y-84669285D01*
X187412380Y-84574047D01*
X187412380Y-84335952D01*
X187460000Y-84240714D01*
X187507619Y-84193095D01*
X187602857Y-84145476D01*
X187698095Y-84145476D01*
X187840952Y-84193095D01*
X188412380Y-84764523D01*
X188412380Y-84145476D01*
X187507619Y-83764523D02*
X187460000Y-83716904D01*
X187412380Y-83621666D01*
X187412380Y-83383571D01*
X187460000Y-83288333D01*
X187507619Y-83240714D01*
X187602857Y-83193095D01*
X187698095Y-83193095D01*
X187840952Y-83240714D01*
X188412380Y-83812142D01*
X188412380Y-83193095D01*
X187412380Y-91646285D02*
X187412380Y-92122476D01*
X187888571Y-92170095D01*
X187840952Y-92122476D01*
X187793333Y-92027238D01*
X187793333Y-91789142D01*
X187840952Y-91693904D01*
X187888571Y-91646285D01*
X187983809Y-91598666D01*
X188221904Y-91598666D01*
X188317142Y-91646285D01*
X188364761Y-91693904D01*
X188412380Y-91789142D01*
X188412380Y-92027238D01*
X188364761Y-92122476D01*
X188317142Y-92170095D01*
X188412380Y-90646285D02*
X188412380Y-91217714D01*
X188412380Y-90932000D02*
X187412380Y-90932000D01*
X187555238Y-91027238D01*
X187650476Y-91122476D01*
X187698095Y-91217714D01*
X187412380Y-90027238D02*
X187412380Y-89932000D01*
X187460000Y-89836761D01*
X187507619Y-89789142D01*
X187602857Y-89741523D01*
X187793333Y-89693904D01*
X188031428Y-89693904D01*
X188221904Y-89741523D01*
X188317142Y-89789142D01*
X188364761Y-89836761D01*
X188412380Y-89932000D01*
X188412380Y-90027238D01*
X188364761Y-90122476D01*
X188317142Y-90170095D01*
X188221904Y-90217714D01*
X188031428Y-90265333D01*
X187793333Y-90265333D01*
X187602857Y-90217714D01*
X187507619Y-90170095D01*
X187460000Y-90122476D01*
X187412380Y-90027238D01*
X161282142Y-107926142D02*
X161234523Y-107973761D01*
X161091666Y-108021380D01*
X160996428Y-108021380D01*
X160853571Y-107973761D01*
X160758333Y-107878523D01*
X160710714Y-107783285D01*
X160663095Y-107592809D01*
X160663095Y-107449952D01*
X160710714Y-107259476D01*
X160758333Y-107164238D01*
X160853571Y-107069000D01*
X160996428Y-107021380D01*
X161091666Y-107021380D01*
X161234523Y-107069000D01*
X161282142Y-107116619D01*
X162234523Y-108021380D02*
X161663095Y-108021380D01*
X161948809Y-108021380D02*
X161948809Y-107021380D01*
X161853571Y-107164238D01*
X161758333Y-107259476D01*
X161663095Y-107307095D01*
X162805952Y-107449952D02*
X162710714Y-107402333D01*
X162663095Y-107354714D01*
X162615476Y-107259476D01*
X162615476Y-107211857D01*
X162663095Y-107116619D01*
X162710714Y-107069000D01*
X162805952Y-107021380D01*
X162996428Y-107021380D01*
X163091666Y-107069000D01*
X163139285Y-107116619D01*
X163186904Y-107211857D01*
X163186904Y-107259476D01*
X163139285Y-107354714D01*
X163091666Y-107402333D01*
X162996428Y-107449952D01*
X162805952Y-107449952D01*
X162710714Y-107497571D01*
X162663095Y-107545190D01*
X162615476Y-107640428D01*
X162615476Y-107830904D01*
X162663095Y-107926142D01*
X162710714Y-107973761D01*
X162805952Y-108021380D01*
X162996428Y-108021380D01*
X163091666Y-107973761D01*
X163139285Y-107926142D01*
X163186904Y-107830904D01*
X163186904Y-107640428D01*
X163139285Y-107545190D01*
X163091666Y-107497571D01*
X162996428Y-107449952D01*
X159551714Y-106783095D02*
X160218380Y-106783095D01*
X159170761Y-107021190D02*
X159885047Y-107259285D01*
X159885047Y-106640238D01*
X159218380Y-106354523D02*
X159218380Y-105687857D01*
X160218380Y-106116428D01*
X159551714Y-104878333D02*
X160218380Y-104878333D01*
X159551714Y-105306904D02*
X160075523Y-105306904D01*
X160170761Y-105259285D01*
X160218380Y-105164047D01*
X160218380Y-105021190D01*
X160170761Y-104925952D01*
X160123142Y-104878333D01*
X177173095Y-82122380D02*
X177744523Y-82122380D01*
X177458809Y-83122380D02*
X177458809Y-82122380D01*
X178649285Y-83122380D02*
X178315952Y-82646190D01*
X178077857Y-83122380D02*
X178077857Y-82122380D01*
X178458809Y-82122380D01*
X178554047Y-82170000D01*
X178601666Y-82217619D01*
X178649285Y-82312857D01*
X178649285Y-82455714D01*
X178601666Y-82550952D01*
X178554047Y-82598571D01*
X178458809Y-82646190D01*
X178077857Y-82646190D01*
X179030238Y-82217619D02*
X179077857Y-82170000D01*
X179173095Y-82122380D01*
X179411190Y-82122380D01*
X179506428Y-82170000D01*
X179554047Y-82217619D01*
X179601666Y-82312857D01*
X179601666Y-82408095D01*
X179554047Y-82550952D01*
X178982619Y-83122380D01*
X179601666Y-83122380D01*
X177363380Y-94812857D02*
X176363380Y-94812857D01*
X176363380Y-94431904D01*
X176411000Y-94336666D01*
X176458619Y-94289047D01*
X176553857Y-94241428D01*
X176696714Y-94241428D01*
X176791952Y-94289047D01*
X176839571Y-94336666D01*
X176887190Y-94431904D01*
X176887190Y-94812857D01*
X176839571Y-93812857D02*
X176839571Y-93479523D01*
X177363380Y-93336666D02*
X177363380Y-93812857D01*
X176363380Y-93812857D01*
X176363380Y-93336666D01*
X176982428Y-92908095D02*
X176982428Y-92146190D01*
X176791952Y-91527142D02*
X176744333Y-91622380D01*
X176696714Y-91670000D01*
X176601476Y-91717619D01*
X176553857Y-91717619D01*
X176458619Y-91670000D01*
X176411000Y-91622380D01*
X176363380Y-91527142D01*
X176363380Y-91336666D01*
X176411000Y-91241428D01*
X176458619Y-91193809D01*
X176553857Y-91146190D01*
X176601476Y-91146190D01*
X176696714Y-91193809D01*
X176744333Y-91241428D01*
X176791952Y-91336666D01*
X176791952Y-91527142D01*
X176839571Y-91622380D01*
X176887190Y-91670000D01*
X176982428Y-91717619D01*
X177172904Y-91717619D01*
X177268142Y-91670000D01*
X177315761Y-91622380D01*
X177363380Y-91527142D01*
X177363380Y-91336666D01*
X177315761Y-91241428D01*
X177268142Y-91193809D01*
X177172904Y-91146190D01*
X176982428Y-91146190D01*
X176887190Y-91193809D01*
X176839571Y-91241428D01*
X176791952Y-91336666D01*
X176363380Y-90241428D02*
X176363380Y-90717619D01*
X176839571Y-90765238D01*
X176791952Y-90717619D01*
X176744333Y-90622380D01*
X176744333Y-90384285D01*
X176791952Y-90289047D01*
X176839571Y-90241428D01*
X176934809Y-90193809D01*
X177172904Y-90193809D01*
X177268142Y-90241428D01*
X177315761Y-90289047D01*
X177363380Y-90384285D01*
X177363380Y-90622380D01*
X177315761Y-90717619D01*
X177268142Y-90765238D01*
X176363380Y-89860476D02*
X176363380Y-89193809D01*
X177363380Y-89622380D01*
X176458619Y-88860476D02*
X176411000Y-88812857D01*
X176363380Y-88717619D01*
X176363380Y-88479523D01*
X176411000Y-88384285D01*
X176458619Y-88336666D01*
X176553857Y-88289047D01*
X176649095Y-88289047D01*
X176791952Y-88336666D01*
X177363380Y-88908095D01*
X177363380Y-88289047D01*
X176791952Y-87717619D02*
X176744333Y-87812857D01*
X176696714Y-87860476D01*
X176601476Y-87908095D01*
X176553857Y-87908095D01*
X176458619Y-87860476D01*
X176411000Y-87812857D01*
X176363380Y-87717619D01*
X176363380Y-87527142D01*
X176411000Y-87431904D01*
X176458619Y-87384285D01*
X176553857Y-87336666D01*
X176601476Y-87336666D01*
X176696714Y-87384285D01*
X176744333Y-87431904D01*
X176791952Y-87527142D01*
X176791952Y-87717619D01*
X176839571Y-87812857D01*
X176887190Y-87860476D01*
X176982428Y-87908095D01*
X177172904Y-87908095D01*
X177268142Y-87860476D01*
X177315761Y-87812857D01*
X177363380Y-87717619D01*
X177363380Y-87527142D01*
X177315761Y-87431904D01*
X177268142Y-87384285D01*
X177172904Y-87336666D01*
X176982428Y-87336666D01*
X176887190Y-87384285D01*
X176839571Y-87431904D01*
X176791952Y-87527142D01*
X177363380Y-86908095D02*
X176363380Y-86908095D01*
X177363380Y-86336666D01*
X176363380Y-86336666D01*
X177363380Y-85384285D02*
X177363380Y-85860476D01*
X176363380Y-85860476D01*
X122764642Y-115667142D02*
X122717023Y-115714761D01*
X122574166Y-115762380D01*
X122478928Y-115762380D01*
X122336071Y-115714761D01*
X122240833Y-115619523D01*
X122193214Y-115524285D01*
X122145595Y-115333809D01*
X122145595Y-115190952D01*
X122193214Y-115000476D01*
X122240833Y-114905238D01*
X122336071Y-114810000D01*
X122478928Y-114762380D01*
X122574166Y-114762380D01*
X122717023Y-114810000D01*
X122764642Y-114857619D01*
X123717023Y-115762380D02*
X123145595Y-115762380D01*
X123431309Y-115762380D02*
X123431309Y-114762380D01*
X123336071Y-114905238D01*
X123240833Y-115000476D01*
X123145595Y-115048095D01*
X124050357Y-114762380D02*
X124717023Y-114762380D01*
X124288452Y-115762380D01*
X122669404Y-110535714D02*
X122669404Y-111202380D01*
X122431309Y-110154761D02*
X122193214Y-110869047D01*
X122812261Y-110869047D01*
X123097976Y-110202380D02*
X123764642Y-110202380D01*
X123336071Y-111202380D01*
X124574166Y-110535714D02*
X124574166Y-111202380D01*
X124145595Y-110535714D02*
X124145595Y-111059523D01*
X124193214Y-111154761D01*
X124288452Y-111202380D01*
X124431309Y-111202380D01*
X124526547Y-111154761D01*
X124574166Y-111107142D01*
X158107142Y-103227142D02*
X158059523Y-103274761D01*
X157916666Y-103322380D01*
X157821428Y-103322380D01*
X157678571Y-103274761D01*
X157583333Y-103179523D01*
X157535714Y-103084285D01*
X157488095Y-102893809D01*
X157488095Y-102750952D01*
X157535714Y-102560476D01*
X157583333Y-102465238D01*
X157678571Y-102370000D01*
X157821428Y-102322380D01*
X157916666Y-102322380D01*
X158059523Y-102370000D01*
X158107142Y-102417619D01*
X159059523Y-103322380D02*
X158488095Y-103322380D01*
X158773809Y-103322380D02*
X158773809Y-102322380D01*
X158678571Y-102465238D01*
X158583333Y-102560476D01*
X158488095Y-102608095D01*
X159916666Y-102322380D02*
X159726190Y-102322380D01*
X159630952Y-102370000D01*
X159583333Y-102417619D01*
X159488095Y-102560476D01*
X159440476Y-102750952D01*
X159440476Y-103131904D01*
X159488095Y-103227142D01*
X159535714Y-103274761D01*
X159630952Y-103322380D01*
X159821428Y-103322380D01*
X159916666Y-103274761D01*
X159964285Y-103227142D01*
X160011904Y-103131904D01*
X160011904Y-102893809D01*
X159964285Y-102798571D01*
X159916666Y-102750952D01*
X159821428Y-102703333D01*
X159630952Y-102703333D01*
X159535714Y-102750952D01*
X159488095Y-102798571D01*
X159440476Y-102893809D01*
X157900714Y-101703095D02*
X158567380Y-101703095D01*
X157519761Y-101941190D02*
X158234047Y-102179285D01*
X158234047Y-101560238D01*
X157567380Y-101274523D02*
X157567380Y-100607857D01*
X158567380Y-101036428D01*
X157900714Y-99798333D02*
X158567380Y-99798333D01*
X157900714Y-100226904D02*
X158424523Y-100226904D01*
X158519761Y-100179285D01*
X158567380Y-100084047D01*
X158567380Y-99941190D01*
X158519761Y-99845952D01*
X158472142Y-99798333D01*
X172554761Y-61023333D02*
X172602380Y-60880476D01*
X172602380Y-60642380D01*
X172554761Y-60547142D01*
X172507142Y-60499523D01*
X172411904Y-60451904D01*
X172316666Y-60451904D01*
X172221428Y-60499523D01*
X172173809Y-60547142D01*
X172126190Y-60642380D01*
X172078571Y-60832857D01*
X172030952Y-60928095D01*
X171983333Y-60975714D01*
X171888095Y-61023333D01*
X171792857Y-61023333D01*
X171697619Y-60975714D01*
X171650000Y-60928095D01*
X171602380Y-60832857D01*
X171602380Y-60594761D01*
X171650000Y-60451904D01*
X171602380Y-60118571D02*
X172602380Y-59880476D01*
X171888095Y-59690000D01*
X172602380Y-59499523D01*
X171602380Y-59261428D01*
X171602380Y-58404285D02*
X171602380Y-58880476D01*
X172078571Y-58928095D01*
X172030952Y-58880476D01*
X171983333Y-58785238D01*
X171983333Y-58547142D01*
X172030952Y-58451904D01*
X172078571Y-58404285D01*
X172173809Y-58356666D01*
X172411904Y-58356666D01*
X172507142Y-58404285D01*
X172554761Y-58451904D01*
X172602380Y-58547142D01*
X172602380Y-58785238D01*
X172554761Y-58880476D01*
X172507142Y-58928095D01*
X119849761Y-61023333D02*
X119897380Y-60880476D01*
X119897380Y-60642380D01*
X119849761Y-60547142D01*
X119802142Y-60499523D01*
X119706904Y-60451904D01*
X119611666Y-60451904D01*
X119516428Y-60499523D01*
X119468809Y-60547142D01*
X119421190Y-60642380D01*
X119373571Y-60832857D01*
X119325952Y-60928095D01*
X119278333Y-60975714D01*
X119183095Y-61023333D01*
X119087857Y-61023333D01*
X118992619Y-60975714D01*
X118945000Y-60928095D01*
X118897380Y-60832857D01*
X118897380Y-60594761D01*
X118945000Y-60451904D01*
X118897380Y-60118571D02*
X119897380Y-59880476D01*
X119183095Y-59690000D01*
X119897380Y-59499523D01*
X118897380Y-59261428D01*
X119897380Y-58356666D02*
X119897380Y-58928095D01*
X119897380Y-58642380D02*
X118897380Y-58642380D01*
X119040238Y-58737619D01*
X119135476Y-58832857D01*
X119183095Y-58928095D01*
X155409761Y-61023333D02*
X155457380Y-60880476D01*
X155457380Y-60642380D01*
X155409761Y-60547142D01*
X155362142Y-60499523D01*
X155266904Y-60451904D01*
X155171666Y-60451904D01*
X155076428Y-60499523D01*
X155028809Y-60547142D01*
X154981190Y-60642380D01*
X154933571Y-60832857D01*
X154885952Y-60928095D01*
X154838333Y-60975714D01*
X154743095Y-61023333D01*
X154647857Y-61023333D01*
X154552619Y-60975714D01*
X154505000Y-60928095D01*
X154457380Y-60832857D01*
X154457380Y-60594761D01*
X154505000Y-60451904D01*
X154457380Y-60118571D02*
X155457380Y-59880476D01*
X154743095Y-59690000D01*
X155457380Y-59499523D01*
X154457380Y-59261428D01*
X154790714Y-58451904D02*
X155457380Y-58451904D01*
X154409761Y-58690000D02*
X155124047Y-58928095D01*
X155124047Y-58309047D01*
X134454761Y-61023333D02*
X134502380Y-60880476D01*
X134502380Y-60642380D01*
X134454761Y-60547142D01*
X134407142Y-60499523D01*
X134311904Y-60451904D01*
X134216666Y-60451904D01*
X134121428Y-60499523D01*
X134073809Y-60547142D01*
X134026190Y-60642380D01*
X133978571Y-60832857D01*
X133930952Y-60928095D01*
X133883333Y-60975714D01*
X133788095Y-61023333D01*
X133692857Y-61023333D01*
X133597619Y-60975714D01*
X133550000Y-60928095D01*
X133502380Y-60832857D01*
X133502380Y-60594761D01*
X133550000Y-60451904D01*
X133502380Y-60118571D02*
X134502380Y-59880476D01*
X133788095Y-59690000D01*
X134502380Y-59499523D01*
X133502380Y-59261428D01*
X133597619Y-58928095D02*
X133550000Y-58880476D01*
X133502380Y-58785238D01*
X133502380Y-58547142D01*
X133550000Y-58451904D01*
X133597619Y-58404285D01*
X133692857Y-58356666D01*
X133788095Y-58356666D01*
X133930952Y-58404285D01*
X134502380Y-58975714D01*
X134502380Y-58356666D01*
X146519761Y-61023333D02*
X146567380Y-60880476D01*
X146567380Y-60642380D01*
X146519761Y-60547142D01*
X146472142Y-60499523D01*
X146376904Y-60451904D01*
X146281666Y-60451904D01*
X146186428Y-60499523D01*
X146138809Y-60547142D01*
X146091190Y-60642380D01*
X146043571Y-60832857D01*
X145995952Y-60928095D01*
X145948333Y-60975714D01*
X145853095Y-61023333D01*
X145757857Y-61023333D01*
X145662619Y-60975714D01*
X145615000Y-60928095D01*
X145567380Y-60832857D01*
X145567380Y-60594761D01*
X145615000Y-60451904D01*
X145567380Y-60118571D02*
X146567380Y-59880476D01*
X145853095Y-59690000D01*
X146567380Y-59499523D01*
X145567380Y-59261428D01*
X145567380Y-58975714D02*
X145567380Y-58356666D01*
X145948333Y-58690000D01*
X145948333Y-58547142D01*
X145995952Y-58451904D01*
X146043571Y-58404285D01*
X146138809Y-58356666D01*
X146376904Y-58356666D01*
X146472142Y-58404285D01*
X146519761Y-58451904D01*
X146567380Y-58547142D01*
X146567380Y-58832857D01*
X146519761Y-58928095D01*
X146472142Y-58975714D01*
X154424142Y-95988142D02*
X154376523Y-96035761D01*
X154233666Y-96083380D01*
X154138428Y-96083380D01*
X153995571Y-96035761D01*
X153900333Y-95940523D01*
X153852714Y-95845285D01*
X153805095Y-95654809D01*
X153805095Y-95511952D01*
X153852714Y-95321476D01*
X153900333Y-95226238D01*
X153995571Y-95131000D01*
X154138428Y-95083380D01*
X154233666Y-95083380D01*
X154376523Y-95131000D01*
X154424142Y-95178619D01*
X155376523Y-96083380D02*
X154805095Y-96083380D01*
X155090809Y-96083380D02*
X155090809Y-95083380D01*
X154995571Y-95226238D01*
X154900333Y-95321476D01*
X154805095Y-95369095D01*
X156281285Y-95083380D02*
X155805095Y-95083380D01*
X155757476Y-95559571D01*
X155805095Y-95511952D01*
X155900333Y-95464333D01*
X156138428Y-95464333D01*
X156233666Y-95511952D01*
X156281285Y-95559571D01*
X156328904Y-95654809D01*
X156328904Y-95892904D01*
X156281285Y-95988142D01*
X156233666Y-96035761D01*
X156138428Y-96083380D01*
X155900333Y-96083380D01*
X155805095Y-96035761D01*
X155757476Y-95988142D01*
X154455952Y-94813380D02*
X153884523Y-94813380D01*
X154170238Y-94813380D02*
X154170238Y-93813380D01*
X154075000Y-93956238D01*
X153979761Y-94051476D01*
X153884523Y-94099095D01*
X155075000Y-93813380D02*
X155170238Y-93813380D01*
X155265476Y-93861000D01*
X155313095Y-93908619D01*
X155360714Y-94003857D01*
X155408333Y-94194333D01*
X155408333Y-94432428D01*
X155360714Y-94622904D01*
X155313095Y-94718142D01*
X155265476Y-94765761D01*
X155170238Y-94813380D01*
X155075000Y-94813380D01*
X154979761Y-94765761D01*
X154932142Y-94718142D01*
X154884523Y-94622904D01*
X154836904Y-94432428D01*
X154836904Y-94194333D01*
X154884523Y-94003857D01*
X154932142Y-93908619D01*
X154979761Y-93861000D01*
X155075000Y-93813380D01*
X156027380Y-93813380D02*
X156122619Y-93813380D01*
X156217857Y-93861000D01*
X156265476Y-93908619D01*
X156313095Y-94003857D01*
X156360714Y-94194333D01*
X156360714Y-94432428D01*
X156313095Y-94622904D01*
X156265476Y-94718142D01*
X156217857Y-94765761D01*
X156122619Y-94813380D01*
X156027380Y-94813380D01*
X155932142Y-94765761D01*
X155884523Y-94718142D01*
X155836904Y-94622904D01*
X155789285Y-94432428D01*
X155789285Y-94194333D01*
X155836904Y-94003857D01*
X155884523Y-93908619D01*
X155932142Y-93861000D01*
X156027380Y-93813380D01*
X156789285Y-94146714D02*
X156789285Y-94813380D01*
X156789285Y-94241952D02*
X156836904Y-94194333D01*
X156932142Y-94146714D01*
X157075000Y-94146714D01*
X157170238Y-94194333D01*
X157217857Y-94289571D01*
X157217857Y-94813380D01*
X135867142Y-89152857D02*
X135914761Y-89200476D01*
X135962380Y-89343333D01*
X135962380Y-89438571D01*
X135914761Y-89581428D01*
X135819523Y-89676666D01*
X135724285Y-89724285D01*
X135533809Y-89771904D01*
X135390952Y-89771904D01*
X135200476Y-89724285D01*
X135105238Y-89676666D01*
X135010000Y-89581428D01*
X134962380Y-89438571D01*
X134962380Y-89343333D01*
X135010000Y-89200476D01*
X135057619Y-89152857D01*
X135962380Y-88200476D02*
X135962380Y-88771904D01*
X135962380Y-88486190D02*
X134962380Y-88486190D01*
X135105238Y-88581428D01*
X135200476Y-88676666D01*
X135248095Y-88771904D01*
X135295714Y-87343333D02*
X135962380Y-87343333D01*
X134914761Y-87581428D02*
X135629047Y-87819523D01*
X135629047Y-87200476D01*
X139262380Y-89629047D02*
X139262380Y-90200476D01*
X139262380Y-89914761D02*
X138262380Y-89914761D01*
X138405238Y-90010000D01*
X138500476Y-90105238D01*
X138548095Y-90200476D01*
X138262380Y-89010000D02*
X138262380Y-88914761D01*
X138310000Y-88819523D01*
X138357619Y-88771904D01*
X138452857Y-88724285D01*
X138643333Y-88676666D01*
X138881428Y-88676666D01*
X139071904Y-88724285D01*
X139167142Y-88771904D01*
X139214761Y-88819523D01*
X139262380Y-88914761D01*
X139262380Y-89010000D01*
X139214761Y-89105238D01*
X139167142Y-89152857D01*
X139071904Y-89200476D01*
X138881428Y-89248095D01*
X138643333Y-89248095D01*
X138452857Y-89200476D01*
X138357619Y-89152857D01*
X138310000Y-89105238D01*
X138262380Y-89010000D01*
X138262380Y-88057619D02*
X138262380Y-87962380D01*
X138310000Y-87867142D01*
X138357619Y-87819523D01*
X138452857Y-87771904D01*
X138643333Y-87724285D01*
X138881428Y-87724285D01*
X139071904Y-87771904D01*
X139167142Y-87819523D01*
X139214761Y-87867142D01*
X139262380Y-87962380D01*
X139262380Y-88057619D01*
X139214761Y-88152857D01*
X139167142Y-88200476D01*
X139071904Y-88248095D01*
X138881428Y-88295714D01*
X138643333Y-88295714D01*
X138452857Y-88248095D01*
X138357619Y-88200476D01*
X138310000Y-88152857D01*
X138262380Y-88057619D01*
X138595714Y-87295714D02*
X139262380Y-87295714D01*
X138690952Y-87295714D02*
X138643333Y-87248095D01*
X138595714Y-87152857D01*
X138595714Y-87010000D01*
X138643333Y-86914761D01*
X138738571Y-86867142D01*
X139262380Y-86867142D01*
X139803142Y-115069857D02*
X139850761Y-115117476D01*
X139898380Y-115260333D01*
X139898380Y-115355571D01*
X139850761Y-115498428D01*
X139755523Y-115593666D01*
X139660285Y-115641285D01*
X139469809Y-115688904D01*
X139326952Y-115688904D01*
X139136476Y-115641285D01*
X139041238Y-115593666D01*
X138946000Y-115498428D01*
X138898380Y-115355571D01*
X138898380Y-115260333D01*
X138946000Y-115117476D01*
X138993619Y-115069857D01*
X139898380Y-114117476D02*
X139898380Y-114688904D01*
X139898380Y-114403190D02*
X138898380Y-114403190D01*
X139041238Y-114498428D01*
X139136476Y-114593666D01*
X139184095Y-114688904D01*
X138898380Y-113784142D02*
X138898380Y-113165095D01*
X139279333Y-113498428D01*
X139279333Y-113355571D01*
X139326952Y-113260333D01*
X139374571Y-113212714D01*
X139469809Y-113165095D01*
X139707904Y-113165095D01*
X139803142Y-113212714D01*
X139850761Y-113260333D01*
X139898380Y-113355571D01*
X139898380Y-113641285D01*
X139850761Y-113736523D01*
X139803142Y-113784142D01*
X143073380Y-115546047D02*
X143073380Y-116117476D01*
X143073380Y-115831761D02*
X142073380Y-115831761D01*
X142216238Y-115927000D01*
X142311476Y-116022238D01*
X142359095Y-116117476D01*
X142073380Y-114927000D02*
X142073380Y-114831761D01*
X142121000Y-114736523D01*
X142168619Y-114688904D01*
X142263857Y-114641285D01*
X142454333Y-114593666D01*
X142692428Y-114593666D01*
X142882904Y-114641285D01*
X142978142Y-114688904D01*
X143025761Y-114736523D01*
X143073380Y-114831761D01*
X143073380Y-114927000D01*
X143025761Y-115022238D01*
X142978142Y-115069857D01*
X142882904Y-115117476D01*
X142692428Y-115165095D01*
X142454333Y-115165095D01*
X142263857Y-115117476D01*
X142168619Y-115069857D01*
X142121000Y-115022238D01*
X142073380Y-114927000D01*
X142073380Y-113974619D02*
X142073380Y-113879380D01*
X142121000Y-113784142D01*
X142168619Y-113736523D01*
X142263857Y-113688904D01*
X142454333Y-113641285D01*
X142692428Y-113641285D01*
X142882904Y-113688904D01*
X142978142Y-113736523D01*
X143025761Y-113784142D01*
X143073380Y-113879380D01*
X143073380Y-113974619D01*
X143025761Y-114069857D01*
X142978142Y-114117476D01*
X142882904Y-114165095D01*
X142692428Y-114212714D01*
X142454333Y-114212714D01*
X142263857Y-114165095D01*
X142168619Y-114117476D01*
X142121000Y-114069857D01*
X142073380Y-113974619D01*
X142406714Y-113212714D02*
X143073380Y-113212714D01*
X142501952Y-113212714D02*
X142454333Y-113165095D01*
X142406714Y-113069857D01*
X142406714Y-112927000D01*
X142454333Y-112831761D01*
X142549571Y-112784142D01*
X143073380Y-112784142D01*
X131294142Y-115060857D02*
X131341761Y-115108476D01*
X131389380Y-115251333D01*
X131389380Y-115346571D01*
X131341761Y-115489428D01*
X131246523Y-115584666D01*
X131151285Y-115632285D01*
X130960809Y-115679904D01*
X130817952Y-115679904D01*
X130627476Y-115632285D01*
X130532238Y-115584666D01*
X130437000Y-115489428D01*
X130389380Y-115346571D01*
X130389380Y-115251333D01*
X130437000Y-115108476D01*
X130484619Y-115060857D01*
X131389380Y-114108476D02*
X131389380Y-114679904D01*
X131389380Y-114394190D02*
X130389380Y-114394190D01*
X130532238Y-114489428D01*
X130627476Y-114584666D01*
X130675095Y-114679904D01*
X130484619Y-113727523D02*
X130437000Y-113679904D01*
X130389380Y-113584666D01*
X130389380Y-113346571D01*
X130437000Y-113251333D01*
X130484619Y-113203714D01*
X130579857Y-113156095D01*
X130675095Y-113156095D01*
X130817952Y-113203714D01*
X131389380Y-113775142D01*
X131389380Y-113156095D01*
X134818380Y-115537047D02*
X134818380Y-116108476D01*
X134818380Y-115822761D02*
X133818380Y-115822761D01*
X133961238Y-115918000D01*
X134056476Y-116013238D01*
X134104095Y-116108476D01*
X133818380Y-114918000D02*
X133818380Y-114822761D01*
X133866000Y-114727523D01*
X133913619Y-114679904D01*
X134008857Y-114632285D01*
X134199333Y-114584666D01*
X134437428Y-114584666D01*
X134627904Y-114632285D01*
X134723142Y-114679904D01*
X134770761Y-114727523D01*
X134818380Y-114822761D01*
X134818380Y-114918000D01*
X134770761Y-115013238D01*
X134723142Y-115060857D01*
X134627904Y-115108476D01*
X134437428Y-115156095D01*
X134199333Y-115156095D01*
X134008857Y-115108476D01*
X133913619Y-115060857D01*
X133866000Y-115013238D01*
X133818380Y-114918000D01*
X133818380Y-113965619D02*
X133818380Y-113870380D01*
X133866000Y-113775142D01*
X133913619Y-113727523D01*
X134008857Y-113679904D01*
X134199333Y-113632285D01*
X134437428Y-113632285D01*
X134627904Y-113679904D01*
X134723142Y-113727523D01*
X134770761Y-113775142D01*
X134818380Y-113870380D01*
X134818380Y-113965619D01*
X134770761Y-114060857D01*
X134723142Y-114108476D01*
X134627904Y-114156095D01*
X134437428Y-114203714D01*
X134199333Y-114203714D01*
X134008857Y-114156095D01*
X133913619Y-114108476D01*
X133866000Y-114060857D01*
X133818380Y-113965619D01*
X134151714Y-113203714D02*
X134818380Y-113203714D01*
X134246952Y-113203714D02*
X134199333Y-113156095D01*
X134151714Y-113060857D01*
X134151714Y-112918000D01*
X134199333Y-112822761D01*
X134294571Y-112775142D01*
X134818380Y-112775142D01*
X144122142Y-89152857D02*
X144169761Y-89200476D01*
X144217380Y-89343333D01*
X144217380Y-89438571D01*
X144169761Y-89581428D01*
X144074523Y-89676666D01*
X143979285Y-89724285D01*
X143788809Y-89771904D01*
X143645952Y-89771904D01*
X143455476Y-89724285D01*
X143360238Y-89676666D01*
X143265000Y-89581428D01*
X143217380Y-89438571D01*
X143217380Y-89343333D01*
X143265000Y-89200476D01*
X143312619Y-89152857D01*
X144217380Y-88200476D02*
X144217380Y-88771904D01*
X144217380Y-88486190D02*
X143217380Y-88486190D01*
X143360238Y-88581428D01*
X143455476Y-88676666D01*
X143503095Y-88771904D01*
X144217380Y-87248095D02*
X144217380Y-87819523D01*
X144217380Y-87533809D02*
X143217380Y-87533809D01*
X143360238Y-87629047D01*
X143455476Y-87724285D01*
X143503095Y-87819523D01*
X147517380Y-89629047D02*
X147517380Y-90200476D01*
X147517380Y-89914761D02*
X146517380Y-89914761D01*
X146660238Y-90010000D01*
X146755476Y-90105238D01*
X146803095Y-90200476D01*
X146517380Y-89010000D02*
X146517380Y-88914761D01*
X146565000Y-88819523D01*
X146612619Y-88771904D01*
X146707857Y-88724285D01*
X146898333Y-88676666D01*
X147136428Y-88676666D01*
X147326904Y-88724285D01*
X147422142Y-88771904D01*
X147469761Y-88819523D01*
X147517380Y-88914761D01*
X147517380Y-89010000D01*
X147469761Y-89105238D01*
X147422142Y-89152857D01*
X147326904Y-89200476D01*
X147136428Y-89248095D01*
X146898333Y-89248095D01*
X146707857Y-89200476D01*
X146612619Y-89152857D01*
X146565000Y-89105238D01*
X146517380Y-89010000D01*
X146517380Y-88057619D02*
X146517380Y-87962380D01*
X146565000Y-87867142D01*
X146612619Y-87819523D01*
X146707857Y-87771904D01*
X146898333Y-87724285D01*
X147136428Y-87724285D01*
X147326904Y-87771904D01*
X147422142Y-87819523D01*
X147469761Y-87867142D01*
X147517380Y-87962380D01*
X147517380Y-88057619D01*
X147469761Y-88152857D01*
X147422142Y-88200476D01*
X147326904Y-88248095D01*
X147136428Y-88295714D01*
X146898333Y-88295714D01*
X146707857Y-88248095D01*
X146612619Y-88200476D01*
X146565000Y-88152857D01*
X146517380Y-88057619D01*
X146850714Y-87295714D02*
X147517380Y-87295714D01*
X146945952Y-87295714D02*
X146898333Y-87248095D01*
X146850714Y-87152857D01*
X146850714Y-87010000D01*
X146898333Y-86914761D01*
X146993571Y-86867142D01*
X147517380Y-86867142D01*
X122157142Y-101702142D02*
X122109523Y-101749761D01*
X121966666Y-101797380D01*
X121871428Y-101797380D01*
X121728571Y-101749761D01*
X121633333Y-101654523D01*
X121585714Y-101559285D01*
X121538095Y-101368809D01*
X121538095Y-101225952D01*
X121585714Y-101035476D01*
X121633333Y-100940238D01*
X121728571Y-100845000D01*
X121871428Y-100797380D01*
X121966666Y-100797380D01*
X122109523Y-100845000D01*
X122157142Y-100892619D01*
X123109523Y-101797380D02*
X122538095Y-101797380D01*
X122823809Y-101797380D02*
X122823809Y-100797380D01*
X122728571Y-100940238D01*
X122633333Y-101035476D01*
X122538095Y-101083095D01*
X123728571Y-100797380D02*
X123823809Y-100797380D01*
X123919047Y-100845000D01*
X123966666Y-100892619D01*
X124014285Y-100987857D01*
X124061904Y-101178333D01*
X124061904Y-101416428D01*
X124014285Y-101606904D01*
X123966666Y-101702142D01*
X123919047Y-101749761D01*
X123823809Y-101797380D01*
X123728571Y-101797380D01*
X123633333Y-101749761D01*
X123585714Y-101702142D01*
X123538095Y-101606904D01*
X123490476Y-101416428D01*
X123490476Y-101178333D01*
X123538095Y-100987857D01*
X123585714Y-100892619D01*
X123633333Y-100845000D01*
X123728571Y-100797380D01*
X121680952Y-98497380D02*
X121109523Y-98497380D01*
X121395238Y-98497380D02*
X121395238Y-97497380D01*
X121300000Y-97640238D01*
X121204761Y-97735476D01*
X121109523Y-97783095D01*
X122300000Y-97497380D02*
X122395238Y-97497380D01*
X122490476Y-97545000D01*
X122538095Y-97592619D01*
X122585714Y-97687857D01*
X122633333Y-97878333D01*
X122633333Y-98116428D01*
X122585714Y-98306904D01*
X122538095Y-98402142D01*
X122490476Y-98449761D01*
X122395238Y-98497380D01*
X122300000Y-98497380D01*
X122204761Y-98449761D01*
X122157142Y-98402142D01*
X122109523Y-98306904D01*
X122061904Y-98116428D01*
X122061904Y-97878333D01*
X122109523Y-97687857D01*
X122157142Y-97592619D01*
X122204761Y-97545000D01*
X122300000Y-97497380D01*
X123252380Y-97497380D02*
X123347619Y-97497380D01*
X123442857Y-97545000D01*
X123490476Y-97592619D01*
X123538095Y-97687857D01*
X123585714Y-97878333D01*
X123585714Y-98116428D01*
X123538095Y-98306904D01*
X123490476Y-98402142D01*
X123442857Y-98449761D01*
X123347619Y-98497380D01*
X123252380Y-98497380D01*
X123157142Y-98449761D01*
X123109523Y-98402142D01*
X123061904Y-98306904D01*
X123014285Y-98116428D01*
X123014285Y-97878333D01*
X123061904Y-97687857D01*
X123109523Y-97592619D01*
X123157142Y-97545000D01*
X123252380Y-97497380D01*
X124014285Y-97830714D02*
X124014285Y-98497380D01*
X124014285Y-97925952D02*
X124061904Y-97878333D01*
X124157142Y-97830714D01*
X124300000Y-97830714D01*
X124395238Y-97878333D01*
X124442857Y-97973571D01*
X124442857Y-98497380D01*
X154392333Y-80621142D02*
X154344714Y-80668761D01*
X154201857Y-80716380D01*
X154106619Y-80716380D01*
X153963761Y-80668761D01*
X153868523Y-80573523D01*
X153820904Y-80478285D01*
X153773285Y-80287809D01*
X153773285Y-80144952D01*
X153820904Y-79954476D01*
X153868523Y-79859238D01*
X153963761Y-79764000D01*
X154106619Y-79716380D01*
X154201857Y-79716380D01*
X154344714Y-79764000D01*
X154392333Y-79811619D01*
X154868523Y-80716380D02*
X155059000Y-80716380D01*
X155154238Y-80668761D01*
X155201857Y-80621142D01*
X155297095Y-80478285D01*
X155344714Y-80287809D01*
X155344714Y-79906857D01*
X155297095Y-79811619D01*
X155249476Y-79764000D01*
X155154238Y-79716380D01*
X154963761Y-79716380D01*
X154868523Y-79764000D01*
X154820904Y-79811619D01*
X154773285Y-79906857D01*
X154773285Y-80144952D01*
X154820904Y-80240190D01*
X154868523Y-80287809D01*
X154963761Y-80335428D01*
X155154238Y-80335428D01*
X155249476Y-80287809D01*
X155297095Y-80240190D01*
X155344714Y-80144952D01*
X153439952Y-77161380D02*
X152868523Y-77161380D01*
X153154238Y-77161380D02*
X153154238Y-76161380D01*
X153059000Y-76304238D01*
X152963761Y-76399476D01*
X152868523Y-76447095D01*
X154059000Y-76161380D02*
X154154238Y-76161380D01*
X154249476Y-76209000D01*
X154297095Y-76256619D01*
X154344714Y-76351857D01*
X154392333Y-76542333D01*
X154392333Y-76780428D01*
X154344714Y-76970904D01*
X154297095Y-77066142D01*
X154249476Y-77113761D01*
X154154238Y-77161380D01*
X154059000Y-77161380D01*
X153963761Y-77113761D01*
X153916142Y-77066142D01*
X153868523Y-76970904D01*
X153820904Y-76780428D01*
X153820904Y-76542333D01*
X153868523Y-76351857D01*
X153916142Y-76256619D01*
X153963761Y-76209000D01*
X154059000Y-76161380D01*
X155011380Y-76161380D02*
X155106619Y-76161380D01*
X155201857Y-76209000D01*
X155249476Y-76256619D01*
X155297095Y-76351857D01*
X155344714Y-76542333D01*
X155344714Y-76780428D01*
X155297095Y-76970904D01*
X155249476Y-77066142D01*
X155201857Y-77113761D01*
X155106619Y-77161380D01*
X155011380Y-77161380D01*
X154916142Y-77113761D01*
X154868523Y-77066142D01*
X154820904Y-76970904D01*
X154773285Y-76780428D01*
X154773285Y-76542333D01*
X154820904Y-76351857D01*
X154868523Y-76256619D01*
X154916142Y-76209000D01*
X155011380Y-76161380D01*
X155773285Y-76494714D02*
X155773285Y-77161380D01*
X155773285Y-76589952D02*
X155820904Y-76542333D01*
X155916142Y-76494714D01*
X156059000Y-76494714D01*
X156154238Y-76542333D01*
X156201857Y-76637571D01*
X156201857Y-77161380D01*
X124056142Y-73073666D02*
X124103761Y-73121285D01*
X124151380Y-73264142D01*
X124151380Y-73359380D01*
X124103761Y-73502238D01*
X124008523Y-73597476D01*
X123913285Y-73645095D01*
X123722809Y-73692714D01*
X123579952Y-73692714D01*
X123389476Y-73645095D01*
X123294238Y-73597476D01*
X123199000Y-73502238D01*
X123151380Y-73359380D01*
X123151380Y-73264142D01*
X123199000Y-73121285D01*
X123246619Y-73073666D01*
X123579952Y-72502238D02*
X123532333Y-72597476D01*
X123484714Y-72645095D01*
X123389476Y-72692714D01*
X123341857Y-72692714D01*
X123246619Y-72645095D01*
X123199000Y-72597476D01*
X123151380Y-72502238D01*
X123151380Y-72311761D01*
X123199000Y-72216523D01*
X123246619Y-72168904D01*
X123341857Y-72121285D01*
X123389476Y-72121285D01*
X123484714Y-72168904D01*
X123532333Y-72216523D01*
X123579952Y-72311761D01*
X123579952Y-72502238D01*
X123627571Y-72597476D01*
X123675190Y-72645095D01*
X123770428Y-72692714D01*
X123960904Y-72692714D01*
X124056142Y-72645095D01*
X124103761Y-72597476D01*
X124151380Y-72502238D01*
X124151380Y-72311761D01*
X124103761Y-72216523D01*
X124056142Y-72168904D01*
X123960904Y-72121285D01*
X123770428Y-72121285D01*
X123675190Y-72168904D01*
X123627571Y-72216523D01*
X123579952Y-72311761D01*
X124229952Y-70937380D02*
X123658523Y-70937380D01*
X123944238Y-70937380D02*
X123944238Y-69937380D01*
X123849000Y-70080238D01*
X123753761Y-70175476D01*
X123658523Y-70223095D01*
X124849000Y-69937380D02*
X124944238Y-69937380D01*
X125039476Y-69985000D01*
X125087095Y-70032619D01*
X125134714Y-70127857D01*
X125182333Y-70318333D01*
X125182333Y-70556428D01*
X125134714Y-70746904D01*
X125087095Y-70842142D01*
X125039476Y-70889761D01*
X124944238Y-70937380D01*
X124849000Y-70937380D01*
X124753761Y-70889761D01*
X124706142Y-70842142D01*
X124658523Y-70746904D01*
X124610904Y-70556428D01*
X124610904Y-70318333D01*
X124658523Y-70127857D01*
X124706142Y-70032619D01*
X124753761Y-69985000D01*
X124849000Y-69937380D01*
X125801380Y-69937380D02*
X125896619Y-69937380D01*
X125991857Y-69985000D01*
X126039476Y-70032619D01*
X126087095Y-70127857D01*
X126134714Y-70318333D01*
X126134714Y-70556428D01*
X126087095Y-70746904D01*
X126039476Y-70842142D01*
X125991857Y-70889761D01*
X125896619Y-70937380D01*
X125801380Y-70937380D01*
X125706142Y-70889761D01*
X125658523Y-70842142D01*
X125610904Y-70746904D01*
X125563285Y-70556428D01*
X125563285Y-70318333D01*
X125610904Y-70127857D01*
X125658523Y-70032619D01*
X125706142Y-69985000D01*
X125801380Y-69937380D01*
X126563285Y-70270714D02*
X126563285Y-70937380D01*
X126563285Y-70365952D02*
X126610904Y-70318333D01*
X126706142Y-70270714D01*
X126849000Y-70270714D01*
X126944238Y-70318333D01*
X126991857Y-70413571D01*
X126991857Y-70937380D01*
X185514142Y-103925666D02*
X185561761Y-103973285D01*
X185609380Y-104116142D01*
X185609380Y-104211380D01*
X185561761Y-104354238D01*
X185466523Y-104449476D01*
X185371285Y-104497095D01*
X185180809Y-104544714D01*
X185037952Y-104544714D01*
X184847476Y-104497095D01*
X184752238Y-104449476D01*
X184657000Y-104354238D01*
X184609380Y-104211380D01*
X184609380Y-104116142D01*
X184657000Y-103973285D01*
X184704619Y-103925666D01*
X184609380Y-103592333D02*
X184609380Y-102925666D01*
X185609380Y-103354238D01*
X186752380Y-105767047D02*
X186752380Y-106338476D01*
X186752380Y-106052761D02*
X185752380Y-106052761D01*
X185895238Y-106148000D01*
X185990476Y-106243238D01*
X186038095Y-106338476D01*
X185752380Y-105148000D02*
X185752380Y-105052761D01*
X185800000Y-104957523D01*
X185847619Y-104909904D01*
X185942857Y-104862285D01*
X186133333Y-104814666D01*
X186371428Y-104814666D01*
X186561904Y-104862285D01*
X186657142Y-104909904D01*
X186704761Y-104957523D01*
X186752380Y-105052761D01*
X186752380Y-105148000D01*
X186704761Y-105243238D01*
X186657142Y-105290857D01*
X186561904Y-105338476D01*
X186371428Y-105386095D01*
X186133333Y-105386095D01*
X185942857Y-105338476D01*
X185847619Y-105290857D01*
X185800000Y-105243238D01*
X185752380Y-105148000D01*
X185752380Y-104195619D02*
X185752380Y-104100380D01*
X185800000Y-104005142D01*
X185847619Y-103957523D01*
X185942857Y-103909904D01*
X186133333Y-103862285D01*
X186371428Y-103862285D01*
X186561904Y-103909904D01*
X186657142Y-103957523D01*
X186704761Y-104005142D01*
X186752380Y-104100380D01*
X186752380Y-104195619D01*
X186704761Y-104290857D01*
X186657142Y-104338476D01*
X186561904Y-104386095D01*
X186371428Y-104433714D01*
X186133333Y-104433714D01*
X185942857Y-104386095D01*
X185847619Y-104338476D01*
X185800000Y-104290857D01*
X185752380Y-104195619D01*
X186085714Y-103433714D02*
X186752380Y-103433714D01*
X186180952Y-103433714D02*
X186133333Y-103386095D01*
X186085714Y-103290857D01*
X186085714Y-103148000D01*
X186133333Y-103052761D01*
X186228571Y-103005142D01*
X186752380Y-103005142D01*
X200477380Y-98147095D02*
X199477380Y-98147095D01*
X199477380Y-97909000D01*
X199525000Y-97766142D01*
X199620238Y-97670904D01*
X199715476Y-97623285D01*
X199905952Y-97575666D01*
X200048809Y-97575666D01*
X200239285Y-97623285D01*
X200334523Y-97670904D01*
X200429761Y-97766142D01*
X200477380Y-97909000D01*
X200477380Y-98147095D01*
X200477380Y-96623285D02*
X200477380Y-97194714D01*
X200477380Y-96909000D02*
X199477380Y-96909000D01*
X199620238Y-97004238D01*
X199715476Y-97099476D01*
X199763095Y-97194714D01*
X203890571Y-99194714D02*
X203938190Y-99051857D01*
X203985809Y-99004238D01*
X204081047Y-98956619D01*
X204223904Y-98956619D01*
X204319142Y-99004238D01*
X204366761Y-99051857D01*
X204414380Y-99147095D01*
X204414380Y-99528047D01*
X203414380Y-99528047D01*
X203414380Y-99194714D01*
X203462000Y-99099476D01*
X203509619Y-99051857D01*
X203604857Y-99004238D01*
X203700095Y-99004238D01*
X203795333Y-99051857D01*
X203842952Y-99099476D01*
X203890571Y-99194714D01*
X203890571Y-99528047D01*
X204128666Y-98575666D02*
X204128666Y-98099476D01*
X204414380Y-98670904D02*
X203414380Y-98337571D01*
X204414380Y-98004238D01*
X204366761Y-97718523D02*
X204414380Y-97575666D01*
X204414380Y-97337571D01*
X204366761Y-97242333D01*
X204319142Y-97194714D01*
X204223904Y-97147095D01*
X204128666Y-97147095D01*
X204033428Y-97194714D01*
X203985809Y-97242333D01*
X203938190Y-97337571D01*
X203890571Y-97528047D01*
X203842952Y-97623285D01*
X203795333Y-97670904D01*
X203700095Y-97718523D01*
X203604857Y-97718523D01*
X203509619Y-97670904D01*
X203462000Y-97623285D01*
X203414380Y-97528047D01*
X203414380Y-97289952D01*
X203462000Y-97147095D01*
X204414380Y-96194714D02*
X204414380Y-96766142D01*
X204414380Y-96480428D02*
X203414380Y-96480428D01*
X203557238Y-96575666D01*
X203652476Y-96670904D01*
X203700095Y-96766142D01*
X203414380Y-95337571D02*
X203414380Y-95528047D01*
X203462000Y-95623285D01*
X203509619Y-95670904D01*
X203652476Y-95766142D01*
X203842952Y-95813761D01*
X204223904Y-95813761D01*
X204319142Y-95766142D01*
X204366761Y-95718523D01*
X204414380Y-95623285D01*
X204414380Y-95432809D01*
X204366761Y-95337571D01*
X204319142Y-95289952D01*
X204223904Y-95242333D01*
X203985809Y-95242333D01*
X203890571Y-95289952D01*
X203842952Y-95337571D01*
X203795333Y-95432809D01*
X203795333Y-95623285D01*
X203842952Y-95718523D01*
X203890571Y-95766142D01*
X203985809Y-95813761D01*
X193548095Y-88562380D02*
X193548095Y-89371904D01*
X193595714Y-89467142D01*
X193643333Y-89514761D01*
X193738571Y-89562380D01*
X193929047Y-89562380D01*
X194024285Y-89514761D01*
X194071904Y-89467142D01*
X194119523Y-89371904D01*
X194119523Y-88562380D01*
X195071904Y-88562380D02*
X194595714Y-88562380D01*
X194548095Y-89038571D01*
X194595714Y-88990952D01*
X194690952Y-88943333D01*
X194929047Y-88943333D01*
X195024285Y-88990952D01*
X195071904Y-89038571D01*
X195119523Y-89133809D01*
X195119523Y-89371904D01*
X195071904Y-89467142D01*
X195024285Y-89514761D01*
X194929047Y-89562380D01*
X194690952Y-89562380D01*
X194595714Y-89514761D01*
X194548095Y-89467142D01*
X194762380Y-104020476D02*
X193762380Y-104020476D01*
X193762380Y-103782380D01*
X193810000Y-103639523D01*
X193905238Y-103544285D01*
X194000476Y-103496666D01*
X194190952Y-103449047D01*
X194333809Y-103449047D01*
X194524285Y-103496666D01*
X194619523Y-103544285D01*
X194714761Y-103639523D01*
X194762380Y-103782380D01*
X194762380Y-104020476D01*
X194762380Y-103020476D02*
X193762380Y-103020476D01*
X193762380Y-102639523D01*
X193810000Y-102544285D01*
X193857619Y-102496666D01*
X193952857Y-102449047D01*
X194095714Y-102449047D01*
X194190952Y-102496666D01*
X194238571Y-102544285D01*
X194286190Y-102639523D01*
X194286190Y-103020476D01*
X194190952Y-101877619D02*
X194143333Y-101972857D01*
X194095714Y-102020476D01*
X194000476Y-102068095D01*
X193952857Y-102068095D01*
X193857619Y-102020476D01*
X193810000Y-101972857D01*
X193762380Y-101877619D01*
X193762380Y-101687142D01*
X193810000Y-101591904D01*
X193857619Y-101544285D01*
X193952857Y-101496666D01*
X194000476Y-101496666D01*
X194095714Y-101544285D01*
X194143333Y-101591904D01*
X194190952Y-101687142D01*
X194190952Y-101877619D01*
X194238571Y-101972857D01*
X194286190Y-102020476D01*
X194381428Y-102068095D01*
X194571904Y-102068095D01*
X194667142Y-102020476D01*
X194714761Y-101972857D01*
X194762380Y-101877619D01*
X194762380Y-101687142D01*
X194714761Y-101591904D01*
X194667142Y-101544285D01*
X194571904Y-101496666D01*
X194381428Y-101496666D01*
X194286190Y-101544285D01*
X194238571Y-101591904D01*
X194190952Y-101687142D01*
X193762380Y-101163333D02*
X193762380Y-100544285D01*
X194143333Y-100877619D01*
X194143333Y-100734761D01*
X194190952Y-100639523D01*
X194238571Y-100591904D01*
X194333809Y-100544285D01*
X194571904Y-100544285D01*
X194667142Y-100591904D01*
X194714761Y-100639523D01*
X194762380Y-100734761D01*
X194762380Y-101020476D01*
X194714761Y-101115714D01*
X194667142Y-101163333D01*
X194762380Y-100068095D02*
X194762380Y-99877619D01*
X194714761Y-99782380D01*
X194667142Y-99734761D01*
X194524285Y-99639523D01*
X194333809Y-99591904D01*
X193952857Y-99591904D01*
X193857619Y-99639523D01*
X193810000Y-99687142D01*
X193762380Y-99782380D01*
X193762380Y-99972857D01*
X193810000Y-100068095D01*
X193857619Y-100115714D01*
X193952857Y-100163333D01*
X194190952Y-100163333D01*
X194286190Y-100115714D01*
X194333809Y-100068095D01*
X194381428Y-99972857D01*
X194381428Y-99782380D01*
X194333809Y-99687142D01*
X194286190Y-99639523D01*
X194190952Y-99591904D01*
X193857619Y-99210952D02*
X193810000Y-99163333D01*
X193762380Y-99068095D01*
X193762380Y-98830000D01*
X193810000Y-98734761D01*
X193857619Y-98687142D01*
X193952857Y-98639523D01*
X194048095Y-98639523D01*
X194190952Y-98687142D01*
X194762380Y-99258571D01*
X194762380Y-98639523D01*
X194667142Y-97639523D02*
X194714761Y-97687142D01*
X194762380Y-97830000D01*
X194762380Y-97925238D01*
X194714761Y-98068095D01*
X194619523Y-98163333D01*
X194524285Y-98210952D01*
X194333809Y-98258571D01*
X194190952Y-98258571D01*
X194000476Y-98210952D01*
X193905238Y-98163333D01*
X193810000Y-98068095D01*
X193762380Y-97925238D01*
X193762380Y-97830000D01*
X193810000Y-97687142D01*
X193857619Y-97639523D01*
X194762380Y-97210952D02*
X193762380Y-97210952D01*
X194762380Y-96639523D01*
X193762380Y-96639523D01*
X200732380Y-103267857D02*
X200256190Y-103601190D01*
X200732380Y-103839285D02*
X199732380Y-103839285D01*
X199732380Y-103458333D01*
X199780000Y-103363095D01*
X199827619Y-103315476D01*
X199922857Y-103267857D01*
X200065714Y-103267857D01*
X200160952Y-103315476D01*
X200208571Y-103363095D01*
X200256190Y-103458333D01*
X200256190Y-103839285D01*
X199827619Y-102886904D02*
X199780000Y-102839285D01*
X199732380Y-102744047D01*
X199732380Y-102505952D01*
X199780000Y-102410714D01*
X199827619Y-102363095D01*
X199922857Y-102315476D01*
X200018095Y-102315476D01*
X200160952Y-102363095D01*
X200732380Y-102934523D01*
X200732380Y-102315476D01*
X200732380Y-101363095D02*
X200732380Y-101934523D01*
X200732380Y-101648809D02*
X199732380Y-101648809D01*
X199875238Y-101744047D01*
X199970476Y-101839285D01*
X200018095Y-101934523D01*
X204032380Y-104512857D02*
X204032380Y-105084285D01*
X204032380Y-104798571D02*
X203032380Y-104798571D01*
X203175238Y-104893809D01*
X203270476Y-104989047D01*
X203318095Y-105084285D01*
X204032380Y-104084285D02*
X203032380Y-104084285D01*
X204032380Y-103512857D02*
X203460952Y-103941428D01*
X203032380Y-103512857D02*
X203603809Y-104084285D01*
X204032380Y-101798571D02*
X204032380Y-102370000D01*
X204032380Y-102084285D02*
X203032380Y-102084285D01*
X203175238Y-102179523D01*
X203270476Y-102274761D01*
X203318095Y-102370000D01*
X204032380Y-101417619D02*
X203032380Y-100655714D01*
X203032380Y-101274761D02*
X203080000Y-101179523D01*
X203175238Y-101131904D01*
X203270476Y-101179523D01*
X203318095Y-101274761D01*
X203270476Y-101370000D01*
X203175238Y-101417619D01*
X203080000Y-101370000D01*
X203032380Y-101274761D01*
X203984761Y-100703333D02*
X203889523Y-100655714D01*
X203794285Y-100703333D01*
X203746666Y-100798571D01*
X203794285Y-100893809D01*
X203889523Y-100941428D01*
X203984761Y-100893809D01*
X204032380Y-100798571D01*
X203984761Y-100703333D01*
X166608095Y-108037380D02*
X166608095Y-108846904D01*
X166655714Y-108942142D01*
X166703333Y-108989761D01*
X166798571Y-109037380D01*
X166989047Y-109037380D01*
X167084285Y-108989761D01*
X167131904Y-108942142D01*
X167179523Y-108846904D01*
X167179523Y-108037380D01*
X168084285Y-108370714D02*
X168084285Y-109037380D01*
X167846190Y-107989761D02*
X167608095Y-108704047D01*
X168227142Y-108704047D01*
X169489380Y-104385714D02*
X168489380Y-104385714D01*
X169489380Y-103433333D02*
X169489380Y-103909523D01*
X168489380Y-103909523D01*
X169489380Y-102576190D02*
X169489380Y-103147619D01*
X169489380Y-102861904D02*
X168489380Y-102861904D01*
X168632238Y-102957142D01*
X168727476Y-103052380D01*
X168775095Y-103147619D01*
X168584619Y-102195238D02*
X168537000Y-102147619D01*
X168489380Y-102052380D01*
X168489380Y-101814285D01*
X168537000Y-101719047D01*
X168584619Y-101671428D01*
X168679857Y-101623809D01*
X168775095Y-101623809D01*
X168917952Y-101671428D01*
X169489380Y-102242857D01*
X169489380Y-101623809D01*
X168489380Y-101004761D02*
X168489380Y-100909523D01*
X168537000Y-100814285D01*
X168584619Y-100766666D01*
X168679857Y-100719047D01*
X168870333Y-100671428D01*
X169108428Y-100671428D01*
X169298904Y-100719047D01*
X169394142Y-100766666D01*
X169441761Y-100814285D01*
X169489380Y-100909523D01*
X169489380Y-101004761D01*
X169441761Y-101100000D01*
X169394142Y-101147619D01*
X169298904Y-101195238D01*
X169108428Y-101242857D01*
X168870333Y-101242857D01*
X168679857Y-101195238D01*
X168584619Y-101147619D01*
X168537000Y-101100000D01*
X168489380Y-101004761D01*
X169489380Y-100195238D02*
X169489380Y-100004761D01*
X169441761Y-99909523D01*
X169394142Y-99861904D01*
X169251285Y-99766666D01*
X169060809Y-99719047D01*
X168679857Y-99719047D01*
X168584619Y-99766666D01*
X168537000Y-99814285D01*
X168489380Y-99909523D01*
X168489380Y-100100000D01*
X168537000Y-100195238D01*
X168584619Y-100242857D01*
X168679857Y-100290476D01*
X168917952Y-100290476D01*
X169013190Y-100242857D01*
X169060809Y-100195238D01*
X169108428Y-100100000D01*
X169108428Y-99909523D01*
X169060809Y-99814285D01*
X169013190Y-99766666D01*
X168917952Y-99719047D01*
X169441761Y-99338095D02*
X169489380Y-99195238D01*
X169489380Y-98957142D01*
X169441761Y-98861904D01*
X169394142Y-98814285D01*
X169298904Y-98766666D01*
X169203666Y-98766666D01*
X169108428Y-98814285D01*
X169060809Y-98861904D01*
X169013190Y-98957142D01*
X168965571Y-99147619D01*
X168917952Y-99242857D01*
X168870333Y-99290476D01*
X168775095Y-99338095D01*
X168679857Y-99338095D01*
X168584619Y-99290476D01*
X168537000Y-99242857D01*
X168489380Y-99147619D01*
X168489380Y-98909523D01*
X168537000Y-98766666D01*
X189682380Y-82589666D02*
X189206190Y-82923000D01*
X189682380Y-83161095D02*
X188682380Y-83161095D01*
X188682380Y-82780142D01*
X188730000Y-82684904D01*
X188777619Y-82637285D01*
X188872857Y-82589666D01*
X189015714Y-82589666D01*
X189110952Y-82637285D01*
X189158571Y-82684904D01*
X189206190Y-82780142D01*
X189206190Y-83161095D01*
X189015714Y-81732523D02*
X189682380Y-81732523D01*
X188634761Y-81970619D02*
X189349047Y-82208714D01*
X189349047Y-81589666D01*
X188777619Y-77565095D02*
X188730000Y-77517476D01*
X188682380Y-77422238D01*
X188682380Y-77184142D01*
X188730000Y-77088904D01*
X188777619Y-77041285D01*
X188872857Y-76993666D01*
X188968095Y-76993666D01*
X189110952Y-77041285D01*
X189682380Y-77612714D01*
X189682380Y-76993666D01*
X188682380Y-76374619D02*
X188682380Y-76279380D01*
X188730000Y-76184142D01*
X188777619Y-76136523D01*
X188872857Y-76088904D01*
X189063333Y-76041285D01*
X189301428Y-76041285D01*
X189491904Y-76088904D01*
X189587142Y-76136523D01*
X189634761Y-76184142D01*
X189682380Y-76279380D01*
X189682380Y-76374619D01*
X189634761Y-76469857D01*
X189587142Y-76517476D01*
X189491904Y-76565095D01*
X189301428Y-76612714D01*
X189063333Y-76612714D01*
X188872857Y-76565095D01*
X188777619Y-76517476D01*
X188730000Y-76469857D01*
X188682380Y-76374619D01*
X188682380Y-75422238D02*
X188682380Y-75327000D01*
X188730000Y-75231761D01*
X188777619Y-75184142D01*
X188872857Y-75136523D01*
X189063333Y-75088904D01*
X189301428Y-75088904D01*
X189491904Y-75136523D01*
X189587142Y-75184142D01*
X189634761Y-75231761D01*
X189682380Y-75327000D01*
X189682380Y-75422238D01*
X189634761Y-75517476D01*
X189587142Y-75565095D01*
X189491904Y-75612714D01*
X189301428Y-75660333D01*
X189063333Y-75660333D01*
X188872857Y-75612714D01*
X188777619Y-75565095D01*
X188730000Y-75517476D01*
X188682380Y-75422238D01*
X203033333Y-87955380D02*
X202700000Y-87479190D01*
X202461904Y-87955380D02*
X202461904Y-86955380D01*
X202842857Y-86955380D01*
X202938095Y-87003000D01*
X202985714Y-87050619D01*
X203033333Y-87145857D01*
X203033333Y-87288714D01*
X202985714Y-87383952D01*
X202938095Y-87431571D01*
X202842857Y-87479190D01*
X202461904Y-87479190D01*
X203366666Y-86955380D02*
X203985714Y-86955380D01*
X203652380Y-87336333D01*
X203795238Y-87336333D01*
X203890476Y-87383952D01*
X203938095Y-87431571D01*
X203985714Y-87526809D01*
X203985714Y-87764904D01*
X203938095Y-87860142D01*
X203890476Y-87907761D01*
X203795238Y-87955380D01*
X203509523Y-87955380D01*
X203414285Y-87907761D01*
X203366666Y-87860142D01*
X201207714Y-85597904D02*
X201874380Y-85597904D01*
X200826761Y-85836000D02*
X201541047Y-86074095D01*
X201541047Y-85455047D01*
X200874380Y-85169333D02*
X200874380Y-84502666D01*
X201874380Y-84931238D01*
X200874380Y-83931238D02*
X200874380Y-83836000D01*
X200922000Y-83740761D01*
X200969619Y-83693142D01*
X201064857Y-83645523D01*
X201255333Y-83597904D01*
X201493428Y-83597904D01*
X201683904Y-83645523D01*
X201779142Y-83693142D01*
X201826761Y-83740761D01*
X201874380Y-83836000D01*
X201874380Y-83931238D01*
X201826761Y-84026476D01*
X201779142Y-84074095D01*
X201683904Y-84121714D01*
X201493428Y-84169333D01*
X201255333Y-84169333D01*
X201064857Y-84121714D01*
X200969619Y-84074095D01*
X200922000Y-84026476D01*
X200874380Y-83931238D01*
X203033333Y-63825380D02*
X202700000Y-63349190D01*
X202461904Y-63825380D02*
X202461904Y-62825380D01*
X202842857Y-62825380D01*
X202938095Y-62873000D01*
X202985714Y-62920619D01*
X203033333Y-63015857D01*
X203033333Y-63158714D01*
X202985714Y-63253952D01*
X202938095Y-63301571D01*
X202842857Y-63349190D01*
X202461904Y-63349190D01*
X203414285Y-62920619D02*
X203461904Y-62873000D01*
X203557142Y-62825380D01*
X203795238Y-62825380D01*
X203890476Y-62873000D01*
X203938095Y-62920619D01*
X203985714Y-63015857D01*
X203985714Y-63111095D01*
X203938095Y-63253952D01*
X203366666Y-63825380D01*
X203985714Y-63825380D01*
X201461714Y-66674904D02*
X202128380Y-66674904D01*
X201080761Y-66913000D02*
X201795047Y-67151095D01*
X201795047Y-66532047D01*
X201128380Y-66246333D02*
X201128380Y-65579666D01*
X202128380Y-66008238D01*
X201128380Y-65008238D02*
X201128380Y-64913000D01*
X201176000Y-64817761D01*
X201223619Y-64770142D01*
X201318857Y-64722523D01*
X201509333Y-64674904D01*
X201747428Y-64674904D01*
X201937904Y-64722523D01*
X202033142Y-64770142D01*
X202080761Y-64817761D01*
X202128380Y-64913000D01*
X202128380Y-65008238D01*
X202080761Y-65103476D01*
X202033142Y-65151095D01*
X201937904Y-65198714D01*
X201747428Y-65246333D01*
X201509333Y-65246333D01*
X201318857Y-65198714D01*
X201223619Y-65151095D01*
X201176000Y-65103476D01*
X201128380Y-65008238D01*
X122633333Y-108147380D02*
X122300000Y-107671190D01*
X122061904Y-108147380D02*
X122061904Y-107147380D01*
X122442857Y-107147380D01*
X122538095Y-107195000D01*
X122585714Y-107242619D01*
X122633333Y-107337857D01*
X122633333Y-107480714D01*
X122585714Y-107575952D01*
X122538095Y-107623571D01*
X122442857Y-107671190D01*
X122061904Y-107671190D01*
X123585714Y-108147380D02*
X123014285Y-108147380D01*
X123300000Y-108147380D02*
X123300000Y-107147380D01*
X123204761Y-107290238D01*
X123109523Y-107385476D01*
X123014285Y-107433095D01*
X121538095Y-103942619D02*
X121585714Y-103895000D01*
X121680952Y-103847380D01*
X121919047Y-103847380D01*
X122014285Y-103895000D01*
X122061904Y-103942619D01*
X122109523Y-104037857D01*
X122109523Y-104133095D01*
X122061904Y-104275952D01*
X121490476Y-104847380D01*
X122109523Y-104847380D01*
X122442857Y-103847380D02*
X123109523Y-103847380D01*
X122680952Y-104847380D01*
X123490476Y-104847380D02*
X123490476Y-103847380D01*
X124061904Y-104847380D02*
X123633333Y-104275952D01*
X124061904Y-103847380D02*
X123490476Y-104418809D01*
X157257809Y-91543190D02*
X157257809Y-92019380D01*
X156924476Y-91019380D02*
X157257809Y-91543190D01*
X157591142Y-91019380D01*
X158448285Y-92019380D02*
X157876857Y-92019380D01*
X158162571Y-92019380D02*
X158162571Y-91019380D01*
X158067333Y-91162238D01*
X157972095Y-91257476D01*
X157876857Y-91305095D01*
X165663619Y-90526904D02*
X165616000Y-90479285D01*
X165568380Y-90384047D01*
X165568380Y-90145952D01*
X165616000Y-90050714D01*
X165663619Y-90003095D01*
X165758857Y-89955476D01*
X165854095Y-89955476D01*
X165996952Y-90003095D01*
X166568380Y-90574523D01*
X166568380Y-89955476D01*
X165568380Y-89336428D02*
X165568380Y-89241190D01*
X165616000Y-89145952D01*
X165663619Y-89098333D01*
X165758857Y-89050714D01*
X165949333Y-89003095D01*
X166187428Y-89003095D01*
X166377904Y-89050714D01*
X166473142Y-89098333D01*
X166520761Y-89145952D01*
X166568380Y-89241190D01*
X166568380Y-89336428D01*
X166520761Y-89431666D01*
X166473142Y-89479285D01*
X166377904Y-89526904D01*
X166187428Y-89574523D01*
X165949333Y-89574523D01*
X165758857Y-89526904D01*
X165663619Y-89479285D01*
X165616000Y-89431666D01*
X165568380Y-89336428D01*
X166568380Y-88574523D02*
X165568380Y-88574523D01*
X166282666Y-88241190D01*
X165568380Y-87907857D01*
X166568380Y-87907857D01*
X166568380Y-87431666D02*
X165568380Y-87431666D01*
X166044571Y-87431666D02*
X166044571Y-86860238D01*
X166568380Y-86860238D02*
X165568380Y-86860238D01*
X165901714Y-86479285D02*
X165901714Y-85955476D01*
X166568380Y-86479285D01*
X166568380Y-85955476D01*
X125592380Y-76834904D02*
X126401904Y-76834904D01*
X126497142Y-76787285D01*
X126544761Y-76739666D01*
X126592380Y-76644428D01*
X126592380Y-76453952D01*
X126544761Y-76358714D01*
X126497142Y-76311095D01*
X126401904Y-76263476D01*
X125592380Y-76263476D01*
X125687619Y-75834904D02*
X125640000Y-75787285D01*
X125592380Y-75692047D01*
X125592380Y-75453952D01*
X125640000Y-75358714D01*
X125687619Y-75311095D01*
X125782857Y-75263476D01*
X125878095Y-75263476D01*
X126020952Y-75311095D01*
X126592380Y-75882523D01*
X126592380Y-75263476D01*
X133392380Y-78184047D02*
X133392380Y-77993571D01*
X133344761Y-77898333D01*
X133297142Y-77850714D01*
X133154285Y-77755476D01*
X132963809Y-77707857D01*
X132582857Y-77707857D01*
X132487619Y-77755476D01*
X132440000Y-77803095D01*
X132392380Y-77898333D01*
X132392380Y-78088809D01*
X132440000Y-78184047D01*
X132487619Y-78231666D01*
X132582857Y-78279285D01*
X132820952Y-78279285D01*
X132916190Y-78231666D01*
X132963809Y-78184047D01*
X133011428Y-78088809D01*
X133011428Y-77898333D01*
X132963809Y-77803095D01*
X132916190Y-77755476D01*
X132820952Y-77707857D01*
X132392380Y-77374523D02*
X132392380Y-76755476D01*
X132773333Y-77088809D01*
X132773333Y-76945952D01*
X132820952Y-76850714D01*
X132868571Y-76803095D01*
X132963809Y-76755476D01*
X133201904Y-76755476D01*
X133297142Y-76803095D01*
X133344761Y-76850714D01*
X133392380Y-76945952D01*
X133392380Y-77231666D01*
X133344761Y-77326904D01*
X133297142Y-77374523D01*
X133297142Y-75755476D02*
X133344761Y-75803095D01*
X133392380Y-75945952D01*
X133392380Y-76041190D01*
X133344761Y-76184047D01*
X133249523Y-76279285D01*
X133154285Y-76326904D01*
X132963809Y-76374523D01*
X132820952Y-76374523D01*
X132630476Y-76326904D01*
X132535238Y-76279285D01*
X132440000Y-76184047D01*
X132392380Y-76041190D01*
X132392380Y-75945952D01*
X132440000Y-75803095D01*
X132487619Y-75755476D01*
X132392380Y-74898333D02*
X132392380Y-75088809D01*
X132440000Y-75184047D01*
X132487619Y-75231666D01*
X132630476Y-75326904D01*
X132820952Y-75374523D01*
X133201904Y-75374523D01*
X133297142Y-75326904D01*
X133344761Y-75279285D01*
X133392380Y-75184047D01*
X133392380Y-74993571D01*
X133344761Y-74898333D01*
X133297142Y-74850714D01*
X133201904Y-74803095D01*
X132963809Y-74803095D01*
X132868571Y-74850714D01*
X132820952Y-74898333D01*
X132773333Y-74993571D01*
X132773333Y-75184047D01*
X132820952Y-75279285D01*
X132868571Y-75326904D01*
X132963809Y-75374523D01*
X132725714Y-73945952D02*
X133392380Y-73945952D01*
X132344761Y-74184047D02*
X133059047Y-74422142D01*
X133059047Y-73803095D01*
X133392380Y-73422142D02*
X132392380Y-73422142D01*
X132392380Y-73184047D01*
X132440000Y-73041190D01*
X132535238Y-72945952D01*
X132630476Y-72898333D01*
X132820952Y-72850714D01*
X132963809Y-72850714D01*
X133154285Y-72898333D01*
X133249523Y-72945952D01*
X133344761Y-73041190D01*
X133392380Y-73184047D01*
X133392380Y-73422142D01*
X125182380Y-102361904D02*
X125991904Y-102361904D01*
X126087142Y-102314285D01*
X126134761Y-102266666D01*
X126182380Y-102171428D01*
X126182380Y-101980952D01*
X126134761Y-101885714D01*
X126087142Y-101838095D01*
X125991904Y-101790476D01*
X125182380Y-101790476D01*
X126182380Y-100790476D02*
X126182380Y-101361904D01*
X126182380Y-101076190D02*
X125182380Y-101076190D01*
X125325238Y-101171428D01*
X125420476Y-101266666D01*
X125468095Y-101361904D01*
X135914285Y-102052380D02*
X135580952Y-101576190D01*
X135342857Y-102052380D02*
X135342857Y-101052380D01*
X135723809Y-101052380D01*
X135819047Y-101100000D01*
X135866666Y-101147619D01*
X135914285Y-101242857D01*
X135914285Y-101385714D01*
X135866666Y-101480952D01*
X135819047Y-101528571D01*
X135723809Y-101576190D01*
X135342857Y-101576190D01*
X136200000Y-101052380D02*
X136771428Y-101052380D01*
X136485714Y-102052380D02*
X136485714Y-101052380D01*
X137580952Y-102052380D02*
X137104761Y-102052380D01*
X137104761Y-101052380D01*
X138057142Y-101480952D02*
X137961904Y-101433333D01*
X137914285Y-101385714D01*
X137866666Y-101290476D01*
X137866666Y-101242857D01*
X137914285Y-101147619D01*
X137961904Y-101100000D01*
X138057142Y-101052380D01*
X138247619Y-101052380D01*
X138342857Y-101100000D01*
X138390476Y-101147619D01*
X138438095Y-101242857D01*
X138438095Y-101290476D01*
X138390476Y-101385714D01*
X138342857Y-101433333D01*
X138247619Y-101480952D01*
X138057142Y-101480952D01*
X137961904Y-101528571D01*
X137914285Y-101576190D01*
X137866666Y-101671428D01*
X137866666Y-101861904D01*
X137914285Y-101957142D01*
X137961904Y-102004761D01*
X138057142Y-102052380D01*
X138247619Y-102052380D01*
X138342857Y-102004761D01*
X138390476Y-101957142D01*
X138438095Y-101861904D01*
X138438095Y-101671428D01*
X138390476Y-101576190D01*
X138342857Y-101528571D01*
X138247619Y-101480952D01*
X139057142Y-101052380D02*
X139152380Y-101052380D01*
X139247619Y-101100000D01*
X139295238Y-101147619D01*
X139342857Y-101242857D01*
X139390476Y-101433333D01*
X139390476Y-101671428D01*
X139342857Y-101861904D01*
X139295238Y-101957142D01*
X139247619Y-102004761D01*
X139152380Y-102052380D01*
X139057142Y-102052380D01*
X138961904Y-102004761D01*
X138914285Y-101957142D01*
X138866666Y-101861904D01*
X138819047Y-101671428D01*
X138819047Y-101433333D01*
X138866666Y-101242857D01*
X138914285Y-101147619D01*
X138961904Y-101100000D01*
X139057142Y-101052380D01*
X140342857Y-102052380D02*
X139771428Y-102052380D01*
X140057142Y-102052380D02*
X140057142Y-101052380D01*
X139961904Y-101195238D01*
X139866666Y-101290476D01*
X139771428Y-101338095D01*
X140819047Y-102052380D02*
X141009523Y-102052380D01*
X141104761Y-102004761D01*
X141152380Y-101957142D01*
X141247619Y-101814285D01*
X141295238Y-101623809D01*
X141295238Y-101242857D01*
X141247619Y-101147619D01*
X141200000Y-101100000D01*
X141104761Y-101052380D01*
X140914285Y-101052380D01*
X140819047Y-101100000D01*
X140771428Y-101147619D01*
X140723809Y-101242857D01*
X140723809Y-101480952D01*
X140771428Y-101576190D01*
X140819047Y-101623809D01*
X140914285Y-101671428D01*
X141104761Y-101671428D01*
X141200000Y-101623809D01*
X141247619Y-101576190D01*
X141295238Y-101480952D01*
X141676190Y-101766666D02*
X142152380Y-101766666D01*
X141580952Y-102052380D02*
X141914285Y-101052380D01*
X142247619Y-102052380D01*
X142533333Y-102004761D02*
X142676190Y-102052380D01*
X142914285Y-102052380D01*
X143009523Y-102004761D01*
X143057142Y-101957142D01*
X143104761Y-101861904D01*
X143104761Y-101766666D01*
X143057142Y-101671428D01*
X143009523Y-101623809D01*
X142914285Y-101576190D01*
X142723809Y-101528571D01*
X142628571Y-101480952D01*
X142580952Y-101433333D01*
X142533333Y-101338095D01*
X142533333Y-101242857D01*
X142580952Y-101147619D01*
X142628571Y-101100000D01*
X142723809Y-101052380D01*
X142961904Y-101052380D01*
X143104761Y-101100000D01*
X197112095Y-83272380D02*
X197683523Y-83272380D01*
X197397809Y-84272380D02*
X197397809Y-83272380D01*
X198588285Y-84272380D02*
X198254952Y-83796190D01*
X198016857Y-84272380D02*
X198016857Y-83272380D01*
X198397809Y-83272380D01*
X198493047Y-83320000D01*
X198540666Y-83367619D01*
X198588285Y-83462857D01*
X198588285Y-83605714D01*
X198540666Y-83700952D01*
X198493047Y-83748571D01*
X198397809Y-83796190D01*
X198016857Y-83796190D01*
X199540666Y-84272380D02*
X198969238Y-84272380D01*
X199254952Y-84272380D02*
X199254952Y-83272380D01*
X199159714Y-83415238D01*
X199064476Y-83510476D01*
X198969238Y-83558095D01*
X197302380Y-80326952D02*
X196302380Y-80326952D01*
X196302380Y-79946000D01*
X196350000Y-79850761D01*
X196397619Y-79803142D01*
X196492857Y-79755523D01*
X196635714Y-79755523D01*
X196730952Y-79803142D01*
X196778571Y-79850761D01*
X196826190Y-79946000D01*
X196826190Y-80326952D01*
X196302380Y-79469809D02*
X196302380Y-78898380D01*
X197302380Y-79184095D02*
X196302380Y-79184095D01*
X196302380Y-78136476D02*
X196302380Y-78326952D01*
X196350000Y-78422190D01*
X196397619Y-78469809D01*
X196540476Y-78565047D01*
X196730952Y-78612666D01*
X197111904Y-78612666D01*
X197207142Y-78565047D01*
X197254761Y-78517428D01*
X197302380Y-78422190D01*
X197302380Y-78231714D01*
X197254761Y-78136476D01*
X197207142Y-78088857D01*
X197111904Y-78041238D01*
X196873809Y-78041238D01*
X196778571Y-78088857D01*
X196730952Y-78136476D01*
X196683333Y-78231714D01*
X196683333Y-78422190D01*
X196730952Y-78517428D01*
X196778571Y-78565047D01*
X196873809Y-78612666D01*
X197302380Y-77088857D02*
X197302380Y-77660285D01*
X197302380Y-77374571D02*
X196302380Y-77374571D01*
X196445238Y-77469809D01*
X196540476Y-77565047D01*
X196588095Y-77660285D01*
X196302380Y-76469809D02*
X196302380Y-76374571D01*
X196350000Y-76279333D01*
X196397619Y-76231714D01*
X196492857Y-76184095D01*
X196683333Y-76136476D01*
X196921428Y-76136476D01*
X197111904Y-76184095D01*
X197207142Y-76231714D01*
X197254761Y-76279333D01*
X197302380Y-76374571D01*
X197302380Y-76469809D01*
X197254761Y-76565047D01*
X197207142Y-76612666D01*
X197111904Y-76660285D01*
X196921428Y-76707904D01*
X196683333Y-76707904D01*
X196492857Y-76660285D01*
X196397619Y-76612666D01*
X196350000Y-76565047D01*
X196302380Y-76469809D01*
X197302380Y-75184095D02*
X197302380Y-75755523D01*
X197302380Y-75469809D02*
X196302380Y-75469809D01*
X196445238Y-75565047D01*
X196540476Y-75660285D01*
X196588095Y-75755523D01*
X196302380Y-74850761D02*
X196302380Y-74184095D01*
X197302380Y-74612666D01*
X197302380Y-73803142D02*
X196302380Y-73803142D01*
X196302380Y-73422190D01*
X196350000Y-73326952D01*
X196397619Y-73279333D01*
X196492857Y-73231714D01*
X196635714Y-73231714D01*
X196730952Y-73279333D01*
X196778571Y-73326952D01*
X196826190Y-73422190D01*
X196826190Y-73803142D01*
X196778571Y-72803142D02*
X196778571Y-72469809D01*
X197302380Y-72326952D02*
X197302380Y-72803142D01*
X196302380Y-72803142D01*
X196302380Y-72326952D01*
X197302380Y-71422190D02*
X197302380Y-71898380D01*
X196302380Y-71898380D01*
X209978666Y-85939380D02*
X209978666Y-86653666D01*
X209931047Y-86796523D01*
X209835809Y-86891761D01*
X209692952Y-86939380D01*
X209597714Y-86939380D01*
X210407238Y-86034619D02*
X210454857Y-85987000D01*
X210550095Y-85939380D01*
X210788190Y-85939380D01*
X210883428Y-85987000D01*
X210931047Y-86034619D01*
X210978666Y-86129857D01*
X210978666Y-86225095D01*
X210931047Y-86367952D01*
X210359619Y-86939380D01*
X210978666Y-86939380D01*
X217876380Y-78243809D02*
X217400190Y-78577142D01*
X217876380Y-78815238D02*
X216876380Y-78815238D01*
X216876380Y-78434285D01*
X216924000Y-78339047D01*
X216971619Y-78291428D01*
X217066857Y-78243809D01*
X217209714Y-78243809D01*
X217304952Y-78291428D01*
X217352571Y-78339047D01*
X217400190Y-78434285D01*
X217400190Y-78815238D01*
X216876380Y-77529523D02*
X217590666Y-77529523D01*
X217733523Y-77577142D01*
X217828761Y-77672380D01*
X217876380Y-77815238D01*
X217876380Y-77910476D01*
X217209714Y-76624761D02*
X217876380Y-76624761D01*
X216828761Y-76862857D02*
X217543047Y-77100952D01*
X217543047Y-76481904D01*
X216876380Y-75624761D02*
X216876380Y-76100952D01*
X217352571Y-76148571D01*
X217304952Y-76100952D01*
X217257333Y-76005714D01*
X217257333Y-75767619D01*
X217304952Y-75672380D01*
X217352571Y-75624761D01*
X217447809Y-75577142D01*
X217685904Y-75577142D01*
X217781142Y-75624761D01*
X217828761Y-75672380D01*
X217876380Y-75767619D01*
X217876380Y-76005714D01*
X217828761Y-76100952D01*
X217781142Y-76148571D01*
X150472142Y-89946666D02*
X150519761Y-89994285D01*
X150567380Y-90137142D01*
X150567380Y-90232380D01*
X150519761Y-90375238D01*
X150424523Y-90470476D01*
X150329285Y-90518095D01*
X150138809Y-90565714D01*
X149995952Y-90565714D01*
X149805476Y-90518095D01*
X149710238Y-90470476D01*
X149615000Y-90375238D01*
X149567380Y-90232380D01*
X149567380Y-90137142D01*
X149615000Y-89994285D01*
X149662619Y-89946666D01*
X149662619Y-89565714D02*
X149615000Y-89518095D01*
X149567380Y-89422857D01*
X149567380Y-89184761D01*
X149615000Y-89089523D01*
X149662619Y-89041904D01*
X149757857Y-88994285D01*
X149853095Y-88994285D01*
X149995952Y-89041904D01*
X150567380Y-89613333D01*
X150567380Y-88994285D01*
X150677714Y-86542619D02*
X150725333Y-86495000D01*
X150820571Y-86447380D01*
X151058666Y-86447380D01*
X151153904Y-86495000D01*
X151201523Y-86542619D01*
X151249142Y-86637857D01*
X151249142Y-86733095D01*
X151201523Y-86875952D01*
X150630095Y-87447380D01*
X151249142Y-87447380D01*
X151630095Y-86542619D02*
X151677714Y-86495000D01*
X151772952Y-86447380D01*
X152011047Y-86447380D01*
X152106285Y-86495000D01*
X152153904Y-86542619D01*
X152201523Y-86637857D01*
X152201523Y-86733095D01*
X152153904Y-86875952D01*
X151582476Y-87447380D01*
X152201523Y-87447380D01*
X152630095Y-86780714D02*
X152630095Y-87780714D01*
X152630095Y-86828333D02*
X152725333Y-86780714D01*
X152915809Y-86780714D01*
X153011047Y-86828333D01*
X153058666Y-86875952D01*
X153106285Y-86971190D01*
X153106285Y-87256904D01*
X153058666Y-87352142D01*
X153011047Y-87399761D01*
X152915809Y-87447380D01*
X152725333Y-87447380D01*
X152630095Y-87399761D01*
X158853142Y-93384666D02*
X158900761Y-93432285D01*
X158948380Y-93575142D01*
X158948380Y-93670380D01*
X158900761Y-93813238D01*
X158805523Y-93908476D01*
X158710285Y-93956095D01*
X158519809Y-94003714D01*
X158376952Y-94003714D01*
X158186476Y-93956095D01*
X158091238Y-93908476D01*
X157996000Y-93813238D01*
X157948380Y-93670380D01*
X157948380Y-93575142D01*
X157996000Y-93432285D01*
X158043619Y-93384666D01*
X158948380Y-92432285D02*
X158948380Y-93003714D01*
X158948380Y-92718000D02*
X157948380Y-92718000D01*
X158091238Y-92813238D01*
X158186476Y-92908476D01*
X158234095Y-93003714D01*
X163250619Y-93924285D02*
X163203000Y-93876666D01*
X163155380Y-93781428D01*
X163155380Y-93543333D01*
X163203000Y-93448095D01*
X163250619Y-93400476D01*
X163345857Y-93352857D01*
X163441095Y-93352857D01*
X163583952Y-93400476D01*
X164155380Y-93971904D01*
X164155380Y-93352857D01*
X163250619Y-92971904D02*
X163203000Y-92924285D01*
X163155380Y-92829047D01*
X163155380Y-92590952D01*
X163203000Y-92495714D01*
X163250619Y-92448095D01*
X163345857Y-92400476D01*
X163441095Y-92400476D01*
X163583952Y-92448095D01*
X164155380Y-93019523D01*
X164155380Y-92400476D01*
X163488714Y-91971904D02*
X164488714Y-91971904D01*
X163536333Y-91971904D02*
X163488714Y-91876666D01*
X163488714Y-91686190D01*
X163536333Y-91590952D01*
X163583952Y-91543333D01*
X163679190Y-91495714D01*
X163964904Y-91495714D01*
X164060142Y-91543333D01*
X164107761Y-91590952D01*
X164155380Y-91686190D01*
X164155380Y-91876666D01*
X164107761Y-91971904D01*
M02*
